G04 #@! TF.GenerationSoftware,KiCad,Pcbnew,(5.1.2)-2*
G04 #@! TF.CreationDate,2019-08-16T13:43:52-05:00*
G04 #@! TF.ProjectId,rootpad,726f6f74-7061-4642-9e6b-696361645f70,rev?*
G04 #@! TF.SameCoordinates,Original*
G04 #@! TF.FileFunction,Soldermask,Bot*
G04 #@! TF.FilePolarity,Negative*
%FSLAX46Y46*%
G04 Gerber Fmt 4.6, Leading zero omitted, Abs format (unit mm)*
G04 Created by KiCad (PCBNEW (5.1.2)-2) date 2019-08-16 13:43:52*
%MOMM*%
%LPD*%
G04 APERTURE LIST*
%ADD10C,0.100000*%
G04 APERTURE END LIST*
D10*
G36*
X139558520Y-148170520D02*
G01*
X138256520Y-148170520D01*
X138256520Y-147168520D01*
X139558520Y-147168520D01*
X139558520Y-148170520D01*
X139558520Y-148170520D01*
G37*
G36*
X196708520Y-148170520D02*
G01*
X195406520Y-148170520D01*
X195406520Y-147168520D01*
X196708520Y-147168520D01*
X196708520Y-148170520D01*
X196708520Y-148170520D01*
G37*
G36*
X158608520Y-148170520D02*
G01*
X157306520Y-148170520D01*
X157306520Y-147168520D01*
X158608520Y-147168520D01*
X158608520Y-148170520D01*
X158608520Y-148170520D01*
G37*
G36*
X177658520Y-148169250D02*
G01*
X176356520Y-148169250D01*
X176356520Y-147167250D01*
X177658520Y-147167250D01*
X177658520Y-148169250D01*
X177658520Y-148169250D01*
G37*
G36*
X130772744Y-144084954D02*
G01*
X130990744Y-144175253D01*
X131144893Y-144239103D01*
X131479818Y-144462893D01*
X131764647Y-144747722D01*
X131988437Y-145082647D01*
X132020832Y-145160856D01*
X132142586Y-145454796D01*
X132221170Y-145849864D01*
X132221170Y-146252676D01*
X132142586Y-146647744D01*
X132091721Y-146770542D01*
X131988437Y-147019893D01*
X131764647Y-147354818D01*
X131479818Y-147639647D01*
X131144893Y-147863437D01*
X130990744Y-147927287D01*
X130772744Y-148017586D01*
X130377676Y-148096170D01*
X129974864Y-148096170D01*
X129579796Y-148017586D01*
X129361796Y-147927287D01*
X129207647Y-147863437D01*
X128872722Y-147639647D01*
X128587893Y-147354818D01*
X128364103Y-147019893D01*
X128260819Y-146770542D01*
X128209954Y-146647744D01*
X128131370Y-146252676D01*
X128131370Y-145849864D01*
X128209954Y-145454796D01*
X128331708Y-145160856D01*
X128364103Y-145082647D01*
X128587893Y-144747722D01*
X128872722Y-144462893D01*
X129207647Y-144239103D01*
X129361796Y-144175253D01*
X129579796Y-144084954D01*
X129974864Y-144006370D01*
X130377676Y-144006370D01*
X130772744Y-144084954D01*
X130772744Y-144084954D01*
G37*
G36*
X187922744Y-144084954D02*
G01*
X188140744Y-144175253D01*
X188294893Y-144239103D01*
X188629818Y-144462893D01*
X188914647Y-144747722D01*
X189138437Y-145082647D01*
X189170832Y-145160856D01*
X189292586Y-145454796D01*
X189371170Y-145849864D01*
X189371170Y-146252676D01*
X189292586Y-146647744D01*
X189241721Y-146770542D01*
X189138437Y-147019893D01*
X188914647Y-147354818D01*
X188629818Y-147639647D01*
X188294893Y-147863437D01*
X188140744Y-147927287D01*
X187922744Y-148017586D01*
X187527676Y-148096170D01*
X187124864Y-148096170D01*
X186729796Y-148017586D01*
X186511796Y-147927287D01*
X186357647Y-147863437D01*
X186022722Y-147639647D01*
X185737893Y-147354818D01*
X185514103Y-147019893D01*
X185410819Y-146770542D01*
X185359954Y-146647744D01*
X185281370Y-146252676D01*
X185281370Y-145849864D01*
X185359954Y-145454796D01*
X185481708Y-145160856D01*
X185514103Y-145082647D01*
X185737893Y-144747722D01*
X186022722Y-144462893D01*
X186357647Y-144239103D01*
X186511796Y-144175253D01*
X186729796Y-144084954D01*
X187124864Y-144006370D01*
X187527676Y-144006370D01*
X187922744Y-144084954D01*
X187922744Y-144084954D01*
G37*
G36*
X168872744Y-144084954D02*
G01*
X169090744Y-144175253D01*
X169244893Y-144239103D01*
X169579818Y-144462893D01*
X169864647Y-144747722D01*
X170088437Y-145082647D01*
X170120832Y-145160856D01*
X170242586Y-145454796D01*
X170321170Y-145849864D01*
X170321170Y-146252676D01*
X170242586Y-146647744D01*
X170191721Y-146770542D01*
X170088437Y-147019893D01*
X169864647Y-147354818D01*
X169579818Y-147639647D01*
X169244893Y-147863437D01*
X169090744Y-147927287D01*
X168872744Y-148017586D01*
X168477676Y-148096170D01*
X168074864Y-148096170D01*
X167679796Y-148017586D01*
X167461796Y-147927287D01*
X167307647Y-147863437D01*
X166972722Y-147639647D01*
X166687893Y-147354818D01*
X166464103Y-147019893D01*
X166360819Y-146770542D01*
X166309954Y-146647744D01*
X166231370Y-146252676D01*
X166231370Y-145849864D01*
X166309954Y-145454796D01*
X166431708Y-145160856D01*
X166464103Y-145082647D01*
X166687893Y-144747722D01*
X166972722Y-144462893D01*
X167307647Y-144239103D01*
X167461796Y-144175253D01*
X167679796Y-144084954D01*
X168074864Y-144006370D01*
X168477676Y-144006370D01*
X168872744Y-144084954D01*
X168872744Y-144084954D01*
G37*
G36*
X149822744Y-144084954D02*
G01*
X150040744Y-144175253D01*
X150194893Y-144239103D01*
X150529818Y-144462893D01*
X150814647Y-144747722D01*
X151038437Y-145082647D01*
X151070832Y-145160856D01*
X151192586Y-145454796D01*
X151271170Y-145849864D01*
X151271170Y-146252676D01*
X151192586Y-146647744D01*
X151141721Y-146770542D01*
X151038437Y-147019893D01*
X150814647Y-147354818D01*
X150529818Y-147639647D01*
X150194893Y-147863437D01*
X150040744Y-147927287D01*
X149822744Y-148017586D01*
X149427676Y-148096170D01*
X149024864Y-148096170D01*
X148629796Y-148017586D01*
X148411796Y-147927287D01*
X148257647Y-147863437D01*
X147922722Y-147639647D01*
X147637893Y-147354818D01*
X147414103Y-147019893D01*
X147310819Y-146770542D01*
X147259954Y-146647744D01*
X147181370Y-146252676D01*
X147181370Y-145849864D01*
X147259954Y-145454796D01*
X147381708Y-145160856D01*
X147414103Y-145082647D01*
X147637893Y-144747722D01*
X147922722Y-144462893D01*
X148257647Y-144239103D01*
X148411796Y-144175253D01*
X148629796Y-144084954D01*
X149024864Y-144006370D01*
X149427676Y-144006370D01*
X149822744Y-144084954D01*
X149822744Y-144084954D01*
G37*
G36*
X135526374Y-145160855D02*
G01*
X135694896Y-145230659D01*
X135846561Y-145331998D01*
X135975542Y-145460979D01*
X136076881Y-145612644D01*
X136146685Y-145781166D01*
X136182270Y-145960067D01*
X136182270Y-146142473D01*
X136146685Y-146321374D01*
X136076881Y-146489896D01*
X135975542Y-146641561D01*
X135846561Y-146770542D01*
X135694896Y-146871881D01*
X135526374Y-146941685D01*
X135347473Y-146977270D01*
X135165067Y-146977270D01*
X134986166Y-146941685D01*
X134817644Y-146871881D01*
X134665979Y-146770542D01*
X134536998Y-146641561D01*
X134435659Y-146489896D01*
X134365855Y-146321374D01*
X134330270Y-146142473D01*
X134330270Y-145960067D01*
X134365855Y-145781166D01*
X134435659Y-145612644D01*
X134536998Y-145460979D01*
X134665979Y-145331998D01*
X134817644Y-145230659D01*
X134986166Y-145160855D01*
X135165067Y-145125270D01*
X135347473Y-145125270D01*
X135526374Y-145160855D01*
X135526374Y-145160855D01*
G37*
G36*
X182516374Y-145160855D02*
G01*
X182684896Y-145230659D01*
X182836561Y-145331998D01*
X182965542Y-145460979D01*
X183066881Y-145612644D01*
X183136685Y-145781166D01*
X183172270Y-145960067D01*
X183172270Y-146142473D01*
X183136685Y-146321374D01*
X183066881Y-146489896D01*
X182965542Y-146641561D01*
X182836561Y-146770542D01*
X182684896Y-146871881D01*
X182516374Y-146941685D01*
X182337473Y-146977270D01*
X182155067Y-146977270D01*
X181976166Y-146941685D01*
X181807644Y-146871881D01*
X181655979Y-146770542D01*
X181526998Y-146641561D01*
X181425659Y-146489896D01*
X181355855Y-146321374D01*
X181320270Y-146142473D01*
X181320270Y-145960067D01*
X181355855Y-145781166D01*
X181425659Y-145612644D01*
X181526998Y-145460979D01*
X181655979Y-145331998D01*
X181807644Y-145230659D01*
X181976166Y-145160855D01*
X182155067Y-145125270D01*
X182337473Y-145125270D01*
X182516374Y-145160855D01*
X182516374Y-145160855D01*
G37*
G36*
X173626374Y-145160855D02*
G01*
X173794896Y-145230659D01*
X173946561Y-145331998D01*
X174075542Y-145460979D01*
X174176881Y-145612644D01*
X174246685Y-145781166D01*
X174282270Y-145960067D01*
X174282270Y-146142473D01*
X174246685Y-146321374D01*
X174176881Y-146489896D01*
X174075542Y-146641561D01*
X173946561Y-146770542D01*
X173794896Y-146871881D01*
X173626374Y-146941685D01*
X173447473Y-146977270D01*
X173265067Y-146977270D01*
X173086166Y-146941685D01*
X172917644Y-146871881D01*
X172765979Y-146770542D01*
X172636998Y-146641561D01*
X172535659Y-146489896D01*
X172465855Y-146321374D01*
X172430270Y-146142473D01*
X172430270Y-145960067D01*
X172465855Y-145781166D01*
X172535659Y-145612644D01*
X172636998Y-145460979D01*
X172765979Y-145331998D01*
X172917644Y-145230659D01*
X173086166Y-145160855D01*
X173265067Y-145125270D01*
X173447473Y-145125270D01*
X173626374Y-145160855D01*
X173626374Y-145160855D01*
G37*
G36*
X154576374Y-145160855D02*
G01*
X154744896Y-145230659D01*
X154896561Y-145331998D01*
X155025542Y-145460979D01*
X155126881Y-145612644D01*
X155196685Y-145781166D01*
X155232270Y-145960067D01*
X155232270Y-146142473D01*
X155196685Y-146321374D01*
X155126881Y-146489896D01*
X155025542Y-146641561D01*
X154896561Y-146770542D01*
X154744896Y-146871881D01*
X154576374Y-146941685D01*
X154397473Y-146977270D01*
X154215067Y-146977270D01*
X154036166Y-146941685D01*
X153867644Y-146871881D01*
X153715979Y-146770542D01*
X153586998Y-146641561D01*
X153485659Y-146489896D01*
X153415855Y-146321374D01*
X153380270Y-146142473D01*
X153380270Y-145960067D01*
X153415855Y-145781166D01*
X153485659Y-145612644D01*
X153586998Y-145460979D01*
X153715979Y-145331998D01*
X153867644Y-145230659D01*
X154036166Y-145160855D01*
X154215067Y-145125270D01*
X154397473Y-145125270D01*
X154576374Y-145160855D01*
X154576374Y-145160855D01*
G37*
G36*
X125366374Y-145160855D02*
G01*
X125534896Y-145230659D01*
X125686561Y-145331998D01*
X125815542Y-145460979D01*
X125916881Y-145612644D01*
X125986685Y-145781166D01*
X126022270Y-145960067D01*
X126022270Y-146142473D01*
X125986685Y-146321374D01*
X125916881Y-146489896D01*
X125815542Y-146641561D01*
X125686561Y-146770542D01*
X125534896Y-146871881D01*
X125366374Y-146941685D01*
X125187473Y-146977270D01*
X125005067Y-146977270D01*
X124826166Y-146941685D01*
X124657644Y-146871881D01*
X124505979Y-146770542D01*
X124376998Y-146641561D01*
X124275659Y-146489896D01*
X124205855Y-146321374D01*
X124170270Y-146142473D01*
X124170270Y-145960067D01*
X124205855Y-145781166D01*
X124275659Y-145612644D01*
X124376998Y-145460979D01*
X124505979Y-145331998D01*
X124657644Y-145230659D01*
X124826166Y-145160855D01*
X125005067Y-145125270D01*
X125187473Y-145125270D01*
X125366374Y-145160855D01*
X125366374Y-145160855D01*
G37*
G36*
X144416374Y-145160855D02*
G01*
X144584896Y-145230659D01*
X144736561Y-145331998D01*
X144865542Y-145460979D01*
X144966881Y-145612644D01*
X145036685Y-145781166D01*
X145072270Y-145960067D01*
X145072270Y-146142473D01*
X145036685Y-146321374D01*
X144966881Y-146489896D01*
X144865542Y-146641561D01*
X144736561Y-146770542D01*
X144584896Y-146871881D01*
X144416374Y-146941685D01*
X144237473Y-146977270D01*
X144055067Y-146977270D01*
X143876166Y-146941685D01*
X143707644Y-146871881D01*
X143555979Y-146770542D01*
X143426998Y-146641561D01*
X143325659Y-146489896D01*
X143255855Y-146321374D01*
X143220270Y-146142473D01*
X143220270Y-145960067D01*
X143255855Y-145781166D01*
X143325659Y-145612644D01*
X143426998Y-145460979D01*
X143555979Y-145331998D01*
X143707644Y-145230659D01*
X143876166Y-145160855D01*
X144055067Y-145125270D01*
X144237473Y-145125270D01*
X144416374Y-145160855D01*
X144416374Y-145160855D01*
G37*
G36*
X163466374Y-145160855D02*
G01*
X163634896Y-145230659D01*
X163786561Y-145331998D01*
X163915542Y-145460979D01*
X164016881Y-145612644D01*
X164086685Y-145781166D01*
X164122270Y-145960067D01*
X164122270Y-146142473D01*
X164086685Y-146321374D01*
X164016881Y-146489896D01*
X163915542Y-146641561D01*
X163786561Y-146770542D01*
X163634896Y-146871881D01*
X163466374Y-146941685D01*
X163287473Y-146977270D01*
X163105067Y-146977270D01*
X162926166Y-146941685D01*
X162757644Y-146871881D01*
X162605979Y-146770542D01*
X162476998Y-146641561D01*
X162375659Y-146489896D01*
X162305855Y-146321374D01*
X162270270Y-146142473D01*
X162270270Y-145960067D01*
X162305855Y-145781166D01*
X162375659Y-145612644D01*
X162476998Y-145460979D01*
X162605979Y-145331998D01*
X162757644Y-145230659D01*
X162926166Y-145160855D01*
X163105067Y-145125270D01*
X163287473Y-145125270D01*
X163466374Y-145160855D01*
X163466374Y-145160855D01*
G37*
G36*
X192676374Y-145160855D02*
G01*
X192844896Y-145230659D01*
X192996561Y-145331998D01*
X193125542Y-145460979D01*
X193226881Y-145612644D01*
X193296685Y-145781166D01*
X193332270Y-145960067D01*
X193332270Y-146142473D01*
X193296685Y-146321374D01*
X193226881Y-146489896D01*
X193125542Y-146641561D01*
X192996561Y-146770542D01*
X192844896Y-146871881D01*
X192676374Y-146941685D01*
X192497473Y-146977270D01*
X192315067Y-146977270D01*
X192136166Y-146941685D01*
X191967644Y-146871881D01*
X191815979Y-146770542D01*
X191686998Y-146641561D01*
X191585659Y-146489896D01*
X191515855Y-146321374D01*
X191480270Y-146142473D01*
X191480270Y-145960067D01*
X191515855Y-145781166D01*
X191585659Y-145612644D01*
X191686998Y-145460979D01*
X191815979Y-145331998D01*
X191967644Y-145230659D01*
X192136166Y-145160855D01*
X192315067Y-145125270D01*
X192497473Y-145125270D01*
X192676374Y-145160855D01*
X192676374Y-145160855D01*
G37*
G36*
X196708520Y-144870520D02*
G01*
X195406520Y-144870520D01*
X195406520Y-143868520D01*
X196708520Y-143868520D01*
X196708520Y-144870520D01*
X196708520Y-144870520D01*
G37*
G36*
X139558520Y-144870520D02*
G01*
X138256520Y-144870520D01*
X138256520Y-143868520D01*
X139558520Y-143868520D01*
X139558520Y-144870520D01*
X139558520Y-144870520D01*
G37*
G36*
X158608520Y-144870520D02*
G01*
X157306520Y-144870520D01*
X157306520Y-143868520D01*
X158608520Y-143868520D01*
X158608520Y-144870520D01*
X158608520Y-144870520D01*
G37*
G36*
X177658520Y-144869250D02*
G01*
X176356520Y-144869250D01*
X176356520Y-143867250D01*
X177658520Y-143867250D01*
X177658520Y-144869250D01*
X177658520Y-144869250D01*
G37*
G36*
X183707830Y-142350334D02*
G01*
X183859297Y-142380463D01*
X184073315Y-142469112D01*
X184073316Y-142469113D01*
X184265924Y-142597809D01*
X184429731Y-142761616D01*
X184515528Y-142890021D01*
X184558428Y-142954225D01*
X184647077Y-143168243D01*
X184692270Y-143395444D01*
X184692270Y-143627096D01*
X184647077Y-143854297D01*
X184558428Y-144068315D01*
X184558427Y-144068316D01*
X184429731Y-144260924D01*
X184265924Y-144424731D01*
X184208810Y-144462893D01*
X184073315Y-144553428D01*
X183859297Y-144642077D01*
X183707830Y-144672206D01*
X183632097Y-144687270D01*
X183400443Y-144687270D01*
X183324710Y-144672206D01*
X183173243Y-144642077D01*
X182959225Y-144553428D01*
X182823730Y-144462893D01*
X182766616Y-144424731D01*
X182602809Y-144260924D01*
X182474113Y-144068316D01*
X182474112Y-144068315D01*
X182385463Y-143854297D01*
X182340270Y-143627096D01*
X182340270Y-143395444D01*
X182385463Y-143168243D01*
X182474112Y-142954225D01*
X182517012Y-142890021D01*
X182602809Y-142761616D01*
X182766616Y-142597809D01*
X182959224Y-142469113D01*
X182959225Y-142469112D01*
X183173243Y-142380463D01*
X183324710Y-142350334D01*
X183400443Y-142335270D01*
X183632097Y-142335270D01*
X183707830Y-142350334D01*
X183707830Y-142350334D01*
G37*
G36*
X126557830Y-142350334D02*
G01*
X126709297Y-142380463D01*
X126923315Y-142469112D01*
X126923316Y-142469113D01*
X127115924Y-142597809D01*
X127279731Y-142761616D01*
X127365528Y-142890021D01*
X127408428Y-142954225D01*
X127497077Y-143168243D01*
X127542270Y-143395444D01*
X127542270Y-143627096D01*
X127497077Y-143854297D01*
X127408428Y-144068315D01*
X127408427Y-144068316D01*
X127279731Y-144260924D01*
X127115924Y-144424731D01*
X127058810Y-144462893D01*
X126923315Y-144553428D01*
X126709297Y-144642077D01*
X126557830Y-144672206D01*
X126482097Y-144687270D01*
X126250443Y-144687270D01*
X126174710Y-144672206D01*
X126023243Y-144642077D01*
X125809225Y-144553428D01*
X125673730Y-144462893D01*
X125616616Y-144424731D01*
X125452809Y-144260924D01*
X125324113Y-144068316D01*
X125324112Y-144068315D01*
X125235463Y-143854297D01*
X125190270Y-143627096D01*
X125190270Y-143395444D01*
X125235463Y-143168243D01*
X125324112Y-142954225D01*
X125367012Y-142890021D01*
X125452809Y-142761616D01*
X125616616Y-142597809D01*
X125809224Y-142469113D01*
X125809225Y-142469112D01*
X126023243Y-142380463D01*
X126174710Y-142350334D01*
X126250443Y-142335270D01*
X126482097Y-142335270D01*
X126557830Y-142350334D01*
X126557830Y-142350334D01*
G37*
G36*
X164657830Y-142350334D02*
G01*
X164809297Y-142380463D01*
X165023315Y-142469112D01*
X165023316Y-142469113D01*
X165215924Y-142597809D01*
X165379731Y-142761616D01*
X165465528Y-142890021D01*
X165508428Y-142954225D01*
X165597077Y-143168243D01*
X165642270Y-143395444D01*
X165642270Y-143627096D01*
X165597077Y-143854297D01*
X165508428Y-144068315D01*
X165508427Y-144068316D01*
X165379731Y-144260924D01*
X165215924Y-144424731D01*
X165158810Y-144462893D01*
X165023315Y-144553428D01*
X164809297Y-144642077D01*
X164657830Y-144672206D01*
X164582097Y-144687270D01*
X164350443Y-144687270D01*
X164274710Y-144672206D01*
X164123243Y-144642077D01*
X163909225Y-144553428D01*
X163773730Y-144462893D01*
X163716616Y-144424731D01*
X163552809Y-144260924D01*
X163424113Y-144068316D01*
X163424112Y-144068315D01*
X163335463Y-143854297D01*
X163290270Y-143627096D01*
X163290270Y-143395444D01*
X163335463Y-143168243D01*
X163424112Y-142954225D01*
X163467012Y-142890021D01*
X163552809Y-142761616D01*
X163716616Y-142597809D01*
X163909224Y-142469113D01*
X163909225Y-142469112D01*
X164123243Y-142380463D01*
X164274710Y-142350334D01*
X164350443Y-142335270D01*
X164582097Y-142335270D01*
X164657830Y-142350334D01*
X164657830Y-142350334D01*
G37*
G36*
X145607830Y-142350334D02*
G01*
X145759297Y-142380463D01*
X145973315Y-142469112D01*
X145973316Y-142469113D01*
X146165924Y-142597809D01*
X146329731Y-142761616D01*
X146415528Y-142890021D01*
X146458428Y-142954225D01*
X146547077Y-143168243D01*
X146592270Y-143395444D01*
X146592270Y-143627096D01*
X146547077Y-143854297D01*
X146458428Y-144068315D01*
X146458427Y-144068316D01*
X146329731Y-144260924D01*
X146165924Y-144424731D01*
X146108810Y-144462893D01*
X145973315Y-144553428D01*
X145759297Y-144642077D01*
X145607830Y-144672206D01*
X145532097Y-144687270D01*
X145300443Y-144687270D01*
X145224710Y-144672206D01*
X145073243Y-144642077D01*
X144859225Y-144553428D01*
X144723730Y-144462893D01*
X144666616Y-144424731D01*
X144502809Y-144260924D01*
X144374113Y-144068316D01*
X144374112Y-144068315D01*
X144285463Y-143854297D01*
X144240270Y-143627096D01*
X144240270Y-143395444D01*
X144285463Y-143168243D01*
X144374112Y-142954225D01*
X144417012Y-142890021D01*
X144502809Y-142761616D01*
X144666616Y-142597809D01*
X144859224Y-142469113D01*
X144859225Y-142469112D01*
X145073243Y-142380463D01*
X145224710Y-142350334D01*
X145300443Y-142335270D01*
X145532097Y-142335270D01*
X145607830Y-142350334D01*
X145607830Y-142350334D01*
G37*
G36*
X171007830Y-139810334D02*
G01*
X171159297Y-139840463D01*
X171373315Y-139929112D01*
X171373316Y-139929113D01*
X171565924Y-140057809D01*
X171729731Y-140221616D01*
X171815528Y-140350021D01*
X171858428Y-140414225D01*
X171947077Y-140628243D01*
X171992270Y-140855444D01*
X171992270Y-141087096D01*
X171947077Y-141314297D01*
X171858428Y-141528315D01*
X171858427Y-141528316D01*
X171729731Y-141720924D01*
X171565924Y-141884731D01*
X171437519Y-141970528D01*
X171373315Y-142013428D01*
X171159297Y-142102077D01*
X171007830Y-142132206D01*
X170932097Y-142147270D01*
X170700443Y-142147270D01*
X170624710Y-142132206D01*
X170473243Y-142102077D01*
X170259225Y-142013428D01*
X170195021Y-141970528D01*
X170066616Y-141884731D01*
X169902809Y-141720924D01*
X169774113Y-141528316D01*
X169774112Y-141528315D01*
X169685463Y-141314297D01*
X169640270Y-141087096D01*
X169640270Y-140855444D01*
X169685463Y-140628243D01*
X169774112Y-140414225D01*
X169817012Y-140350021D01*
X169902809Y-140221616D01*
X170066616Y-140057809D01*
X170259224Y-139929113D01*
X170259225Y-139929112D01*
X170473243Y-139840463D01*
X170624710Y-139810334D01*
X170700443Y-139795270D01*
X170932097Y-139795270D01*
X171007830Y-139810334D01*
X171007830Y-139810334D01*
G37*
G36*
X190057830Y-139810334D02*
G01*
X190209297Y-139840463D01*
X190423315Y-139929112D01*
X190423316Y-139929113D01*
X190615924Y-140057809D01*
X190779731Y-140221616D01*
X190865528Y-140350021D01*
X190908428Y-140414225D01*
X190997077Y-140628243D01*
X191042270Y-140855444D01*
X191042270Y-141087096D01*
X190997077Y-141314297D01*
X190908428Y-141528315D01*
X190908427Y-141528316D01*
X190779731Y-141720924D01*
X190615924Y-141884731D01*
X190487519Y-141970528D01*
X190423315Y-142013428D01*
X190209297Y-142102077D01*
X190057830Y-142132206D01*
X189982097Y-142147270D01*
X189750443Y-142147270D01*
X189674710Y-142132206D01*
X189523243Y-142102077D01*
X189309225Y-142013428D01*
X189245021Y-141970528D01*
X189116616Y-141884731D01*
X188952809Y-141720924D01*
X188824113Y-141528316D01*
X188824112Y-141528315D01*
X188735463Y-141314297D01*
X188690270Y-141087096D01*
X188690270Y-140855444D01*
X188735463Y-140628243D01*
X188824112Y-140414225D01*
X188867012Y-140350021D01*
X188952809Y-140221616D01*
X189116616Y-140057809D01*
X189309224Y-139929113D01*
X189309225Y-139929112D01*
X189523243Y-139840463D01*
X189674710Y-139810334D01*
X189750443Y-139795270D01*
X189982097Y-139795270D01*
X190057830Y-139810334D01*
X190057830Y-139810334D01*
G37*
G36*
X151957830Y-139810334D02*
G01*
X152109297Y-139840463D01*
X152323315Y-139929112D01*
X152323316Y-139929113D01*
X152515924Y-140057809D01*
X152679731Y-140221616D01*
X152765528Y-140350021D01*
X152808428Y-140414225D01*
X152897077Y-140628243D01*
X152942270Y-140855444D01*
X152942270Y-141087096D01*
X152897077Y-141314297D01*
X152808428Y-141528315D01*
X152808427Y-141528316D01*
X152679731Y-141720924D01*
X152515924Y-141884731D01*
X152387519Y-141970528D01*
X152323315Y-142013428D01*
X152109297Y-142102077D01*
X151957830Y-142132206D01*
X151882097Y-142147270D01*
X151650443Y-142147270D01*
X151574710Y-142132206D01*
X151423243Y-142102077D01*
X151209225Y-142013428D01*
X151145021Y-141970528D01*
X151016616Y-141884731D01*
X150852809Y-141720924D01*
X150724113Y-141528316D01*
X150724112Y-141528315D01*
X150635463Y-141314297D01*
X150590270Y-141087096D01*
X150590270Y-140855444D01*
X150635463Y-140628243D01*
X150724112Y-140414225D01*
X150767012Y-140350021D01*
X150852809Y-140221616D01*
X151016616Y-140057809D01*
X151209224Y-139929113D01*
X151209225Y-139929112D01*
X151423243Y-139840463D01*
X151574710Y-139810334D01*
X151650443Y-139795270D01*
X151882097Y-139795270D01*
X151957830Y-139810334D01*
X151957830Y-139810334D01*
G37*
G36*
X132907830Y-139810334D02*
G01*
X133059297Y-139840463D01*
X133273315Y-139929112D01*
X133273316Y-139929113D01*
X133465924Y-140057809D01*
X133629731Y-140221616D01*
X133715528Y-140350021D01*
X133758428Y-140414225D01*
X133847077Y-140628243D01*
X133892270Y-140855444D01*
X133892270Y-141087096D01*
X133847077Y-141314297D01*
X133758428Y-141528315D01*
X133758427Y-141528316D01*
X133629731Y-141720924D01*
X133465924Y-141884731D01*
X133337519Y-141970528D01*
X133273315Y-142013428D01*
X133059297Y-142102077D01*
X132907830Y-142132206D01*
X132832097Y-142147270D01*
X132600443Y-142147270D01*
X132524710Y-142132206D01*
X132373243Y-142102077D01*
X132159225Y-142013428D01*
X132095021Y-141970528D01*
X131966616Y-141884731D01*
X131802809Y-141720924D01*
X131674113Y-141528316D01*
X131674112Y-141528315D01*
X131585463Y-141314297D01*
X131540270Y-141087096D01*
X131540270Y-140855444D01*
X131585463Y-140628243D01*
X131674112Y-140414225D01*
X131717012Y-140350021D01*
X131802809Y-140221616D01*
X131966616Y-140057809D01*
X132159224Y-139929113D01*
X132159225Y-139929112D01*
X132373243Y-139840463D01*
X132524710Y-139810334D01*
X132600443Y-139795270D01*
X132832097Y-139795270D01*
X132907830Y-139810334D01*
X132907830Y-139810334D01*
G37*
G36*
X158608520Y-129120520D02*
G01*
X157306520Y-129120520D01*
X157306520Y-128118520D01*
X158608520Y-128118520D01*
X158608520Y-129120520D01*
X158608520Y-129120520D01*
G37*
G36*
X196708520Y-129120520D02*
G01*
X195406520Y-129120520D01*
X195406520Y-128118520D01*
X196708520Y-128118520D01*
X196708520Y-129120520D01*
X196708520Y-129120520D01*
G37*
G36*
X177658520Y-129120520D02*
G01*
X176356520Y-129120520D01*
X176356520Y-128118520D01*
X177658520Y-128118520D01*
X177658520Y-129120520D01*
X177658520Y-129120520D01*
G37*
G36*
X139558520Y-129120520D02*
G01*
X138256520Y-129120520D01*
X138256520Y-128118520D01*
X139558520Y-128118520D01*
X139558520Y-129120520D01*
X139558520Y-129120520D01*
G37*
G36*
X187922744Y-125034954D02*
G01*
X188140744Y-125125253D01*
X188294893Y-125189103D01*
X188629818Y-125412893D01*
X188914647Y-125697722D01*
X189138437Y-126032647D01*
X189170832Y-126110856D01*
X189292586Y-126404796D01*
X189371170Y-126799864D01*
X189371170Y-127202676D01*
X189292586Y-127597744D01*
X189241721Y-127720542D01*
X189138437Y-127969893D01*
X188914647Y-128304818D01*
X188629818Y-128589647D01*
X188294893Y-128813437D01*
X188140744Y-128877287D01*
X187922744Y-128967586D01*
X187527676Y-129046170D01*
X187124864Y-129046170D01*
X186729796Y-128967586D01*
X186511796Y-128877287D01*
X186357647Y-128813437D01*
X186022722Y-128589647D01*
X185737893Y-128304818D01*
X185514103Y-127969893D01*
X185410819Y-127720542D01*
X185359954Y-127597744D01*
X185281370Y-127202676D01*
X185281370Y-126799864D01*
X185359954Y-126404796D01*
X185481708Y-126110856D01*
X185514103Y-126032647D01*
X185737893Y-125697722D01*
X186022722Y-125412893D01*
X186357647Y-125189103D01*
X186511796Y-125125253D01*
X186729796Y-125034954D01*
X187124864Y-124956370D01*
X187527676Y-124956370D01*
X187922744Y-125034954D01*
X187922744Y-125034954D01*
G37*
G36*
X130772744Y-125034954D02*
G01*
X130990744Y-125125253D01*
X131144893Y-125189103D01*
X131479818Y-125412893D01*
X131764647Y-125697722D01*
X131988437Y-126032647D01*
X132020832Y-126110856D01*
X132142586Y-126404796D01*
X132221170Y-126799864D01*
X132221170Y-127202676D01*
X132142586Y-127597744D01*
X132091721Y-127720542D01*
X131988437Y-127969893D01*
X131764647Y-128304818D01*
X131479818Y-128589647D01*
X131144893Y-128813437D01*
X130990744Y-128877287D01*
X130772744Y-128967586D01*
X130377676Y-129046170D01*
X129974864Y-129046170D01*
X129579796Y-128967586D01*
X129361796Y-128877287D01*
X129207647Y-128813437D01*
X128872722Y-128589647D01*
X128587893Y-128304818D01*
X128364103Y-127969893D01*
X128260819Y-127720542D01*
X128209954Y-127597744D01*
X128131370Y-127202676D01*
X128131370Y-126799864D01*
X128209954Y-126404796D01*
X128331708Y-126110856D01*
X128364103Y-126032647D01*
X128587893Y-125697722D01*
X128872722Y-125412893D01*
X129207647Y-125189103D01*
X129361796Y-125125253D01*
X129579796Y-125034954D01*
X129974864Y-124956370D01*
X130377676Y-124956370D01*
X130772744Y-125034954D01*
X130772744Y-125034954D01*
G37*
G36*
X149822744Y-125034954D02*
G01*
X150040744Y-125125253D01*
X150194893Y-125189103D01*
X150529818Y-125412893D01*
X150814647Y-125697722D01*
X151038437Y-126032647D01*
X151070832Y-126110856D01*
X151192586Y-126404796D01*
X151271170Y-126799864D01*
X151271170Y-127202676D01*
X151192586Y-127597744D01*
X151141721Y-127720542D01*
X151038437Y-127969893D01*
X150814647Y-128304818D01*
X150529818Y-128589647D01*
X150194893Y-128813437D01*
X150040744Y-128877287D01*
X149822744Y-128967586D01*
X149427676Y-129046170D01*
X149024864Y-129046170D01*
X148629796Y-128967586D01*
X148411796Y-128877287D01*
X148257647Y-128813437D01*
X147922722Y-128589647D01*
X147637893Y-128304818D01*
X147414103Y-127969893D01*
X147310819Y-127720542D01*
X147259954Y-127597744D01*
X147181370Y-127202676D01*
X147181370Y-126799864D01*
X147259954Y-126404796D01*
X147381708Y-126110856D01*
X147414103Y-126032647D01*
X147637893Y-125697722D01*
X147922722Y-125412893D01*
X148257647Y-125189103D01*
X148411796Y-125125253D01*
X148629796Y-125034954D01*
X149024864Y-124956370D01*
X149427676Y-124956370D01*
X149822744Y-125034954D01*
X149822744Y-125034954D01*
G37*
G36*
X168872744Y-125034954D02*
G01*
X169090744Y-125125253D01*
X169244893Y-125189103D01*
X169579818Y-125412893D01*
X169864647Y-125697722D01*
X170088437Y-126032647D01*
X170120832Y-126110856D01*
X170242586Y-126404796D01*
X170321170Y-126799864D01*
X170321170Y-127202676D01*
X170242586Y-127597744D01*
X170191721Y-127720542D01*
X170088437Y-127969893D01*
X169864647Y-128304818D01*
X169579818Y-128589647D01*
X169244893Y-128813437D01*
X169090744Y-128877287D01*
X168872744Y-128967586D01*
X168477676Y-129046170D01*
X168074864Y-129046170D01*
X167679796Y-128967586D01*
X167461796Y-128877287D01*
X167307647Y-128813437D01*
X166972722Y-128589647D01*
X166687893Y-128304818D01*
X166464103Y-127969893D01*
X166360819Y-127720542D01*
X166309954Y-127597744D01*
X166231370Y-127202676D01*
X166231370Y-126799864D01*
X166309954Y-126404796D01*
X166431708Y-126110856D01*
X166464103Y-126032647D01*
X166687893Y-125697722D01*
X166972722Y-125412893D01*
X167307647Y-125189103D01*
X167461796Y-125125253D01*
X167679796Y-125034954D01*
X168074864Y-124956370D01*
X168477676Y-124956370D01*
X168872744Y-125034954D01*
X168872744Y-125034954D01*
G37*
G36*
X135526374Y-126110855D02*
G01*
X135694896Y-126180659D01*
X135846561Y-126281998D01*
X135975542Y-126410979D01*
X136076881Y-126562644D01*
X136146685Y-126731166D01*
X136182270Y-126910067D01*
X136182270Y-127092473D01*
X136146685Y-127271374D01*
X136076881Y-127439896D01*
X135975542Y-127591561D01*
X135846561Y-127720542D01*
X135694896Y-127821881D01*
X135526374Y-127891685D01*
X135347473Y-127927270D01*
X135165067Y-127927270D01*
X134986166Y-127891685D01*
X134817644Y-127821881D01*
X134665979Y-127720542D01*
X134536998Y-127591561D01*
X134435659Y-127439896D01*
X134365855Y-127271374D01*
X134330270Y-127092473D01*
X134330270Y-126910067D01*
X134365855Y-126731166D01*
X134435659Y-126562644D01*
X134536998Y-126410979D01*
X134665979Y-126281998D01*
X134817644Y-126180659D01*
X134986166Y-126110855D01*
X135165067Y-126075270D01*
X135347473Y-126075270D01*
X135526374Y-126110855D01*
X135526374Y-126110855D01*
G37*
G36*
X182516374Y-126110855D02*
G01*
X182684896Y-126180659D01*
X182836561Y-126281998D01*
X182965542Y-126410979D01*
X183066881Y-126562644D01*
X183136685Y-126731166D01*
X183172270Y-126910067D01*
X183172270Y-127092473D01*
X183136685Y-127271374D01*
X183066881Y-127439896D01*
X182965542Y-127591561D01*
X182836561Y-127720542D01*
X182684896Y-127821881D01*
X182516374Y-127891685D01*
X182337473Y-127927270D01*
X182155067Y-127927270D01*
X181976166Y-127891685D01*
X181807644Y-127821881D01*
X181655979Y-127720542D01*
X181526998Y-127591561D01*
X181425659Y-127439896D01*
X181355855Y-127271374D01*
X181320270Y-127092473D01*
X181320270Y-126910067D01*
X181355855Y-126731166D01*
X181425659Y-126562644D01*
X181526998Y-126410979D01*
X181655979Y-126281998D01*
X181807644Y-126180659D01*
X181976166Y-126110855D01*
X182155067Y-126075270D01*
X182337473Y-126075270D01*
X182516374Y-126110855D01*
X182516374Y-126110855D01*
G37*
G36*
X192676374Y-126110855D02*
G01*
X192844896Y-126180659D01*
X192996561Y-126281998D01*
X193125542Y-126410979D01*
X193226881Y-126562644D01*
X193296685Y-126731166D01*
X193332270Y-126910067D01*
X193332270Y-127092473D01*
X193296685Y-127271374D01*
X193226881Y-127439896D01*
X193125542Y-127591561D01*
X192996561Y-127720542D01*
X192844896Y-127821881D01*
X192676374Y-127891685D01*
X192497473Y-127927270D01*
X192315067Y-127927270D01*
X192136166Y-127891685D01*
X191967644Y-127821881D01*
X191815979Y-127720542D01*
X191686998Y-127591561D01*
X191585659Y-127439896D01*
X191515855Y-127271374D01*
X191480270Y-127092473D01*
X191480270Y-126910067D01*
X191515855Y-126731166D01*
X191585659Y-126562644D01*
X191686998Y-126410979D01*
X191815979Y-126281998D01*
X191967644Y-126180659D01*
X192136166Y-126110855D01*
X192315067Y-126075270D01*
X192497473Y-126075270D01*
X192676374Y-126110855D01*
X192676374Y-126110855D01*
G37*
G36*
X173626374Y-126110855D02*
G01*
X173794896Y-126180659D01*
X173946561Y-126281998D01*
X174075542Y-126410979D01*
X174176881Y-126562644D01*
X174246685Y-126731166D01*
X174282270Y-126910067D01*
X174282270Y-127092473D01*
X174246685Y-127271374D01*
X174176881Y-127439896D01*
X174075542Y-127591561D01*
X173946561Y-127720542D01*
X173794896Y-127821881D01*
X173626374Y-127891685D01*
X173447473Y-127927270D01*
X173265067Y-127927270D01*
X173086166Y-127891685D01*
X172917644Y-127821881D01*
X172765979Y-127720542D01*
X172636998Y-127591561D01*
X172535659Y-127439896D01*
X172465855Y-127271374D01*
X172430270Y-127092473D01*
X172430270Y-126910067D01*
X172465855Y-126731166D01*
X172535659Y-126562644D01*
X172636998Y-126410979D01*
X172765979Y-126281998D01*
X172917644Y-126180659D01*
X173086166Y-126110855D01*
X173265067Y-126075270D01*
X173447473Y-126075270D01*
X173626374Y-126110855D01*
X173626374Y-126110855D01*
G37*
G36*
X154576374Y-126110855D02*
G01*
X154744896Y-126180659D01*
X154896561Y-126281998D01*
X155025542Y-126410979D01*
X155126881Y-126562644D01*
X155196685Y-126731166D01*
X155232270Y-126910067D01*
X155232270Y-127092473D01*
X155196685Y-127271374D01*
X155126881Y-127439896D01*
X155025542Y-127591561D01*
X154896561Y-127720542D01*
X154744896Y-127821881D01*
X154576374Y-127891685D01*
X154397473Y-127927270D01*
X154215067Y-127927270D01*
X154036166Y-127891685D01*
X153867644Y-127821881D01*
X153715979Y-127720542D01*
X153586998Y-127591561D01*
X153485659Y-127439896D01*
X153415855Y-127271374D01*
X153380270Y-127092473D01*
X153380270Y-126910067D01*
X153415855Y-126731166D01*
X153485659Y-126562644D01*
X153586998Y-126410979D01*
X153715979Y-126281998D01*
X153867644Y-126180659D01*
X154036166Y-126110855D01*
X154215067Y-126075270D01*
X154397473Y-126075270D01*
X154576374Y-126110855D01*
X154576374Y-126110855D01*
G37*
G36*
X163466374Y-126110855D02*
G01*
X163634896Y-126180659D01*
X163786561Y-126281998D01*
X163915542Y-126410979D01*
X164016881Y-126562644D01*
X164086685Y-126731166D01*
X164122270Y-126910067D01*
X164122270Y-127092473D01*
X164086685Y-127271374D01*
X164016881Y-127439896D01*
X163915542Y-127591561D01*
X163786561Y-127720542D01*
X163634896Y-127821881D01*
X163466374Y-127891685D01*
X163287473Y-127927270D01*
X163105067Y-127927270D01*
X162926166Y-127891685D01*
X162757644Y-127821881D01*
X162605979Y-127720542D01*
X162476998Y-127591561D01*
X162375659Y-127439896D01*
X162305855Y-127271374D01*
X162270270Y-127092473D01*
X162270270Y-126910067D01*
X162305855Y-126731166D01*
X162375659Y-126562644D01*
X162476998Y-126410979D01*
X162605979Y-126281998D01*
X162757644Y-126180659D01*
X162926166Y-126110855D01*
X163105067Y-126075270D01*
X163287473Y-126075270D01*
X163466374Y-126110855D01*
X163466374Y-126110855D01*
G37*
G36*
X125366374Y-126110855D02*
G01*
X125534896Y-126180659D01*
X125686561Y-126281998D01*
X125815542Y-126410979D01*
X125916881Y-126562644D01*
X125986685Y-126731166D01*
X126022270Y-126910067D01*
X126022270Y-127092473D01*
X125986685Y-127271374D01*
X125916881Y-127439896D01*
X125815542Y-127591561D01*
X125686561Y-127720542D01*
X125534896Y-127821881D01*
X125366374Y-127891685D01*
X125187473Y-127927270D01*
X125005067Y-127927270D01*
X124826166Y-127891685D01*
X124657644Y-127821881D01*
X124505979Y-127720542D01*
X124376998Y-127591561D01*
X124275659Y-127439896D01*
X124205855Y-127271374D01*
X124170270Y-127092473D01*
X124170270Y-126910067D01*
X124205855Y-126731166D01*
X124275659Y-126562644D01*
X124376998Y-126410979D01*
X124505979Y-126281998D01*
X124657644Y-126180659D01*
X124826166Y-126110855D01*
X125005067Y-126075270D01*
X125187473Y-126075270D01*
X125366374Y-126110855D01*
X125366374Y-126110855D01*
G37*
G36*
X144416374Y-126110855D02*
G01*
X144584896Y-126180659D01*
X144736561Y-126281998D01*
X144865542Y-126410979D01*
X144966881Y-126562644D01*
X145036685Y-126731166D01*
X145072270Y-126910067D01*
X145072270Y-127092473D01*
X145036685Y-127271374D01*
X144966881Y-127439896D01*
X144865542Y-127591561D01*
X144736561Y-127720542D01*
X144584896Y-127821881D01*
X144416374Y-127891685D01*
X144237473Y-127927270D01*
X144055067Y-127927270D01*
X143876166Y-127891685D01*
X143707644Y-127821881D01*
X143555979Y-127720542D01*
X143426998Y-127591561D01*
X143325659Y-127439896D01*
X143255855Y-127271374D01*
X143220270Y-127092473D01*
X143220270Y-126910067D01*
X143255855Y-126731166D01*
X143325659Y-126562644D01*
X143426998Y-126410979D01*
X143555979Y-126281998D01*
X143707644Y-126180659D01*
X143876166Y-126110855D01*
X144055067Y-126075270D01*
X144237473Y-126075270D01*
X144416374Y-126110855D01*
X144416374Y-126110855D01*
G37*
G36*
X158608520Y-125820520D02*
G01*
X157306520Y-125820520D01*
X157306520Y-124818520D01*
X158608520Y-124818520D01*
X158608520Y-125820520D01*
X158608520Y-125820520D01*
G37*
G36*
X196708520Y-125820520D02*
G01*
X195406520Y-125820520D01*
X195406520Y-124818520D01*
X196708520Y-124818520D01*
X196708520Y-125820520D01*
X196708520Y-125820520D01*
G37*
G36*
X139558520Y-125820520D02*
G01*
X138256520Y-125820520D01*
X138256520Y-124818520D01*
X139558520Y-124818520D01*
X139558520Y-125820520D01*
X139558520Y-125820520D01*
G37*
G36*
X177658520Y-125820520D02*
G01*
X176356520Y-125820520D01*
X176356520Y-124818520D01*
X177658520Y-124818520D01*
X177658520Y-125820520D01*
X177658520Y-125820520D01*
G37*
G36*
X126557830Y-123300334D02*
G01*
X126709297Y-123330463D01*
X126923315Y-123419112D01*
X126923316Y-123419113D01*
X127115924Y-123547809D01*
X127279731Y-123711616D01*
X127365528Y-123840021D01*
X127408428Y-123904225D01*
X127497077Y-124118243D01*
X127542270Y-124345444D01*
X127542270Y-124577096D01*
X127497077Y-124804297D01*
X127408428Y-125018315D01*
X127408427Y-125018316D01*
X127279731Y-125210924D01*
X127115924Y-125374731D01*
X127058810Y-125412893D01*
X126923315Y-125503428D01*
X126709297Y-125592077D01*
X126557830Y-125622206D01*
X126482097Y-125637270D01*
X126250443Y-125637270D01*
X126174710Y-125622206D01*
X126023243Y-125592077D01*
X125809225Y-125503428D01*
X125673730Y-125412893D01*
X125616616Y-125374731D01*
X125452809Y-125210924D01*
X125324113Y-125018316D01*
X125324112Y-125018315D01*
X125235463Y-124804297D01*
X125190270Y-124577096D01*
X125190270Y-124345444D01*
X125235463Y-124118243D01*
X125324112Y-123904225D01*
X125367012Y-123840021D01*
X125452809Y-123711616D01*
X125616616Y-123547809D01*
X125809224Y-123419113D01*
X125809225Y-123419112D01*
X126023243Y-123330463D01*
X126174710Y-123300334D01*
X126250443Y-123285270D01*
X126482097Y-123285270D01*
X126557830Y-123300334D01*
X126557830Y-123300334D01*
G37*
G36*
X145607830Y-123300334D02*
G01*
X145759297Y-123330463D01*
X145973315Y-123419112D01*
X145973316Y-123419113D01*
X146165924Y-123547809D01*
X146329731Y-123711616D01*
X146415528Y-123840021D01*
X146458428Y-123904225D01*
X146547077Y-124118243D01*
X146592270Y-124345444D01*
X146592270Y-124577096D01*
X146547077Y-124804297D01*
X146458428Y-125018315D01*
X146458427Y-125018316D01*
X146329731Y-125210924D01*
X146165924Y-125374731D01*
X146108810Y-125412893D01*
X145973315Y-125503428D01*
X145759297Y-125592077D01*
X145607830Y-125622206D01*
X145532097Y-125637270D01*
X145300443Y-125637270D01*
X145224710Y-125622206D01*
X145073243Y-125592077D01*
X144859225Y-125503428D01*
X144723730Y-125412893D01*
X144666616Y-125374731D01*
X144502809Y-125210924D01*
X144374113Y-125018316D01*
X144374112Y-125018315D01*
X144285463Y-124804297D01*
X144240270Y-124577096D01*
X144240270Y-124345444D01*
X144285463Y-124118243D01*
X144374112Y-123904225D01*
X144417012Y-123840021D01*
X144502809Y-123711616D01*
X144666616Y-123547809D01*
X144859224Y-123419113D01*
X144859225Y-123419112D01*
X145073243Y-123330463D01*
X145224710Y-123300334D01*
X145300443Y-123285270D01*
X145532097Y-123285270D01*
X145607830Y-123300334D01*
X145607830Y-123300334D01*
G37*
G36*
X164657830Y-123300334D02*
G01*
X164809297Y-123330463D01*
X165023315Y-123419112D01*
X165023316Y-123419113D01*
X165215924Y-123547809D01*
X165379731Y-123711616D01*
X165465528Y-123840021D01*
X165508428Y-123904225D01*
X165597077Y-124118243D01*
X165642270Y-124345444D01*
X165642270Y-124577096D01*
X165597077Y-124804297D01*
X165508428Y-125018315D01*
X165508427Y-125018316D01*
X165379731Y-125210924D01*
X165215924Y-125374731D01*
X165158810Y-125412893D01*
X165023315Y-125503428D01*
X164809297Y-125592077D01*
X164657830Y-125622206D01*
X164582097Y-125637270D01*
X164350443Y-125637270D01*
X164274710Y-125622206D01*
X164123243Y-125592077D01*
X163909225Y-125503428D01*
X163773730Y-125412893D01*
X163716616Y-125374731D01*
X163552809Y-125210924D01*
X163424113Y-125018316D01*
X163424112Y-125018315D01*
X163335463Y-124804297D01*
X163290270Y-124577096D01*
X163290270Y-124345444D01*
X163335463Y-124118243D01*
X163424112Y-123904225D01*
X163467012Y-123840021D01*
X163552809Y-123711616D01*
X163716616Y-123547809D01*
X163909224Y-123419113D01*
X163909225Y-123419112D01*
X164123243Y-123330463D01*
X164274710Y-123300334D01*
X164350443Y-123285270D01*
X164582097Y-123285270D01*
X164657830Y-123300334D01*
X164657830Y-123300334D01*
G37*
G36*
X183707830Y-123300334D02*
G01*
X183859297Y-123330463D01*
X184073315Y-123419112D01*
X184073316Y-123419113D01*
X184265924Y-123547809D01*
X184429731Y-123711616D01*
X184515528Y-123840021D01*
X184558428Y-123904225D01*
X184647077Y-124118243D01*
X184692270Y-124345444D01*
X184692270Y-124577096D01*
X184647077Y-124804297D01*
X184558428Y-125018315D01*
X184558427Y-125018316D01*
X184429731Y-125210924D01*
X184265924Y-125374731D01*
X184208810Y-125412893D01*
X184073315Y-125503428D01*
X183859297Y-125592077D01*
X183707830Y-125622206D01*
X183632097Y-125637270D01*
X183400443Y-125637270D01*
X183324710Y-125622206D01*
X183173243Y-125592077D01*
X182959225Y-125503428D01*
X182823730Y-125412893D01*
X182766616Y-125374731D01*
X182602809Y-125210924D01*
X182474113Y-125018316D01*
X182474112Y-125018315D01*
X182385463Y-124804297D01*
X182340270Y-124577096D01*
X182340270Y-124345444D01*
X182385463Y-124118243D01*
X182474112Y-123904225D01*
X182517012Y-123840021D01*
X182602809Y-123711616D01*
X182766616Y-123547809D01*
X182959224Y-123419113D01*
X182959225Y-123419112D01*
X183173243Y-123330463D01*
X183324710Y-123300334D01*
X183400443Y-123285270D01*
X183632097Y-123285270D01*
X183707830Y-123300334D01*
X183707830Y-123300334D01*
G37*
G36*
X132907830Y-120760334D02*
G01*
X133059297Y-120790463D01*
X133273315Y-120879112D01*
X133273316Y-120879113D01*
X133465924Y-121007809D01*
X133629731Y-121171616D01*
X133715528Y-121300021D01*
X133758428Y-121364225D01*
X133847077Y-121578243D01*
X133892270Y-121805444D01*
X133892270Y-122037096D01*
X133847077Y-122264297D01*
X133758428Y-122478315D01*
X133758427Y-122478316D01*
X133629731Y-122670924D01*
X133465924Y-122834731D01*
X133337519Y-122920528D01*
X133273315Y-122963428D01*
X133059297Y-123052077D01*
X132907830Y-123082206D01*
X132832097Y-123097270D01*
X132600443Y-123097270D01*
X132524710Y-123082206D01*
X132373243Y-123052077D01*
X132159225Y-122963428D01*
X132095021Y-122920528D01*
X131966616Y-122834731D01*
X131802809Y-122670924D01*
X131674113Y-122478316D01*
X131674112Y-122478315D01*
X131585463Y-122264297D01*
X131540270Y-122037096D01*
X131540270Y-121805444D01*
X131585463Y-121578243D01*
X131674112Y-121364225D01*
X131717012Y-121300021D01*
X131802809Y-121171616D01*
X131966616Y-121007809D01*
X132159224Y-120879113D01*
X132159225Y-120879112D01*
X132373243Y-120790463D01*
X132524710Y-120760334D01*
X132600443Y-120745270D01*
X132832097Y-120745270D01*
X132907830Y-120760334D01*
X132907830Y-120760334D01*
G37*
G36*
X151957830Y-120760334D02*
G01*
X152109297Y-120790463D01*
X152323315Y-120879112D01*
X152323316Y-120879113D01*
X152515924Y-121007809D01*
X152679731Y-121171616D01*
X152765528Y-121300021D01*
X152808428Y-121364225D01*
X152897077Y-121578243D01*
X152942270Y-121805444D01*
X152942270Y-122037096D01*
X152897077Y-122264297D01*
X152808428Y-122478315D01*
X152808427Y-122478316D01*
X152679731Y-122670924D01*
X152515924Y-122834731D01*
X152387519Y-122920528D01*
X152323315Y-122963428D01*
X152109297Y-123052077D01*
X151957830Y-123082206D01*
X151882097Y-123097270D01*
X151650443Y-123097270D01*
X151574710Y-123082206D01*
X151423243Y-123052077D01*
X151209225Y-122963428D01*
X151145021Y-122920528D01*
X151016616Y-122834731D01*
X150852809Y-122670924D01*
X150724113Y-122478316D01*
X150724112Y-122478315D01*
X150635463Y-122264297D01*
X150590270Y-122037096D01*
X150590270Y-121805444D01*
X150635463Y-121578243D01*
X150724112Y-121364225D01*
X150767012Y-121300021D01*
X150852809Y-121171616D01*
X151016616Y-121007809D01*
X151209224Y-120879113D01*
X151209225Y-120879112D01*
X151423243Y-120790463D01*
X151574710Y-120760334D01*
X151650443Y-120745270D01*
X151882097Y-120745270D01*
X151957830Y-120760334D01*
X151957830Y-120760334D01*
G37*
G36*
X171007830Y-120760334D02*
G01*
X171159297Y-120790463D01*
X171373315Y-120879112D01*
X171373316Y-120879113D01*
X171565924Y-121007809D01*
X171729731Y-121171616D01*
X171815528Y-121300021D01*
X171858428Y-121364225D01*
X171947077Y-121578243D01*
X171992270Y-121805444D01*
X171992270Y-122037096D01*
X171947077Y-122264297D01*
X171858428Y-122478315D01*
X171858427Y-122478316D01*
X171729731Y-122670924D01*
X171565924Y-122834731D01*
X171437519Y-122920528D01*
X171373315Y-122963428D01*
X171159297Y-123052077D01*
X171007830Y-123082206D01*
X170932097Y-123097270D01*
X170700443Y-123097270D01*
X170624710Y-123082206D01*
X170473243Y-123052077D01*
X170259225Y-122963428D01*
X170195021Y-122920528D01*
X170066616Y-122834731D01*
X169902809Y-122670924D01*
X169774113Y-122478316D01*
X169774112Y-122478315D01*
X169685463Y-122264297D01*
X169640270Y-122037096D01*
X169640270Y-121805444D01*
X169685463Y-121578243D01*
X169774112Y-121364225D01*
X169817012Y-121300021D01*
X169902809Y-121171616D01*
X170066616Y-121007809D01*
X170259224Y-120879113D01*
X170259225Y-120879112D01*
X170473243Y-120790463D01*
X170624710Y-120760334D01*
X170700443Y-120745270D01*
X170932097Y-120745270D01*
X171007830Y-120760334D01*
X171007830Y-120760334D01*
G37*
G36*
X190057830Y-120760334D02*
G01*
X190209297Y-120790463D01*
X190423315Y-120879112D01*
X190423316Y-120879113D01*
X190615924Y-121007809D01*
X190779731Y-121171616D01*
X190865528Y-121300021D01*
X190908428Y-121364225D01*
X190997077Y-121578243D01*
X191042270Y-121805444D01*
X191042270Y-122037096D01*
X190997077Y-122264297D01*
X190908428Y-122478315D01*
X190908427Y-122478316D01*
X190779731Y-122670924D01*
X190615924Y-122834731D01*
X190487519Y-122920528D01*
X190423315Y-122963428D01*
X190209297Y-123052077D01*
X190057830Y-123082206D01*
X189982097Y-123097270D01*
X189750443Y-123097270D01*
X189674710Y-123082206D01*
X189523243Y-123052077D01*
X189309225Y-122963428D01*
X189245021Y-122920528D01*
X189116616Y-122834731D01*
X188952809Y-122670924D01*
X188824113Y-122478316D01*
X188824112Y-122478315D01*
X188735463Y-122264297D01*
X188690270Y-122037096D01*
X188690270Y-121805444D01*
X188735463Y-121578243D01*
X188824112Y-121364225D01*
X188867012Y-121300021D01*
X188952809Y-121171616D01*
X189116616Y-121007809D01*
X189309224Y-120879113D01*
X189309225Y-120879112D01*
X189523243Y-120790463D01*
X189674710Y-120760334D01*
X189750443Y-120745270D01*
X189982097Y-120745270D01*
X190057830Y-120760334D01*
X190057830Y-120760334D01*
G37*
G36*
X196708520Y-110070520D02*
G01*
X195406520Y-110070520D01*
X195406520Y-109068520D01*
X196708520Y-109068520D01*
X196708520Y-110070520D01*
X196708520Y-110070520D01*
G37*
G36*
X139558520Y-110070520D02*
G01*
X138256520Y-110070520D01*
X138256520Y-109068520D01*
X139558520Y-109068520D01*
X139558520Y-110070520D01*
X139558520Y-110070520D01*
G37*
G36*
X158608520Y-110070520D02*
G01*
X157306520Y-110070520D01*
X157306520Y-109068520D01*
X158608520Y-109068520D01*
X158608520Y-110070520D01*
X158608520Y-110070520D01*
G37*
G36*
X177658520Y-110070520D02*
G01*
X176356520Y-110070520D01*
X176356520Y-109068520D01*
X177658520Y-109068520D01*
X177658520Y-110070520D01*
X177658520Y-110070520D01*
G37*
G36*
X130772744Y-105984954D02*
G01*
X130990744Y-106075253D01*
X131144893Y-106139103D01*
X131479818Y-106362893D01*
X131764647Y-106647722D01*
X131988437Y-106982647D01*
X132020832Y-107060856D01*
X132142586Y-107354796D01*
X132221170Y-107749864D01*
X132221170Y-108152676D01*
X132142586Y-108547744D01*
X132091721Y-108670542D01*
X131988437Y-108919893D01*
X131764647Y-109254818D01*
X131479818Y-109539647D01*
X131144893Y-109763437D01*
X130990744Y-109827287D01*
X130772744Y-109917586D01*
X130377676Y-109996170D01*
X129974864Y-109996170D01*
X129579796Y-109917586D01*
X129361796Y-109827287D01*
X129207647Y-109763437D01*
X128872722Y-109539647D01*
X128587893Y-109254818D01*
X128364103Y-108919893D01*
X128260819Y-108670542D01*
X128209954Y-108547744D01*
X128131370Y-108152676D01*
X128131370Y-107749864D01*
X128209954Y-107354796D01*
X128331708Y-107060856D01*
X128364103Y-106982647D01*
X128587893Y-106647722D01*
X128872722Y-106362893D01*
X129207647Y-106139103D01*
X129361796Y-106075253D01*
X129579796Y-105984954D01*
X129974864Y-105906370D01*
X130377676Y-105906370D01*
X130772744Y-105984954D01*
X130772744Y-105984954D01*
G37*
G36*
X149822744Y-105984954D02*
G01*
X150040744Y-106075253D01*
X150194893Y-106139103D01*
X150529818Y-106362893D01*
X150814647Y-106647722D01*
X151038437Y-106982647D01*
X151070832Y-107060856D01*
X151192586Y-107354796D01*
X151271170Y-107749864D01*
X151271170Y-108152676D01*
X151192586Y-108547744D01*
X151141721Y-108670542D01*
X151038437Y-108919893D01*
X150814647Y-109254818D01*
X150529818Y-109539647D01*
X150194893Y-109763437D01*
X150040744Y-109827287D01*
X149822744Y-109917586D01*
X149427676Y-109996170D01*
X149024864Y-109996170D01*
X148629796Y-109917586D01*
X148411796Y-109827287D01*
X148257647Y-109763437D01*
X147922722Y-109539647D01*
X147637893Y-109254818D01*
X147414103Y-108919893D01*
X147310819Y-108670542D01*
X147259954Y-108547744D01*
X147181370Y-108152676D01*
X147181370Y-107749864D01*
X147259954Y-107354796D01*
X147381708Y-107060856D01*
X147414103Y-106982647D01*
X147637893Y-106647722D01*
X147922722Y-106362893D01*
X148257647Y-106139103D01*
X148411796Y-106075253D01*
X148629796Y-105984954D01*
X149024864Y-105906370D01*
X149427676Y-105906370D01*
X149822744Y-105984954D01*
X149822744Y-105984954D01*
G37*
G36*
X187922744Y-105984954D02*
G01*
X188140744Y-106075253D01*
X188294893Y-106139103D01*
X188629818Y-106362893D01*
X188914647Y-106647722D01*
X189138437Y-106982647D01*
X189170832Y-107060856D01*
X189292586Y-107354796D01*
X189371170Y-107749864D01*
X189371170Y-108152676D01*
X189292586Y-108547744D01*
X189241721Y-108670542D01*
X189138437Y-108919893D01*
X188914647Y-109254818D01*
X188629818Y-109539647D01*
X188294893Y-109763437D01*
X188140744Y-109827287D01*
X187922744Y-109917586D01*
X187527676Y-109996170D01*
X187124864Y-109996170D01*
X186729796Y-109917586D01*
X186511796Y-109827287D01*
X186357647Y-109763437D01*
X186022722Y-109539647D01*
X185737893Y-109254818D01*
X185514103Y-108919893D01*
X185410819Y-108670542D01*
X185359954Y-108547744D01*
X185281370Y-108152676D01*
X185281370Y-107749864D01*
X185359954Y-107354796D01*
X185481708Y-107060856D01*
X185514103Y-106982647D01*
X185737893Y-106647722D01*
X186022722Y-106362893D01*
X186357647Y-106139103D01*
X186511796Y-106075253D01*
X186729796Y-105984954D01*
X187124864Y-105906370D01*
X187527676Y-105906370D01*
X187922744Y-105984954D01*
X187922744Y-105984954D01*
G37*
G36*
X168872744Y-105984954D02*
G01*
X169090744Y-106075253D01*
X169244893Y-106139103D01*
X169579818Y-106362893D01*
X169864647Y-106647722D01*
X170088437Y-106982647D01*
X170120832Y-107060856D01*
X170242586Y-107354796D01*
X170321170Y-107749864D01*
X170321170Y-108152676D01*
X170242586Y-108547744D01*
X170191721Y-108670542D01*
X170088437Y-108919893D01*
X169864647Y-109254818D01*
X169579818Y-109539647D01*
X169244893Y-109763437D01*
X169090744Y-109827287D01*
X168872744Y-109917586D01*
X168477676Y-109996170D01*
X168074864Y-109996170D01*
X167679796Y-109917586D01*
X167461796Y-109827287D01*
X167307647Y-109763437D01*
X166972722Y-109539647D01*
X166687893Y-109254818D01*
X166464103Y-108919893D01*
X166360819Y-108670542D01*
X166309954Y-108547744D01*
X166231370Y-108152676D01*
X166231370Y-107749864D01*
X166309954Y-107354796D01*
X166431708Y-107060856D01*
X166464103Y-106982647D01*
X166687893Y-106647722D01*
X166972722Y-106362893D01*
X167307647Y-106139103D01*
X167461796Y-106075253D01*
X167679796Y-105984954D01*
X168074864Y-105906370D01*
X168477676Y-105906370D01*
X168872744Y-105984954D01*
X168872744Y-105984954D01*
G37*
G36*
X192676374Y-107060855D02*
G01*
X192844896Y-107130659D01*
X192996561Y-107231998D01*
X193125542Y-107360979D01*
X193226881Y-107512644D01*
X193296685Y-107681166D01*
X193332270Y-107860067D01*
X193332270Y-108042473D01*
X193296685Y-108221374D01*
X193226881Y-108389896D01*
X193125542Y-108541561D01*
X192996561Y-108670542D01*
X192844896Y-108771881D01*
X192676374Y-108841685D01*
X192497473Y-108877270D01*
X192315067Y-108877270D01*
X192136166Y-108841685D01*
X191967644Y-108771881D01*
X191815979Y-108670542D01*
X191686998Y-108541561D01*
X191585659Y-108389896D01*
X191515855Y-108221374D01*
X191480270Y-108042473D01*
X191480270Y-107860067D01*
X191515855Y-107681166D01*
X191585659Y-107512644D01*
X191686998Y-107360979D01*
X191815979Y-107231998D01*
X191967644Y-107130659D01*
X192136166Y-107060855D01*
X192315067Y-107025270D01*
X192497473Y-107025270D01*
X192676374Y-107060855D01*
X192676374Y-107060855D01*
G37*
G36*
X125366374Y-107060855D02*
G01*
X125534896Y-107130659D01*
X125686561Y-107231998D01*
X125815542Y-107360979D01*
X125916881Y-107512644D01*
X125986685Y-107681166D01*
X126022270Y-107860067D01*
X126022270Y-108042473D01*
X125986685Y-108221374D01*
X125916881Y-108389896D01*
X125815542Y-108541561D01*
X125686561Y-108670542D01*
X125534896Y-108771881D01*
X125366374Y-108841685D01*
X125187473Y-108877270D01*
X125005067Y-108877270D01*
X124826166Y-108841685D01*
X124657644Y-108771881D01*
X124505979Y-108670542D01*
X124376998Y-108541561D01*
X124275659Y-108389896D01*
X124205855Y-108221374D01*
X124170270Y-108042473D01*
X124170270Y-107860067D01*
X124205855Y-107681166D01*
X124275659Y-107512644D01*
X124376998Y-107360979D01*
X124505979Y-107231998D01*
X124657644Y-107130659D01*
X124826166Y-107060855D01*
X125005067Y-107025270D01*
X125187473Y-107025270D01*
X125366374Y-107060855D01*
X125366374Y-107060855D01*
G37*
G36*
X163466374Y-107060855D02*
G01*
X163634896Y-107130659D01*
X163786561Y-107231998D01*
X163915542Y-107360979D01*
X164016881Y-107512644D01*
X164086685Y-107681166D01*
X164122270Y-107860067D01*
X164122270Y-108042473D01*
X164086685Y-108221374D01*
X164016881Y-108389896D01*
X163915542Y-108541561D01*
X163786561Y-108670542D01*
X163634896Y-108771881D01*
X163466374Y-108841685D01*
X163287473Y-108877270D01*
X163105067Y-108877270D01*
X162926166Y-108841685D01*
X162757644Y-108771881D01*
X162605979Y-108670542D01*
X162476998Y-108541561D01*
X162375659Y-108389896D01*
X162305855Y-108221374D01*
X162270270Y-108042473D01*
X162270270Y-107860067D01*
X162305855Y-107681166D01*
X162375659Y-107512644D01*
X162476998Y-107360979D01*
X162605979Y-107231998D01*
X162757644Y-107130659D01*
X162926166Y-107060855D01*
X163105067Y-107025270D01*
X163287473Y-107025270D01*
X163466374Y-107060855D01*
X163466374Y-107060855D01*
G37*
G36*
X135526374Y-107060855D02*
G01*
X135694896Y-107130659D01*
X135846561Y-107231998D01*
X135975542Y-107360979D01*
X136076881Y-107512644D01*
X136146685Y-107681166D01*
X136182270Y-107860067D01*
X136182270Y-108042473D01*
X136146685Y-108221374D01*
X136076881Y-108389896D01*
X135975542Y-108541561D01*
X135846561Y-108670542D01*
X135694896Y-108771881D01*
X135526374Y-108841685D01*
X135347473Y-108877270D01*
X135165067Y-108877270D01*
X134986166Y-108841685D01*
X134817644Y-108771881D01*
X134665979Y-108670542D01*
X134536998Y-108541561D01*
X134435659Y-108389896D01*
X134365855Y-108221374D01*
X134330270Y-108042473D01*
X134330270Y-107860067D01*
X134365855Y-107681166D01*
X134435659Y-107512644D01*
X134536998Y-107360979D01*
X134665979Y-107231998D01*
X134817644Y-107130659D01*
X134986166Y-107060855D01*
X135165067Y-107025270D01*
X135347473Y-107025270D01*
X135526374Y-107060855D01*
X135526374Y-107060855D01*
G37*
G36*
X173626374Y-107060855D02*
G01*
X173794896Y-107130659D01*
X173946561Y-107231998D01*
X174075542Y-107360979D01*
X174176881Y-107512644D01*
X174246685Y-107681166D01*
X174282270Y-107860067D01*
X174282270Y-108042473D01*
X174246685Y-108221374D01*
X174176881Y-108389896D01*
X174075542Y-108541561D01*
X173946561Y-108670542D01*
X173794896Y-108771881D01*
X173626374Y-108841685D01*
X173447473Y-108877270D01*
X173265067Y-108877270D01*
X173086166Y-108841685D01*
X172917644Y-108771881D01*
X172765979Y-108670542D01*
X172636998Y-108541561D01*
X172535659Y-108389896D01*
X172465855Y-108221374D01*
X172430270Y-108042473D01*
X172430270Y-107860067D01*
X172465855Y-107681166D01*
X172535659Y-107512644D01*
X172636998Y-107360979D01*
X172765979Y-107231998D01*
X172917644Y-107130659D01*
X173086166Y-107060855D01*
X173265067Y-107025270D01*
X173447473Y-107025270D01*
X173626374Y-107060855D01*
X173626374Y-107060855D01*
G37*
G36*
X144416374Y-107060855D02*
G01*
X144584896Y-107130659D01*
X144736561Y-107231998D01*
X144865542Y-107360979D01*
X144966881Y-107512644D01*
X145036685Y-107681166D01*
X145072270Y-107860067D01*
X145072270Y-108042473D01*
X145036685Y-108221374D01*
X144966881Y-108389896D01*
X144865542Y-108541561D01*
X144736561Y-108670542D01*
X144584896Y-108771881D01*
X144416374Y-108841685D01*
X144237473Y-108877270D01*
X144055067Y-108877270D01*
X143876166Y-108841685D01*
X143707644Y-108771881D01*
X143555979Y-108670542D01*
X143426998Y-108541561D01*
X143325659Y-108389896D01*
X143255855Y-108221374D01*
X143220270Y-108042473D01*
X143220270Y-107860067D01*
X143255855Y-107681166D01*
X143325659Y-107512644D01*
X143426998Y-107360979D01*
X143555979Y-107231998D01*
X143707644Y-107130659D01*
X143876166Y-107060855D01*
X144055067Y-107025270D01*
X144237473Y-107025270D01*
X144416374Y-107060855D01*
X144416374Y-107060855D01*
G37*
G36*
X182516374Y-107060855D02*
G01*
X182684896Y-107130659D01*
X182836561Y-107231998D01*
X182965542Y-107360979D01*
X183066881Y-107512644D01*
X183136685Y-107681166D01*
X183172270Y-107860067D01*
X183172270Y-108042473D01*
X183136685Y-108221374D01*
X183066881Y-108389896D01*
X182965542Y-108541561D01*
X182836561Y-108670542D01*
X182684896Y-108771881D01*
X182516374Y-108841685D01*
X182337473Y-108877270D01*
X182155067Y-108877270D01*
X181976166Y-108841685D01*
X181807644Y-108771881D01*
X181655979Y-108670542D01*
X181526998Y-108541561D01*
X181425659Y-108389896D01*
X181355855Y-108221374D01*
X181320270Y-108042473D01*
X181320270Y-107860067D01*
X181355855Y-107681166D01*
X181425659Y-107512644D01*
X181526998Y-107360979D01*
X181655979Y-107231998D01*
X181807644Y-107130659D01*
X181976166Y-107060855D01*
X182155067Y-107025270D01*
X182337473Y-107025270D01*
X182516374Y-107060855D01*
X182516374Y-107060855D01*
G37*
G36*
X154576374Y-107060855D02*
G01*
X154744896Y-107130659D01*
X154896561Y-107231998D01*
X155025542Y-107360979D01*
X155126881Y-107512644D01*
X155196685Y-107681166D01*
X155232270Y-107860067D01*
X155232270Y-108042473D01*
X155196685Y-108221374D01*
X155126881Y-108389896D01*
X155025542Y-108541561D01*
X154896561Y-108670542D01*
X154744896Y-108771881D01*
X154576374Y-108841685D01*
X154397473Y-108877270D01*
X154215067Y-108877270D01*
X154036166Y-108841685D01*
X153867644Y-108771881D01*
X153715979Y-108670542D01*
X153586998Y-108541561D01*
X153485659Y-108389896D01*
X153415855Y-108221374D01*
X153380270Y-108042473D01*
X153380270Y-107860067D01*
X153415855Y-107681166D01*
X153485659Y-107512644D01*
X153586998Y-107360979D01*
X153715979Y-107231998D01*
X153867644Y-107130659D01*
X154036166Y-107060855D01*
X154215067Y-107025270D01*
X154397473Y-107025270D01*
X154576374Y-107060855D01*
X154576374Y-107060855D01*
G37*
G36*
X196708520Y-106770520D02*
G01*
X195406520Y-106770520D01*
X195406520Y-105768520D01*
X196708520Y-105768520D01*
X196708520Y-106770520D01*
X196708520Y-106770520D01*
G37*
G36*
X177658520Y-106770520D02*
G01*
X176356520Y-106770520D01*
X176356520Y-105768520D01*
X177658520Y-105768520D01*
X177658520Y-106770520D01*
X177658520Y-106770520D01*
G37*
G36*
X139558520Y-106770520D02*
G01*
X138256520Y-106770520D01*
X138256520Y-105768520D01*
X139558520Y-105768520D01*
X139558520Y-106770520D01*
X139558520Y-106770520D01*
G37*
G36*
X158608520Y-106770520D02*
G01*
X157306520Y-106770520D01*
X157306520Y-105768520D01*
X158608520Y-105768520D01*
X158608520Y-106770520D01*
X158608520Y-106770520D01*
G37*
G36*
X145607830Y-104250334D02*
G01*
X145759297Y-104280463D01*
X145973315Y-104369112D01*
X145973316Y-104369113D01*
X146165924Y-104497809D01*
X146329731Y-104661616D01*
X146415528Y-104790021D01*
X146458428Y-104854225D01*
X146547077Y-105068243D01*
X146592270Y-105295444D01*
X146592270Y-105527096D01*
X146547077Y-105754297D01*
X146458428Y-105968315D01*
X146458427Y-105968316D01*
X146329731Y-106160924D01*
X146165924Y-106324731D01*
X146108810Y-106362893D01*
X145973315Y-106453428D01*
X145759297Y-106542077D01*
X145607830Y-106572206D01*
X145532097Y-106587270D01*
X145300443Y-106587270D01*
X145224710Y-106572206D01*
X145073243Y-106542077D01*
X144859225Y-106453428D01*
X144723730Y-106362893D01*
X144666616Y-106324731D01*
X144502809Y-106160924D01*
X144374113Y-105968316D01*
X144374112Y-105968315D01*
X144285463Y-105754297D01*
X144240270Y-105527096D01*
X144240270Y-105295444D01*
X144285463Y-105068243D01*
X144374112Y-104854225D01*
X144417012Y-104790021D01*
X144502809Y-104661616D01*
X144666616Y-104497809D01*
X144859224Y-104369113D01*
X144859225Y-104369112D01*
X145073243Y-104280463D01*
X145224710Y-104250334D01*
X145300443Y-104235270D01*
X145532097Y-104235270D01*
X145607830Y-104250334D01*
X145607830Y-104250334D01*
G37*
G36*
X183707830Y-104250334D02*
G01*
X183859297Y-104280463D01*
X184073315Y-104369112D01*
X184073316Y-104369113D01*
X184265924Y-104497809D01*
X184429731Y-104661616D01*
X184515528Y-104790021D01*
X184558428Y-104854225D01*
X184647077Y-105068243D01*
X184692270Y-105295444D01*
X184692270Y-105527096D01*
X184647077Y-105754297D01*
X184558428Y-105968315D01*
X184558427Y-105968316D01*
X184429731Y-106160924D01*
X184265924Y-106324731D01*
X184208810Y-106362893D01*
X184073315Y-106453428D01*
X183859297Y-106542077D01*
X183707830Y-106572206D01*
X183632097Y-106587270D01*
X183400443Y-106587270D01*
X183324710Y-106572206D01*
X183173243Y-106542077D01*
X182959225Y-106453428D01*
X182823730Y-106362893D01*
X182766616Y-106324731D01*
X182602809Y-106160924D01*
X182474113Y-105968316D01*
X182474112Y-105968315D01*
X182385463Y-105754297D01*
X182340270Y-105527096D01*
X182340270Y-105295444D01*
X182385463Y-105068243D01*
X182474112Y-104854225D01*
X182517012Y-104790021D01*
X182602809Y-104661616D01*
X182766616Y-104497809D01*
X182959224Y-104369113D01*
X182959225Y-104369112D01*
X183173243Y-104280463D01*
X183324710Y-104250334D01*
X183400443Y-104235270D01*
X183632097Y-104235270D01*
X183707830Y-104250334D01*
X183707830Y-104250334D01*
G37*
G36*
X126557830Y-104250334D02*
G01*
X126709297Y-104280463D01*
X126923315Y-104369112D01*
X126923316Y-104369113D01*
X127115924Y-104497809D01*
X127279731Y-104661616D01*
X127365528Y-104790021D01*
X127408428Y-104854225D01*
X127497077Y-105068243D01*
X127542270Y-105295444D01*
X127542270Y-105527096D01*
X127497077Y-105754297D01*
X127408428Y-105968315D01*
X127408427Y-105968316D01*
X127279731Y-106160924D01*
X127115924Y-106324731D01*
X127058810Y-106362893D01*
X126923315Y-106453428D01*
X126709297Y-106542077D01*
X126557830Y-106572206D01*
X126482097Y-106587270D01*
X126250443Y-106587270D01*
X126174710Y-106572206D01*
X126023243Y-106542077D01*
X125809225Y-106453428D01*
X125673730Y-106362893D01*
X125616616Y-106324731D01*
X125452809Y-106160924D01*
X125324113Y-105968316D01*
X125324112Y-105968315D01*
X125235463Y-105754297D01*
X125190270Y-105527096D01*
X125190270Y-105295444D01*
X125235463Y-105068243D01*
X125324112Y-104854225D01*
X125367012Y-104790021D01*
X125452809Y-104661616D01*
X125616616Y-104497809D01*
X125809224Y-104369113D01*
X125809225Y-104369112D01*
X126023243Y-104280463D01*
X126174710Y-104250334D01*
X126250443Y-104235270D01*
X126482097Y-104235270D01*
X126557830Y-104250334D01*
X126557830Y-104250334D01*
G37*
G36*
X164657830Y-104250334D02*
G01*
X164809297Y-104280463D01*
X165023315Y-104369112D01*
X165023316Y-104369113D01*
X165215924Y-104497809D01*
X165379731Y-104661616D01*
X165465528Y-104790021D01*
X165508428Y-104854225D01*
X165597077Y-105068243D01*
X165642270Y-105295444D01*
X165642270Y-105527096D01*
X165597077Y-105754297D01*
X165508428Y-105968315D01*
X165508427Y-105968316D01*
X165379731Y-106160924D01*
X165215924Y-106324731D01*
X165158810Y-106362893D01*
X165023315Y-106453428D01*
X164809297Y-106542077D01*
X164657830Y-106572206D01*
X164582097Y-106587270D01*
X164350443Y-106587270D01*
X164274710Y-106572206D01*
X164123243Y-106542077D01*
X163909225Y-106453428D01*
X163773730Y-106362893D01*
X163716616Y-106324731D01*
X163552809Y-106160924D01*
X163424113Y-105968316D01*
X163424112Y-105968315D01*
X163335463Y-105754297D01*
X163290270Y-105527096D01*
X163290270Y-105295444D01*
X163335463Y-105068243D01*
X163424112Y-104854225D01*
X163467012Y-104790021D01*
X163552809Y-104661616D01*
X163716616Y-104497809D01*
X163909224Y-104369113D01*
X163909225Y-104369112D01*
X164123243Y-104280463D01*
X164274710Y-104250334D01*
X164350443Y-104235270D01*
X164582097Y-104235270D01*
X164657830Y-104250334D01*
X164657830Y-104250334D01*
G37*
G36*
X132907830Y-101710334D02*
G01*
X133059297Y-101740463D01*
X133273315Y-101829112D01*
X133273316Y-101829113D01*
X133465924Y-101957809D01*
X133629731Y-102121616D01*
X133715528Y-102250021D01*
X133758428Y-102314225D01*
X133847077Y-102528243D01*
X133892270Y-102755444D01*
X133892270Y-102987096D01*
X133847077Y-103214297D01*
X133758428Y-103428315D01*
X133758427Y-103428316D01*
X133629731Y-103620924D01*
X133465924Y-103784731D01*
X133337519Y-103870528D01*
X133273315Y-103913428D01*
X133059297Y-104002077D01*
X132907830Y-104032206D01*
X132832097Y-104047270D01*
X132600443Y-104047270D01*
X132524710Y-104032206D01*
X132373243Y-104002077D01*
X132159225Y-103913428D01*
X132095021Y-103870528D01*
X131966616Y-103784731D01*
X131802809Y-103620924D01*
X131674113Y-103428316D01*
X131674112Y-103428315D01*
X131585463Y-103214297D01*
X131540270Y-102987096D01*
X131540270Y-102755444D01*
X131585463Y-102528243D01*
X131674112Y-102314225D01*
X131717012Y-102250021D01*
X131802809Y-102121616D01*
X131966616Y-101957809D01*
X132159224Y-101829113D01*
X132159225Y-101829112D01*
X132373243Y-101740463D01*
X132524710Y-101710334D01*
X132600443Y-101695270D01*
X132832097Y-101695270D01*
X132907830Y-101710334D01*
X132907830Y-101710334D01*
G37*
G36*
X190057830Y-101710334D02*
G01*
X190209297Y-101740463D01*
X190423315Y-101829112D01*
X190423316Y-101829113D01*
X190615924Y-101957809D01*
X190779731Y-102121616D01*
X190865528Y-102250021D01*
X190908428Y-102314225D01*
X190997077Y-102528243D01*
X191042270Y-102755444D01*
X191042270Y-102987096D01*
X190997077Y-103214297D01*
X190908428Y-103428315D01*
X190908427Y-103428316D01*
X190779731Y-103620924D01*
X190615924Y-103784731D01*
X190487519Y-103870528D01*
X190423315Y-103913428D01*
X190209297Y-104002077D01*
X190057830Y-104032206D01*
X189982097Y-104047270D01*
X189750443Y-104047270D01*
X189674710Y-104032206D01*
X189523243Y-104002077D01*
X189309225Y-103913428D01*
X189245021Y-103870528D01*
X189116616Y-103784731D01*
X188952809Y-103620924D01*
X188824113Y-103428316D01*
X188824112Y-103428315D01*
X188735463Y-103214297D01*
X188690270Y-102987096D01*
X188690270Y-102755444D01*
X188735463Y-102528243D01*
X188824112Y-102314225D01*
X188867012Y-102250021D01*
X188952809Y-102121616D01*
X189116616Y-101957809D01*
X189309224Y-101829113D01*
X189309225Y-101829112D01*
X189523243Y-101740463D01*
X189674710Y-101710334D01*
X189750443Y-101695270D01*
X189982097Y-101695270D01*
X190057830Y-101710334D01*
X190057830Y-101710334D01*
G37*
G36*
X151957830Y-101710334D02*
G01*
X152109297Y-101740463D01*
X152323315Y-101829112D01*
X152323316Y-101829113D01*
X152515924Y-101957809D01*
X152679731Y-102121616D01*
X152765528Y-102250021D01*
X152808428Y-102314225D01*
X152897077Y-102528243D01*
X152942270Y-102755444D01*
X152942270Y-102987096D01*
X152897077Y-103214297D01*
X152808428Y-103428315D01*
X152808427Y-103428316D01*
X152679731Y-103620924D01*
X152515924Y-103784731D01*
X152387519Y-103870528D01*
X152323315Y-103913428D01*
X152109297Y-104002077D01*
X151957830Y-104032206D01*
X151882097Y-104047270D01*
X151650443Y-104047270D01*
X151574710Y-104032206D01*
X151423243Y-104002077D01*
X151209225Y-103913428D01*
X151145021Y-103870528D01*
X151016616Y-103784731D01*
X150852809Y-103620924D01*
X150724113Y-103428316D01*
X150724112Y-103428315D01*
X150635463Y-103214297D01*
X150590270Y-102987096D01*
X150590270Y-102755444D01*
X150635463Y-102528243D01*
X150724112Y-102314225D01*
X150767012Y-102250021D01*
X150852809Y-102121616D01*
X151016616Y-101957809D01*
X151209224Y-101829113D01*
X151209225Y-101829112D01*
X151423243Y-101740463D01*
X151574710Y-101710334D01*
X151650443Y-101695270D01*
X151882097Y-101695270D01*
X151957830Y-101710334D01*
X151957830Y-101710334D01*
G37*
G36*
X171007830Y-101710334D02*
G01*
X171159297Y-101740463D01*
X171373315Y-101829112D01*
X171373316Y-101829113D01*
X171565924Y-101957809D01*
X171729731Y-102121616D01*
X171815528Y-102250021D01*
X171858428Y-102314225D01*
X171947077Y-102528243D01*
X171992270Y-102755444D01*
X171992270Y-102987096D01*
X171947077Y-103214297D01*
X171858428Y-103428315D01*
X171858427Y-103428316D01*
X171729731Y-103620924D01*
X171565924Y-103784731D01*
X171437519Y-103870528D01*
X171373315Y-103913428D01*
X171159297Y-104002077D01*
X171007830Y-104032206D01*
X170932097Y-104047270D01*
X170700443Y-104047270D01*
X170624710Y-104032206D01*
X170473243Y-104002077D01*
X170259225Y-103913428D01*
X170195021Y-103870528D01*
X170066616Y-103784731D01*
X169902809Y-103620924D01*
X169774113Y-103428316D01*
X169774112Y-103428315D01*
X169685463Y-103214297D01*
X169640270Y-102987096D01*
X169640270Y-102755444D01*
X169685463Y-102528243D01*
X169774112Y-102314225D01*
X169817012Y-102250021D01*
X169902809Y-102121616D01*
X170066616Y-101957809D01*
X170259224Y-101829113D01*
X170259225Y-101829112D01*
X170473243Y-101740463D01*
X170624710Y-101710334D01*
X170700443Y-101695270D01*
X170932097Y-101695270D01*
X171007830Y-101710334D01*
X171007830Y-101710334D01*
G37*
G36*
X196708520Y-91020520D02*
G01*
X195406520Y-91020520D01*
X195406520Y-90018520D01*
X196708520Y-90018520D01*
X196708520Y-91020520D01*
X196708520Y-91020520D01*
G37*
G36*
X158608520Y-91020520D02*
G01*
X157306520Y-91020520D01*
X157306520Y-90018520D01*
X158608520Y-90018520D01*
X158608520Y-91020520D01*
X158608520Y-91020520D01*
G37*
G36*
X139558520Y-91020520D02*
G01*
X138256520Y-91020520D01*
X138256520Y-90018520D01*
X139558520Y-90018520D01*
X139558520Y-91020520D01*
X139558520Y-91020520D01*
G37*
G36*
X177658520Y-91019250D02*
G01*
X176356520Y-91019250D01*
X176356520Y-90017250D01*
X177658520Y-90017250D01*
X177658520Y-91019250D01*
X177658520Y-91019250D01*
G37*
G36*
X187922744Y-86934954D02*
G01*
X188140744Y-87025253D01*
X188294893Y-87089103D01*
X188629818Y-87312893D01*
X188914647Y-87597722D01*
X189138437Y-87932647D01*
X189170832Y-88010856D01*
X189292586Y-88304796D01*
X189371170Y-88699864D01*
X189371170Y-89102676D01*
X189292586Y-89497744D01*
X189241721Y-89620542D01*
X189138437Y-89869893D01*
X188914647Y-90204818D01*
X188629818Y-90489647D01*
X188294893Y-90713437D01*
X188140744Y-90777287D01*
X187922744Y-90867586D01*
X187527676Y-90946170D01*
X187124864Y-90946170D01*
X186729796Y-90867586D01*
X186511796Y-90777287D01*
X186357647Y-90713437D01*
X186022722Y-90489647D01*
X185737893Y-90204818D01*
X185514103Y-89869893D01*
X185410819Y-89620542D01*
X185359954Y-89497744D01*
X185281370Y-89102676D01*
X185281370Y-88699864D01*
X185359954Y-88304796D01*
X185481708Y-88010856D01*
X185514103Y-87932647D01*
X185737893Y-87597722D01*
X186022722Y-87312893D01*
X186357647Y-87089103D01*
X186511796Y-87025253D01*
X186729796Y-86934954D01*
X187124864Y-86856370D01*
X187527676Y-86856370D01*
X187922744Y-86934954D01*
X187922744Y-86934954D01*
G37*
G36*
X168872744Y-86934954D02*
G01*
X169090744Y-87025253D01*
X169244893Y-87089103D01*
X169579818Y-87312893D01*
X169864647Y-87597722D01*
X170088437Y-87932647D01*
X170120832Y-88010856D01*
X170242586Y-88304796D01*
X170321170Y-88699864D01*
X170321170Y-89102676D01*
X170242586Y-89497744D01*
X170191721Y-89620542D01*
X170088437Y-89869893D01*
X169864647Y-90204818D01*
X169579818Y-90489647D01*
X169244893Y-90713437D01*
X169090744Y-90777287D01*
X168872744Y-90867586D01*
X168477676Y-90946170D01*
X168074864Y-90946170D01*
X167679796Y-90867586D01*
X167461796Y-90777287D01*
X167307647Y-90713437D01*
X166972722Y-90489647D01*
X166687893Y-90204818D01*
X166464103Y-89869893D01*
X166360819Y-89620542D01*
X166309954Y-89497744D01*
X166231370Y-89102676D01*
X166231370Y-88699864D01*
X166309954Y-88304796D01*
X166431708Y-88010856D01*
X166464103Y-87932647D01*
X166687893Y-87597722D01*
X166972722Y-87312893D01*
X167307647Y-87089103D01*
X167461796Y-87025253D01*
X167679796Y-86934954D01*
X168074864Y-86856370D01*
X168477676Y-86856370D01*
X168872744Y-86934954D01*
X168872744Y-86934954D01*
G37*
G36*
X130772744Y-86934954D02*
G01*
X130990744Y-87025253D01*
X131144893Y-87089103D01*
X131479818Y-87312893D01*
X131764647Y-87597722D01*
X131988437Y-87932647D01*
X132020832Y-88010856D01*
X132142586Y-88304796D01*
X132221170Y-88699864D01*
X132221170Y-89102676D01*
X132142586Y-89497744D01*
X132091721Y-89620542D01*
X131988437Y-89869893D01*
X131764647Y-90204818D01*
X131479818Y-90489647D01*
X131144893Y-90713437D01*
X130990744Y-90777287D01*
X130772744Y-90867586D01*
X130377676Y-90946170D01*
X129974864Y-90946170D01*
X129579796Y-90867586D01*
X129361796Y-90777287D01*
X129207647Y-90713437D01*
X128872722Y-90489647D01*
X128587893Y-90204818D01*
X128364103Y-89869893D01*
X128260819Y-89620542D01*
X128209954Y-89497744D01*
X128131370Y-89102676D01*
X128131370Y-88699864D01*
X128209954Y-88304796D01*
X128331708Y-88010856D01*
X128364103Y-87932647D01*
X128587893Y-87597722D01*
X128872722Y-87312893D01*
X129207647Y-87089103D01*
X129361796Y-87025253D01*
X129579796Y-86934954D01*
X129974864Y-86856370D01*
X130377676Y-86856370D01*
X130772744Y-86934954D01*
X130772744Y-86934954D01*
G37*
G36*
X149822744Y-86934954D02*
G01*
X150040744Y-87025253D01*
X150194893Y-87089103D01*
X150529818Y-87312893D01*
X150814647Y-87597722D01*
X151038437Y-87932647D01*
X151070832Y-88010856D01*
X151192586Y-88304796D01*
X151271170Y-88699864D01*
X151271170Y-89102676D01*
X151192586Y-89497744D01*
X151141721Y-89620542D01*
X151038437Y-89869893D01*
X150814647Y-90204818D01*
X150529818Y-90489647D01*
X150194893Y-90713437D01*
X150040744Y-90777287D01*
X149822744Y-90867586D01*
X149427676Y-90946170D01*
X149024864Y-90946170D01*
X148629796Y-90867586D01*
X148411796Y-90777287D01*
X148257647Y-90713437D01*
X147922722Y-90489647D01*
X147637893Y-90204818D01*
X147414103Y-89869893D01*
X147310819Y-89620542D01*
X147259954Y-89497744D01*
X147181370Y-89102676D01*
X147181370Y-88699864D01*
X147259954Y-88304796D01*
X147381708Y-88010856D01*
X147414103Y-87932647D01*
X147637893Y-87597722D01*
X147922722Y-87312893D01*
X148257647Y-87089103D01*
X148411796Y-87025253D01*
X148629796Y-86934954D01*
X149024864Y-86856370D01*
X149427676Y-86856370D01*
X149822744Y-86934954D01*
X149822744Y-86934954D01*
G37*
G36*
X192676374Y-88010855D02*
G01*
X192844896Y-88080659D01*
X192996561Y-88181998D01*
X193125542Y-88310979D01*
X193226881Y-88462644D01*
X193296685Y-88631166D01*
X193332270Y-88810067D01*
X193332270Y-88992473D01*
X193296685Y-89171374D01*
X193226881Y-89339896D01*
X193125542Y-89491561D01*
X192996561Y-89620542D01*
X192844896Y-89721881D01*
X192676374Y-89791685D01*
X192497473Y-89827270D01*
X192315067Y-89827270D01*
X192136166Y-89791685D01*
X191967644Y-89721881D01*
X191815979Y-89620542D01*
X191686998Y-89491561D01*
X191585659Y-89339896D01*
X191515855Y-89171374D01*
X191480270Y-88992473D01*
X191480270Y-88810067D01*
X191515855Y-88631166D01*
X191585659Y-88462644D01*
X191686998Y-88310979D01*
X191815979Y-88181998D01*
X191967644Y-88080659D01*
X192136166Y-88010855D01*
X192315067Y-87975270D01*
X192497473Y-87975270D01*
X192676374Y-88010855D01*
X192676374Y-88010855D01*
G37*
G36*
X125366374Y-88010855D02*
G01*
X125534896Y-88080659D01*
X125686561Y-88181998D01*
X125815542Y-88310979D01*
X125916881Y-88462644D01*
X125986685Y-88631166D01*
X126022270Y-88810067D01*
X126022270Y-88992473D01*
X125986685Y-89171374D01*
X125916881Y-89339896D01*
X125815542Y-89491561D01*
X125686561Y-89620542D01*
X125534896Y-89721881D01*
X125366374Y-89791685D01*
X125187473Y-89827270D01*
X125005067Y-89827270D01*
X124826166Y-89791685D01*
X124657644Y-89721881D01*
X124505979Y-89620542D01*
X124376998Y-89491561D01*
X124275659Y-89339896D01*
X124205855Y-89171374D01*
X124170270Y-88992473D01*
X124170270Y-88810067D01*
X124205855Y-88631166D01*
X124275659Y-88462644D01*
X124376998Y-88310979D01*
X124505979Y-88181998D01*
X124657644Y-88080659D01*
X124826166Y-88010855D01*
X125005067Y-87975270D01*
X125187473Y-87975270D01*
X125366374Y-88010855D01*
X125366374Y-88010855D01*
G37*
G36*
X163466374Y-88010855D02*
G01*
X163634896Y-88080659D01*
X163786561Y-88181998D01*
X163915542Y-88310979D01*
X164016881Y-88462644D01*
X164086685Y-88631166D01*
X164122270Y-88810067D01*
X164122270Y-88992473D01*
X164086685Y-89171374D01*
X164016881Y-89339896D01*
X163915542Y-89491561D01*
X163786561Y-89620542D01*
X163634896Y-89721881D01*
X163466374Y-89791685D01*
X163287473Y-89827270D01*
X163105067Y-89827270D01*
X162926166Y-89791685D01*
X162757644Y-89721881D01*
X162605979Y-89620542D01*
X162476998Y-89491561D01*
X162375659Y-89339896D01*
X162305855Y-89171374D01*
X162270270Y-88992473D01*
X162270270Y-88810067D01*
X162305855Y-88631166D01*
X162375659Y-88462644D01*
X162476998Y-88310979D01*
X162605979Y-88181998D01*
X162757644Y-88080659D01*
X162926166Y-88010855D01*
X163105067Y-87975270D01*
X163287473Y-87975270D01*
X163466374Y-88010855D01*
X163466374Y-88010855D01*
G37*
G36*
X154576374Y-88010855D02*
G01*
X154744896Y-88080659D01*
X154896561Y-88181998D01*
X155025542Y-88310979D01*
X155126881Y-88462644D01*
X155196685Y-88631166D01*
X155232270Y-88810067D01*
X155232270Y-88992473D01*
X155196685Y-89171374D01*
X155126881Y-89339896D01*
X155025542Y-89491561D01*
X154896561Y-89620542D01*
X154744896Y-89721881D01*
X154576374Y-89791685D01*
X154397473Y-89827270D01*
X154215067Y-89827270D01*
X154036166Y-89791685D01*
X153867644Y-89721881D01*
X153715979Y-89620542D01*
X153586998Y-89491561D01*
X153485659Y-89339896D01*
X153415855Y-89171374D01*
X153380270Y-88992473D01*
X153380270Y-88810067D01*
X153415855Y-88631166D01*
X153485659Y-88462644D01*
X153586998Y-88310979D01*
X153715979Y-88181998D01*
X153867644Y-88080659D01*
X154036166Y-88010855D01*
X154215067Y-87975270D01*
X154397473Y-87975270D01*
X154576374Y-88010855D01*
X154576374Y-88010855D01*
G37*
G36*
X173626374Y-88010855D02*
G01*
X173794896Y-88080659D01*
X173946561Y-88181998D01*
X174075542Y-88310979D01*
X174176881Y-88462644D01*
X174246685Y-88631166D01*
X174282270Y-88810067D01*
X174282270Y-88992473D01*
X174246685Y-89171374D01*
X174176881Y-89339896D01*
X174075542Y-89491561D01*
X173946561Y-89620542D01*
X173794896Y-89721881D01*
X173626374Y-89791685D01*
X173447473Y-89827270D01*
X173265067Y-89827270D01*
X173086166Y-89791685D01*
X172917644Y-89721881D01*
X172765979Y-89620542D01*
X172636998Y-89491561D01*
X172535659Y-89339896D01*
X172465855Y-89171374D01*
X172430270Y-88992473D01*
X172430270Y-88810067D01*
X172465855Y-88631166D01*
X172535659Y-88462644D01*
X172636998Y-88310979D01*
X172765979Y-88181998D01*
X172917644Y-88080659D01*
X173086166Y-88010855D01*
X173265067Y-87975270D01*
X173447473Y-87975270D01*
X173626374Y-88010855D01*
X173626374Y-88010855D01*
G37*
G36*
X135526374Y-88010855D02*
G01*
X135694896Y-88080659D01*
X135846561Y-88181998D01*
X135975542Y-88310979D01*
X136076881Y-88462644D01*
X136146685Y-88631166D01*
X136182270Y-88810067D01*
X136182270Y-88992473D01*
X136146685Y-89171374D01*
X136076881Y-89339896D01*
X135975542Y-89491561D01*
X135846561Y-89620542D01*
X135694896Y-89721881D01*
X135526374Y-89791685D01*
X135347473Y-89827270D01*
X135165067Y-89827270D01*
X134986166Y-89791685D01*
X134817644Y-89721881D01*
X134665979Y-89620542D01*
X134536998Y-89491561D01*
X134435659Y-89339896D01*
X134365855Y-89171374D01*
X134330270Y-88992473D01*
X134330270Y-88810067D01*
X134365855Y-88631166D01*
X134435659Y-88462644D01*
X134536998Y-88310979D01*
X134665979Y-88181998D01*
X134817644Y-88080659D01*
X134986166Y-88010855D01*
X135165067Y-87975270D01*
X135347473Y-87975270D01*
X135526374Y-88010855D01*
X135526374Y-88010855D01*
G37*
G36*
X182516374Y-88010855D02*
G01*
X182684896Y-88080659D01*
X182836561Y-88181998D01*
X182965542Y-88310979D01*
X183066881Y-88462644D01*
X183136685Y-88631166D01*
X183172270Y-88810067D01*
X183172270Y-88992473D01*
X183136685Y-89171374D01*
X183066881Y-89339896D01*
X182965542Y-89491561D01*
X182836561Y-89620542D01*
X182684896Y-89721881D01*
X182516374Y-89791685D01*
X182337473Y-89827270D01*
X182155067Y-89827270D01*
X181976166Y-89791685D01*
X181807644Y-89721881D01*
X181655979Y-89620542D01*
X181526998Y-89491561D01*
X181425659Y-89339896D01*
X181355855Y-89171374D01*
X181320270Y-88992473D01*
X181320270Y-88810067D01*
X181355855Y-88631166D01*
X181425659Y-88462644D01*
X181526998Y-88310979D01*
X181655979Y-88181998D01*
X181807644Y-88080659D01*
X181976166Y-88010855D01*
X182155067Y-87975270D01*
X182337473Y-87975270D01*
X182516374Y-88010855D01*
X182516374Y-88010855D01*
G37*
G36*
X144416374Y-88010855D02*
G01*
X144584896Y-88080659D01*
X144736561Y-88181998D01*
X144865542Y-88310979D01*
X144966881Y-88462644D01*
X145036685Y-88631166D01*
X145072270Y-88810067D01*
X145072270Y-88992473D01*
X145036685Y-89171374D01*
X144966881Y-89339896D01*
X144865542Y-89491561D01*
X144736561Y-89620542D01*
X144584896Y-89721881D01*
X144416374Y-89791685D01*
X144237473Y-89827270D01*
X144055067Y-89827270D01*
X143876166Y-89791685D01*
X143707644Y-89721881D01*
X143555979Y-89620542D01*
X143426998Y-89491561D01*
X143325659Y-89339896D01*
X143255855Y-89171374D01*
X143220270Y-88992473D01*
X143220270Y-88810067D01*
X143255855Y-88631166D01*
X143325659Y-88462644D01*
X143426998Y-88310979D01*
X143555979Y-88181998D01*
X143707644Y-88080659D01*
X143876166Y-88010855D01*
X144055067Y-87975270D01*
X144237473Y-87975270D01*
X144416374Y-88010855D01*
X144416374Y-88010855D01*
G37*
G36*
X196708520Y-87720520D02*
G01*
X195406520Y-87720520D01*
X195406520Y-86718520D01*
X196708520Y-86718520D01*
X196708520Y-87720520D01*
X196708520Y-87720520D01*
G37*
G36*
X139558520Y-87720520D02*
G01*
X138256520Y-87720520D01*
X138256520Y-86718520D01*
X139558520Y-86718520D01*
X139558520Y-87720520D01*
X139558520Y-87720520D01*
G37*
G36*
X158608520Y-87720520D02*
G01*
X157306520Y-87720520D01*
X157306520Y-86718520D01*
X158608520Y-86718520D01*
X158608520Y-87720520D01*
X158608520Y-87720520D01*
G37*
G36*
X177658520Y-87719250D02*
G01*
X176356520Y-87719250D01*
X176356520Y-86717250D01*
X177658520Y-86717250D01*
X177658520Y-87719250D01*
X177658520Y-87719250D01*
G37*
G36*
X183707830Y-85200334D02*
G01*
X183859297Y-85230463D01*
X184073315Y-85319112D01*
X184073316Y-85319113D01*
X184265924Y-85447809D01*
X184429731Y-85611616D01*
X184515528Y-85740021D01*
X184558428Y-85804225D01*
X184647077Y-86018243D01*
X184692270Y-86245444D01*
X184692270Y-86477096D01*
X184647077Y-86704297D01*
X184558428Y-86918315D01*
X184558427Y-86918316D01*
X184429731Y-87110924D01*
X184265924Y-87274731D01*
X184208810Y-87312893D01*
X184073315Y-87403428D01*
X183859297Y-87492077D01*
X183707830Y-87522206D01*
X183632097Y-87537270D01*
X183400443Y-87537270D01*
X183324710Y-87522206D01*
X183173243Y-87492077D01*
X182959225Y-87403428D01*
X182823730Y-87312893D01*
X182766616Y-87274731D01*
X182602809Y-87110924D01*
X182474113Y-86918316D01*
X182474112Y-86918315D01*
X182385463Y-86704297D01*
X182340270Y-86477096D01*
X182340270Y-86245444D01*
X182385463Y-86018243D01*
X182474112Y-85804225D01*
X182517012Y-85740021D01*
X182602809Y-85611616D01*
X182766616Y-85447809D01*
X182959224Y-85319113D01*
X182959225Y-85319112D01*
X183173243Y-85230463D01*
X183324710Y-85200334D01*
X183400443Y-85185270D01*
X183632097Y-85185270D01*
X183707830Y-85200334D01*
X183707830Y-85200334D01*
G37*
G36*
X164657830Y-85200334D02*
G01*
X164809297Y-85230463D01*
X165023315Y-85319112D01*
X165023316Y-85319113D01*
X165215924Y-85447809D01*
X165379731Y-85611616D01*
X165465528Y-85740021D01*
X165508428Y-85804225D01*
X165597077Y-86018243D01*
X165642270Y-86245444D01*
X165642270Y-86477096D01*
X165597077Y-86704297D01*
X165508428Y-86918315D01*
X165508427Y-86918316D01*
X165379731Y-87110924D01*
X165215924Y-87274731D01*
X165158810Y-87312893D01*
X165023315Y-87403428D01*
X164809297Y-87492077D01*
X164657830Y-87522206D01*
X164582097Y-87537270D01*
X164350443Y-87537270D01*
X164274710Y-87522206D01*
X164123243Y-87492077D01*
X163909225Y-87403428D01*
X163773730Y-87312893D01*
X163716616Y-87274731D01*
X163552809Y-87110924D01*
X163424113Y-86918316D01*
X163424112Y-86918315D01*
X163335463Y-86704297D01*
X163290270Y-86477096D01*
X163290270Y-86245444D01*
X163335463Y-86018243D01*
X163424112Y-85804225D01*
X163467012Y-85740021D01*
X163552809Y-85611616D01*
X163716616Y-85447809D01*
X163909224Y-85319113D01*
X163909225Y-85319112D01*
X164123243Y-85230463D01*
X164274710Y-85200334D01*
X164350443Y-85185270D01*
X164582097Y-85185270D01*
X164657830Y-85200334D01*
X164657830Y-85200334D01*
G37*
G36*
X145607830Y-85200334D02*
G01*
X145759297Y-85230463D01*
X145973315Y-85319112D01*
X145973316Y-85319113D01*
X146165924Y-85447809D01*
X146329731Y-85611616D01*
X146415528Y-85740021D01*
X146458428Y-85804225D01*
X146547077Y-86018243D01*
X146592270Y-86245444D01*
X146592270Y-86477096D01*
X146547077Y-86704297D01*
X146458428Y-86918315D01*
X146458427Y-86918316D01*
X146329731Y-87110924D01*
X146165924Y-87274731D01*
X146108810Y-87312893D01*
X145973315Y-87403428D01*
X145759297Y-87492077D01*
X145607830Y-87522206D01*
X145532097Y-87537270D01*
X145300443Y-87537270D01*
X145224710Y-87522206D01*
X145073243Y-87492077D01*
X144859225Y-87403428D01*
X144723730Y-87312893D01*
X144666616Y-87274731D01*
X144502809Y-87110924D01*
X144374113Y-86918316D01*
X144374112Y-86918315D01*
X144285463Y-86704297D01*
X144240270Y-86477096D01*
X144240270Y-86245444D01*
X144285463Y-86018243D01*
X144374112Y-85804225D01*
X144417012Y-85740021D01*
X144502809Y-85611616D01*
X144666616Y-85447809D01*
X144859224Y-85319113D01*
X144859225Y-85319112D01*
X145073243Y-85230463D01*
X145224710Y-85200334D01*
X145300443Y-85185270D01*
X145532097Y-85185270D01*
X145607830Y-85200334D01*
X145607830Y-85200334D01*
G37*
G36*
X126557830Y-85200334D02*
G01*
X126709297Y-85230463D01*
X126923315Y-85319112D01*
X126923316Y-85319113D01*
X127115924Y-85447809D01*
X127279731Y-85611616D01*
X127365528Y-85740021D01*
X127408428Y-85804225D01*
X127497077Y-86018243D01*
X127542270Y-86245444D01*
X127542270Y-86477096D01*
X127497077Y-86704297D01*
X127408428Y-86918315D01*
X127408427Y-86918316D01*
X127279731Y-87110924D01*
X127115924Y-87274731D01*
X127058810Y-87312893D01*
X126923315Y-87403428D01*
X126709297Y-87492077D01*
X126557830Y-87522206D01*
X126482097Y-87537270D01*
X126250443Y-87537270D01*
X126174710Y-87522206D01*
X126023243Y-87492077D01*
X125809225Y-87403428D01*
X125673730Y-87312893D01*
X125616616Y-87274731D01*
X125452809Y-87110924D01*
X125324113Y-86918316D01*
X125324112Y-86918315D01*
X125235463Y-86704297D01*
X125190270Y-86477096D01*
X125190270Y-86245444D01*
X125235463Y-86018243D01*
X125324112Y-85804225D01*
X125367012Y-85740021D01*
X125452809Y-85611616D01*
X125616616Y-85447809D01*
X125809224Y-85319113D01*
X125809225Y-85319112D01*
X126023243Y-85230463D01*
X126174710Y-85200334D01*
X126250443Y-85185270D01*
X126482097Y-85185270D01*
X126557830Y-85200334D01*
X126557830Y-85200334D01*
G37*
G36*
X190057830Y-82660334D02*
G01*
X190209297Y-82690463D01*
X190423315Y-82779112D01*
X190423316Y-82779113D01*
X190615924Y-82907809D01*
X190779731Y-83071616D01*
X190865528Y-83200021D01*
X190908428Y-83264225D01*
X190997077Y-83478243D01*
X191042270Y-83705444D01*
X191042270Y-83937096D01*
X190997077Y-84164297D01*
X190908428Y-84378315D01*
X190908427Y-84378316D01*
X190779731Y-84570924D01*
X190615924Y-84734731D01*
X190487519Y-84820528D01*
X190423315Y-84863428D01*
X190209297Y-84952077D01*
X190057830Y-84982206D01*
X189982097Y-84997270D01*
X189750443Y-84997270D01*
X189674710Y-84982206D01*
X189523243Y-84952077D01*
X189309225Y-84863428D01*
X189245021Y-84820528D01*
X189116616Y-84734731D01*
X188952809Y-84570924D01*
X188824113Y-84378316D01*
X188824112Y-84378315D01*
X188735463Y-84164297D01*
X188690270Y-83937096D01*
X188690270Y-83705444D01*
X188735463Y-83478243D01*
X188824112Y-83264225D01*
X188867012Y-83200021D01*
X188952809Y-83071616D01*
X189116616Y-82907809D01*
X189309224Y-82779113D01*
X189309225Y-82779112D01*
X189523243Y-82690463D01*
X189674710Y-82660334D01*
X189750443Y-82645270D01*
X189982097Y-82645270D01*
X190057830Y-82660334D01*
X190057830Y-82660334D01*
G37*
G36*
X132907830Y-82660334D02*
G01*
X133059297Y-82690463D01*
X133273315Y-82779112D01*
X133273316Y-82779113D01*
X133465924Y-82907809D01*
X133629731Y-83071616D01*
X133715528Y-83200021D01*
X133758428Y-83264225D01*
X133847077Y-83478243D01*
X133892270Y-83705444D01*
X133892270Y-83937096D01*
X133847077Y-84164297D01*
X133758428Y-84378315D01*
X133758427Y-84378316D01*
X133629731Y-84570924D01*
X133465924Y-84734731D01*
X133337519Y-84820528D01*
X133273315Y-84863428D01*
X133059297Y-84952077D01*
X132907830Y-84982206D01*
X132832097Y-84997270D01*
X132600443Y-84997270D01*
X132524710Y-84982206D01*
X132373243Y-84952077D01*
X132159225Y-84863428D01*
X132095021Y-84820528D01*
X131966616Y-84734731D01*
X131802809Y-84570924D01*
X131674113Y-84378316D01*
X131674112Y-84378315D01*
X131585463Y-84164297D01*
X131540270Y-83937096D01*
X131540270Y-83705444D01*
X131585463Y-83478243D01*
X131674112Y-83264225D01*
X131717012Y-83200021D01*
X131802809Y-83071616D01*
X131966616Y-82907809D01*
X132159224Y-82779113D01*
X132159225Y-82779112D01*
X132373243Y-82690463D01*
X132524710Y-82660334D01*
X132600443Y-82645270D01*
X132832097Y-82645270D01*
X132907830Y-82660334D01*
X132907830Y-82660334D01*
G37*
G36*
X171007830Y-82660334D02*
G01*
X171159297Y-82690463D01*
X171373315Y-82779112D01*
X171373316Y-82779113D01*
X171565924Y-82907809D01*
X171729731Y-83071616D01*
X171815528Y-83200021D01*
X171858428Y-83264225D01*
X171947077Y-83478243D01*
X171992270Y-83705444D01*
X171992270Y-83937096D01*
X171947077Y-84164297D01*
X171858428Y-84378315D01*
X171858427Y-84378316D01*
X171729731Y-84570924D01*
X171565924Y-84734731D01*
X171437519Y-84820528D01*
X171373315Y-84863428D01*
X171159297Y-84952077D01*
X171007830Y-84982206D01*
X170932097Y-84997270D01*
X170700443Y-84997270D01*
X170624710Y-84982206D01*
X170473243Y-84952077D01*
X170259225Y-84863428D01*
X170195021Y-84820528D01*
X170066616Y-84734731D01*
X169902809Y-84570924D01*
X169774113Y-84378316D01*
X169774112Y-84378315D01*
X169685463Y-84164297D01*
X169640270Y-83937096D01*
X169640270Y-83705444D01*
X169685463Y-83478243D01*
X169774112Y-83264225D01*
X169817012Y-83200021D01*
X169902809Y-83071616D01*
X170066616Y-82907809D01*
X170259224Y-82779113D01*
X170259225Y-82779112D01*
X170473243Y-82690463D01*
X170624710Y-82660334D01*
X170700443Y-82645270D01*
X170932097Y-82645270D01*
X171007830Y-82660334D01*
X171007830Y-82660334D01*
G37*
G36*
X151957830Y-82660334D02*
G01*
X152109297Y-82690463D01*
X152323315Y-82779112D01*
X152323316Y-82779113D01*
X152515924Y-82907809D01*
X152679731Y-83071616D01*
X152765528Y-83200021D01*
X152808428Y-83264225D01*
X152897077Y-83478243D01*
X152942270Y-83705444D01*
X152942270Y-83937096D01*
X152897077Y-84164297D01*
X152808428Y-84378315D01*
X152808427Y-84378316D01*
X152679731Y-84570924D01*
X152515924Y-84734731D01*
X152387519Y-84820528D01*
X152323315Y-84863428D01*
X152109297Y-84952077D01*
X151957830Y-84982206D01*
X151882097Y-84997270D01*
X151650443Y-84997270D01*
X151574710Y-84982206D01*
X151423243Y-84952077D01*
X151209225Y-84863428D01*
X151145021Y-84820528D01*
X151016616Y-84734731D01*
X150852809Y-84570924D01*
X150724113Y-84378316D01*
X150724112Y-84378315D01*
X150635463Y-84164297D01*
X150590270Y-83937096D01*
X150590270Y-83705444D01*
X150635463Y-83478243D01*
X150724112Y-83264225D01*
X150767012Y-83200021D01*
X150852809Y-83071616D01*
X151016616Y-82907809D01*
X151209224Y-82779113D01*
X151209225Y-82779112D01*
X151423243Y-82690463D01*
X151574710Y-82660334D01*
X151650443Y-82645270D01*
X151882097Y-82645270D01*
X151957830Y-82660334D01*
X151957830Y-82660334D01*
G37*
G36*
X158608520Y-62445520D02*
G01*
X157306520Y-62445520D01*
X157306520Y-61443520D01*
X158608520Y-61443520D01*
X158608520Y-62445520D01*
X158608520Y-62445520D01*
G37*
G36*
X139558520Y-62445520D02*
G01*
X138256520Y-62445520D01*
X138256520Y-61443520D01*
X139558520Y-61443520D01*
X139558520Y-62445520D01*
X139558520Y-62445520D01*
G37*
G36*
X149822744Y-58359954D02*
G01*
X150040744Y-58450253D01*
X150194893Y-58514103D01*
X150529818Y-58737893D01*
X150814647Y-59022722D01*
X151038437Y-59357647D01*
X151070832Y-59435856D01*
X151192586Y-59729796D01*
X151271170Y-60124864D01*
X151271170Y-60527676D01*
X151192586Y-60922744D01*
X151141721Y-61045542D01*
X151038437Y-61294893D01*
X150814647Y-61629818D01*
X150529818Y-61914647D01*
X150194893Y-62138437D01*
X150040744Y-62202287D01*
X149822744Y-62292586D01*
X149427676Y-62371170D01*
X149024864Y-62371170D01*
X148629796Y-62292586D01*
X148411796Y-62202287D01*
X148257647Y-62138437D01*
X147922722Y-61914647D01*
X147637893Y-61629818D01*
X147414103Y-61294893D01*
X147310819Y-61045542D01*
X147259954Y-60922744D01*
X147181370Y-60527676D01*
X147181370Y-60124864D01*
X147259954Y-59729796D01*
X147381708Y-59435856D01*
X147414103Y-59357647D01*
X147637893Y-59022722D01*
X147922722Y-58737893D01*
X148257647Y-58514103D01*
X148411796Y-58450253D01*
X148629796Y-58359954D01*
X149024864Y-58281370D01*
X149427676Y-58281370D01*
X149822744Y-58359954D01*
X149822744Y-58359954D01*
G37*
G36*
X130772744Y-58359954D02*
G01*
X130990744Y-58450253D01*
X131144893Y-58514103D01*
X131479818Y-58737893D01*
X131764647Y-59022722D01*
X131988437Y-59357647D01*
X132020832Y-59435856D01*
X132142586Y-59729796D01*
X132221170Y-60124864D01*
X132221170Y-60527676D01*
X132142586Y-60922744D01*
X132091721Y-61045542D01*
X131988437Y-61294893D01*
X131764647Y-61629818D01*
X131479818Y-61914647D01*
X131144893Y-62138437D01*
X130990744Y-62202287D01*
X130772744Y-62292586D01*
X130377676Y-62371170D01*
X129974864Y-62371170D01*
X129579796Y-62292586D01*
X129361796Y-62202287D01*
X129207647Y-62138437D01*
X128872722Y-61914647D01*
X128587893Y-61629818D01*
X128364103Y-61294893D01*
X128260819Y-61045542D01*
X128209954Y-60922744D01*
X128131370Y-60527676D01*
X128131370Y-60124864D01*
X128209954Y-59729796D01*
X128331708Y-59435856D01*
X128364103Y-59357647D01*
X128587893Y-59022722D01*
X128872722Y-58737893D01*
X129207647Y-58514103D01*
X129361796Y-58450253D01*
X129579796Y-58359954D01*
X129974864Y-58281370D01*
X130377676Y-58281370D01*
X130772744Y-58359954D01*
X130772744Y-58359954D01*
G37*
G36*
X135526374Y-59435855D02*
G01*
X135694896Y-59505659D01*
X135846561Y-59606998D01*
X135975542Y-59735979D01*
X136076881Y-59887644D01*
X136146685Y-60056166D01*
X136182270Y-60235067D01*
X136182270Y-60417473D01*
X136146685Y-60596374D01*
X136076881Y-60764896D01*
X135975542Y-60916561D01*
X135846561Y-61045542D01*
X135694896Y-61146881D01*
X135526374Y-61216685D01*
X135347473Y-61252270D01*
X135165067Y-61252270D01*
X134986166Y-61216685D01*
X134817644Y-61146881D01*
X134665979Y-61045542D01*
X134536998Y-60916561D01*
X134435659Y-60764896D01*
X134365855Y-60596374D01*
X134330270Y-60417473D01*
X134330270Y-60235067D01*
X134365855Y-60056166D01*
X134435659Y-59887644D01*
X134536998Y-59735979D01*
X134665979Y-59606998D01*
X134817644Y-59505659D01*
X134986166Y-59435855D01*
X135165067Y-59400270D01*
X135347473Y-59400270D01*
X135526374Y-59435855D01*
X135526374Y-59435855D01*
G37*
G36*
X154576374Y-59435855D02*
G01*
X154744896Y-59505659D01*
X154896561Y-59606998D01*
X155025542Y-59735979D01*
X155126881Y-59887644D01*
X155196685Y-60056166D01*
X155232270Y-60235067D01*
X155232270Y-60417473D01*
X155196685Y-60596374D01*
X155126881Y-60764896D01*
X155025542Y-60916561D01*
X154896561Y-61045542D01*
X154744896Y-61146881D01*
X154576374Y-61216685D01*
X154397473Y-61252270D01*
X154215067Y-61252270D01*
X154036166Y-61216685D01*
X153867644Y-61146881D01*
X153715979Y-61045542D01*
X153586998Y-60916561D01*
X153485659Y-60764896D01*
X153415855Y-60596374D01*
X153380270Y-60417473D01*
X153380270Y-60235067D01*
X153415855Y-60056166D01*
X153485659Y-59887644D01*
X153586998Y-59735979D01*
X153715979Y-59606998D01*
X153867644Y-59505659D01*
X154036166Y-59435855D01*
X154215067Y-59400270D01*
X154397473Y-59400270D01*
X154576374Y-59435855D01*
X154576374Y-59435855D01*
G37*
G36*
X144416374Y-59435855D02*
G01*
X144584896Y-59505659D01*
X144736561Y-59606998D01*
X144865542Y-59735979D01*
X144966881Y-59887644D01*
X145036685Y-60056166D01*
X145072270Y-60235067D01*
X145072270Y-60417473D01*
X145036685Y-60596374D01*
X144966881Y-60764896D01*
X144865542Y-60916561D01*
X144736561Y-61045542D01*
X144584896Y-61146881D01*
X144416374Y-61216685D01*
X144237473Y-61252270D01*
X144055067Y-61252270D01*
X143876166Y-61216685D01*
X143707644Y-61146881D01*
X143555979Y-61045542D01*
X143426998Y-60916561D01*
X143325659Y-60764896D01*
X143255855Y-60596374D01*
X143220270Y-60417473D01*
X143220270Y-60235067D01*
X143255855Y-60056166D01*
X143325659Y-59887644D01*
X143426998Y-59735979D01*
X143555979Y-59606998D01*
X143707644Y-59505659D01*
X143876166Y-59435855D01*
X144055067Y-59400270D01*
X144237473Y-59400270D01*
X144416374Y-59435855D01*
X144416374Y-59435855D01*
G37*
G36*
X125366374Y-59435855D02*
G01*
X125534896Y-59505659D01*
X125686561Y-59606998D01*
X125815542Y-59735979D01*
X125916881Y-59887644D01*
X125986685Y-60056166D01*
X126022270Y-60235067D01*
X126022270Y-60417473D01*
X125986685Y-60596374D01*
X125916881Y-60764896D01*
X125815542Y-60916561D01*
X125686561Y-61045542D01*
X125534896Y-61146881D01*
X125366374Y-61216685D01*
X125187473Y-61252270D01*
X125005067Y-61252270D01*
X124826166Y-61216685D01*
X124657644Y-61146881D01*
X124505979Y-61045542D01*
X124376998Y-60916561D01*
X124275659Y-60764896D01*
X124205855Y-60596374D01*
X124170270Y-60417473D01*
X124170270Y-60235067D01*
X124205855Y-60056166D01*
X124275659Y-59887644D01*
X124376998Y-59735979D01*
X124505979Y-59606998D01*
X124657644Y-59505659D01*
X124826166Y-59435855D01*
X125005067Y-59400270D01*
X125187473Y-59400270D01*
X125366374Y-59435855D01*
X125366374Y-59435855D01*
G37*
G36*
X139558520Y-59145520D02*
G01*
X138256520Y-59145520D01*
X138256520Y-58143520D01*
X139558520Y-58143520D01*
X139558520Y-59145520D01*
X139558520Y-59145520D01*
G37*
G36*
X158608520Y-59145520D02*
G01*
X157306520Y-59145520D01*
X157306520Y-58143520D01*
X158608520Y-58143520D01*
X158608520Y-59145520D01*
X158608520Y-59145520D01*
G37*
G36*
X126557830Y-56625334D02*
G01*
X126709297Y-56655463D01*
X126923315Y-56744112D01*
X126923316Y-56744113D01*
X127115924Y-56872809D01*
X127279731Y-57036616D01*
X127327753Y-57108486D01*
X127408428Y-57229225D01*
X127497077Y-57443243D01*
X127542270Y-57670444D01*
X127542270Y-57902096D01*
X127497077Y-58129297D01*
X127408428Y-58343315D01*
X127408427Y-58343316D01*
X127279731Y-58535924D01*
X127115924Y-58699731D01*
X127058810Y-58737893D01*
X126923315Y-58828428D01*
X126709297Y-58917077D01*
X126557830Y-58947206D01*
X126482097Y-58962270D01*
X126250443Y-58962270D01*
X126174710Y-58947206D01*
X126023243Y-58917077D01*
X125809225Y-58828428D01*
X125673730Y-58737893D01*
X125616616Y-58699731D01*
X125452809Y-58535924D01*
X125324113Y-58343316D01*
X125324112Y-58343315D01*
X125235463Y-58129297D01*
X125190270Y-57902096D01*
X125190270Y-57670444D01*
X125235463Y-57443243D01*
X125324112Y-57229225D01*
X125404787Y-57108486D01*
X125452809Y-57036616D01*
X125616616Y-56872809D01*
X125809224Y-56744113D01*
X125809225Y-56744112D01*
X126023243Y-56655463D01*
X126174710Y-56625334D01*
X126250443Y-56610270D01*
X126482097Y-56610270D01*
X126557830Y-56625334D01*
X126557830Y-56625334D01*
G37*
G36*
X145607830Y-56625334D02*
G01*
X145759297Y-56655463D01*
X145973315Y-56744112D01*
X145973316Y-56744113D01*
X146165924Y-56872809D01*
X146329731Y-57036616D01*
X146377753Y-57108486D01*
X146458428Y-57229225D01*
X146547077Y-57443243D01*
X146592270Y-57670444D01*
X146592270Y-57902096D01*
X146547077Y-58129297D01*
X146458428Y-58343315D01*
X146458427Y-58343316D01*
X146329731Y-58535924D01*
X146165924Y-58699731D01*
X146108810Y-58737893D01*
X145973315Y-58828428D01*
X145759297Y-58917077D01*
X145607830Y-58947206D01*
X145532097Y-58962270D01*
X145300443Y-58962270D01*
X145224710Y-58947206D01*
X145073243Y-58917077D01*
X144859225Y-58828428D01*
X144723730Y-58737893D01*
X144666616Y-58699731D01*
X144502809Y-58535924D01*
X144374113Y-58343316D01*
X144374112Y-58343315D01*
X144285463Y-58129297D01*
X144240270Y-57902096D01*
X144240270Y-57670444D01*
X144285463Y-57443243D01*
X144374112Y-57229225D01*
X144454787Y-57108486D01*
X144502809Y-57036616D01*
X144666616Y-56872809D01*
X144859224Y-56744113D01*
X144859225Y-56744112D01*
X145073243Y-56655463D01*
X145224710Y-56625334D01*
X145300443Y-56610270D01*
X145532097Y-56610270D01*
X145607830Y-56625334D01*
X145607830Y-56625334D01*
G37*
G36*
X190962944Y-57078485D02*
G01*
X191000637Y-57089919D01*
X191035373Y-57108486D01*
X191065818Y-57133472D01*
X191090804Y-57163917D01*
X191109371Y-57198653D01*
X191120805Y-57236346D01*
X191125270Y-57281681D01*
X191125270Y-58118359D01*
X191120805Y-58163694D01*
X191109371Y-58201387D01*
X191090804Y-58236123D01*
X191065818Y-58266568D01*
X191035373Y-58291554D01*
X191000637Y-58310121D01*
X190962944Y-58321555D01*
X190917609Y-58326020D01*
X189830931Y-58326020D01*
X189785596Y-58321555D01*
X189747903Y-58310121D01*
X189713167Y-58291554D01*
X189682722Y-58266568D01*
X189657736Y-58236123D01*
X189639169Y-58201387D01*
X189627735Y-58163694D01*
X189623270Y-58118359D01*
X189623270Y-57281681D01*
X189627735Y-57236346D01*
X189639169Y-57198653D01*
X189657736Y-57163917D01*
X189682722Y-57133472D01*
X189713167Y-57108486D01*
X189747903Y-57089919D01*
X189785596Y-57078485D01*
X189830931Y-57074020D01*
X190917609Y-57074020D01*
X190962944Y-57078485D01*
X190962944Y-57078485D01*
G37*
G36*
X188803944Y-57078485D02*
G01*
X188841637Y-57089919D01*
X188876373Y-57108486D01*
X188906818Y-57133472D01*
X188931804Y-57163917D01*
X188950371Y-57198653D01*
X188961805Y-57236346D01*
X188966270Y-57281681D01*
X188966270Y-58118359D01*
X188961805Y-58163694D01*
X188950371Y-58201387D01*
X188931804Y-58236123D01*
X188906818Y-58266568D01*
X188876373Y-58291554D01*
X188841637Y-58310121D01*
X188803944Y-58321555D01*
X188758609Y-58326020D01*
X187671931Y-58326020D01*
X187626596Y-58321555D01*
X187588903Y-58310121D01*
X187554167Y-58291554D01*
X187523722Y-58266568D01*
X187498736Y-58236123D01*
X187480169Y-58201387D01*
X187468735Y-58163694D01*
X187464270Y-58118359D01*
X187464270Y-57281681D01*
X187468735Y-57236346D01*
X187480169Y-57198653D01*
X187498736Y-57163917D01*
X187523722Y-57133472D01*
X187554167Y-57108486D01*
X187588903Y-57089919D01*
X187626596Y-57078485D01*
X187671931Y-57074020D01*
X188758609Y-57074020D01*
X188803944Y-57078485D01*
X188803944Y-57078485D01*
G37*
G36*
X132907830Y-54085334D02*
G01*
X133059297Y-54115463D01*
X133273315Y-54204112D01*
X133273316Y-54204113D01*
X133465924Y-54332809D01*
X133629731Y-54496616D01*
X133715528Y-54625021D01*
X133758428Y-54689225D01*
X133847077Y-54903243D01*
X133892270Y-55130444D01*
X133892270Y-55362096D01*
X133847077Y-55589297D01*
X133758428Y-55803315D01*
X133758427Y-55803316D01*
X133629731Y-55995924D01*
X133465924Y-56159731D01*
X133343467Y-56241554D01*
X133273315Y-56288428D01*
X133059297Y-56377077D01*
X132907830Y-56407206D01*
X132832097Y-56422270D01*
X132600443Y-56422270D01*
X132524710Y-56407206D01*
X132373243Y-56377077D01*
X132159225Y-56288428D01*
X132089073Y-56241554D01*
X131966616Y-56159731D01*
X131802809Y-55995924D01*
X131674113Y-55803316D01*
X131674112Y-55803315D01*
X131585463Y-55589297D01*
X131540270Y-55362096D01*
X131540270Y-55130444D01*
X131585463Y-54903243D01*
X131674112Y-54689225D01*
X131717012Y-54625021D01*
X131802809Y-54496616D01*
X131966616Y-54332809D01*
X132159224Y-54204113D01*
X132159225Y-54204112D01*
X132373243Y-54115463D01*
X132524710Y-54085334D01*
X132600443Y-54070270D01*
X132832097Y-54070270D01*
X132907830Y-54085334D01*
X132907830Y-54085334D01*
G37*
G36*
X151957830Y-54085334D02*
G01*
X152109297Y-54115463D01*
X152323315Y-54204112D01*
X152323316Y-54204113D01*
X152515924Y-54332809D01*
X152679731Y-54496616D01*
X152765528Y-54625021D01*
X152808428Y-54689225D01*
X152897077Y-54903243D01*
X152942270Y-55130444D01*
X152942270Y-55362096D01*
X152897077Y-55589297D01*
X152808428Y-55803315D01*
X152808427Y-55803316D01*
X152679731Y-55995924D01*
X152515924Y-56159731D01*
X152393467Y-56241554D01*
X152323315Y-56288428D01*
X152109297Y-56377077D01*
X151957830Y-56407206D01*
X151882097Y-56422270D01*
X151650443Y-56422270D01*
X151574710Y-56407206D01*
X151423243Y-56377077D01*
X151209225Y-56288428D01*
X151139073Y-56241554D01*
X151016616Y-56159731D01*
X150852809Y-55995924D01*
X150724113Y-55803316D01*
X150724112Y-55803315D01*
X150635463Y-55589297D01*
X150590270Y-55362096D01*
X150590270Y-55130444D01*
X150635463Y-54903243D01*
X150724112Y-54689225D01*
X150767012Y-54625021D01*
X150852809Y-54496616D01*
X151016616Y-54332809D01*
X151209224Y-54204113D01*
X151209225Y-54204112D01*
X151423243Y-54115463D01*
X151574710Y-54085334D01*
X151650443Y-54070270D01*
X151882097Y-54070270D01*
X151957830Y-54085334D01*
X151957830Y-54085334D01*
G37*
G36*
X190962944Y-55028485D02*
G01*
X191000637Y-55039919D01*
X191035373Y-55058486D01*
X191065818Y-55083472D01*
X191090804Y-55113917D01*
X191109371Y-55148653D01*
X191120805Y-55186346D01*
X191125270Y-55231681D01*
X191125270Y-56068359D01*
X191120805Y-56113694D01*
X191109371Y-56151387D01*
X191090804Y-56186123D01*
X191065818Y-56216568D01*
X191035373Y-56241554D01*
X191000637Y-56260121D01*
X190962944Y-56271555D01*
X190917609Y-56276020D01*
X189830931Y-56276020D01*
X189785596Y-56271555D01*
X189747903Y-56260121D01*
X189713167Y-56241554D01*
X189682722Y-56216568D01*
X189657736Y-56186123D01*
X189639169Y-56151387D01*
X189627735Y-56113694D01*
X189623270Y-56068359D01*
X189623270Y-55231681D01*
X189627735Y-55186346D01*
X189639169Y-55148653D01*
X189657736Y-55113917D01*
X189682722Y-55083472D01*
X189713167Y-55058486D01*
X189747903Y-55039919D01*
X189785596Y-55028485D01*
X189830931Y-55024020D01*
X190917609Y-55024020D01*
X190962944Y-55028485D01*
X190962944Y-55028485D01*
G37*
G36*
X188803944Y-55028485D02*
G01*
X188841637Y-55039919D01*
X188876373Y-55058486D01*
X188906818Y-55083472D01*
X188931804Y-55113917D01*
X188950371Y-55148653D01*
X188961805Y-55186346D01*
X188966270Y-55231681D01*
X188966270Y-56068359D01*
X188961805Y-56113694D01*
X188950371Y-56151387D01*
X188931804Y-56186123D01*
X188906818Y-56216568D01*
X188876373Y-56241554D01*
X188841637Y-56260121D01*
X188803944Y-56271555D01*
X188758609Y-56276020D01*
X187671931Y-56276020D01*
X187626596Y-56271555D01*
X187588903Y-56260121D01*
X187554167Y-56241554D01*
X187523722Y-56216568D01*
X187498736Y-56186123D01*
X187480169Y-56151387D01*
X187468735Y-56113694D01*
X187464270Y-56068359D01*
X187464270Y-55231681D01*
X187468735Y-55186346D01*
X187480169Y-55148653D01*
X187498736Y-55113917D01*
X187523722Y-55083472D01*
X187554167Y-55058486D01*
X187588903Y-55039919D01*
X187626596Y-55028485D01*
X187671931Y-55024020D01*
X188758609Y-55024020D01*
X188803944Y-55028485D01*
X188803944Y-55028485D01*
G37*
G36*
X185439127Y-50927537D02*
G01*
X185608966Y-50979057D01*
X185765491Y-51062722D01*
X185789136Y-51082127D01*
X185902686Y-51175314D01*
X185985948Y-51276771D01*
X186015278Y-51312509D01*
X186098943Y-51469034D01*
X186150463Y-51638873D01*
X186163500Y-51771242D01*
X186163500Y-52859758D01*
X186150463Y-52992127D01*
X186098943Y-53161966D01*
X186015278Y-53318491D01*
X185985948Y-53354229D01*
X185902686Y-53455686D01*
X185765489Y-53568279D01*
X185608967Y-53651942D01*
X185608965Y-53651943D01*
X185439126Y-53703463D01*
X185262500Y-53720859D01*
X185085873Y-53703463D01*
X184916034Y-53651943D01*
X184759509Y-53568278D01*
X184723771Y-53538948D01*
X184622314Y-53455686D01*
X184509721Y-53318489D01*
X184426058Y-53161967D01*
X184426057Y-53161965D01*
X184374537Y-52992126D01*
X184361500Y-52859757D01*
X184361501Y-51771242D01*
X184374538Y-51638873D01*
X184426058Y-51469034D01*
X184509723Y-51312509D01*
X184539053Y-51276771D01*
X184622315Y-51175314D01*
X184735865Y-51082127D01*
X184759510Y-51062722D01*
X184916035Y-50979057D01*
X185085874Y-50927537D01*
X185262500Y-50910141D01*
X185439127Y-50927537D01*
X185439127Y-50927537D01*
G37*
G36*
X192739127Y-50927537D02*
G01*
X192908966Y-50979057D01*
X193065491Y-51062722D01*
X193089136Y-51082127D01*
X193202686Y-51175314D01*
X193285948Y-51276771D01*
X193315278Y-51312509D01*
X193398943Y-51469034D01*
X193450463Y-51638873D01*
X193463500Y-51771242D01*
X193463500Y-52859758D01*
X193450463Y-52992127D01*
X193398943Y-53161966D01*
X193315278Y-53318491D01*
X193285948Y-53354229D01*
X193202686Y-53455686D01*
X193065489Y-53568279D01*
X192908967Y-53651942D01*
X192908965Y-53651943D01*
X192739126Y-53703463D01*
X192562500Y-53720859D01*
X192385873Y-53703463D01*
X192216034Y-53651943D01*
X192059509Y-53568278D01*
X192023771Y-53538948D01*
X191922314Y-53455686D01*
X191809721Y-53318489D01*
X191726058Y-53161967D01*
X191726057Y-53161965D01*
X191674537Y-52992126D01*
X191661500Y-52859757D01*
X191661501Y-51771242D01*
X191674538Y-51638873D01*
X191726058Y-51469034D01*
X191809723Y-51312509D01*
X191839053Y-51276771D01*
X191922315Y-51175314D01*
X192035865Y-51082127D01*
X192059510Y-51062722D01*
X192216035Y-50979057D01*
X192385874Y-50927537D01*
X192562500Y-50910141D01*
X192739127Y-50927537D01*
X192739127Y-50927537D01*
G37*
G36*
X190813500Y-53491500D02*
G01*
X187011500Y-53491500D01*
X187011500Y-51139500D01*
X190813500Y-51139500D01*
X190813500Y-53491500D01*
X190813500Y-53491500D01*
G37*
G36*
X181026375Y-50619479D02*
G01*
X181100016Y-50641818D01*
X181136837Y-50652987D01*
X181238639Y-50707402D01*
X181295727Y-50754253D01*
X181327869Y-50780631D01*
X181401098Y-50869861D01*
X181401099Y-50869863D01*
X181455513Y-50971662D01*
X181457756Y-50979057D01*
X181489021Y-51082124D01*
X181497500Y-51168215D01*
X181497500Y-51955785D01*
X181489021Y-52041876D01*
X181466682Y-52115517D01*
X181455513Y-52152338D01*
X181401098Y-52254140D01*
X181327870Y-52343370D01*
X181238640Y-52416598D01*
X181136838Y-52471013D01*
X181100017Y-52482182D01*
X181026376Y-52504521D01*
X180911500Y-52515835D01*
X180796625Y-52504521D01*
X180722984Y-52482182D01*
X180686163Y-52471013D01*
X180584361Y-52416598D01*
X180495131Y-52343370D01*
X180421903Y-52254140D01*
X180367489Y-52152339D01*
X180367488Y-52152337D01*
X180333979Y-52041876D01*
X180325500Y-51955785D01*
X180325500Y-51168216D01*
X180333979Y-51082125D01*
X180367487Y-50971664D01*
X180367487Y-50971663D01*
X180421902Y-50869861D01*
X180495129Y-50780634D01*
X180495131Y-50780631D01*
X180584361Y-50707402D01*
X180596007Y-50701177D01*
X180686162Y-50652987D01*
X180722983Y-50641818D01*
X180796624Y-50619479D01*
X180911500Y-50608165D01*
X181026375Y-50619479D01*
X181026375Y-50619479D01*
G37*
G36*
X179502375Y-50619479D02*
G01*
X179576016Y-50641818D01*
X179612837Y-50652987D01*
X179714639Y-50707402D01*
X179771727Y-50754253D01*
X179803869Y-50780631D01*
X179877098Y-50869861D01*
X179877099Y-50869863D01*
X179931513Y-50971662D01*
X179933756Y-50979057D01*
X179965021Y-51082124D01*
X179973500Y-51168215D01*
X179973500Y-51955785D01*
X179965021Y-52041876D01*
X179942682Y-52115517D01*
X179931513Y-52152338D01*
X179877098Y-52254140D01*
X179803870Y-52343370D01*
X179714640Y-52416598D01*
X179612838Y-52471013D01*
X179576017Y-52482182D01*
X179502376Y-52504521D01*
X179387500Y-52515835D01*
X179272625Y-52504521D01*
X179198984Y-52482182D01*
X179162163Y-52471013D01*
X179060361Y-52416598D01*
X178971131Y-52343370D01*
X178897903Y-52254140D01*
X178843489Y-52152339D01*
X178843488Y-52152337D01*
X178809979Y-52041876D01*
X178801500Y-51955785D01*
X178801500Y-51168216D01*
X178809979Y-51082125D01*
X178843487Y-50971664D01*
X178843487Y-50971663D01*
X178897902Y-50869861D01*
X178971129Y-50780634D01*
X178971131Y-50780631D01*
X179060361Y-50707402D01*
X179072007Y-50701177D01*
X179162162Y-50652987D01*
X179198983Y-50641818D01*
X179272624Y-50619479D01*
X179387500Y-50608165D01*
X179502375Y-50619479D01*
X179502375Y-50619479D01*
G37*
G36*
X182550375Y-50619479D02*
G01*
X182624016Y-50641818D01*
X182660837Y-50652987D01*
X182762639Y-50707402D01*
X182819727Y-50754253D01*
X182851869Y-50780631D01*
X182925098Y-50869861D01*
X182925099Y-50869863D01*
X182979513Y-50971662D01*
X182981756Y-50979057D01*
X183013021Y-51082124D01*
X183021500Y-51168215D01*
X183021500Y-51955785D01*
X183013021Y-52041876D01*
X182990682Y-52115517D01*
X182979513Y-52152338D01*
X182925098Y-52254140D01*
X182851870Y-52343370D01*
X182762640Y-52416598D01*
X182660838Y-52471013D01*
X182624017Y-52482182D01*
X182550376Y-52504521D01*
X182435500Y-52515835D01*
X182320625Y-52504521D01*
X182246984Y-52482182D01*
X182210163Y-52471013D01*
X182108361Y-52416598D01*
X182019131Y-52343370D01*
X181945903Y-52254140D01*
X181891489Y-52152339D01*
X181891488Y-52152337D01*
X181857979Y-52041876D01*
X181849500Y-51955785D01*
X181849500Y-51168216D01*
X181857979Y-51082125D01*
X181891487Y-50971664D01*
X181891487Y-50971663D01*
X181945902Y-50869861D01*
X182019129Y-50780634D01*
X182019131Y-50780631D01*
X182108361Y-50707402D01*
X182120007Y-50701177D01*
X182210162Y-50652987D01*
X182246983Y-50641818D01*
X182320624Y-50619479D01*
X182435500Y-50608165D01*
X182550375Y-50619479D01*
X182550375Y-50619479D01*
G37*
G36*
X178449500Y-52513000D02*
G01*
X177277500Y-52513000D01*
X177277500Y-50611000D01*
X178449500Y-50611000D01*
X178449500Y-52513000D01*
X178449500Y-52513000D01*
G37*
G36*
X174705674Y-50250965D02*
G01*
X174743367Y-50262399D01*
X174778103Y-50280966D01*
X174808548Y-50305952D01*
X174833534Y-50336397D01*
X174852101Y-50371133D01*
X174863535Y-50408826D01*
X174868000Y-50454161D01*
X174868000Y-51290839D01*
X174863535Y-51336174D01*
X174852101Y-51373867D01*
X174833534Y-51408603D01*
X174808548Y-51439048D01*
X174778103Y-51464034D01*
X174743367Y-51482601D01*
X174705674Y-51494035D01*
X174660339Y-51498500D01*
X173573661Y-51498500D01*
X173528326Y-51494035D01*
X173490633Y-51482601D01*
X173455897Y-51464034D01*
X173425452Y-51439048D01*
X173400466Y-51408603D01*
X173381899Y-51373867D01*
X173370465Y-51336174D01*
X173366000Y-51290839D01*
X173366000Y-50454161D01*
X173370465Y-50408826D01*
X173381899Y-50371133D01*
X173400466Y-50336397D01*
X173425452Y-50305952D01*
X173455897Y-50280966D01*
X173490633Y-50262399D01*
X173528326Y-50250965D01*
X173573661Y-50246500D01*
X174660339Y-50246500D01*
X174705674Y-50250965D01*
X174705674Y-50250965D01*
G37*
G36*
X170895674Y-50250965D02*
G01*
X170933367Y-50262399D01*
X170968103Y-50280966D01*
X170998548Y-50305952D01*
X171023534Y-50336397D01*
X171042101Y-50371133D01*
X171053535Y-50408826D01*
X171058000Y-50454161D01*
X171058000Y-51290839D01*
X171053535Y-51336174D01*
X171042101Y-51373867D01*
X171023534Y-51408603D01*
X170998548Y-51439048D01*
X170968103Y-51464034D01*
X170933367Y-51482601D01*
X170895674Y-51494035D01*
X170850339Y-51498500D01*
X169763661Y-51498500D01*
X169718326Y-51494035D01*
X169680633Y-51482601D01*
X169645897Y-51464034D01*
X169615452Y-51439048D01*
X169590466Y-51408603D01*
X169571899Y-51373867D01*
X169560465Y-51336174D01*
X169556000Y-51290839D01*
X169556000Y-50454161D01*
X169560465Y-50408826D01*
X169571899Y-50371133D01*
X169590466Y-50336397D01*
X169615452Y-50305952D01*
X169645897Y-50280966D01*
X169680633Y-50262399D01*
X169718326Y-50250965D01*
X169763661Y-50246500D01*
X170850339Y-50246500D01*
X170895674Y-50250965D01*
X170895674Y-50250965D01*
G37*
G36*
X172800674Y-50250965D02*
G01*
X172838367Y-50262399D01*
X172873103Y-50280966D01*
X172903548Y-50305952D01*
X172928534Y-50336397D01*
X172947101Y-50371133D01*
X172958535Y-50408826D01*
X172963000Y-50454161D01*
X172963000Y-51290839D01*
X172958535Y-51336174D01*
X172947101Y-51373867D01*
X172928534Y-51408603D01*
X172903548Y-51439048D01*
X172873103Y-51464034D01*
X172838367Y-51482601D01*
X172800674Y-51494035D01*
X172755339Y-51498500D01*
X171668661Y-51498500D01*
X171623326Y-51494035D01*
X171585633Y-51482601D01*
X171550897Y-51464034D01*
X171520452Y-51439048D01*
X171495466Y-51408603D01*
X171476899Y-51373867D01*
X171465465Y-51336174D01*
X171461000Y-51290839D01*
X171461000Y-50454161D01*
X171465465Y-50408826D01*
X171476899Y-50371133D01*
X171495466Y-50336397D01*
X171520452Y-50305952D01*
X171550897Y-50280966D01*
X171585633Y-50262399D01*
X171623326Y-50250965D01*
X171668661Y-50246500D01*
X172755339Y-50246500D01*
X172800674Y-50250965D01*
X172800674Y-50250965D01*
G37*
G36*
X172800674Y-48200965D02*
G01*
X172838367Y-48212399D01*
X172873103Y-48230966D01*
X172903548Y-48255952D01*
X172928534Y-48286397D01*
X172947101Y-48321133D01*
X172958535Y-48358826D01*
X172963000Y-48404161D01*
X172963000Y-49240839D01*
X172958535Y-49286174D01*
X172947101Y-49323867D01*
X172928534Y-49358603D01*
X172903548Y-49389048D01*
X172873103Y-49414034D01*
X172838367Y-49432601D01*
X172800674Y-49444035D01*
X172755339Y-49448500D01*
X171668661Y-49448500D01*
X171623326Y-49444035D01*
X171585633Y-49432601D01*
X171550897Y-49414034D01*
X171520452Y-49389048D01*
X171495466Y-49358603D01*
X171476899Y-49323867D01*
X171465465Y-49286174D01*
X171461000Y-49240839D01*
X171461000Y-48404161D01*
X171465465Y-48358826D01*
X171476899Y-48321133D01*
X171495466Y-48286397D01*
X171520452Y-48255952D01*
X171550897Y-48230966D01*
X171585633Y-48212399D01*
X171623326Y-48200965D01*
X171668661Y-48196500D01*
X172755339Y-48196500D01*
X172800674Y-48200965D01*
X172800674Y-48200965D01*
G37*
G36*
X170895674Y-48200965D02*
G01*
X170933367Y-48212399D01*
X170968103Y-48230966D01*
X170998548Y-48255952D01*
X171023534Y-48286397D01*
X171042101Y-48321133D01*
X171053535Y-48358826D01*
X171058000Y-48404161D01*
X171058000Y-49240839D01*
X171053535Y-49286174D01*
X171042101Y-49323867D01*
X171023534Y-49358603D01*
X170998548Y-49389048D01*
X170968103Y-49414034D01*
X170933367Y-49432601D01*
X170895674Y-49444035D01*
X170850339Y-49448500D01*
X169763661Y-49448500D01*
X169718326Y-49444035D01*
X169680633Y-49432601D01*
X169645897Y-49414034D01*
X169615452Y-49389048D01*
X169590466Y-49358603D01*
X169571899Y-49323867D01*
X169560465Y-49286174D01*
X169556000Y-49240839D01*
X169556000Y-48404161D01*
X169560465Y-48358826D01*
X169571899Y-48321133D01*
X169590466Y-48286397D01*
X169615452Y-48255952D01*
X169645897Y-48230966D01*
X169680633Y-48212399D01*
X169718326Y-48200965D01*
X169763661Y-48196500D01*
X170850339Y-48196500D01*
X170895674Y-48200965D01*
X170895674Y-48200965D01*
G37*
G36*
X174705674Y-48200965D02*
G01*
X174743367Y-48212399D01*
X174778103Y-48230966D01*
X174808548Y-48255952D01*
X174833534Y-48286397D01*
X174852101Y-48321133D01*
X174863535Y-48358826D01*
X174868000Y-48404161D01*
X174868000Y-49240839D01*
X174863535Y-49286174D01*
X174852101Y-49323867D01*
X174833534Y-49358603D01*
X174808548Y-49389048D01*
X174778103Y-49414034D01*
X174743367Y-49432601D01*
X174705674Y-49444035D01*
X174660339Y-49448500D01*
X173573661Y-49448500D01*
X173528326Y-49444035D01*
X173490633Y-49432601D01*
X173455897Y-49414034D01*
X173425452Y-49389048D01*
X173400466Y-49358603D01*
X173381899Y-49323867D01*
X173370465Y-49286174D01*
X173366000Y-49240839D01*
X173366000Y-48404161D01*
X173370465Y-48358826D01*
X173381899Y-48321133D01*
X173400466Y-48286397D01*
X173425452Y-48255952D01*
X173455897Y-48230966D01*
X173490633Y-48212399D01*
X173528326Y-48200965D01*
X173573661Y-48196500D01*
X174660339Y-48196500D01*
X174705674Y-48200965D01*
X174705674Y-48200965D01*
G37*
G36*
X185439127Y-46427537D02*
G01*
X185608966Y-46479057D01*
X185765491Y-46562722D01*
X185801229Y-46592052D01*
X185902686Y-46675314D01*
X185985948Y-46776771D01*
X186015278Y-46812509D01*
X186098943Y-46969034D01*
X186150463Y-47138873D01*
X186163500Y-47271242D01*
X186163500Y-48359758D01*
X186150463Y-48492127D01*
X186098943Y-48661966D01*
X186015278Y-48818491D01*
X185985948Y-48854229D01*
X185902686Y-48955686D01*
X185765489Y-49068279D01*
X185608967Y-49151942D01*
X185608965Y-49151943D01*
X185439126Y-49203463D01*
X185262500Y-49220859D01*
X185085873Y-49203463D01*
X184916034Y-49151943D01*
X184759509Y-49068278D01*
X184723771Y-49038948D01*
X184622314Y-48955686D01*
X184509721Y-48818489D01*
X184426058Y-48661967D01*
X184426057Y-48661965D01*
X184374537Y-48492126D01*
X184368019Y-48425942D01*
X184361500Y-48359759D01*
X184361501Y-47271240D01*
X184374538Y-47138875D01*
X184374538Y-47138873D01*
X184426058Y-46969034D01*
X184509723Y-46812509D01*
X184539053Y-46776771D01*
X184622315Y-46675314D01*
X184723772Y-46592052D01*
X184759510Y-46562722D01*
X184916035Y-46479057D01*
X185085874Y-46427537D01*
X185262500Y-46410141D01*
X185439127Y-46427537D01*
X185439127Y-46427537D01*
G37*
G36*
X192739127Y-46427537D02*
G01*
X192908966Y-46479057D01*
X193065491Y-46562722D01*
X193101229Y-46592052D01*
X193202686Y-46675314D01*
X193285948Y-46776771D01*
X193315278Y-46812509D01*
X193398943Y-46969034D01*
X193450463Y-47138873D01*
X193463500Y-47271242D01*
X193463500Y-48359758D01*
X193450463Y-48492127D01*
X193398943Y-48661966D01*
X193315278Y-48818491D01*
X193285948Y-48854229D01*
X193202686Y-48955686D01*
X193065489Y-49068279D01*
X192908967Y-49151942D01*
X192908965Y-49151943D01*
X192739126Y-49203463D01*
X192562500Y-49220859D01*
X192385873Y-49203463D01*
X192216034Y-49151943D01*
X192059509Y-49068278D01*
X192023771Y-49038948D01*
X191922314Y-48955686D01*
X191809721Y-48818489D01*
X191726058Y-48661967D01*
X191726057Y-48661965D01*
X191674537Y-48492126D01*
X191668019Y-48425942D01*
X191661500Y-48359759D01*
X191661501Y-47271240D01*
X191674538Y-47138875D01*
X191674538Y-47138873D01*
X191726058Y-46969034D01*
X191809723Y-46812509D01*
X191839053Y-46776771D01*
X191922315Y-46675314D01*
X192023772Y-46592052D01*
X192059510Y-46562722D01*
X192216035Y-46479057D01*
X192385874Y-46427537D01*
X192562500Y-46410141D01*
X192739127Y-46427537D01*
X192739127Y-46427537D01*
G37*
M02*
