G04 #@! TF.GenerationSoftware,KiCad,Pcbnew,(5.1.2)-2*
G04 #@! TF.CreationDate,2019-09-01T14:46:41-05:00*
G04 #@! TF.ProjectId,rootpad,726f6f74-7061-4642-9e6b-696361645f70,rev?*
G04 #@! TF.SameCoordinates,Original*
G04 #@! TF.FileFunction,Soldermask,Bot*
G04 #@! TF.FilePolarity,Negative*
%FSLAX46Y46*%
G04 Gerber Fmt 4.6, Leading zero omitted, Abs format (unit mm)*
G04 Created by KiCad (PCBNEW (5.1.2)-2) date 2019-09-01 14:46:41*
%MOMM*%
%LPD*%
G04 APERTURE LIST*
%ADD10C,0.100000*%
G04 APERTURE END LIST*
D10*
G36*
X195913500Y-148201000D02*
G01*
X194611500Y-148201000D01*
X194611500Y-147199000D01*
X195913500Y-147199000D01*
X195913500Y-148201000D01*
X195913500Y-148201000D01*
G37*
G36*
X176863500Y-148201000D02*
G01*
X175561500Y-148201000D01*
X175561500Y-147199000D01*
X176863500Y-147199000D01*
X176863500Y-148201000D01*
X176863500Y-148201000D01*
G37*
G36*
X138763500Y-148201000D02*
G01*
X137461500Y-148201000D01*
X137461500Y-147199000D01*
X138763500Y-147199000D01*
X138763500Y-148201000D01*
X138763500Y-148201000D01*
G37*
G36*
X157813500Y-148201000D02*
G01*
X156511500Y-148201000D01*
X156511500Y-147199000D01*
X157813500Y-147199000D01*
X157813500Y-148201000D01*
X157813500Y-148201000D01*
G37*
G36*
X130772744Y-144084954D02*
G01*
X130990744Y-144175253D01*
X131144893Y-144239103D01*
X131479818Y-144462893D01*
X131764647Y-144747722D01*
X131988437Y-145082647D01*
X132020832Y-145160856D01*
X132142586Y-145454796D01*
X132221170Y-145849864D01*
X132221170Y-146252676D01*
X132142586Y-146647744D01*
X132091721Y-146770542D01*
X131988437Y-147019893D01*
X131764647Y-147354818D01*
X131479818Y-147639647D01*
X131144893Y-147863437D01*
X130990744Y-147927287D01*
X130772744Y-148017586D01*
X130377676Y-148096170D01*
X129974864Y-148096170D01*
X129579796Y-148017586D01*
X129361796Y-147927287D01*
X129207647Y-147863437D01*
X128872722Y-147639647D01*
X128587893Y-147354818D01*
X128364103Y-147019893D01*
X128260819Y-146770542D01*
X128209954Y-146647744D01*
X128131370Y-146252676D01*
X128131370Y-145849864D01*
X128209954Y-145454796D01*
X128331708Y-145160856D01*
X128364103Y-145082647D01*
X128587893Y-144747722D01*
X128872722Y-144462893D01*
X129207647Y-144239103D01*
X129361796Y-144175253D01*
X129579796Y-144084954D01*
X129974864Y-144006370D01*
X130377676Y-144006370D01*
X130772744Y-144084954D01*
X130772744Y-144084954D01*
G37*
G36*
X149822744Y-144084954D02*
G01*
X150040744Y-144175253D01*
X150194893Y-144239103D01*
X150529818Y-144462893D01*
X150814647Y-144747722D01*
X151038437Y-145082647D01*
X151070832Y-145160856D01*
X151192586Y-145454796D01*
X151271170Y-145849864D01*
X151271170Y-146252676D01*
X151192586Y-146647744D01*
X151141721Y-146770542D01*
X151038437Y-147019893D01*
X150814647Y-147354818D01*
X150529818Y-147639647D01*
X150194893Y-147863437D01*
X150040744Y-147927287D01*
X149822744Y-148017586D01*
X149427676Y-148096170D01*
X149024864Y-148096170D01*
X148629796Y-148017586D01*
X148411796Y-147927287D01*
X148257647Y-147863437D01*
X147922722Y-147639647D01*
X147637893Y-147354818D01*
X147414103Y-147019893D01*
X147310819Y-146770542D01*
X147259954Y-146647744D01*
X147181370Y-146252676D01*
X147181370Y-145849864D01*
X147259954Y-145454796D01*
X147381708Y-145160856D01*
X147414103Y-145082647D01*
X147637893Y-144747722D01*
X147922722Y-144462893D01*
X148257647Y-144239103D01*
X148411796Y-144175253D01*
X148629796Y-144084954D01*
X149024864Y-144006370D01*
X149427676Y-144006370D01*
X149822744Y-144084954D01*
X149822744Y-144084954D01*
G37*
G36*
X168872744Y-144084954D02*
G01*
X169090744Y-144175253D01*
X169244893Y-144239103D01*
X169579818Y-144462893D01*
X169864647Y-144747722D01*
X170088437Y-145082647D01*
X170120832Y-145160856D01*
X170242586Y-145454796D01*
X170321170Y-145849864D01*
X170321170Y-146252676D01*
X170242586Y-146647744D01*
X170191721Y-146770542D01*
X170088437Y-147019893D01*
X169864647Y-147354818D01*
X169579818Y-147639647D01*
X169244893Y-147863437D01*
X169090744Y-147927287D01*
X168872744Y-148017586D01*
X168477676Y-148096170D01*
X168074864Y-148096170D01*
X167679796Y-148017586D01*
X167461796Y-147927287D01*
X167307647Y-147863437D01*
X166972722Y-147639647D01*
X166687893Y-147354818D01*
X166464103Y-147019893D01*
X166360819Y-146770542D01*
X166309954Y-146647744D01*
X166231370Y-146252676D01*
X166231370Y-145849864D01*
X166309954Y-145454796D01*
X166431708Y-145160856D01*
X166464103Y-145082647D01*
X166687893Y-144747722D01*
X166972722Y-144462893D01*
X167307647Y-144239103D01*
X167461796Y-144175253D01*
X167679796Y-144084954D01*
X168074864Y-144006370D01*
X168477676Y-144006370D01*
X168872744Y-144084954D01*
X168872744Y-144084954D01*
G37*
G36*
X187922744Y-144084954D02*
G01*
X188140744Y-144175253D01*
X188294893Y-144239103D01*
X188629818Y-144462893D01*
X188914647Y-144747722D01*
X189138437Y-145082647D01*
X189170832Y-145160856D01*
X189292586Y-145454796D01*
X189371170Y-145849864D01*
X189371170Y-146252676D01*
X189292586Y-146647744D01*
X189241721Y-146770542D01*
X189138437Y-147019893D01*
X188914647Y-147354818D01*
X188629818Y-147639647D01*
X188294893Y-147863437D01*
X188140744Y-147927287D01*
X187922744Y-148017586D01*
X187527676Y-148096170D01*
X187124864Y-148096170D01*
X186729796Y-148017586D01*
X186511796Y-147927287D01*
X186357647Y-147863437D01*
X186022722Y-147639647D01*
X185737893Y-147354818D01*
X185514103Y-147019893D01*
X185410819Y-146770542D01*
X185359954Y-146647744D01*
X185281370Y-146252676D01*
X185281370Y-145849864D01*
X185359954Y-145454796D01*
X185481708Y-145160856D01*
X185514103Y-145082647D01*
X185737893Y-144747722D01*
X186022722Y-144462893D01*
X186357647Y-144239103D01*
X186511796Y-144175253D01*
X186729796Y-144084954D01*
X187124864Y-144006370D01*
X187527676Y-144006370D01*
X187922744Y-144084954D01*
X187922744Y-144084954D01*
G37*
G36*
X154576374Y-145160855D02*
G01*
X154744896Y-145230659D01*
X154896561Y-145331998D01*
X155025542Y-145460979D01*
X155126881Y-145612644D01*
X155196685Y-145781166D01*
X155232270Y-145960067D01*
X155232270Y-146142473D01*
X155196685Y-146321374D01*
X155126881Y-146489896D01*
X155025542Y-146641561D01*
X154896561Y-146770542D01*
X154744896Y-146871881D01*
X154576374Y-146941685D01*
X154397473Y-146977270D01*
X154215067Y-146977270D01*
X154036166Y-146941685D01*
X153867644Y-146871881D01*
X153715979Y-146770542D01*
X153586998Y-146641561D01*
X153485659Y-146489896D01*
X153415855Y-146321374D01*
X153380270Y-146142473D01*
X153380270Y-145960067D01*
X153415855Y-145781166D01*
X153485659Y-145612644D01*
X153586998Y-145460979D01*
X153715979Y-145331998D01*
X153867644Y-145230659D01*
X154036166Y-145160855D01*
X154215067Y-145125270D01*
X154397473Y-145125270D01*
X154576374Y-145160855D01*
X154576374Y-145160855D01*
G37*
G36*
X125366374Y-145160855D02*
G01*
X125534896Y-145230659D01*
X125686561Y-145331998D01*
X125815542Y-145460979D01*
X125916881Y-145612644D01*
X125986685Y-145781166D01*
X126022270Y-145960067D01*
X126022270Y-146142473D01*
X125986685Y-146321374D01*
X125916881Y-146489896D01*
X125815542Y-146641561D01*
X125686561Y-146770542D01*
X125534896Y-146871881D01*
X125366374Y-146941685D01*
X125187473Y-146977270D01*
X125005067Y-146977270D01*
X124826166Y-146941685D01*
X124657644Y-146871881D01*
X124505979Y-146770542D01*
X124376998Y-146641561D01*
X124275659Y-146489896D01*
X124205855Y-146321374D01*
X124170270Y-146142473D01*
X124170270Y-145960067D01*
X124205855Y-145781166D01*
X124275659Y-145612644D01*
X124376998Y-145460979D01*
X124505979Y-145331998D01*
X124657644Y-145230659D01*
X124826166Y-145160855D01*
X125005067Y-145125270D01*
X125187473Y-145125270D01*
X125366374Y-145160855D01*
X125366374Y-145160855D01*
G37*
G36*
X135526374Y-145160855D02*
G01*
X135694896Y-145230659D01*
X135846561Y-145331998D01*
X135975542Y-145460979D01*
X136076881Y-145612644D01*
X136146685Y-145781166D01*
X136182270Y-145960067D01*
X136182270Y-146142473D01*
X136146685Y-146321374D01*
X136076881Y-146489896D01*
X135975542Y-146641561D01*
X135846561Y-146770542D01*
X135694896Y-146871881D01*
X135526374Y-146941685D01*
X135347473Y-146977270D01*
X135165067Y-146977270D01*
X134986166Y-146941685D01*
X134817644Y-146871881D01*
X134665979Y-146770542D01*
X134536998Y-146641561D01*
X134435659Y-146489896D01*
X134365855Y-146321374D01*
X134330270Y-146142473D01*
X134330270Y-145960067D01*
X134365855Y-145781166D01*
X134435659Y-145612644D01*
X134536998Y-145460979D01*
X134665979Y-145331998D01*
X134817644Y-145230659D01*
X134986166Y-145160855D01*
X135165067Y-145125270D01*
X135347473Y-145125270D01*
X135526374Y-145160855D01*
X135526374Y-145160855D01*
G37*
G36*
X144416374Y-145160855D02*
G01*
X144584896Y-145230659D01*
X144736561Y-145331998D01*
X144865542Y-145460979D01*
X144966881Y-145612644D01*
X145036685Y-145781166D01*
X145072270Y-145960067D01*
X145072270Y-146142473D01*
X145036685Y-146321374D01*
X144966881Y-146489896D01*
X144865542Y-146641561D01*
X144736561Y-146770542D01*
X144584896Y-146871881D01*
X144416374Y-146941685D01*
X144237473Y-146977270D01*
X144055067Y-146977270D01*
X143876166Y-146941685D01*
X143707644Y-146871881D01*
X143555979Y-146770542D01*
X143426998Y-146641561D01*
X143325659Y-146489896D01*
X143255855Y-146321374D01*
X143220270Y-146142473D01*
X143220270Y-145960067D01*
X143255855Y-145781166D01*
X143325659Y-145612644D01*
X143426998Y-145460979D01*
X143555979Y-145331998D01*
X143707644Y-145230659D01*
X143876166Y-145160855D01*
X144055067Y-145125270D01*
X144237473Y-145125270D01*
X144416374Y-145160855D01*
X144416374Y-145160855D01*
G37*
G36*
X192676374Y-145160855D02*
G01*
X192844896Y-145230659D01*
X192996561Y-145331998D01*
X193125542Y-145460979D01*
X193226881Y-145612644D01*
X193296685Y-145781166D01*
X193332270Y-145960067D01*
X193332270Y-146142473D01*
X193296685Y-146321374D01*
X193226881Y-146489896D01*
X193125542Y-146641561D01*
X192996561Y-146770542D01*
X192844896Y-146871881D01*
X192676374Y-146941685D01*
X192497473Y-146977270D01*
X192315067Y-146977270D01*
X192136166Y-146941685D01*
X191967644Y-146871881D01*
X191815979Y-146770542D01*
X191686998Y-146641561D01*
X191585659Y-146489896D01*
X191515855Y-146321374D01*
X191480270Y-146142473D01*
X191480270Y-145960067D01*
X191515855Y-145781166D01*
X191585659Y-145612644D01*
X191686998Y-145460979D01*
X191815979Y-145331998D01*
X191967644Y-145230659D01*
X192136166Y-145160855D01*
X192315067Y-145125270D01*
X192497473Y-145125270D01*
X192676374Y-145160855D01*
X192676374Y-145160855D01*
G37*
G36*
X163466374Y-145160855D02*
G01*
X163634896Y-145230659D01*
X163786561Y-145331998D01*
X163915542Y-145460979D01*
X164016881Y-145612644D01*
X164086685Y-145781166D01*
X164122270Y-145960067D01*
X164122270Y-146142473D01*
X164086685Y-146321374D01*
X164016881Y-146489896D01*
X163915542Y-146641561D01*
X163786561Y-146770542D01*
X163634896Y-146871881D01*
X163466374Y-146941685D01*
X163287473Y-146977270D01*
X163105067Y-146977270D01*
X162926166Y-146941685D01*
X162757644Y-146871881D01*
X162605979Y-146770542D01*
X162476998Y-146641561D01*
X162375659Y-146489896D01*
X162305855Y-146321374D01*
X162270270Y-146142473D01*
X162270270Y-145960067D01*
X162305855Y-145781166D01*
X162375659Y-145612644D01*
X162476998Y-145460979D01*
X162605979Y-145331998D01*
X162757644Y-145230659D01*
X162926166Y-145160855D01*
X163105067Y-145125270D01*
X163287473Y-145125270D01*
X163466374Y-145160855D01*
X163466374Y-145160855D01*
G37*
G36*
X173626374Y-145160855D02*
G01*
X173794896Y-145230659D01*
X173946561Y-145331998D01*
X174075542Y-145460979D01*
X174176881Y-145612644D01*
X174246685Y-145781166D01*
X174282270Y-145960067D01*
X174282270Y-146142473D01*
X174246685Y-146321374D01*
X174176881Y-146489896D01*
X174075542Y-146641561D01*
X173946561Y-146770542D01*
X173794896Y-146871881D01*
X173626374Y-146941685D01*
X173447473Y-146977270D01*
X173265067Y-146977270D01*
X173086166Y-146941685D01*
X172917644Y-146871881D01*
X172765979Y-146770542D01*
X172636998Y-146641561D01*
X172535659Y-146489896D01*
X172465855Y-146321374D01*
X172430270Y-146142473D01*
X172430270Y-145960067D01*
X172465855Y-145781166D01*
X172535659Y-145612644D01*
X172636998Y-145460979D01*
X172765979Y-145331998D01*
X172917644Y-145230659D01*
X173086166Y-145160855D01*
X173265067Y-145125270D01*
X173447473Y-145125270D01*
X173626374Y-145160855D01*
X173626374Y-145160855D01*
G37*
G36*
X182516374Y-145160855D02*
G01*
X182684896Y-145230659D01*
X182836561Y-145331998D01*
X182965542Y-145460979D01*
X183066881Y-145612644D01*
X183136685Y-145781166D01*
X183172270Y-145960067D01*
X183172270Y-146142473D01*
X183136685Y-146321374D01*
X183066881Y-146489896D01*
X182965542Y-146641561D01*
X182836561Y-146770542D01*
X182684896Y-146871881D01*
X182516374Y-146941685D01*
X182337473Y-146977270D01*
X182155067Y-146977270D01*
X181976166Y-146941685D01*
X181807644Y-146871881D01*
X181655979Y-146770542D01*
X181526998Y-146641561D01*
X181425659Y-146489896D01*
X181355855Y-146321374D01*
X181320270Y-146142473D01*
X181320270Y-145960067D01*
X181355855Y-145781166D01*
X181425659Y-145612644D01*
X181526998Y-145460979D01*
X181655979Y-145331998D01*
X181807644Y-145230659D01*
X181976166Y-145160855D01*
X182155067Y-145125270D01*
X182337473Y-145125270D01*
X182516374Y-145160855D01*
X182516374Y-145160855D01*
G37*
G36*
X195913500Y-144901000D02*
G01*
X194611500Y-144901000D01*
X194611500Y-143899000D01*
X195913500Y-143899000D01*
X195913500Y-144901000D01*
X195913500Y-144901000D01*
G37*
G36*
X157813500Y-144901000D02*
G01*
X156511500Y-144901000D01*
X156511500Y-143899000D01*
X157813500Y-143899000D01*
X157813500Y-144901000D01*
X157813500Y-144901000D01*
G37*
G36*
X138763500Y-144901000D02*
G01*
X137461500Y-144901000D01*
X137461500Y-143899000D01*
X138763500Y-143899000D01*
X138763500Y-144901000D01*
X138763500Y-144901000D01*
G37*
G36*
X176863500Y-144901000D02*
G01*
X175561500Y-144901000D01*
X175561500Y-143899000D01*
X176863500Y-143899000D01*
X176863500Y-144901000D01*
X176863500Y-144901000D01*
G37*
G36*
X164657830Y-142350334D02*
G01*
X164809297Y-142380463D01*
X165023315Y-142469112D01*
X165023316Y-142469113D01*
X165215924Y-142597809D01*
X165379731Y-142761616D01*
X165465528Y-142890021D01*
X165508428Y-142954225D01*
X165597077Y-143168243D01*
X165642270Y-143395444D01*
X165642270Y-143627096D01*
X165597077Y-143854297D01*
X165508428Y-144068315D01*
X165508427Y-144068316D01*
X165379731Y-144260924D01*
X165215924Y-144424731D01*
X165158810Y-144462893D01*
X165023315Y-144553428D01*
X164809297Y-144642077D01*
X164657830Y-144672206D01*
X164582097Y-144687270D01*
X164350443Y-144687270D01*
X164274710Y-144672206D01*
X164123243Y-144642077D01*
X163909225Y-144553428D01*
X163773730Y-144462893D01*
X163716616Y-144424731D01*
X163552809Y-144260924D01*
X163424113Y-144068316D01*
X163424112Y-144068315D01*
X163335463Y-143854297D01*
X163290270Y-143627096D01*
X163290270Y-143395444D01*
X163335463Y-143168243D01*
X163424112Y-142954225D01*
X163467012Y-142890021D01*
X163552809Y-142761616D01*
X163716616Y-142597809D01*
X163909224Y-142469113D01*
X163909225Y-142469112D01*
X164123243Y-142380463D01*
X164274710Y-142350334D01*
X164350443Y-142335270D01*
X164582097Y-142335270D01*
X164657830Y-142350334D01*
X164657830Y-142350334D01*
G37*
G36*
X145607830Y-142350334D02*
G01*
X145759297Y-142380463D01*
X145973315Y-142469112D01*
X145973316Y-142469113D01*
X146165924Y-142597809D01*
X146329731Y-142761616D01*
X146415528Y-142890021D01*
X146458428Y-142954225D01*
X146547077Y-143168243D01*
X146592270Y-143395444D01*
X146592270Y-143627096D01*
X146547077Y-143854297D01*
X146458428Y-144068315D01*
X146458427Y-144068316D01*
X146329731Y-144260924D01*
X146165924Y-144424731D01*
X146108810Y-144462893D01*
X145973315Y-144553428D01*
X145759297Y-144642077D01*
X145607830Y-144672206D01*
X145532097Y-144687270D01*
X145300443Y-144687270D01*
X145224710Y-144672206D01*
X145073243Y-144642077D01*
X144859225Y-144553428D01*
X144723730Y-144462893D01*
X144666616Y-144424731D01*
X144502809Y-144260924D01*
X144374113Y-144068316D01*
X144374112Y-144068315D01*
X144285463Y-143854297D01*
X144240270Y-143627096D01*
X144240270Y-143395444D01*
X144285463Y-143168243D01*
X144374112Y-142954225D01*
X144417012Y-142890021D01*
X144502809Y-142761616D01*
X144666616Y-142597809D01*
X144859224Y-142469113D01*
X144859225Y-142469112D01*
X145073243Y-142380463D01*
X145224710Y-142350334D01*
X145300443Y-142335270D01*
X145532097Y-142335270D01*
X145607830Y-142350334D01*
X145607830Y-142350334D01*
G37*
G36*
X183707830Y-142350334D02*
G01*
X183859297Y-142380463D01*
X184073315Y-142469112D01*
X184073316Y-142469113D01*
X184265924Y-142597809D01*
X184429731Y-142761616D01*
X184515528Y-142890021D01*
X184558428Y-142954225D01*
X184647077Y-143168243D01*
X184692270Y-143395444D01*
X184692270Y-143627096D01*
X184647077Y-143854297D01*
X184558428Y-144068315D01*
X184558427Y-144068316D01*
X184429731Y-144260924D01*
X184265924Y-144424731D01*
X184208810Y-144462893D01*
X184073315Y-144553428D01*
X183859297Y-144642077D01*
X183707830Y-144672206D01*
X183632097Y-144687270D01*
X183400443Y-144687270D01*
X183324710Y-144672206D01*
X183173243Y-144642077D01*
X182959225Y-144553428D01*
X182823730Y-144462893D01*
X182766616Y-144424731D01*
X182602809Y-144260924D01*
X182474113Y-144068316D01*
X182474112Y-144068315D01*
X182385463Y-143854297D01*
X182340270Y-143627096D01*
X182340270Y-143395444D01*
X182385463Y-143168243D01*
X182474112Y-142954225D01*
X182517012Y-142890021D01*
X182602809Y-142761616D01*
X182766616Y-142597809D01*
X182959224Y-142469113D01*
X182959225Y-142469112D01*
X183173243Y-142380463D01*
X183324710Y-142350334D01*
X183400443Y-142335270D01*
X183632097Y-142335270D01*
X183707830Y-142350334D01*
X183707830Y-142350334D01*
G37*
G36*
X126557830Y-142350334D02*
G01*
X126709297Y-142380463D01*
X126923315Y-142469112D01*
X126923316Y-142469113D01*
X127115924Y-142597809D01*
X127279731Y-142761616D01*
X127365528Y-142890021D01*
X127408428Y-142954225D01*
X127497077Y-143168243D01*
X127542270Y-143395444D01*
X127542270Y-143627096D01*
X127497077Y-143854297D01*
X127408428Y-144068315D01*
X127408427Y-144068316D01*
X127279731Y-144260924D01*
X127115924Y-144424731D01*
X127058810Y-144462893D01*
X126923315Y-144553428D01*
X126709297Y-144642077D01*
X126557830Y-144672206D01*
X126482097Y-144687270D01*
X126250443Y-144687270D01*
X126174710Y-144672206D01*
X126023243Y-144642077D01*
X125809225Y-144553428D01*
X125673730Y-144462893D01*
X125616616Y-144424731D01*
X125452809Y-144260924D01*
X125324113Y-144068316D01*
X125324112Y-144068315D01*
X125235463Y-143854297D01*
X125190270Y-143627096D01*
X125190270Y-143395444D01*
X125235463Y-143168243D01*
X125324112Y-142954225D01*
X125367012Y-142890021D01*
X125452809Y-142761616D01*
X125616616Y-142597809D01*
X125809224Y-142469113D01*
X125809225Y-142469112D01*
X126023243Y-142380463D01*
X126174710Y-142350334D01*
X126250443Y-142335270D01*
X126482097Y-142335270D01*
X126557830Y-142350334D01*
X126557830Y-142350334D01*
G37*
G36*
X171007830Y-139810334D02*
G01*
X171159297Y-139840463D01*
X171373315Y-139929112D01*
X171373316Y-139929113D01*
X171565924Y-140057809D01*
X171729731Y-140221616D01*
X171815528Y-140350021D01*
X171858428Y-140414225D01*
X171947077Y-140628243D01*
X171992270Y-140855444D01*
X171992270Y-141087096D01*
X171947077Y-141314297D01*
X171858428Y-141528315D01*
X171858427Y-141528316D01*
X171729731Y-141720924D01*
X171565924Y-141884731D01*
X171437519Y-141970528D01*
X171373315Y-142013428D01*
X171159297Y-142102077D01*
X171007830Y-142132206D01*
X170932097Y-142147270D01*
X170700443Y-142147270D01*
X170624710Y-142132206D01*
X170473243Y-142102077D01*
X170259225Y-142013428D01*
X170195021Y-141970528D01*
X170066616Y-141884731D01*
X169902809Y-141720924D01*
X169774113Y-141528316D01*
X169774112Y-141528315D01*
X169685463Y-141314297D01*
X169640270Y-141087096D01*
X169640270Y-140855444D01*
X169685463Y-140628243D01*
X169774112Y-140414225D01*
X169817012Y-140350021D01*
X169902809Y-140221616D01*
X170066616Y-140057809D01*
X170259224Y-139929113D01*
X170259225Y-139929112D01*
X170473243Y-139840463D01*
X170624710Y-139810334D01*
X170700443Y-139795270D01*
X170932097Y-139795270D01*
X171007830Y-139810334D01*
X171007830Y-139810334D01*
G37*
G36*
X190057830Y-139810334D02*
G01*
X190209297Y-139840463D01*
X190423315Y-139929112D01*
X190423316Y-139929113D01*
X190615924Y-140057809D01*
X190779731Y-140221616D01*
X190865528Y-140350021D01*
X190908428Y-140414225D01*
X190997077Y-140628243D01*
X191042270Y-140855444D01*
X191042270Y-141087096D01*
X190997077Y-141314297D01*
X190908428Y-141528315D01*
X190908427Y-141528316D01*
X190779731Y-141720924D01*
X190615924Y-141884731D01*
X190487519Y-141970528D01*
X190423315Y-142013428D01*
X190209297Y-142102077D01*
X190057830Y-142132206D01*
X189982097Y-142147270D01*
X189750443Y-142147270D01*
X189674710Y-142132206D01*
X189523243Y-142102077D01*
X189309225Y-142013428D01*
X189245021Y-141970528D01*
X189116616Y-141884731D01*
X188952809Y-141720924D01*
X188824113Y-141528316D01*
X188824112Y-141528315D01*
X188735463Y-141314297D01*
X188690270Y-141087096D01*
X188690270Y-140855444D01*
X188735463Y-140628243D01*
X188824112Y-140414225D01*
X188867012Y-140350021D01*
X188952809Y-140221616D01*
X189116616Y-140057809D01*
X189309224Y-139929113D01*
X189309225Y-139929112D01*
X189523243Y-139840463D01*
X189674710Y-139810334D01*
X189750443Y-139795270D01*
X189982097Y-139795270D01*
X190057830Y-139810334D01*
X190057830Y-139810334D01*
G37*
G36*
X151957830Y-139810334D02*
G01*
X152109297Y-139840463D01*
X152323315Y-139929112D01*
X152323316Y-139929113D01*
X152515924Y-140057809D01*
X152679731Y-140221616D01*
X152765528Y-140350021D01*
X152808428Y-140414225D01*
X152897077Y-140628243D01*
X152942270Y-140855444D01*
X152942270Y-141087096D01*
X152897077Y-141314297D01*
X152808428Y-141528315D01*
X152808427Y-141528316D01*
X152679731Y-141720924D01*
X152515924Y-141884731D01*
X152387519Y-141970528D01*
X152323315Y-142013428D01*
X152109297Y-142102077D01*
X151957830Y-142132206D01*
X151882097Y-142147270D01*
X151650443Y-142147270D01*
X151574710Y-142132206D01*
X151423243Y-142102077D01*
X151209225Y-142013428D01*
X151145021Y-141970528D01*
X151016616Y-141884731D01*
X150852809Y-141720924D01*
X150724113Y-141528316D01*
X150724112Y-141528315D01*
X150635463Y-141314297D01*
X150590270Y-141087096D01*
X150590270Y-140855444D01*
X150635463Y-140628243D01*
X150724112Y-140414225D01*
X150767012Y-140350021D01*
X150852809Y-140221616D01*
X151016616Y-140057809D01*
X151209224Y-139929113D01*
X151209225Y-139929112D01*
X151423243Y-139840463D01*
X151574710Y-139810334D01*
X151650443Y-139795270D01*
X151882097Y-139795270D01*
X151957830Y-139810334D01*
X151957830Y-139810334D01*
G37*
G36*
X132907830Y-139810334D02*
G01*
X133059297Y-139840463D01*
X133273315Y-139929112D01*
X133273316Y-139929113D01*
X133465924Y-140057809D01*
X133629731Y-140221616D01*
X133715528Y-140350021D01*
X133758428Y-140414225D01*
X133847077Y-140628243D01*
X133892270Y-140855444D01*
X133892270Y-141087096D01*
X133847077Y-141314297D01*
X133758428Y-141528315D01*
X133758427Y-141528316D01*
X133629731Y-141720924D01*
X133465924Y-141884731D01*
X133337519Y-141970528D01*
X133273315Y-142013428D01*
X133059297Y-142102077D01*
X132907830Y-142132206D01*
X132832097Y-142147270D01*
X132600443Y-142147270D01*
X132524710Y-142132206D01*
X132373243Y-142102077D01*
X132159225Y-142013428D01*
X132095021Y-141970528D01*
X131966616Y-141884731D01*
X131802809Y-141720924D01*
X131674113Y-141528316D01*
X131674112Y-141528315D01*
X131585463Y-141314297D01*
X131540270Y-141087096D01*
X131540270Y-140855444D01*
X131585463Y-140628243D01*
X131674112Y-140414225D01*
X131717012Y-140350021D01*
X131802809Y-140221616D01*
X131966616Y-140057809D01*
X132159224Y-139929113D01*
X132159225Y-139929112D01*
X132373243Y-139840463D01*
X132524710Y-139810334D01*
X132600443Y-139795270D01*
X132832097Y-139795270D01*
X132907830Y-139810334D01*
X132907830Y-139810334D01*
G37*
G36*
X139924549Y-135396116D02*
G01*
X140035734Y-135418232D01*
X140245203Y-135504997D01*
X140433720Y-135630960D01*
X140594040Y-135791280D01*
X140720003Y-135979797D01*
X140720004Y-135979799D01*
X140806768Y-136189267D01*
X140850748Y-136410366D01*
X140851000Y-136411636D01*
X140851000Y-136638364D01*
X140806768Y-136860734D01*
X140720003Y-137070203D01*
X140594040Y-137258720D01*
X140433720Y-137419040D01*
X140245203Y-137545003D01*
X140035734Y-137631768D01*
X139924549Y-137653884D01*
X139813365Y-137676000D01*
X139586635Y-137676000D01*
X139475451Y-137653884D01*
X139364266Y-137631768D01*
X139154797Y-137545003D01*
X138966280Y-137419040D01*
X138805960Y-137258720D01*
X138679997Y-137070203D01*
X138593232Y-136860734D01*
X138549000Y-136638364D01*
X138549000Y-136411636D01*
X138549253Y-136410366D01*
X138593232Y-136189267D01*
X138679996Y-135979799D01*
X138679997Y-135979797D01*
X138805960Y-135791280D01*
X138966280Y-135630960D01*
X139154797Y-135504997D01*
X139364266Y-135418232D01*
X139475451Y-135396116D01*
X139586635Y-135374000D01*
X139813365Y-135374000D01*
X139924549Y-135396116D01*
X139924549Y-135396116D01*
G37*
G36*
X178023279Y-135394846D02*
G01*
X178134464Y-135416962D01*
X178343933Y-135503727D01*
X178532450Y-135629690D01*
X178692770Y-135790010D01*
X178818733Y-135978527D01*
X178905498Y-136187996D01*
X178905751Y-136189267D01*
X178949730Y-136410365D01*
X178949730Y-136637095D01*
X178949477Y-136638365D01*
X178905498Y-136859464D01*
X178818733Y-137068933D01*
X178692770Y-137257450D01*
X178532450Y-137417770D01*
X178343933Y-137543733D01*
X178134464Y-137630498D01*
X178023279Y-137652614D01*
X177912095Y-137674730D01*
X177685365Y-137674730D01*
X177574181Y-137652614D01*
X177462996Y-137630498D01*
X177253527Y-137543733D01*
X177065010Y-137417770D01*
X176904690Y-137257450D01*
X176778727Y-137068933D01*
X176691962Y-136859464D01*
X176647983Y-136638365D01*
X176647730Y-136637095D01*
X176647730Y-136410365D01*
X176691709Y-136189267D01*
X176691962Y-136187996D01*
X176778727Y-135978527D01*
X176904690Y-135790010D01*
X177065010Y-135629690D01*
X177253527Y-135503727D01*
X177462996Y-135416962D01*
X177574181Y-135394846D01*
X177685365Y-135372730D01*
X177912095Y-135372730D01*
X178023279Y-135394846D01*
X178023279Y-135394846D01*
G37*
G36*
X157813500Y-129151000D02*
G01*
X156511500Y-129151000D01*
X156511500Y-128149000D01*
X157813500Y-128149000D01*
X157813500Y-129151000D01*
X157813500Y-129151000D01*
G37*
G36*
X138763500Y-129151000D02*
G01*
X137461500Y-129151000D01*
X137461500Y-128149000D01*
X138763500Y-128149000D01*
X138763500Y-129151000D01*
X138763500Y-129151000D01*
G37*
G36*
X176863500Y-129151000D02*
G01*
X175561500Y-129151000D01*
X175561500Y-128149000D01*
X176863500Y-128149000D01*
X176863500Y-129151000D01*
X176863500Y-129151000D01*
G37*
G36*
X195913500Y-129151000D02*
G01*
X194611500Y-129151000D01*
X194611500Y-128149000D01*
X195913500Y-128149000D01*
X195913500Y-129151000D01*
X195913500Y-129151000D01*
G37*
G36*
X149822744Y-125034954D02*
G01*
X150040744Y-125125253D01*
X150194893Y-125189103D01*
X150529818Y-125412893D01*
X150814647Y-125697722D01*
X151038437Y-126032647D01*
X151070832Y-126110856D01*
X151192586Y-126404796D01*
X151271170Y-126799864D01*
X151271170Y-127202676D01*
X151192586Y-127597744D01*
X151141721Y-127720542D01*
X151038437Y-127969893D01*
X150814647Y-128304818D01*
X150529818Y-128589647D01*
X150194893Y-128813437D01*
X150040744Y-128877287D01*
X149822744Y-128967586D01*
X149427676Y-129046170D01*
X149024864Y-129046170D01*
X148629796Y-128967586D01*
X148411796Y-128877287D01*
X148257647Y-128813437D01*
X147922722Y-128589647D01*
X147637893Y-128304818D01*
X147414103Y-127969893D01*
X147310819Y-127720542D01*
X147259954Y-127597744D01*
X147181370Y-127202676D01*
X147181370Y-126799864D01*
X147259954Y-126404796D01*
X147381708Y-126110856D01*
X147414103Y-126032647D01*
X147637893Y-125697722D01*
X147922722Y-125412893D01*
X148257647Y-125189103D01*
X148411796Y-125125253D01*
X148629796Y-125034954D01*
X149024864Y-124956370D01*
X149427676Y-124956370D01*
X149822744Y-125034954D01*
X149822744Y-125034954D01*
G37*
G36*
X130772744Y-125034954D02*
G01*
X130990744Y-125125253D01*
X131144893Y-125189103D01*
X131479818Y-125412893D01*
X131764647Y-125697722D01*
X131988437Y-126032647D01*
X132020832Y-126110856D01*
X132142586Y-126404796D01*
X132221170Y-126799864D01*
X132221170Y-127202676D01*
X132142586Y-127597744D01*
X132091721Y-127720542D01*
X131988437Y-127969893D01*
X131764647Y-128304818D01*
X131479818Y-128589647D01*
X131144893Y-128813437D01*
X130990744Y-128877287D01*
X130772744Y-128967586D01*
X130377676Y-129046170D01*
X129974864Y-129046170D01*
X129579796Y-128967586D01*
X129361796Y-128877287D01*
X129207647Y-128813437D01*
X128872722Y-128589647D01*
X128587893Y-128304818D01*
X128364103Y-127969893D01*
X128260819Y-127720542D01*
X128209954Y-127597744D01*
X128131370Y-127202676D01*
X128131370Y-126799864D01*
X128209954Y-126404796D01*
X128331708Y-126110856D01*
X128364103Y-126032647D01*
X128587893Y-125697722D01*
X128872722Y-125412893D01*
X129207647Y-125189103D01*
X129361796Y-125125253D01*
X129579796Y-125034954D01*
X129974864Y-124956370D01*
X130377676Y-124956370D01*
X130772744Y-125034954D01*
X130772744Y-125034954D01*
G37*
G36*
X168872744Y-125034954D02*
G01*
X169090744Y-125125253D01*
X169244893Y-125189103D01*
X169579818Y-125412893D01*
X169864647Y-125697722D01*
X170088437Y-126032647D01*
X170120832Y-126110856D01*
X170242586Y-126404796D01*
X170321170Y-126799864D01*
X170321170Y-127202676D01*
X170242586Y-127597744D01*
X170191721Y-127720542D01*
X170088437Y-127969893D01*
X169864647Y-128304818D01*
X169579818Y-128589647D01*
X169244893Y-128813437D01*
X169090744Y-128877287D01*
X168872744Y-128967586D01*
X168477676Y-129046170D01*
X168074864Y-129046170D01*
X167679796Y-128967586D01*
X167461796Y-128877287D01*
X167307647Y-128813437D01*
X166972722Y-128589647D01*
X166687893Y-128304818D01*
X166464103Y-127969893D01*
X166360819Y-127720542D01*
X166309954Y-127597744D01*
X166231370Y-127202676D01*
X166231370Y-126799864D01*
X166309954Y-126404796D01*
X166431708Y-126110856D01*
X166464103Y-126032647D01*
X166687893Y-125697722D01*
X166972722Y-125412893D01*
X167307647Y-125189103D01*
X167461796Y-125125253D01*
X167679796Y-125034954D01*
X168074864Y-124956370D01*
X168477676Y-124956370D01*
X168872744Y-125034954D01*
X168872744Y-125034954D01*
G37*
G36*
X187922744Y-125034954D02*
G01*
X188140744Y-125125253D01*
X188294893Y-125189103D01*
X188629818Y-125412893D01*
X188914647Y-125697722D01*
X189138437Y-126032647D01*
X189170832Y-126110856D01*
X189292586Y-126404796D01*
X189371170Y-126799864D01*
X189371170Y-127202676D01*
X189292586Y-127597744D01*
X189241721Y-127720542D01*
X189138437Y-127969893D01*
X188914647Y-128304818D01*
X188629818Y-128589647D01*
X188294893Y-128813437D01*
X188140744Y-128877287D01*
X187922744Y-128967586D01*
X187527676Y-129046170D01*
X187124864Y-129046170D01*
X186729796Y-128967586D01*
X186511796Y-128877287D01*
X186357647Y-128813437D01*
X186022722Y-128589647D01*
X185737893Y-128304818D01*
X185514103Y-127969893D01*
X185410819Y-127720542D01*
X185359954Y-127597744D01*
X185281370Y-127202676D01*
X185281370Y-126799864D01*
X185359954Y-126404796D01*
X185481708Y-126110856D01*
X185514103Y-126032647D01*
X185737893Y-125697722D01*
X186022722Y-125412893D01*
X186357647Y-125189103D01*
X186511796Y-125125253D01*
X186729796Y-125034954D01*
X187124864Y-124956370D01*
X187527676Y-124956370D01*
X187922744Y-125034954D01*
X187922744Y-125034954D01*
G37*
G36*
X144416374Y-126110855D02*
G01*
X144584896Y-126180659D01*
X144736561Y-126281998D01*
X144865542Y-126410979D01*
X144966881Y-126562644D01*
X145036685Y-126731166D01*
X145072270Y-126910067D01*
X145072270Y-127092473D01*
X145036685Y-127271374D01*
X144966881Y-127439896D01*
X144865542Y-127591561D01*
X144736561Y-127720542D01*
X144584896Y-127821881D01*
X144416374Y-127891685D01*
X144237473Y-127927270D01*
X144055067Y-127927270D01*
X143876166Y-127891685D01*
X143707644Y-127821881D01*
X143555979Y-127720542D01*
X143426998Y-127591561D01*
X143325659Y-127439896D01*
X143255855Y-127271374D01*
X143220270Y-127092473D01*
X143220270Y-126910067D01*
X143255855Y-126731166D01*
X143325659Y-126562644D01*
X143426998Y-126410979D01*
X143555979Y-126281998D01*
X143707644Y-126180659D01*
X143876166Y-126110855D01*
X144055067Y-126075270D01*
X144237473Y-126075270D01*
X144416374Y-126110855D01*
X144416374Y-126110855D01*
G37*
G36*
X125366374Y-126110855D02*
G01*
X125534896Y-126180659D01*
X125686561Y-126281998D01*
X125815542Y-126410979D01*
X125916881Y-126562644D01*
X125986685Y-126731166D01*
X126022270Y-126910067D01*
X126022270Y-127092473D01*
X125986685Y-127271374D01*
X125916881Y-127439896D01*
X125815542Y-127591561D01*
X125686561Y-127720542D01*
X125534896Y-127821881D01*
X125366374Y-127891685D01*
X125187473Y-127927270D01*
X125005067Y-127927270D01*
X124826166Y-127891685D01*
X124657644Y-127821881D01*
X124505979Y-127720542D01*
X124376998Y-127591561D01*
X124275659Y-127439896D01*
X124205855Y-127271374D01*
X124170270Y-127092473D01*
X124170270Y-126910067D01*
X124205855Y-126731166D01*
X124275659Y-126562644D01*
X124376998Y-126410979D01*
X124505979Y-126281998D01*
X124657644Y-126180659D01*
X124826166Y-126110855D01*
X125005067Y-126075270D01*
X125187473Y-126075270D01*
X125366374Y-126110855D01*
X125366374Y-126110855D01*
G37*
G36*
X192676374Y-126110855D02*
G01*
X192844896Y-126180659D01*
X192996561Y-126281998D01*
X193125542Y-126410979D01*
X193226881Y-126562644D01*
X193296685Y-126731166D01*
X193332270Y-126910067D01*
X193332270Y-127092473D01*
X193296685Y-127271374D01*
X193226881Y-127439896D01*
X193125542Y-127591561D01*
X192996561Y-127720542D01*
X192844896Y-127821881D01*
X192676374Y-127891685D01*
X192497473Y-127927270D01*
X192315067Y-127927270D01*
X192136166Y-127891685D01*
X191967644Y-127821881D01*
X191815979Y-127720542D01*
X191686998Y-127591561D01*
X191585659Y-127439896D01*
X191515855Y-127271374D01*
X191480270Y-127092473D01*
X191480270Y-126910067D01*
X191515855Y-126731166D01*
X191585659Y-126562644D01*
X191686998Y-126410979D01*
X191815979Y-126281998D01*
X191967644Y-126180659D01*
X192136166Y-126110855D01*
X192315067Y-126075270D01*
X192497473Y-126075270D01*
X192676374Y-126110855D01*
X192676374Y-126110855D01*
G37*
G36*
X182516374Y-126110855D02*
G01*
X182684896Y-126180659D01*
X182836561Y-126281998D01*
X182965542Y-126410979D01*
X183066881Y-126562644D01*
X183136685Y-126731166D01*
X183172270Y-126910067D01*
X183172270Y-127092473D01*
X183136685Y-127271374D01*
X183066881Y-127439896D01*
X182965542Y-127591561D01*
X182836561Y-127720542D01*
X182684896Y-127821881D01*
X182516374Y-127891685D01*
X182337473Y-127927270D01*
X182155067Y-127927270D01*
X181976166Y-127891685D01*
X181807644Y-127821881D01*
X181655979Y-127720542D01*
X181526998Y-127591561D01*
X181425659Y-127439896D01*
X181355855Y-127271374D01*
X181320270Y-127092473D01*
X181320270Y-126910067D01*
X181355855Y-126731166D01*
X181425659Y-126562644D01*
X181526998Y-126410979D01*
X181655979Y-126281998D01*
X181807644Y-126180659D01*
X181976166Y-126110855D01*
X182155067Y-126075270D01*
X182337473Y-126075270D01*
X182516374Y-126110855D01*
X182516374Y-126110855D01*
G37*
G36*
X163466374Y-126110855D02*
G01*
X163634896Y-126180659D01*
X163786561Y-126281998D01*
X163915542Y-126410979D01*
X164016881Y-126562644D01*
X164086685Y-126731166D01*
X164122270Y-126910067D01*
X164122270Y-127092473D01*
X164086685Y-127271374D01*
X164016881Y-127439896D01*
X163915542Y-127591561D01*
X163786561Y-127720542D01*
X163634896Y-127821881D01*
X163466374Y-127891685D01*
X163287473Y-127927270D01*
X163105067Y-127927270D01*
X162926166Y-127891685D01*
X162757644Y-127821881D01*
X162605979Y-127720542D01*
X162476998Y-127591561D01*
X162375659Y-127439896D01*
X162305855Y-127271374D01*
X162270270Y-127092473D01*
X162270270Y-126910067D01*
X162305855Y-126731166D01*
X162375659Y-126562644D01*
X162476998Y-126410979D01*
X162605979Y-126281998D01*
X162757644Y-126180659D01*
X162926166Y-126110855D01*
X163105067Y-126075270D01*
X163287473Y-126075270D01*
X163466374Y-126110855D01*
X163466374Y-126110855D01*
G37*
G36*
X173626374Y-126110855D02*
G01*
X173794896Y-126180659D01*
X173946561Y-126281998D01*
X174075542Y-126410979D01*
X174176881Y-126562644D01*
X174246685Y-126731166D01*
X174282270Y-126910067D01*
X174282270Y-127092473D01*
X174246685Y-127271374D01*
X174176881Y-127439896D01*
X174075542Y-127591561D01*
X173946561Y-127720542D01*
X173794896Y-127821881D01*
X173626374Y-127891685D01*
X173447473Y-127927270D01*
X173265067Y-127927270D01*
X173086166Y-127891685D01*
X172917644Y-127821881D01*
X172765979Y-127720542D01*
X172636998Y-127591561D01*
X172535659Y-127439896D01*
X172465855Y-127271374D01*
X172430270Y-127092473D01*
X172430270Y-126910067D01*
X172465855Y-126731166D01*
X172535659Y-126562644D01*
X172636998Y-126410979D01*
X172765979Y-126281998D01*
X172917644Y-126180659D01*
X173086166Y-126110855D01*
X173265067Y-126075270D01*
X173447473Y-126075270D01*
X173626374Y-126110855D01*
X173626374Y-126110855D01*
G37*
G36*
X135526374Y-126110855D02*
G01*
X135694896Y-126180659D01*
X135846561Y-126281998D01*
X135975542Y-126410979D01*
X136076881Y-126562644D01*
X136146685Y-126731166D01*
X136182270Y-126910067D01*
X136182270Y-127092473D01*
X136146685Y-127271374D01*
X136076881Y-127439896D01*
X135975542Y-127591561D01*
X135846561Y-127720542D01*
X135694896Y-127821881D01*
X135526374Y-127891685D01*
X135347473Y-127927270D01*
X135165067Y-127927270D01*
X134986166Y-127891685D01*
X134817644Y-127821881D01*
X134665979Y-127720542D01*
X134536998Y-127591561D01*
X134435659Y-127439896D01*
X134365855Y-127271374D01*
X134330270Y-127092473D01*
X134330270Y-126910067D01*
X134365855Y-126731166D01*
X134435659Y-126562644D01*
X134536998Y-126410979D01*
X134665979Y-126281998D01*
X134817644Y-126180659D01*
X134986166Y-126110855D01*
X135165067Y-126075270D01*
X135347473Y-126075270D01*
X135526374Y-126110855D01*
X135526374Y-126110855D01*
G37*
G36*
X154576374Y-126110855D02*
G01*
X154744896Y-126180659D01*
X154896561Y-126281998D01*
X155025542Y-126410979D01*
X155126881Y-126562644D01*
X155196685Y-126731166D01*
X155232270Y-126910067D01*
X155232270Y-127092473D01*
X155196685Y-127271374D01*
X155126881Y-127439896D01*
X155025542Y-127591561D01*
X154896561Y-127720542D01*
X154744896Y-127821881D01*
X154576374Y-127891685D01*
X154397473Y-127927270D01*
X154215067Y-127927270D01*
X154036166Y-127891685D01*
X153867644Y-127821881D01*
X153715979Y-127720542D01*
X153586998Y-127591561D01*
X153485659Y-127439896D01*
X153415855Y-127271374D01*
X153380270Y-127092473D01*
X153380270Y-126910067D01*
X153415855Y-126731166D01*
X153485659Y-126562644D01*
X153586998Y-126410979D01*
X153715979Y-126281998D01*
X153867644Y-126180659D01*
X154036166Y-126110855D01*
X154215067Y-126075270D01*
X154397473Y-126075270D01*
X154576374Y-126110855D01*
X154576374Y-126110855D01*
G37*
G36*
X195913500Y-125851000D02*
G01*
X194611500Y-125851000D01*
X194611500Y-124849000D01*
X195913500Y-124849000D01*
X195913500Y-125851000D01*
X195913500Y-125851000D01*
G37*
G36*
X138763500Y-125851000D02*
G01*
X137461500Y-125851000D01*
X137461500Y-124849000D01*
X138763500Y-124849000D01*
X138763500Y-125851000D01*
X138763500Y-125851000D01*
G37*
G36*
X157813500Y-125851000D02*
G01*
X156511500Y-125851000D01*
X156511500Y-124849000D01*
X157813500Y-124849000D01*
X157813500Y-125851000D01*
X157813500Y-125851000D01*
G37*
G36*
X176863500Y-125851000D02*
G01*
X175561500Y-125851000D01*
X175561500Y-124849000D01*
X176863500Y-124849000D01*
X176863500Y-125851000D01*
X176863500Y-125851000D01*
G37*
G36*
X164657830Y-123300334D02*
G01*
X164809297Y-123330463D01*
X165023315Y-123419112D01*
X165023316Y-123419113D01*
X165215924Y-123547809D01*
X165379731Y-123711616D01*
X165465528Y-123840021D01*
X165508428Y-123904225D01*
X165597077Y-124118243D01*
X165642270Y-124345444D01*
X165642270Y-124577096D01*
X165597077Y-124804297D01*
X165508428Y-125018315D01*
X165508427Y-125018316D01*
X165379731Y-125210924D01*
X165215924Y-125374731D01*
X165158810Y-125412893D01*
X165023315Y-125503428D01*
X164809297Y-125592077D01*
X164657830Y-125622206D01*
X164582097Y-125637270D01*
X164350443Y-125637270D01*
X164274710Y-125622206D01*
X164123243Y-125592077D01*
X163909225Y-125503428D01*
X163773730Y-125412893D01*
X163716616Y-125374731D01*
X163552809Y-125210924D01*
X163424113Y-125018316D01*
X163424112Y-125018315D01*
X163335463Y-124804297D01*
X163290270Y-124577096D01*
X163290270Y-124345444D01*
X163335463Y-124118243D01*
X163424112Y-123904225D01*
X163467012Y-123840021D01*
X163552809Y-123711616D01*
X163716616Y-123547809D01*
X163909224Y-123419113D01*
X163909225Y-123419112D01*
X164123243Y-123330463D01*
X164274710Y-123300334D01*
X164350443Y-123285270D01*
X164582097Y-123285270D01*
X164657830Y-123300334D01*
X164657830Y-123300334D01*
G37*
G36*
X126557830Y-123300334D02*
G01*
X126709297Y-123330463D01*
X126923315Y-123419112D01*
X126923316Y-123419113D01*
X127115924Y-123547809D01*
X127279731Y-123711616D01*
X127365528Y-123840021D01*
X127408428Y-123904225D01*
X127497077Y-124118243D01*
X127542270Y-124345444D01*
X127542270Y-124577096D01*
X127497077Y-124804297D01*
X127408428Y-125018315D01*
X127408427Y-125018316D01*
X127279731Y-125210924D01*
X127115924Y-125374731D01*
X127058810Y-125412893D01*
X126923315Y-125503428D01*
X126709297Y-125592077D01*
X126557830Y-125622206D01*
X126482097Y-125637270D01*
X126250443Y-125637270D01*
X126174710Y-125622206D01*
X126023243Y-125592077D01*
X125809225Y-125503428D01*
X125673730Y-125412893D01*
X125616616Y-125374731D01*
X125452809Y-125210924D01*
X125324113Y-125018316D01*
X125324112Y-125018315D01*
X125235463Y-124804297D01*
X125190270Y-124577096D01*
X125190270Y-124345444D01*
X125235463Y-124118243D01*
X125324112Y-123904225D01*
X125367012Y-123840021D01*
X125452809Y-123711616D01*
X125616616Y-123547809D01*
X125809224Y-123419113D01*
X125809225Y-123419112D01*
X126023243Y-123330463D01*
X126174710Y-123300334D01*
X126250443Y-123285270D01*
X126482097Y-123285270D01*
X126557830Y-123300334D01*
X126557830Y-123300334D01*
G37*
G36*
X145607830Y-123300334D02*
G01*
X145759297Y-123330463D01*
X145973315Y-123419112D01*
X145973316Y-123419113D01*
X146165924Y-123547809D01*
X146329731Y-123711616D01*
X146415528Y-123840021D01*
X146458428Y-123904225D01*
X146547077Y-124118243D01*
X146592270Y-124345444D01*
X146592270Y-124577096D01*
X146547077Y-124804297D01*
X146458428Y-125018315D01*
X146458427Y-125018316D01*
X146329731Y-125210924D01*
X146165924Y-125374731D01*
X146108810Y-125412893D01*
X145973315Y-125503428D01*
X145759297Y-125592077D01*
X145607830Y-125622206D01*
X145532097Y-125637270D01*
X145300443Y-125637270D01*
X145224710Y-125622206D01*
X145073243Y-125592077D01*
X144859225Y-125503428D01*
X144723730Y-125412893D01*
X144666616Y-125374731D01*
X144502809Y-125210924D01*
X144374113Y-125018316D01*
X144374112Y-125018315D01*
X144285463Y-124804297D01*
X144240270Y-124577096D01*
X144240270Y-124345444D01*
X144285463Y-124118243D01*
X144374112Y-123904225D01*
X144417012Y-123840021D01*
X144502809Y-123711616D01*
X144666616Y-123547809D01*
X144859224Y-123419113D01*
X144859225Y-123419112D01*
X145073243Y-123330463D01*
X145224710Y-123300334D01*
X145300443Y-123285270D01*
X145532097Y-123285270D01*
X145607830Y-123300334D01*
X145607830Y-123300334D01*
G37*
G36*
X183707830Y-123300334D02*
G01*
X183859297Y-123330463D01*
X184073315Y-123419112D01*
X184073316Y-123419113D01*
X184265924Y-123547809D01*
X184429731Y-123711616D01*
X184515528Y-123840021D01*
X184558428Y-123904225D01*
X184647077Y-124118243D01*
X184692270Y-124345444D01*
X184692270Y-124577096D01*
X184647077Y-124804297D01*
X184558428Y-125018315D01*
X184558427Y-125018316D01*
X184429731Y-125210924D01*
X184265924Y-125374731D01*
X184208810Y-125412893D01*
X184073315Y-125503428D01*
X183859297Y-125592077D01*
X183707830Y-125622206D01*
X183632097Y-125637270D01*
X183400443Y-125637270D01*
X183324710Y-125622206D01*
X183173243Y-125592077D01*
X182959225Y-125503428D01*
X182823730Y-125412893D01*
X182766616Y-125374731D01*
X182602809Y-125210924D01*
X182474113Y-125018316D01*
X182474112Y-125018315D01*
X182385463Y-124804297D01*
X182340270Y-124577096D01*
X182340270Y-124345444D01*
X182385463Y-124118243D01*
X182474112Y-123904225D01*
X182517012Y-123840021D01*
X182602809Y-123711616D01*
X182766616Y-123547809D01*
X182959224Y-123419113D01*
X182959225Y-123419112D01*
X183173243Y-123330463D01*
X183324710Y-123300334D01*
X183400443Y-123285270D01*
X183632097Y-123285270D01*
X183707830Y-123300334D01*
X183707830Y-123300334D01*
G37*
G36*
X190057830Y-120760334D02*
G01*
X190209297Y-120790463D01*
X190423315Y-120879112D01*
X190423316Y-120879113D01*
X190615924Y-121007809D01*
X190779731Y-121171616D01*
X190865528Y-121300021D01*
X190908428Y-121364225D01*
X190997077Y-121578243D01*
X191042270Y-121805444D01*
X191042270Y-122037096D01*
X190997077Y-122264297D01*
X190908428Y-122478315D01*
X190908427Y-122478316D01*
X190779731Y-122670924D01*
X190615924Y-122834731D01*
X190487519Y-122920528D01*
X190423315Y-122963428D01*
X190209297Y-123052077D01*
X190057830Y-123082206D01*
X189982097Y-123097270D01*
X189750443Y-123097270D01*
X189674710Y-123082206D01*
X189523243Y-123052077D01*
X189309225Y-122963428D01*
X189245021Y-122920528D01*
X189116616Y-122834731D01*
X188952809Y-122670924D01*
X188824113Y-122478316D01*
X188824112Y-122478315D01*
X188735463Y-122264297D01*
X188690270Y-122037096D01*
X188690270Y-121805444D01*
X188735463Y-121578243D01*
X188824112Y-121364225D01*
X188867012Y-121300021D01*
X188952809Y-121171616D01*
X189116616Y-121007809D01*
X189309224Y-120879113D01*
X189309225Y-120879112D01*
X189523243Y-120790463D01*
X189674710Y-120760334D01*
X189750443Y-120745270D01*
X189982097Y-120745270D01*
X190057830Y-120760334D01*
X190057830Y-120760334D01*
G37*
G36*
X151957830Y-120760334D02*
G01*
X152109297Y-120790463D01*
X152323315Y-120879112D01*
X152323316Y-120879113D01*
X152515924Y-121007809D01*
X152679731Y-121171616D01*
X152765528Y-121300021D01*
X152808428Y-121364225D01*
X152897077Y-121578243D01*
X152942270Y-121805444D01*
X152942270Y-122037096D01*
X152897077Y-122264297D01*
X152808428Y-122478315D01*
X152808427Y-122478316D01*
X152679731Y-122670924D01*
X152515924Y-122834731D01*
X152387519Y-122920528D01*
X152323315Y-122963428D01*
X152109297Y-123052077D01*
X151957830Y-123082206D01*
X151882097Y-123097270D01*
X151650443Y-123097270D01*
X151574710Y-123082206D01*
X151423243Y-123052077D01*
X151209225Y-122963428D01*
X151145021Y-122920528D01*
X151016616Y-122834731D01*
X150852809Y-122670924D01*
X150724113Y-122478316D01*
X150724112Y-122478315D01*
X150635463Y-122264297D01*
X150590270Y-122037096D01*
X150590270Y-121805444D01*
X150635463Y-121578243D01*
X150724112Y-121364225D01*
X150767012Y-121300021D01*
X150852809Y-121171616D01*
X151016616Y-121007809D01*
X151209224Y-120879113D01*
X151209225Y-120879112D01*
X151423243Y-120790463D01*
X151574710Y-120760334D01*
X151650443Y-120745270D01*
X151882097Y-120745270D01*
X151957830Y-120760334D01*
X151957830Y-120760334D01*
G37*
G36*
X171007830Y-120760334D02*
G01*
X171159297Y-120790463D01*
X171373315Y-120879112D01*
X171373316Y-120879113D01*
X171565924Y-121007809D01*
X171729731Y-121171616D01*
X171815528Y-121300021D01*
X171858428Y-121364225D01*
X171947077Y-121578243D01*
X171992270Y-121805444D01*
X171992270Y-122037096D01*
X171947077Y-122264297D01*
X171858428Y-122478315D01*
X171858427Y-122478316D01*
X171729731Y-122670924D01*
X171565924Y-122834731D01*
X171437519Y-122920528D01*
X171373315Y-122963428D01*
X171159297Y-123052077D01*
X171007830Y-123082206D01*
X170932097Y-123097270D01*
X170700443Y-123097270D01*
X170624710Y-123082206D01*
X170473243Y-123052077D01*
X170259225Y-122963428D01*
X170195021Y-122920528D01*
X170066616Y-122834731D01*
X169902809Y-122670924D01*
X169774113Y-122478316D01*
X169774112Y-122478315D01*
X169685463Y-122264297D01*
X169640270Y-122037096D01*
X169640270Y-121805444D01*
X169685463Y-121578243D01*
X169774112Y-121364225D01*
X169817012Y-121300021D01*
X169902809Y-121171616D01*
X170066616Y-121007809D01*
X170259224Y-120879113D01*
X170259225Y-120879112D01*
X170473243Y-120790463D01*
X170624710Y-120760334D01*
X170700443Y-120745270D01*
X170932097Y-120745270D01*
X171007830Y-120760334D01*
X171007830Y-120760334D01*
G37*
G36*
X132907830Y-120760334D02*
G01*
X133059297Y-120790463D01*
X133273315Y-120879112D01*
X133273316Y-120879113D01*
X133465924Y-121007809D01*
X133629731Y-121171616D01*
X133715528Y-121300021D01*
X133758428Y-121364225D01*
X133847077Y-121578243D01*
X133892270Y-121805444D01*
X133892270Y-122037096D01*
X133847077Y-122264297D01*
X133758428Y-122478315D01*
X133758427Y-122478316D01*
X133629731Y-122670924D01*
X133465924Y-122834731D01*
X133337519Y-122920528D01*
X133273315Y-122963428D01*
X133059297Y-123052077D01*
X132907830Y-123082206D01*
X132832097Y-123097270D01*
X132600443Y-123097270D01*
X132524710Y-123082206D01*
X132373243Y-123052077D01*
X132159225Y-122963428D01*
X132095021Y-122920528D01*
X131966616Y-122834731D01*
X131802809Y-122670924D01*
X131674113Y-122478316D01*
X131674112Y-122478315D01*
X131585463Y-122264297D01*
X131540270Y-122037096D01*
X131540270Y-121805444D01*
X131585463Y-121578243D01*
X131674112Y-121364225D01*
X131717012Y-121300021D01*
X131802809Y-121171616D01*
X131966616Y-121007809D01*
X132159224Y-120879113D01*
X132159225Y-120879112D01*
X132373243Y-120790463D01*
X132524710Y-120760334D01*
X132600443Y-120745270D01*
X132832097Y-120745270D01*
X132907830Y-120760334D01*
X132907830Y-120760334D01*
G37*
G36*
X138763500Y-110101000D02*
G01*
X137461500Y-110101000D01*
X137461500Y-109099000D01*
X138763500Y-109099000D01*
X138763500Y-110101000D01*
X138763500Y-110101000D01*
G37*
G36*
X176863500Y-110101000D02*
G01*
X175561500Y-110101000D01*
X175561500Y-109099000D01*
X176863500Y-109099000D01*
X176863500Y-110101000D01*
X176863500Y-110101000D01*
G37*
G36*
X157813500Y-110101000D02*
G01*
X156511500Y-110101000D01*
X156511500Y-109099000D01*
X157813500Y-109099000D01*
X157813500Y-110101000D01*
X157813500Y-110101000D01*
G37*
G36*
X195913500Y-110101000D02*
G01*
X194611500Y-110101000D01*
X194611500Y-109099000D01*
X195913500Y-109099000D01*
X195913500Y-110101000D01*
X195913500Y-110101000D01*
G37*
G36*
X130772744Y-105984954D02*
G01*
X130990744Y-106075253D01*
X131144893Y-106139103D01*
X131479818Y-106362893D01*
X131764647Y-106647722D01*
X131988437Y-106982647D01*
X132020832Y-107060856D01*
X132142586Y-107354796D01*
X132221170Y-107749864D01*
X132221170Y-108152676D01*
X132142586Y-108547744D01*
X132091721Y-108670542D01*
X131988437Y-108919893D01*
X131764647Y-109254818D01*
X131479818Y-109539647D01*
X131144893Y-109763437D01*
X130990744Y-109827287D01*
X130772744Y-109917586D01*
X130377676Y-109996170D01*
X129974864Y-109996170D01*
X129579796Y-109917586D01*
X129361796Y-109827287D01*
X129207647Y-109763437D01*
X128872722Y-109539647D01*
X128587893Y-109254818D01*
X128364103Y-108919893D01*
X128260819Y-108670542D01*
X128209954Y-108547744D01*
X128131370Y-108152676D01*
X128131370Y-107749864D01*
X128209954Y-107354796D01*
X128331708Y-107060856D01*
X128364103Y-106982647D01*
X128587893Y-106647722D01*
X128872722Y-106362893D01*
X129207647Y-106139103D01*
X129361796Y-106075253D01*
X129579796Y-105984954D01*
X129974864Y-105906370D01*
X130377676Y-105906370D01*
X130772744Y-105984954D01*
X130772744Y-105984954D01*
G37*
G36*
X149822744Y-105984954D02*
G01*
X150040744Y-106075253D01*
X150194893Y-106139103D01*
X150529818Y-106362893D01*
X150814647Y-106647722D01*
X151038437Y-106982647D01*
X151070832Y-107060856D01*
X151192586Y-107354796D01*
X151271170Y-107749864D01*
X151271170Y-108152676D01*
X151192586Y-108547744D01*
X151141721Y-108670542D01*
X151038437Y-108919893D01*
X150814647Y-109254818D01*
X150529818Y-109539647D01*
X150194893Y-109763437D01*
X150040744Y-109827287D01*
X149822744Y-109917586D01*
X149427676Y-109996170D01*
X149024864Y-109996170D01*
X148629796Y-109917586D01*
X148411796Y-109827287D01*
X148257647Y-109763437D01*
X147922722Y-109539647D01*
X147637893Y-109254818D01*
X147414103Y-108919893D01*
X147310819Y-108670542D01*
X147259954Y-108547744D01*
X147181370Y-108152676D01*
X147181370Y-107749864D01*
X147259954Y-107354796D01*
X147381708Y-107060856D01*
X147414103Y-106982647D01*
X147637893Y-106647722D01*
X147922722Y-106362893D01*
X148257647Y-106139103D01*
X148411796Y-106075253D01*
X148629796Y-105984954D01*
X149024864Y-105906370D01*
X149427676Y-105906370D01*
X149822744Y-105984954D01*
X149822744Y-105984954D01*
G37*
G36*
X168872744Y-105984954D02*
G01*
X169090744Y-106075253D01*
X169244893Y-106139103D01*
X169579818Y-106362893D01*
X169864647Y-106647722D01*
X170088437Y-106982647D01*
X170120832Y-107060856D01*
X170242586Y-107354796D01*
X170321170Y-107749864D01*
X170321170Y-108152676D01*
X170242586Y-108547744D01*
X170191721Y-108670542D01*
X170088437Y-108919893D01*
X169864647Y-109254818D01*
X169579818Y-109539647D01*
X169244893Y-109763437D01*
X169090744Y-109827287D01*
X168872744Y-109917586D01*
X168477676Y-109996170D01*
X168074864Y-109996170D01*
X167679796Y-109917586D01*
X167461796Y-109827287D01*
X167307647Y-109763437D01*
X166972722Y-109539647D01*
X166687893Y-109254818D01*
X166464103Y-108919893D01*
X166360819Y-108670542D01*
X166309954Y-108547744D01*
X166231370Y-108152676D01*
X166231370Y-107749864D01*
X166309954Y-107354796D01*
X166431708Y-107060856D01*
X166464103Y-106982647D01*
X166687893Y-106647722D01*
X166972722Y-106362893D01*
X167307647Y-106139103D01*
X167461796Y-106075253D01*
X167679796Y-105984954D01*
X168074864Y-105906370D01*
X168477676Y-105906370D01*
X168872744Y-105984954D01*
X168872744Y-105984954D01*
G37*
G36*
X187922744Y-105984954D02*
G01*
X188140744Y-106075253D01*
X188294893Y-106139103D01*
X188629818Y-106362893D01*
X188914647Y-106647722D01*
X189138437Y-106982647D01*
X189170832Y-107060856D01*
X189292586Y-107354796D01*
X189371170Y-107749864D01*
X189371170Y-108152676D01*
X189292586Y-108547744D01*
X189241721Y-108670542D01*
X189138437Y-108919893D01*
X188914647Y-109254818D01*
X188629818Y-109539647D01*
X188294893Y-109763437D01*
X188140744Y-109827287D01*
X187922744Y-109917586D01*
X187527676Y-109996170D01*
X187124864Y-109996170D01*
X186729796Y-109917586D01*
X186511796Y-109827287D01*
X186357647Y-109763437D01*
X186022722Y-109539647D01*
X185737893Y-109254818D01*
X185514103Y-108919893D01*
X185410819Y-108670542D01*
X185359954Y-108547744D01*
X185281370Y-108152676D01*
X185281370Y-107749864D01*
X185359954Y-107354796D01*
X185481708Y-107060856D01*
X185514103Y-106982647D01*
X185737893Y-106647722D01*
X186022722Y-106362893D01*
X186357647Y-106139103D01*
X186511796Y-106075253D01*
X186729796Y-105984954D01*
X187124864Y-105906370D01*
X187527676Y-105906370D01*
X187922744Y-105984954D01*
X187922744Y-105984954D01*
G37*
G36*
X182516374Y-107060855D02*
G01*
X182684896Y-107130659D01*
X182836561Y-107231998D01*
X182965542Y-107360979D01*
X183066881Y-107512644D01*
X183136685Y-107681166D01*
X183172270Y-107860067D01*
X183172270Y-108042473D01*
X183136685Y-108221374D01*
X183066881Y-108389896D01*
X182965542Y-108541561D01*
X182836561Y-108670542D01*
X182684896Y-108771881D01*
X182516374Y-108841685D01*
X182337473Y-108877270D01*
X182155067Y-108877270D01*
X181976166Y-108841685D01*
X181807644Y-108771881D01*
X181655979Y-108670542D01*
X181526998Y-108541561D01*
X181425659Y-108389896D01*
X181355855Y-108221374D01*
X181320270Y-108042473D01*
X181320270Y-107860067D01*
X181355855Y-107681166D01*
X181425659Y-107512644D01*
X181526998Y-107360979D01*
X181655979Y-107231998D01*
X181807644Y-107130659D01*
X181976166Y-107060855D01*
X182155067Y-107025270D01*
X182337473Y-107025270D01*
X182516374Y-107060855D01*
X182516374Y-107060855D01*
G37*
G36*
X192676374Y-107060855D02*
G01*
X192844896Y-107130659D01*
X192996561Y-107231998D01*
X193125542Y-107360979D01*
X193226881Y-107512644D01*
X193296685Y-107681166D01*
X193332270Y-107860067D01*
X193332270Y-108042473D01*
X193296685Y-108221374D01*
X193226881Y-108389896D01*
X193125542Y-108541561D01*
X192996561Y-108670542D01*
X192844896Y-108771881D01*
X192676374Y-108841685D01*
X192497473Y-108877270D01*
X192315067Y-108877270D01*
X192136166Y-108841685D01*
X191967644Y-108771881D01*
X191815979Y-108670542D01*
X191686998Y-108541561D01*
X191585659Y-108389896D01*
X191515855Y-108221374D01*
X191480270Y-108042473D01*
X191480270Y-107860067D01*
X191515855Y-107681166D01*
X191585659Y-107512644D01*
X191686998Y-107360979D01*
X191815979Y-107231998D01*
X191967644Y-107130659D01*
X192136166Y-107060855D01*
X192315067Y-107025270D01*
X192497473Y-107025270D01*
X192676374Y-107060855D01*
X192676374Y-107060855D01*
G37*
G36*
X173626374Y-107060855D02*
G01*
X173794896Y-107130659D01*
X173946561Y-107231998D01*
X174075542Y-107360979D01*
X174176881Y-107512644D01*
X174246685Y-107681166D01*
X174282270Y-107860067D01*
X174282270Y-108042473D01*
X174246685Y-108221374D01*
X174176881Y-108389896D01*
X174075542Y-108541561D01*
X173946561Y-108670542D01*
X173794896Y-108771881D01*
X173626374Y-108841685D01*
X173447473Y-108877270D01*
X173265067Y-108877270D01*
X173086166Y-108841685D01*
X172917644Y-108771881D01*
X172765979Y-108670542D01*
X172636998Y-108541561D01*
X172535659Y-108389896D01*
X172465855Y-108221374D01*
X172430270Y-108042473D01*
X172430270Y-107860067D01*
X172465855Y-107681166D01*
X172535659Y-107512644D01*
X172636998Y-107360979D01*
X172765979Y-107231998D01*
X172917644Y-107130659D01*
X173086166Y-107060855D01*
X173265067Y-107025270D01*
X173447473Y-107025270D01*
X173626374Y-107060855D01*
X173626374Y-107060855D01*
G37*
G36*
X163466374Y-107060855D02*
G01*
X163634896Y-107130659D01*
X163786561Y-107231998D01*
X163915542Y-107360979D01*
X164016881Y-107512644D01*
X164086685Y-107681166D01*
X164122270Y-107860067D01*
X164122270Y-108042473D01*
X164086685Y-108221374D01*
X164016881Y-108389896D01*
X163915542Y-108541561D01*
X163786561Y-108670542D01*
X163634896Y-108771881D01*
X163466374Y-108841685D01*
X163287473Y-108877270D01*
X163105067Y-108877270D01*
X162926166Y-108841685D01*
X162757644Y-108771881D01*
X162605979Y-108670542D01*
X162476998Y-108541561D01*
X162375659Y-108389896D01*
X162305855Y-108221374D01*
X162270270Y-108042473D01*
X162270270Y-107860067D01*
X162305855Y-107681166D01*
X162375659Y-107512644D01*
X162476998Y-107360979D01*
X162605979Y-107231998D01*
X162757644Y-107130659D01*
X162926166Y-107060855D01*
X163105067Y-107025270D01*
X163287473Y-107025270D01*
X163466374Y-107060855D01*
X163466374Y-107060855D01*
G37*
G36*
X154576374Y-107060855D02*
G01*
X154744896Y-107130659D01*
X154896561Y-107231998D01*
X155025542Y-107360979D01*
X155126881Y-107512644D01*
X155196685Y-107681166D01*
X155232270Y-107860067D01*
X155232270Y-108042473D01*
X155196685Y-108221374D01*
X155126881Y-108389896D01*
X155025542Y-108541561D01*
X154896561Y-108670542D01*
X154744896Y-108771881D01*
X154576374Y-108841685D01*
X154397473Y-108877270D01*
X154215067Y-108877270D01*
X154036166Y-108841685D01*
X153867644Y-108771881D01*
X153715979Y-108670542D01*
X153586998Y-108541561D01*
X153485659Y-108389896D01*
X153415855Y-108221374D01*
X153380270Y-108042473D01*
X153380270Y-107860067D01*
X153415855Y-107681166D01*
X153485659Y-107512644D01*
X153586998Y-107360979D01*
X153715979Y-107231998D01*
X153867644Y-107130659D01*
X154036166Y-107060855D01*
X154215067Y-107025270D01*
X154397473Y-107025270D01*
X154576374Y-107060855D01*
X154576374Y-107060855D01*
G37*
G36*
X144416374Y-107060855D02*
G01*
X144584896Y-107130659D01*
X144736561Y-107231998D01*
X144865542Y-107360979D01*
X144966881Y-107512644D01*
X145036685Y-107681166D01*
X145072270Y-107860067D01*
X145072270Y-108042473D01*
X145036685Y-108221374D01*
X144966881Y-108389896D01*
X144865542Y-108541561D01*
X144736561Y-108670542D01*
X144584896Y-108771881D01*
X144416374Y-108841685D01*
X144237473Y-108877270D01*
X144055067Y-108877270D01*
X143876166Y-108841685D01*
X143707644Y-108771881D01*
X143555979Y-108670542D01*
X143426998Y-108541561D01*
X143325659Y-108389896D01*
X143255855Y-108221374D01*
X143220270Y-108042473D01*
X143220270Y-107860067D01*
X143255855Y-107681166D01*
X143325659Y-107512644D01*
X143426998Y-107360979D01*
X143555979Y-107231998D01*
X143707644Y-107130659D01*
X143876166Y-107060855D01*
X144055067Y-107025270D01*
X144237473Y-107025270D01*
X144416374Y-107060855D01*
X144416374Y-107060855D01*
G37*
G36*
X135526374Y-107060855D02*
G01*
X135694896Y-107130659D01*
X135846561Y-107231998D01*
X135975542Y-107360979D01*
X136076881Y-107512644D01*
X136146685Y-107681166D01*
X136182270Y-107860067D01*
X136182270Y-108042473D01*
X136146685Y-108221374D01*
X136076881Y-108389896D01*
X135975542Y-108541561D01*
X135846561Y-108670542D01*
X135694896Y-108771881D01*
X135526374Y-108841685D01*
X135347473Y-108877270D01*
X135165067Y-108877270D01*
X134986166Y-108841685D01*
X134817644Y-108771881D01*
X134665979Y-108670542D01*
X134536998Y-108541561D01*
X134435659Y-108389896D01*
X134365855Y-108221374D01*
X134330270Y-108042473D01*
X134330270Y-107860067D01*
X134365855Y-107681166D01*
X134435659Y-107512644D01*
X134536998Y-107360979D01*
X134665979Y-107231998D01*
X134817644Y-107130659D01*
X134986166Y-107060855D01*
X135165067Y-107025270D01*
X135347473Y-107025270D01*
X135526374Y-107060855D01*
X135526374Y-107060855D01*
G37*
G36*
X125366374Y-107060855D02*
G01*
X125534896Y-107130659D01*
X125686561Y-107231998D01*
X125815542Y-107360979D01*
X125916881Y-107512644D01*
X125986685Y-107681166D01*
X126022270Y-107860067D01*
X126022270Y-108042473D01*
X125986685Y-108221374D01*
X125916881Y-108389896D01*
X125815542Y-108541561D01*
X125686561Y-108670542D01*
X125534896Y-108771881D01*
X125366374Y-108841685D01*
X125187473Y-108877270D01*
X125005067Y-108877270D01*
X124826166Y-108841685D01*
X124657644Y-108771881D01*
X124505979Y-108670542D01*
X124376998Y-108541561D01*
X124275659Y-108389896D01*
X124205855Y-108221374D01*
X124170270Y-108042473D01*
X124170270Y-107860067D01*
X124205855Y-107681166D01*
X124275659Y-107512644D01*
X124376998Y-107360979D01*
X124505979Y-107231998D01*
X124657644Y-107130659D01*
X124826166Y-107060855D01*
X125005067Y-107025270D01*
X125187473Y-107025270D01*
X125366374Y-107060855D01*
X125366374Y-107060855D01*
G37*
G36*
X157813500Y-106801000D02*
G01*
X156511500Y-106801000D01*
X156511500Y-105799000D01*
X157813500Y-105799000D01*
X157813500Y-106801000D01*
X157813500Y-106801000D01*
G37*
G36*
X138763500Y-106801000D02*
G01*
X137461500Y-106801000D01*
X137461500Y-105799000D01*
X138763500Y-105799000D01*
X138763500Y-106801000D01*
X138763500Y-106801000D01*
G37*
G36*
X195913500Y-106801000D02*
G01*
X194611500Y-106801000D01*
X194611500Y-105799000D01*
X195913500Y-105799000D01*
X195913500Y-106801000D01*
X195913500Y-106801000D01*
G37*
G36*
X176863500Y-106801000D02*
G01*
X175561500Y-106801000D01*
X175561500Y-105799000D01*
X176863500Y-105799000D01*
X176863500Y-106801000D01*
X176863500Y-106801000D01*
G37*
G36*
X126557830Y-104250334D02*
G01*
X126709297Y-104280463D01*
X126923315Y-104369112D01*
X126923316Y-104369113D01*
X127115924Y-104497809D01*
X127279731Y-104661616D01*
X127365528Y-104790021D01*
X127408428Y-104854225D01*
X127497077Y-105068243D01*
X127542270Y-105295444D01*
X127542270Y-105527096D01*
X127497077Y-105754297D01*
X127408428Y-105968315D01*
X127408427Y-105968316D01*
X127279731Y-106160924D01*
X127115924Y-106324731D01*
X127058810Y-106362893D01*
X126923315Y-106453428D01*
X126709297Y-106542077D01*
X126557830Y-106572206D01*
X126482097Y-106587270D01*
X126250443Y-106587270D01*
X126174710Y-106572206D01*
X126023243Y-106542077D01*
X125809225Y-106453428D01*
X125673730Y-106362893D01*
X125616616Y-106324731D01*
X125452809Y-106160924D01*
X125324113Y-105968316D01*
X125324112Y-105968315D01*
X125235463Y-105754297D01*
X125190270Y-105527096D01*
X125190270Y-105295444D01*
X125235463Y-105068243D01*
X125324112Y-104854225D01*
X125367012Y-104790021D01*
X125452809Y-104661616D01*
X125616616Y-104497809D01*
X125809224Y-104369113D01*
X125809225Y-104369112D01*
X126023243Y-104280463D01*
X126174710Y-104250334D01*
X126250443Y-104235270D01*
X126482097Y-104235270D01*
X126557830Y-104250334D01*
X126557830Y-104250334D01*
G37*
G36*
X145607830Y-104250334D02*
G01*
X145759297Y-104280463D01*
X145973315Y-104369112D01*
X145973316Y-104369113D01*
X146165924Y-104497809D01*
X146329731Y-104661616D01*
X146415528Y-104790021D01*
X146458428Y-104854225D01*
X146547077Y-105068243D01*
X146592270Y-105295444D01*
X146592270Y-105527096D01*
X146547077Y-105754297D01*
X146458428Y-105968315D01*
X146458427Y-105968316D01*
X146329731Y-106160924D01*
X146165924Y-106324731D01*
X146108810Y-106362893D01*
X145973315Y-106453428D01*
X145759297Y-106542077D01*
X145607830Y-106572206D01*
X145532097Y-106587270D01*
X145300443Y-106587270D01*
X145224710Y-106572206D01*
X145073243Y-106542077D01*
X144859225Y-106453428D01*
X144723730Y-106362893D01*
X144666616Y-106324731D01*
X144502809Y-106160924D01*
X144374113Y-105968316D01*
X144374112Y-105968315D01*
X144285463Y-105754297D01*
X144240270Y-105527096D01*
X144240270Y-105295444D01*
X144285463Y-105068243D01*
X144374112Y-104854225D01*
X144417012Y-104790021D01*
X144502809Y-104661616D01*
X144666616Y-104497809D01*
X144859224Y-104369113D01*
X144859225Y-104369112D01*
X145073243Y-104280463D01*
X145224710Y-104250334D01*
X145300443Y-104235270D01*
X145532097Y-104235270D01*
X145607830Y-104250334D01*
X145607830Y-104250334D01*
G37*
G36*
X183707830Y-104250334D02*
G01*
X183859297Y-104280463D01*
X184073315Y-104369112D01*
X184073316Y-104369113D01*
X184265924Y-104497809D01*
X184429731Y-104661616D01*
X184515528Y-104790021D01*
X184558428Y-104854225D01*
X184647077Y-105068243D01*
X184692270Y-105295444D01*
X184692270Y-105527096D01*
X184647077Y-105754297D01*
X184558428Y-105968315D01*
X184558427Y-105968316D01*
X184429731Y-106160924D01*
X184265924Y-106324731D01*
X184208810Y-106362893D01*
X184073315Y-106453428D01*
X183859297Y-106542077D01*
X183707830Y-106572206D01*
X183632097Y-106587270D01*
X183400443Y-106587270D01*
X183324710Y-106572206D01*
X183173243Y-106542077D01*
X182959225Y-106453428D01*
X182823730Y-106362893D01*
X182766616Y-106324731D01*
X182602809Y-106160924D01*
X182474113Y-105968316D01*
X182474112Y-105968315D01*
X182385463Y-105754297D01*
X182340270Y-105527096D01*
X182340270Y-105295444D01*
X182385463Y-105068243D01*
X182474112Y-104854225D01*
X182517012Y-104790021D01*
X182602809Y-104661616D01*
X182766616Y-104497809D01*
X182959224Y-104369113D01*
X182959225Y-104369112D01*
X183173243Y-104280463D01*
X183324710Y-104250334D01*
X183400443Y-104235270D01*
X183632097Y-104235270D01*
X183707830Y-104250334D01*
X183707830Y-104250334D01*
G37*
G36*
X164657830Y-104250334D02*
G01*
X164809297Y-104280463D01*
X165023315Y-104369112D01*
X165023316Y-104369113D01*
X165215924Y-104497809D01*
X165379731Y-104661616D01*
X165465528Y-104790021D01*
X165508428Y-104854225D01*
X165597077Y-105068243D01*
X165642270Y-105295444D01*
X165642270Y-105527096D01*
X165597077Y-105754297D01*
X165508428Y-105968315D01*
X165508427Y-105968316D01*
X165379731Y-106160924D01*
X165215924Y-106324731D01*
X165158810Y-106362893D01*
X165023315Y-106453428D01*
X164809297Y-106542077D01*
X164657830Y-106572206D01*
X164582097Y-106587270D01*
X164350443Y-106587270D01*
X164274710Y-106572206D01*
X164123243Y-106542077D01*
X163909225Y-106453428D01*
X163773730Y-106362893D01*
X163716616Y-106324731D01*
X163552809Y-106160924D01*
X163424113Y-105968316D01*
X163424112Y-105968315D01*
X163335463Y-105754297D01*
X163290270Y-105527096D01*
X163290270Y-105295444D01*
X163335463Y-105068243D01*
X163424112Y-104854225D01*
X163467012Y-104790021D01*
X163552809Y-104661616D01*
X163716616Y-104497809D01*
X163909224Y-104369113D01*
X163909225Y-104369112D01*
X164123243Y-104280463D01*
X164274710Y-104250334D01*
X164350443Y-104235270D01*
X164582097Y-104235270D01*
X164657830Y-104250334D01*
X164657830Y-104250334D01*
G37*
G36*
X190057830Y-101710334D02*
G01*
X190209297Y-101740463D01*
X190423315Y-101829112D01*
X190423316Y-101829113D01*
X190615924Y-101957809D01*
X190779731Y-102121616D01*
X190865528Y-102250021D01*
X190908428Y-102314225D01*
X190997077Y-102528243D01*
X191042270Y-102755444D01*
X191042270Y-102987096D01*
X190997077Y-103214297D01*
X190908428Y-103428315D01*
X190908427Y-103428316D01*
X190779731Y-103620924D01*
X190615924Y-103784731D01*
X190487519Y-103870528D01*
X190423315Y-103913428D01*
X190209297Y-104002077D01*
X190057830Y-104032206D01*
X189982097Y-104047270D01*
X189750443Y-104047270D01*
X189674710Y-104032206D01*
X189523243Y-104002077D01*
X189309225Y-103913428D01*
X189245021Y-103870528D01*
X189116616Y-103784731D01*
X188952809Y-103620924D01*
X188824113Y-103428316D01*
X188824112Y-103428315D01*
X188735463Y-103214297D01*
X188690270Y-102987096D01*
X188690270Y-102755444D01*
X188735463Y-102528243D01*
X188824112Y-102314225D01*
X188867012Y-102250021D01*
X188952809Y-102121616D01*
X189116616Y-101957809D01*
X189309224Y-101829113D01*
X189309225Y-101829112D01*
X189523243Y-101740463D01*
X189674710Y-101710334D01*
X189750443Y-101695270D01*
X189982097Y-101695270D01*
X190057830Y-101710334D01*
X190057830Y-101710334D01*
G37*
G36*
X132907830Y-101710334D02*
G01*
X133059297Y-101740463D01*
X133273315Y-101829112D01*
X133273316Y-101829113D01*
X133465924Y-101957809D01*
X133629731Y-102121616D01*
X133715528Y-102250021D01*
X133758428Y-102314225D01*
X133847077Y-102528243D01*
X133892270Y-102755444D01*
X133892270Y-102987096D01*
X133847077Y-103214297D01*
X133758428Y-103428315D01*
X133758427Y-103428316D01*
X133629731Y-103620924D01*
X133465924Y-103784731D01*
X133337519Y-103870528D01*
X133273315Y-103913428D01*
X133059297Y-104002077D01*
X132907830Y-104032206D01*
X132832097Y-104047270D01*
X132600443Y-104047270D01*
X132524710Y-104032206D01*
X132373243Y-104002077D01*
X132159225Y-103913428D01*
X132095021Y-103870528D01*
X131966616Y-103784731D01*
X131802809Y-103620924D01*
X131674113Y-103428316D01*
X131674112Y-103428315D01*
X131585463Y-103214297D01*
X131540270Y-102987096D01*
X131540270Y-102755444D01*
X131585463Y-102528243D01*
X131674112Y-102314225D01*
X131717012Y-102250021D01*
X131802809Y-102121616D01*
X131966616Y-101957809D01*
X132159224Y-101829113D01*
X132159225Y-101829112D01*
X132373243Y-101740463D01*
X132524710Y-101710334D01*
X132600443Y-101695270D01*
X132832097Y-101695270D01*
X132907830Y-101710334D01*
X132907830Y-101710334D01*
G37*
G36*
X151957830Y-101710334D02*
G01*
X152109297Y-101740463D01*
X152323315Y-101829112D01*
X152323316Y-101829113D01*
X152515924Y-101957809D01*
X152679731Y-102121616D01*
X152765528Y-102250021D01*
X152808428Y-102314225D01*
X152897077Y-102528243D01*
X152942270Y-102755444D01*
X152942270Y-102987096D01*
X152897077Y-103214297D01*
X152808428Y-103428315D01*
X152808427Y-103428316D01*
X152679731Y-103620924D01*
X152515924Y-103784731D01*
X152387519Y-103870528D01*
X152323315Y-103913428D01*
X152109297Y-104002077D01*
X151957830Y-104032206D01*
X151882097Y-104047270D01*
X151650443Y-104047270D01*
X151574710Y-104032206D01*
X151423243Y-104002077D01*
X151209225Y-103913428D01*
X151145021Y-103870528D01*
X151016616Y-103784731D01*
X150852809Y-103620924D01*
X150724113Y-103428316D01*
X150724112Y-103428315D01*
X150635463Y-103214297D01*
X150590270Y-102987096D01*
X150590270Y-102755444D01*
X150635463Y-102528243D01*
X150724112Y-102314225D01*
X150767012Y-102250021D01*
X150852809Y-102121616D01*
X151016616Y-101957809D01*
X151209224Y-101829113D01*
X151209225Y-101829112D01*
X151423243Y-101740463D01*
X151574710Y-101710334D01*
X151650443Y-101695270D01*
X151882097Y-101695270D01*
X151957830Y-101710334D01*
X151957830Y-101710334D01*
G37*
G36*
X171007830Y-101710334D02*
G01*
X171159297Y-101740463D01*
X171373315Y-101829112D01*
X171373316Y-101829113D01*
X171565924Y-101957809D01*
X171729731Y-102121616D01*
X171815528Y-102250021D01*
X171858428Y-102314225D01*
X171947077Y-102528243D01*
X171992270Y-102755444D01*
X171992270Y-102987096D01*
X171947077Y-103214297D01*
X171858428Y-103428315D01*
X171858427Y-103428316D01*
X171729731Y-103620924D01*
X171565924Y-103784731D01*
X171437519Y-103870528D01*
X171373315Y-103913428D01*
X171159297Y-104002077D01*
X171007830Y-104032206D01*
X170932097Y-104047270D01*
X170700443Y-104047270D01*
X170624710Y-104032206D01*
X170473243Y-104002077D01*
X170259225Y-103913428D01*
X170195021Y-103870528D01*
X170066616Y-103784731D01*
X169902809Y-103620924D01*
X169774113Y-103428316D01*
X169774112Y-103428315D01*
X169685463Y-103214297D01*
X169640270Y-102987096D01*
X169640270Y-102755444D01*
X169685463Y-102528243D01*
X169774112Y-102314225D01*
X169817012Y-102250021D01*
X169902809Y-102121616D01*
X170066616Y-101957809D01*
X170259224Y-101829113D01*
X170259225Y-101829112D01*
X170473243Y-101740463D01*
X170624710Y-101710334D01*
X170700443Y-101695270D01*
X170932097Y-101695270D01*
X171007830Y-101710334D01*
X171007830Y-101710334D01*
G37*
G36*
X178023279Y-97294846D02*
G01*
X178134464Y-97316962D01*
X178343933Y-97403727D01*
X178532450Y-97529690D01*
X178692770Y-97690010D01*
X178818733Y-97878527D01*
X178905498Y-98087996D01*
X178949730Y-98310366D01*
X178949730Y-98537094D01*
X178905498Y-98759464D01*
X178818733Y-98968933D01*
X178692770Y-99157450D01*
X178532450Y-99317770D01*
X178343933Y-99443733D01*
X178134464Y-99530498D01*
X178023279Y-99552614D01*
X177912095Y-99574730D01*
X177685365Y-99574730D01*
X177574181Y-99552614D01*
X177462996Y-99530498D01*
X177253527Y-99443733D01*
X177065010Y-99317770D01*
X176904690Y-99157450D01*
X176778727Y-98968933D01*
X176691962Y-98759464D01*
X176647730Y-98537094D01*
X176647730Y-98310366D01*
X176691962Y-98087996D01*
X176778727Y-97878527D01*
X176904690Y-97690010D01*
X177065010Y-97529690D01*
X177253527Y-97403727D01*
X177462996Y-97316962D01*
X177574181Y-97294846D01*
X177685365Y-97272730D01*
X177912095Y-97272730D01*
X178023279Y-97294846D01*
X178023279Y-97294846D01*
G37*
G36*
X195913500Y-91051000D02*
G01*
X194611500Y-91051000D01*
X194611500Y-90049000D01*
X195913500Y-90049000D01*
X195913500Y-91051000D01*
X195913500Y-91051000D01*
G37*
G36*
X176863500Y-91051000D02*
G01*
X175561500Y-91051000D01*
X175561500Y-90049000D01*
X176863500Y-90049000D01*
X176863500Y-91051000D01*
X176863500Y-91051000D01*
G37*
G36*
X157813500Y-91051000D02*
G01*
X156511500Y-91051000D01*
X156511500Y-90049000D01*
X157813500Y-90049000D01*
X157813500Y-91051000D01*
X157813500Y-91051000D01*
G37*
G36*
X138763500Y-91051000D02*
G01*
X137461500Y-91051000D01*
X137461500Y-90049000D01*
X138763500Y-90049000D01*
X138763500Y-91051000D01*
X138763500Y-91051000D01*
G37*
G36*
X168872744Y-86934954D02*
G01*
X169090744Y-87025253D01*
X169244893Y-87089103D01*
X169579818Y-87312893D01*
X169864647Y-87597722D01*
X170088437Y-87932647D01*
X170120832Y-88010856D01*
X170242586Y-88304796D01*
X170321170Y-88699864D01*
X170321170Y-89102676D01*
X170242586Y-89497744D01*
X170191721Y-89620542D01*
X170088437Y-89869893D01*
X169864647Y-90204818D01*
X169579818Y-90489647D01*
X169244893Y-90713437D01*
X169090744Y-90777287D01*
X168872744Y-90867586D01*
X168477676Y-90946170D01*
X168074864Y-90946170D01*
X167679796Y-90867586D01*
X167461796Y-90777287D01*
X167307647Y-90713437D01*
X166972722Y-90489647D01*
X166687893Y-90204818D01*
X166464103Y-89869893D01*
X166360819Y-89620542D01*
X166309954Y-89497744D01*
X166231370Y-89102676D01*
X166231370Y-88699864D01*
X166309954Y-88304796D01*
X166431708Y-88010856D01*
X166464103Y-87932647D01*
X166687893Y-87597722D01*
X166972722Y-87312893D01*
X167307647Y-87089103D01*
X167461796Y-87025253D01*
X167679796Y-86934954D01*
X168074864Y-86856370D01*
X168477676Y-86856370D01*
X168872744Y-86934954D01*
X168872744Y-86934954D01*
G37*
G36*
X149822744Y-86934954D02*
G01*
X150040744Y-87025253D01*
X150194893Y-87089103D01*
X150529818Y-87312893D01*
X150814647Y-87597722D01*
X151038437Y-87932647D01*
X151070832Y-88010856D01*
X151192586Y-88304796D01*
X151271170Y-88699864D01*
X151271170Y-89102676D01*
X151192586Y-89497744D01*
X151141721Y-89620542D01*
X151038437Y-89869893D01*
X150814647Y-90204818D01*
X150529818Y-90489647D01*
X150194893Y-90713437D01*
X150040744Y-90777287D01*
X149822744Y-90867586D01*
X149427676Y-90946170D01*
X149024864Y-90946170D01*
X148629796Y-90867586D01*
X148411796Y-90777287D01*
X148257647Y-90713437D01*
X147922722Y-90489647D01*
X147637893Y-90204818D01*
X147414103Y-89869893D01*
X147310819Y-89620542D01*
X147259954Y-89497744D01*
X147181370Y-89102676D01*
X147181370Y-88699864D01*
X147259954Y-88304796D01*
X147381708Y-88010856D01*
X147414103Y-87932647D01*
X147637893Y-87597722D01*
X147922722Y-87312893D01*
X148257647Y-87089103D01*
X148411796Y-87025253D01*
X148629796Y-86934954D01*
X149024864Y-86856370D01*
X149427676Y-86856370D01*
X149822744Y-86934954D01*
X149822744Y-86934954D01*
G37*
G36*
X130772744Y-86934954D02*
G01*
X130990744Y-87025253D01*
X131144893Y-87089103D01*
X131479818Y-87312893D01*
X131764647Y-87597722D01*
X131988437Y-87932647D01*
X132020832Y-88010856D01*
X132142586Y-88304796D01*
X132221170Y-88699864D01*
X132221170Y-89102676D01*
X132142586Y-89497744D01*
X132091721Y-89620542D01*
X131988437Y-89869893D01*
X131764647Y-90204818D01*
X131479818Y-90489647D01*
X131144893Y-90713437D01*
X130990744Y-90777287D01*
X130772744Y-90867586D01*
X130377676Y-90946170D01*
X129974864Y-90946170D01*
X129579796Y-90867586D01*
X129361796Y-90777287D01*
X129207647Y-90713437D01*
X128872722Y-90489647D01*
X128587893Y-90204818D01*
X128364103Y-89869893D01*
X128260819Y-89620542D01*
X128209954Y-89497744D01*
X128131370Y-89102676D01*
X128131370Y-88699864D01*
X128209954Y-88304796D01*
X128331708Y-88010856D01*
X128364103Y-87932647D01*
X128587893Y-87597722D01*
X128872722Y-87312893D01*
X129207647Y-87089103D01*
X129361796Y-87025253D01*
X129579796Y-86934954D01*
X129974864Y-86856370D01*
X130377676Y-86856370D01*
X130772744Y-86934954D01*
X130772744Y-86934954D01*
G37*
G36*
X187922744Y-86934954D02*
G01*
X188140744Y-87025253D01*
X188294893Y-87089103D01*
X188629818Y-87312893D01*
X188914647Y-87597722D01*
X189138437Y-87932647D01*
X189170832Y-88010856D01*
X189292586Y-88304796D01*
X189371170Y-88699864D01*
X189371170Y-89102676D01*
X189292586Y-89497744D01*
X189241721Y-89620542D01*
X189138437Y-89869893D01*
X188914647Y-90204818D01*
X188629818Y-90489647D01*
X188294893Y-90713437D01*
X188140744Y-90777287D01*
X187922744Y-90867586D01*
X187527676Y-90946170D01*
X187124864Y-90946170D01*
X186729796Y-90867586D01*
X186511796Y-90777287D01*
X186357647Y-90713437D01*
X186022722Y-90489647D01*
X185737893Y-90204818D01*
X185514103Y-89869893D01*
X185410819Y-89620542D01*
X185359954Y-89497744D01*
X185281370Y-89102676D01*
X185281370Y-88699864D01*
X185359954Y-88304796D01*
X185481708Y-88010856D01*
X185514103Y-87932647D01*
X185737893Y-87597722D01*
X186022722Y-87312893D01*
X186357647Y-87089103D01*
X186511796Y-87025253D01*
X186729796Y-86934954D01*
X187124864Y-86856370D01*
X187527676Y-86856370D01*
X187922744Y-86934954D01*
X187922744Y-86934954D01*
G37*
G36*
X182516374Y-88010855D02*
G01*
X182684896Y-88080659D01*
X182836561Y-88181998D01*
X182965542Y-88310979D01*
X183066881Y-88462644D01*
X183136685Y-88631166D01*
X183172270Y-88810067D01*
X183172270Y-88992473D01*
X183136685Y-89171374D01*
X183066881Y-89339896D01*
X182965542Y-89491561D01*
X182836561Y-89620542D01*
X182684896Y-89721881D01*
X182516374Y-89791685D01*
X182337473Y-89827270D01*
X182155067Y-89827270D01*
X181976166Y-89791685D01*
X181807644Y-89721881D01*
X181655979Y-89620542D01*
X181526998Y-89491561D01*
X181425659Y-89339896D01*
X181355855Y-89171374D01*
X181320270Y-88992473D01*
X181320270Y-88810067D01*
X181355855Y-88631166D01*
X181425659Y-88462644D01*
X181526998Y-88310979D01*
X181655979Y-88181998D01*
X181807644Y-88080659D01*
X181976166Y-88010855D01*
X182155067Y-87975270D01*
X182337473Y-87975270D01*
X182516374Y-88010855D01*
X182516374Y-88010855D01*
G37*
G36*
X173626374Y-88010855D02*
G01*
X173794896Y-88080659D01*
X173946561Y-88181998D01*
X174075542Y-88310979D01*
X174176881Y-88462644D01*
X174246685Y-88631166D01*
X174282270Y-88810067D01*
X174282270Y-88992473D01*
X174246685Y-89171374D01*
X174176881Y-89339896D01*
X174075542Y-89491561D01*
X173946561Y-89620542D01*
X173794896Y-89721881D01*
X173626374Y-89791685D01*
X173447473Y-89827270D01*
X173265067Y-89827270D01*
X173086166Y-89791685D01*
X172917644Y-89721881D01*
X172765979Y-89620542D01*
X172636998Y-89491561D01*
X172535659Y-89339896D01*
X172465855Y-89171374D01*
X172430270Y-88992473D01*
X172430270Y-88810067D01*
X172465855Y-88631166D01*
X172535659Y-88462644D01*
X172636998Y-88310979D01*
X172765979Y-88181998D01*
X172917644Y-88080659D01*
X173086166Y-88010855D01*
X173265067Y-87975270D01*
X173447473Y-87975270D01*
X173626374Y-88010855D01*
X173626374Y-88010855D01*
G37*
G36*
X163466374Y-88010855D02*
G01*
X163634896Y-88080659D01*
X163786561Y-88181998D01*
X163915542Y-88310979D01*
X164016881Y-88462644D01*
X164086685Y-88631166D01*
X164122270Y-88810067D01*
X164122270Y-88992473D01*
X164086685Y-89171374D01*
X164016881Y-89339896D01*
X163915542Y-89491561D01*
X163786561Y-89620542D01*
X163634896Y-89721881D01*
X163466374Y-89791685D01*
X163287473Y-89827270D01*
X163105067Y-89827270D01*
X162926166Y-89791685D01*
X162757644Y-89721881D01*
X162605979Y-89620542D01*
X162476998Y-89491561D01*
X162375659Y-89339896D01*
X162305855Y-89171374D01*
X162270270Y-88992473D01*
X162270270Y-88810067D01*
X162305855Y-88631166D01*
X162375659Y-88462644D01*
X162476998Y-88310979D01*
X162605979Y-88181998D01*
X162757644Y-88080659D01*
X162926166Y-88010855D01*
X163105067Y-87975270D01*
X163287473Y-87975270D01*
X163466374Y-88010855D01*
X163466374Y-88010855D01*
G37*
G36*
X144416374Y-88010855D02*
G01*
X144584896Y-88080659D01*
X144736561Y-88181998D01*
X144865542Y-88310979D01*
X144966881Y-88462644D01*
X145036685Y-88631166D01*
X145072270Y-88810067D01*
X145072270Y-88992473D01*
X145036685Y-89171374D01*
X144966881Y-89339896D01*
X144865542Y-89491561D01*
X144736561Y-89620542D01*
X144584896Y-89721881D01*
X144416374Y-89791685D01*
X144237473Y-89827270D01*
X144055067Y-89827270D01*
X143876166Y-89791685D01*
X143707644Y-89721881D01*
X143555979Y-89620542D01*
X143426998Y-89491561D01*
X143325659Y-89339896D01*
X143255855Y-89171374D01*
X143220270Y-88992473D01*
X143220270Y-88810067D01*
X143255855Y-88631166D01*
X143325659Y-88462644D01*
X143426998Y-88310979D01*
X143555979Y-88181998D01*
X143707644Y-88080659D01*
X143876166Y-88010855D01*
X144055067Y-87975270D01*
X144237473Y-87975270D01*
X144416374Y-88010855D01*
X144416374Y-88010855D01*
G37*
G36*
X154576374Y-88010855D02*
G01*
X154744896Y-88080659D01*
X154896561Y-88181998D01*
X155025542Y-88310979D01*
X155126881Y-88462644D01*
X155196685Y-88631166D01*
X155232270Y-88810067D01*
X155232270Y-88992473D01*
X155196685Y-89171374D01*
X155126881Y-89339896D01*
X155025542Y-89491561D01*
X154896561Y-89620542D01*
X154744896Y-89721881D01*
X154576374Y-89791685D01*
X154397473Y-89827270D01*
X154215067Y-89827270D01*
X154036166Y-89791685D01*
X153867644Y-89721881D01*
X153715979Y-89620542D01*
X153586998Y-89491561D01*
X153485659Y-89339896D01*
X153415855Y-89171374D01*
X153380270Y-88992473D01*
X153380270Y-88810067D01*
X153415855Y-88631166D01*
X153485659Y-88462644D01*
X153586998Y-88310979D01*
X153715979Y-88181998D01*
X153867644Y-88080659D01*
X154036166Y-88010855D01*
X154215067Y-87975270D01*
X154397473Y-87975270D01*
X154576374Y-88010855D01*
X154576374Y-88010855D01*
G37*
G36*
X125366374Y-88010855D02*
G01*
X125534896Y-88080659D01*
X125686561Y-88181998D01*
X125815542Y-88310979D01*
X125916881Y-88462644D01*
X125986685Y-88631166D01*
X126022270Y-88810067D01*
X126022270Y-88992473D01*
X125986685Y-89171374D01*
X125916881Y-89339896D01*
X125815542Y-89491561D01*
X125686561Y-89620542D01*
X125534896Y-89721881D01*
X125366374Y-89791685D01*
X125187473Y-89827270D01*
X125005067Y-89827270D01*
X124826166Y-89791685D01*
X124657644Y-89721881D01*
X124505979Y-89620542D01*
X124376998Y-89491561D01*
X124275659Y-89339896D01*
X124205855Y-89171374D01*
X124170270Y-88992473D01*
X124170270Y-88810067D01*
X124205855Y-88631166D01*
X124275659Y-88462644D01*
X124376998Y-88310979D01*
X124505979Y-88181998D01*
X124657644Y-88080659D01*
X124826166Y-88010855D01*
X125005067Y-87975270D01*
X125187473Y-87975270D01*
X125366374Y-88010855D01*
X125366374Y-88010855D01*
G37*
G36*
X135526374Y-88010855D02*
G01*
X135694896Y-88080659D01*
X135846561Y-88181998D01*
X135975542Y-88310979D01*
X136076881Y-88462644D01*
X136146685Y-88631166D01*
X136182270Y-88810067D01*
X136182270Y-88992473D01*
X136146685Y-89171374D01*
X136076881Y-89339896D01*
X135975542Y-89491561D01*
X135846561Y-89620542D01*
X135694896Y-89721881D01*
X135526374Y-89791685D01*
X135347473Y-89827270D01*
X135165067Y-89827270D01*
X134986166Y-89791685D01*
X134817644Y-89721881D01*
X134665979Y-89620542D01*
X134536998Y-89491561D01*
X134435659Y-89339896D01*
X134365855Y-89171374D01*
X134330270Y-88992473D01*
X134330270Y-88810067D01*
X134365855Y-88631166D01*
X134435659Y-88462644D01*
X134536998Y-88310979D01*
X134665979Y-88181998D01*
X134817644Y-88080659D01*
X134986166Y-88010855D01*
X135165067Y-87975270D01*
X135347473Y-87975270D01*
X135526374Y-88010855D01*
X135526374Y-88010855D01*
G37*
G36*
X192676374Y-88010855D02*
G01*
X192844896Y-88080659D01*
X192996561Y-88181998D01*
X193125542Y-88310979D01*
X193226881Y-88462644D01*
X193296685Y-88631166D01*
X193332270Y-88810067D01*
X193332270Y-88992473D01*
X193296685Y-89171374D01*
X193226881Y-89339896D01*
X193125542Y-89491561D01*
X192996561Y-89620542D01*
X192844896Y-89721881D01*
X192676374Y-89791685D01*
X192497473Y-89827270D01*
X192315067Y-89827270D01*
X192136166Y-89791685D01*
X191967644Y-89721881D01*
X191815979Y-89620542D01*
X191686998Y-89491561D01*
X191585659Y-89339896D01*
X191515855Y-89171374D01*
X191480270Y-88992473D01*
X191480270Y-88810067D01*
X191515855Y-88631166D01*
X191585659Y-88462644D01*
X191686998Y-88310979D01*
X191815979Y-88181998D01*
X191967644Y-88080659D01*
X192136166Y-88010855D01*
X192315067Y-87975270D01*
X192497473Y-87975270D01*
X192676374Y-88010855D01*
X192676374Y-88010855D01*
G37*
G36*
X157813500Y-87751000D02*
G01*
X156511500Y-87751000D01*
X156511500Y-86749000D01*
X157813500Y-86749000D01*
X157813500Y-87751000D01*
X157813500Y-87751000D01*
G37*
G36*
X195913500Y-87751000D02*
G01*
X194611500Y-87751000D01*
X194611500Y-86749000D01*
X195913500Y-86749000D01*
X195913500Y-87751000D01*
X195913500Y-87751000D01*
G37*
G36*
X176863500Y-87751000D02*
G01*
X175561500Y-87751000D01*
X175561500Y-86749000D01*
X176863500Y-86749000D01*
X176863500Y-87751000D01*
X176863500Y-87751000D01*
G37*
G36*
X138763500Y-87751000D02*
G01*
X137461500Y-87751000D01*
X137461500Y-86749000D01*
X138763500Y-86749000D01*
X138763500Y-87751000D01*
X138763500Y-87751000D01*
G37*
G36*
X183707830Y-85200334D02*
G01*
X183859297Y-85230463D01*
X184073315Y-85319112D01*
X184073316Y-85319113D01*
X184265924Y-85447809D01*
X184429731Y-85611616D01*
X184515528Y-85740021D01*
X184558428Y-85804225D01*
X184647077Y-86018243D01*
X184692270Y-86245444D01*
X184692270Y-86477096D01*
X184647077Y-86704297D01*
X184558428Y-86918315D01*
X184558427Y-86918316D01*
X184429731Y-87110924D01*
X184265924Y-87274731D01*
X184208810Y-87312893D01*
X184073315Y-87403428D01*
X183859297Y-87492077D01*
X183707830Y-87522206D01*
X183632097Y-87537270D01*
X183400443Y-87537270D01*
X183324710Y-87522206D01*
X183173243Y-87492077D01*
X182959225Y-87403428D01*
X182823730Y-87312893D01*
X182766616Y-87274731D01*
X182602809Y-87110924D01*
X182474113Y-86918316D01*
X182474112Y-86918315D01*
X182385463Y-86704297D01*
X182340270Y-86477096D01*
X182340270Y-86245444D01*
X182385463Y-86018243D01*
X182474112Y-85804225D01*
X182517012Y-85740021D01*
X182602809Y-85611616D01*
X182766616Y-85447809D01*
X182959224Y-85319113D01*
X182959225Y-85319112D01*
X183173243Y-85230463D01*
X183324710Y-85200334D01*
X183400443Y-85185270D01*
X183632097Y-85185270D01*
X183707830Y-85200334D01*
X183707830Y-85200334D01*
G37*
G36*
X164657830Y-85200334D02*
G01*
X164809297Y-85230463D01*
X165023315Y-85319112D01*
X165023316Y-85319113D01*
X165215924Y-85447809D01*
X165379731Y-85611616D01*
X165465528Y-85740021D01*
X165508428Y-85804225D01*
X165597077Y-86018243D01*
X165642270Y-86245444D01*
X165642270Y-86477096D01*
X165597077Y-86704297D01*
X165508428Y-86918315D01*
X165508427Y-86918316D01*
X165379731Y-87110924D01*
X165215924Y-87274731D01*
X165158810Y-87312893D01*
X165023315Y-87403428D01*
X164809297Y-87492077D01*
X164657830Y-87522206D01*
X164582097Y-87537270D01*
X164350443Y-87537270D01*
X164274710Y-87522206D01*
X164123243Y-87492077D01*
X163909225Y-87403428D01*
X163773730Y-87312893D01*
X163716616Y-87274731D01*
X163552809Y-87110924D01*
X163424113Y-86918316D01*
X163424112Y-86918315D01*
X163335463Y-86704297D01*
X163290270Y-86477096D01*
X163290270Y-86245444D01*
X163335463Y-86018243D01*
X163424112Y-85804225D01*
X163467012Y-85740021D01*
X163552809Y-85611616D01*
X163716616Y-85447809D01*
X163909224Y-85319113D01*
X163909225Y-85319112D01*
X164123243Y-85230463D01*
X164274710Y-85200334D01*
X164350443Y-85185270D01*
X164582097Y-85185270D01*
X164657830Y-85200334D01*
X164657830Y-85200334D01*
G37*
G36*
X145607830Y-85200334D02*
G01*
X145759297Y-85230463D01*
X145973315Y-85319112D01*
X145973316Y-85319113D01*
X146165924Y-85447809D01*
X146329731Y-85611616D01*
X146415528Y-85740021D01*
X146458428Y-85804225D01*
X146547077Y-86018243D01*
X146592270Y-86245444D01*
X146592270Y-86477096D01*
X146547077Y-86704297D01*
X146458428Y-86918315D01*
X146458427Y-86918316D01*
X146329731Y-87110924D01*
X146165924Y-87274731D01*
X146108810Y-87312893D01*
X145973315Y-87403428D01*
X145759297Y-87492077D01*
X145607830Y-87522206D01*
X145532097Y-87537270D01*
X145300443Y-87537270D01*
X145224710Y-87522206D01*
X145073243Y-87492077D01*
X144859225Y-87403428D01*
X144723730Y-87312893D01*
X144666616Y-87274731D01*
X144502809Y-87110924D01*
X144374113Y-86918316D01*
X144374112Y-86918315D01*
X144285463Y-86704297D01*
X144240270Y-86477096D01*
X144240270Y-86245444D01*
X144285463Y-86018243D01*
X144374112Y-85804225D01*
X144417012Y-85740021D01*
X144502809Y-85611616D01*
X144666616Y-85447809D01*
X144859224Y-85319113D01*
X144859225Y-85319112D01*
X145073243Y-85230463D01*
X145224710Y-85200334D01*
X145300443Y-85185270D01*
X145532097Y-85185270D01*
X145607830Y-85200334D01*
X145607830Y-85200334D01*
G37*
G36*
X126557830Y-85200334D02*
G01*
X126709297Y-85230463D01*
X126923315Y-85319112D01*
X126923316Y-85319113D01*
X127115924Y-85447809D01*
X127279731Y-85611616D01*
X127365528Y-85740021D01*
X127408428Y-85804225D01*
X127497077Y-86018243D01*
X127542270Y-86245444D01*
X127542270Y-86477096D01*
X127497077Y-86704297D01*
X127408428Y-86918315D01*
X127408427Y-86918316D01*
X127279731Y-87110924D01*
X127115924Y-87274731D01*
X127058810Y-87312893D01*
X126923315Y-87403428D01*
X126709297Y-87492077D01*
X126557830Y-87522206D01*
X126482097Y-87537270D01*
X126250443Y-87537270D01*
X126174710Y-87522206D01*
X126023243Y-87492077D01*
X125809225Y-87403428D01*
X125673730Y-87312893D01*
X125616616Y-87274731D01*
X125452809Y-87110924D01*
X125324113Y-86918316D01*
X125324112Y-86918315D01*
X125235463Y-86704297D01*
X125190270Y-86477096D01*
X125190270Y-86245444D01*
X125235463Y-86018243D01*
X125324112Y-85804225D01*
X125367012Y-85740021D01*
X125452809Y-85611616D01*
X125616616Y-85447809D01*
X125809224Y-85319113D01*
X125809225Y-85319112D01*
X126023243Y-85230463D01*
X126174710Y-85200334D01*
X126250443Y-85185270D01*
X126482097Y-85185270D01*
X126557830Y-85200334D01*
X126557830Y-85200334D01*
G37*
G36*
X132907830Y-82660334D02*
G01*
X133059297Y-82690463D01*
X133273315Y-82779112D01*
X133273316Y-82779113D01*
X133465924Y-82907809D01*
X133629731Y-83071616D01*
X133715528Y-83200021D01*
X133758428Y-83264225D01*
X133847077Y-83478243D01*
X133892270Y-83705444D01*
X133892270Y-83937096D01*
X133847077Y-84164297D01*
X133758428Y-84378315D01*
X133758427Y-84378316D01*
X133629731Y-84570924D01*
X133465924Y-84734731D01*
X133337519Y-84820528D01*
X133273315Y-84863428D01*
X133059297Y-84952077D01*
X132907830Y-84982206D01*
X132832097Y-84997270D01*
X132600443Y-84997270D01*
X132524710Y-84982206D01*
X132373243Y-84952077D01*
X132159225Y-84863428D01*
X132095021Y-84820528D01*
X131966616Y-84734731D01*
X131802809Y-84570924D01*
X131674113Y-84378316D01*
X131674112Y-84378315D01*
X131585463Y-84164297D01*
X131540270Y-83937096D01*
X131540270Y-83705444D01*
X131585463Y-83478243D01*
X131674112Y-83264225D01*
X131717012Y-83200021D01*
X131802809Y-83071616D01*
X131966616Y-82907809D01*
X132159224Y-82779113D01*
X132159225Y-82779112D01*
X132373243Y-82690463D01*
X132524710Y-82660334D01*
X132600443Y-82645270D01*
X132832097Y-82645270D01*
X132907830Y-82660334D01*
X132907830Y-82660334D01*
G37*
G36*
X151957830Y-82660334D02*
G01*
X152109297Y-82690463D01*
X152323315Y-82779112D01*
X152323316Y-82779113D01*
X152515924Y-82907809D01*
X152679731Y-83071616D01*
X152765528Y-83200021D01*
X152808428Y-83264225D01*
X152897077Y-83478243D01*
X152942270Y-83705444D01*
X152942270Y-83937096D01*
X152897077Y-84164297D01*
X152808428Y-84378315D01*
X152808427Y-84378316D01*
X152679731Y-84570924D01*
X152515924Y-84734731D01*
X152387519Y-84820528D01*
X152323315Y-84863428D01*
X152109297Y-84952077D01*
X151957830Y-84982206D01*
X151882097Y-84997270D01*
X151650443Y-84997270D01*
X151574710Y-84982206D01*
X151423243Y-84952077D01*
X151209225Y-84863428D01*
X151145021Y-84820528D01*
X151016616Y-84734731D01*
X150852809Y-84570924D01*
X150724113Y-84378316D01*
X150724112Y-84378315D01*
X150635463Y-84164297D01*
X150590270Y-83937096D01*
X150590270Y-83705444D01*
X150635463Y-83478243D01*
X150724112Y-83264225D01*
X150767012Y-83200021D01*
X150852809Y-83071616D01*
X151016616Y-82907809D01*
X151209224Y-82779113D01*
X151209225Y-82779112D01*
X151423243Y-82690463D01*
X151574710Y-82660334D01*
X151650443Y-82645270D01*
X151882097Y-82645270D01*
X151957830Y-82660334D01*
X151957830Y-82660334D01*
G37*
G36*
X190057830Y-82660334D02*
G01*
X190209297Y-82690463D01*
X190423315Y-82779112D01*
X190423316Y-82779113D01*
X190615924Y-82907809D01*
X190779731Y-83071616D01*
X190865528Y-83200021D01*
X190908428Y-83264225D01*
X190997077Y-83478243D01*
X191042270Y-83705444D01*
X191042270Y-83937096D01*
X190997077Y-84164297D01*
X190908428Y-84378315D01*
X190908427Y-84378316D01*
X190779731Y-84570924D01*
X190615924Y-84734731D01*
X190487519Y-84820528D01*
X190423315Y-84863428D01*
X190209297Y-84952077D01*
X190057830Y-84982206D01*
X189982097Y-84997270D01*
X189750443Y-84997270D01*
X189674710Y-84982206D01*
X189523243Y-84952077D01*
X189309225Y-84863428D01*
X189245021Y-84820528D01*
X189116616Y-84734731D01*
X188952809Y-84570924D01*
X188824113Y-84378316D01*
X188824112Y-84378315D01*
X188735463Y-84164297D01*
X188690270Y-83937096D01*
X188690270Y-83705444D01*
X188735463Y-83478243D01*
X188824112Y-83264225D01*
X188867012Y-83200021D01*
X188952809Y-83071616D01*
X189116616Y-82907809D01*
X189309224Y-82779113D01*
X189309225Y-82779112D01*
X189523243Y-82690463D01*
X189674710Y-82660334D01*
X189750443Y-82645270D01*
X189982097Y-82645270D01*
X190057830Y-82660334D01*
X190057830Y-82660334D01*
G37*
G36*
X171007830Y-82660334D02*
G01*
X171159297Y-82690463D01*
X171373315Y-82779112D01*
X171373316Y-82779113D01*
X171565924Y-82907809D01*
X171729731Y-83071616D01*
X171815528Y-83200021D01*
X171858428Y-83264225D01*
X171947077Y-83478243D01*
X171992270Y-83705444D01*
X171992270Y-83937096D01*
X171947077Y-84164297D01*
X171858428Y-84378315D01*
X171858427Y-84378316D01*
X171729731Y-84570924D01*
X171565924Y-84734731D01*
X171437519Y-84820528D01*
X171373315Y-84863428D01*
X171159297Y-84952077D01*
X171007830Y-84982206D01*
X170932097Y-84997270D01*
X170700443Y-84997270D01*
X170624710Y-84982206D01*
X170473243Y-84952077D01*
X170259225Y-84863428D01*
X170195021Y-84820528D01*
X170066616Y-84734731D01*
X169902809Y-84570924D01*
X169774113Y-84378316D01*
X169774112Y-84378315D01*
X169685463Y-84164297D01*
X169640270Y-83937096D01*
X169640270Y-83705444D01*
X169685463Y-83478243D01*
X169774112Y-83264225D01*
X169817012Y-83200021D01*
X169902809Y-83071616D01*
X170066616Y-82907809D01*
X170259224Y-82779113D01*
X170259225Y-82779112D01*
X170473243Y-82690463D01*
X170624710Y-82660334D01*
X170700443Y-82645270D01*
X170932097Y-82645270D01*
X171007830Y-82660334D01*
X171007830Y-82660334D01*
G37*
G36*
X139923279Y-78246116D02*
G01*
X140034464Y-78268232D01*
X140243933Y-78354997D01*
X140432450Y-78480960D01*
X140592770Y-78641280D01*
X140718733Y-78829797D01*
X140805498Y-79039266D01*
X140849730Y-79261636D01*
X140849730Y-79488364D01*
X140805498Y-79710734D01*
X140718733Y-79920203D01*
X140592770Y-80108720D01*
X140432450Y-80269040D01*
X140243933Y-80395003D01*
X140034464Y-80481768D01*
X139923279Y-80503884D01*
X139812095Y-80526000D01*
X139585365Y-80526000D01*
X139474181Y-80503884D01*
X139362996Y-80481768D01*
X139153527Y-80395003D01*
X138965010Y-80269040D01*
X138804690Y-80108720D01*
X138678727Y-79920203D01*
X138591962Y-79710734D01*
X138547730Y-79488364D01*
X138547730Y-79261636D01*
X138591962Y-79039266D01*
X138678727Y-78829797D01*
X138804690Y-78641280D01*
X138965010Y-78480960D01*
X139153527Y-78354997D01*
X139362996Y-78268232D01*
X139474181Y-78246116D01*
X139585365Y-78224000D01*
X139812095Y-78224000D01*
X139923279Y-78246116D01*
X139923279Y-78246116D01*
G37*
G36*
X193870562Y-75532181D02*
G01*
X193905481Y-75542774D01*
X193937663Y-75559976D01*
X193965873Y-75583127D01*
X193989024Y-75611337D01*
X194006226Y-75643519D01*
X194016819Y-75678438D01*
X194021000Y-75720895D01*
X194021000Y-77187105D01*
X194016819Y-77229562D01*
X194006226Y-77264481D01*
X193989024Y-77296663D01*
X193965873Y-77324873D01*
X193937663Y-77348024D01*
X193905481Y-77365226D01*
X193870562Y-77375819D01*
X193828105Y-77380000D01*
X192686895Y-77380000D01*
X192644438Y-77375819D01*
X192609519Y-77365226D01*
X192577337Y-77348024D01*
X192549127Y-77324873D01*
X192525976Y-77296663D01*
X192508774Y-77264481D01*
X192498181Y-77229562D01*
X192494000Y-77187105D01*
X192494000Y-75720895D01*
X192498181Y-75678438D01*
X192508774Y-75643519D01*
X192525976Y-75611337D01*
X192549127Y-75583127D01*
X192577337Y-75559976D01*
X192609519Y-75542774D01*
X192644438Y-75532181D01*
X192686895Y-75528000D01*
X193828105Y-75528000D01*
X193870562Y-75532181D01*
X193870562Y-75532181D01*
G37*
G36*
X190895562Y-75532181D02*
G01*
X190930481Y-75542774D01*
X190962663Y-75559976D01*
X190990873Y-75583127D01*
X191014024Y-75611337D01*
X191031226Y-75643519D01*
X191041819Y-75678438D01*
X191046000Y-75720895D01*
X191046000Y-77187105D01*
X191041819Y-77229562D01*
X191031226Y-77264481D01*
X191014024Y-77296663D01*
X190990873Y-77324873D01*
X190962663Y-77348024D01*
X190930481Y-77365226D01*
X190895562Y-77375819D01*
X190853105Y-77380000D01*
X189711895Y-77380000D01*
X189669438Y-77375819D01*
X189634519Y-77365226D01*
X189602337Y-77348024D01*
X189574127Y-77324873D01*
X189550976Y-77296663D01*
X189533774Y-77264481D01*
X189523181Y-77229562D01*
X189519000Y-77187105D01*
X189519000Y-75720895D01*
X189523181Y-75678438D01*
X189533774Y-75643519D01*
X189550976Y-75611337D01*
X189574127Y-75583127D01*
X189602337Y-75559976D01*
X189634519Y-75542774D01*
X189669438Y-75532181D01*
X189711895Y-75528000D01*
X190853105Y-75528000D01*
X190895562Y-75532181D01*
X190895562Y-75532181D01*
G37*
G36*
X181810674Y-70881465D02*
G01*
X181848367Y-70892899D01*
X181883103Y-70911466D01*
X181913548Y-70936452D01*
X181938534Y-70966897D01*
X181957101Y-71001633D01*
X181968535Y-71039326D01*
X181973000Y-71084661D01*
X181973000Y-72171339D01*
X181968535Y-72216674D01*
X181957101Y-72254367D01*
X181938534Y-72289103D01*
X181913548Y-72319548D01*
X181883103Y-72344534D01*
X181848367Y-72363101D01*
X181810674Y-72374535D01*
X181765339Y-72379000D01*
X180928661Y-72379000D01*
X180883326Y-72374535D01*
X180845633Y-72363101D01*
X180810897Y-72344534D01*
X180780452Y-72319548D01*
X180755466Y-72289103D01*
X180736899Y-72254367D01*
X180725465Y-72216674D01*
X180721000Y-72171339D01*
X180721000Y-71084661D01*
X180725465Y-71039326D01*
X180736899Y-71001633D01*
X180755466Y-70966897D01*
X180780452Y-70936452D01*
X180810897Y-70911466D01*
X180845633Y-70892899D01*
X180883326Y-70881465D01*
X180928661Y-70877000D01*
X181765339Y-70877000D01*
X181810674Y-70881465D01*
X181810674Y-70881465D01*
G37*
G36*
X183860674Y-70881465D02*
G01*
X183898367Y-70892899D01*
X183933103Y-70911466D01*
X183963548Y-70936452D01*
X183988534Y-70966897D01*
X184007101Y-71001633D01*
X184018535Y-71039326D01*
X184023000Y-71084661D01*
X184023000Y-72171339D01*
X184018535Y-72216674D01*
X184007101Y-72254367D01*
X183988534Y-72289103D01*
X183963548Y-72319548D01*
X183933103Y-72344534D01*
X183898367Y-72363101D01*
X183860674Y-72374535D01*
X183815339Y-72379000D01*
X182978661Y-72379000D01*
X182933326Y-72374535D01*
X182895633Y-72363101D01*
X182860897Y-72344534D01*
X182830452Y-72319548D01*
X182805466Y-72289103D01*
X182786899Y-72254367D01*
X182775465Y-72216674D01*
X182771000Y-72171339D01*
X182771000Y-71084661D01*
X182775465Y-71039326D01*
X182786899Y-71001633D01*
X182805466Y-70966897D01*
X182830452Y-70936452D01*
X182860897Y-70911466D01*
X182895633Y-70892899D01*
X182933326Y-70881465D01*
X182978661Y-70877000D01*
X183815339Y-70877000D01*
X183860674Y-70881465D01*
X183860674Y-70881465D01*
G37*
G36*
X186625000Y-71833000D02*
G01*
X184723000Y-71833000D01*
X184723000Y-70661000D01*
X186625000Y-70661000D01*
X186625000Y-71833000D01*
X186625000Y-71833000D01*
G37*
G36*
X186096482Y-69139826D02*
G01*
X186153876Y-69145479D01*
X186227517Y-69167818D01*
X186264338Y-69178987D01*
X186366140Y-69233402D01*
X186455370Y-69306630D01*
X186528598Y-69395860D01*
X186583013Y-69497662D01*
X186583013Y-69497663D01*
X186616521Y-69608124D01*
X186627835Y-69723000D01*
X186616521Y-69837876D01*
X186602123Y-69885339D01*
X186583013Y-69948338D01*
X186528598Y-70050140D01*
X186455370Y-70139370D01*
X186366140Y-70212598D01*
X186264338Y-70267013D01*
X186227517Y-70278182D01*
X186153876Y-70300521D01*
X186096482Y-70306174D01*
X186067786Y-70309000D01*
X185280214Y-70309000D01*
X185251518Y-70306174D01*
X185194124Y-70300521D01*
X185120483Y-70278182D01*
X185083662Y-70267013D01*
X184981860Y-70212598D01*
X184892630Y-70139370D01*
X184819402Y-70050140D01*
X184764987Y-69948338D01*
X184745877Y-69885339D01*
X184731479Y-69837876D01*
X184720165Y-69723000D01*
X184731479Y-69608124D01*
X184764987Y-69497663D01*
X184764987Y-69497662D01*
X184819402Y-69395860D01*
X184892630Y-69306630D01*
X184981860Y-69233402D01*
X185083662Y-69178987D01*
X185120483Y-69167818D01*
X185194124Y-69145479D01*
X185251518Y-69139826D01*
X185280214Y-69137000D01*
X186067786Y-69137000D01*
X186096482Y-69139826D01*
X186096482Y-69139826D01*
G37*
G36*
X191342674Y-68983465D02*
G01*
X191380367Y-68994899D01*
X191415103Y-69013466D01*
X191445548Y-69038452D01*
X191470534Y-69068897D01*
X191489101Y-69103633D01*
X191500535Y-69141326D01*
X191505000Y-69186661D01*
X191505000Y-70023339D01*
X191500535Y-70068674D01*
X191489101Y-70106367D01*
X191470534Y-70141103D01*
X191445548Y-70171548D01*
X191415103Y-70196534D01*
X191380367Y-70215101D01*
X191342674Y-70226535D01*
X191297339Y-70231000D01*
X190210661Y-70231000D01*
X190165326Y-70226535D01*
X190127633Y-70215101D01*
X190092897Y-70196534D01*
X190062452Y-70171548D01*
X190037466Y-70141103D01*
X190018899Y-70106367D01*
X190007465Y-70068674D01*
X190003000Y-70023339D01*
X190003000Y-69186661D01*
X190007465Y-69141326D01*
X190018899Y-69103633D01*
X190037466Y-69068897D01*
X190062452Y-69038452D01*
X190092897Y-69013466D01*
X190127633Y-68994899D01*
X190165326Y-68983465D01*
X190210661Y-68979000D01*
X191297339Y-68979000D01*
X191342674Y-68983465D01*
X191342674Y-68983465D01*
G37*
G36*
X193374674Y-68983465D02*
G01*
X193412367Y-68994899D01*
X193447103Y-69013466D01*
X193477548Y-69038452D01*
X193502534Y-69068897D01*
X193521101Y-69103633D01*
X193532535Y-69141326D01*
X193537000Y-69186661D01*
X193537000Y-70023339D01*
X193532535Y-70068674D01*
X193521101Y-70106367D01*
X193502534Y-70141103D01*
X193477548Y-70171548D01*
X193447103Y-70196534D01*
X193412367Y-70215101D01*
X193374674Y-70226535D01*
X193329339Y-70231000D01*
X192242661Y-70231000D01*
X192197326Y-70226535D01*
X192159633Y-70215101D01*
X192124897Y-70196534D01*
X192094452Y-70171548D01*
X192069466Y-70141103D01*
X192050899Y-70106367D01*
X192039465Y-70068674D01*
X192035000Y-70023339D01*
X192035000Y-69186661D01*
X192039465Y-69141326D01*
X192050899Y-69103633D01*
X192069466Y-69068897D01*
X192094452Y-69038452D01*
X192124897Y-69013466D01*
X192159633Y-68994899D01*
X192197326Y-68983465D01*
X192242661Y-68979000D01*
X193329339Y-68979000D01*
X193374674Y-68983465D01*
X193374674Y-68983465D01*
G37*
G36*
X179524674Y-68595465D02*
G01*
X179562367Y-68606899D01*
X179597103Y-68625466D01*
X179627548Y-68650452D01*
X179652534Y-68680897D01*
X179671101Y-68715633D01*
X179682535Y-68753326D01*
X179687000Y-68798661D01*
X179687000Y-69885339D01*
X179682535Y-69930674D01*
X179671101Y-69968367D01*
X179652534Y-70003103D01*
X179627548Y-70033548D01*
X179597103Y-70058534D01*
X179562367Y-70077101D01*
X179524674Y-70088535D01*
X179479339Y-70093000D01*
X178642661Y-70093000D01*
X178597326Y-70088535D01*
X178559633Y-70077101D01*
X178524897Y-70058534D01*
X178494452Y-70033548D01*
X178469466Y-70003103D01*
X178450899Y-69968367D01*
X178439465Y-69930674D01*
X178435000Y-69885339D01*
X178435000Y-68798661D01*
X178439465Y-68753326D01*
X178450899Y-68715633D01*
X178469466Y-68680897D01*
X178494452Y-68650452D01*
X178524897Y-68625466D01*
X178559633Y-68606899D01*
X178597326Y-68595465D01*
X178642661Y-68591000D01*
X179479339Y-68591000D01*
X179524674Y-68595465D01*
X179524674Y-68595465D01*
G37*
G36*
X181574674Y-68595465D02*
G01*
X181612367Y-68606899D01*
X181647103Y-68625466D01*
X181677548Y-68650452D01*
X181702534Y-68680897D01*
X181721101Y-68715633D01*
X181732535Y-68753326D01*
X181737000Y-68798661D01*
X181737000Y-69885339D01*
X181732535Y-69930674D01*
X181721101Y-69968367D01*
X181702534Y-70003103D01*
X181677548Y-70033548D01*
X181647103Y-70058534D01*
X181612367Y-70077101D01*
X181574674Y-70088535D01*
X181529339Y-70093000D01*
X180692661Y-70093000D01*
X180647326Y-70088535D01*
X180609633Y-70077101D01*
X180574897Y-70058534D01*
X180544452Y-70033548D01*
X180519466Y-70003103D01*
X180500899Y-69968367D01*
X180489465Y-69930674D01*
X180485000Y-69885339D01*
X180485000Y-68798661D01*
X180489465Y-68753326D01*
X180500899Y-68715633D01*
X180519466Y-68680897D01*
X180544452Y-68650452D01*
X180574897Y-68625466D01*
X180609633Y-68606899D01*
X180647326Y-68595465D01*
X180692661Y-68591000D01*
X181529339Y-68591000D01*
X181574674Y-68595465D01*
X181574674Y-68595465D01*
G37*
G36*
X186096482Y-67615826D02*
G01*
X186153876Y-67621479D01*
X186227517Y-67643818D01*
X186264338Y-67654987D01*
X186366140Y-67709402D01*
X186455370Y-67782630D01*
X186528598Y-67871860D01*
X186583013Y-67973662D01*
X186583013Y-67973663D01*
X186616521Y-68084124D01*
X186627835Y-68199000D01*
X186616521Y-68313876D01*
X186594182Y-68387517D01*
X186583013Y-68424338D01*
X186528598Y-68526140D01*
X186455370Y-68615370D01*
X186366140Y-68688598D01*
X186264338Y-68743013D01*
X186230340Y-68753326D01*
X186153876Y-68776521D01*
X186096482Y-68782174D01*
X186067786Y-68785000D01*
X185280214Y-68785000D01*
X185251518Y-68782174D01*
X185194124Y-68776521D01*
X185117660Y-68753326D01*
X185083662Y-68743013D01*
X184981860Y-68688598D01*
X184892630Y-68615370D01*
X184819402Y-68526140D01*
X184764987Y-68424338D01*
X184753818Y-68387517D01*
X184731479Y-68313876D01*
X184720165Y-68199000D01*
X184731479Y-68084124D01*
X184764987Y-67973663D01*
X184764987Y-67973662D01*
X184819402Y-67871860D01*
X184892630Y-67782630D01*
X184981860Y-67709402D01*
X185083662Y-67654987D01*
X185120483Y-67643818D01*
X185194124Y-67621479D01*
X185251518Y-67615826D01*
X185280214Y-67613000D01*
X186067786Y-67613000D01*
X186096482Y-67615826D01*
X186096482Y-67615826D01*
G37*
G36*
X193374674Y-66933465D02*
G01*
X193412367Y-66944899D01*
X193447103Y-66963466D01*
X193477548Y-66988452D01*
X193502534Y-67018897D01*
X193521101Y-67053633D01*
X193532535Y-67091326D01*
X193537000Y-67136661D01*
X193537000Y-67973339D01*
X193532535Y-68018674D01*
X193521101Y-68056367D01*
X193502534Y-68091103D01*
X193477548Y-68121548D01*
X193447103Y-68146534D01*
X193412367Y-68165101D01*
X193374674Y-68176535D01*
X193329339Y-68181000D01*
X192242661Y-68181000D01*
X192197326Y-68176535D01*
X192159633Y-68165101D01*
X192124897Y-68146534D01*
X192094452Y-68121548D01*
X192069466Y-68091103D01*
X192050899Y-68056367D01*
X192039465Y-68018674D01*
X192035000Y-67973339D01*
X192035000Y-67136661D01*
X192039465Y-67091326D01*
X192050899Y-67053633D01*
X192069466Y-67018897D01*
X192094452Y-66988452D01*
X192124897Y-66963466D01*
X192159633Y-66944899D01*
X192197326Y-66933465D01*
X192242661Y-66929000D01*
X193329339Y-66929000D01*
X193374674Y-66933465D01*
X193374674Y-66933465D01*
G37*
G36*
X191342674Y-66933465D02*
G01*
X191380367Y-66944899D01*
X191415103Y-66963466D01*
X191445548Y-66988452D01*
X191470534Y-67018897D01*
X191489101Y-67053633D01*
X191500535Y-67091326D01*
X191505000Y-67136661D01*
X191505000Y-67973339D01*
X191500535Y-68018674D01*
X191489101Y-68056367D01*
X191470534Y-68091103D01*
X191445548Y-68121548D01*
X191415103Y-68146534D01*
X191380367Y-68165101D01*
X191342674Y-68176535D01*
X191297339Y-68181000D01*
X190210661Y-68181000D01*
X190165326Y-68176535D01*
X190127633Y-68165101D01*
X190092897Y-68146534D01*
X190062452Y-68121548D01*
X190037466Y-68091103D01*
X190018899Y-68056367D01*
X190007465Y-68018674D01*
X190003000Y-67973339D01*
X190003000Y-67136661D01*
X190007465Y-67091326D01*
X190018899Y-67053633D01*
X190037466Y-67018897D01*
X190062452Y-66988452D01*
X190092897Y-66963466D01*
X190127633Y-66944899D01*
X190165326Y-66933465D01*
X190210661Y-66929000D01*
X191297339Y-66929000D01*
X191342674Y-66933465D01*
X191342674Y-66933465D01*
G37*
G36*
X181574674Y-66563465D02*
G01*
X181612367Y-66574899D01*
X181647103Y-66593466D01*
X181677548Y-66618452D01*
X181702534Y-66648897D01*
X181721101Y-66683633D01*
X181732535Y-66721326D01*
X181737000Y-66766661D01*
X181737000Y-67853339D01*
X181732535Y-67898674D01*
X181721101Y-67936367D01*
X181702534Y-67971103D01*
X181677548Y-68001548D01*
X181647103Y-68026534D01*
X181612367Y-68045101D01*
X181574674Y-68056535D01*
X181529339Y-68061000D01*
X180692661Y-68061000D01*
X180647326Y-68056535D01*
X180609633Y-68045101D01*
X180574897Y-68026534D01*
X180544452Y-68001548D01*
X180519466Y-67971103D01*
X180500899Y-67936367D01*
X180489465Y-67898674D01*
X180485000Y-67853339D01*
X180485000Y-66766661D01*
X180489465Y-66721326D01*
X180500899Y-66683633D01*
X180519466Y-66648897D01*
X180544452Y-66618452D01*
X180574897Y-66593466D01*
X180609633Y-66574899D01*
X180647326Y-66563465D01*
X180692661Y-66559000D01*
X181529339Y-66559000D01*
X181574674Y-66563465D01*
X181574674Y-66563465D01*
G37*
G36*
X179524674Y-66563465D02*
G01*
X179562367Y-66574899D01*
X179597103Y-66593466D01*
X179627548Y-66618452D01*
X179652534Y-66648897D01*
X179671101Y-66683633D01*
X179682535Y-66721326D01*
X179687000Y-66766661D01*
X179687000Y-67853339D01*
X179682535Y-67898674D01*
X179671101Y-67936367D01*
X179652534Y-67971103D01*
X179627548Y-68001548D01*
X179597103Y-68026534D01*
X179562367Y-68045101D01*
X179524674Y-68056535D01*
X179479339Y-68061000D01*
X178642661Y-68061000D01*
X178597326Y-68056535D01*
X178559633Y-68045101D01*
X178524897Y-68026534D01*
X178494452Y-68001548D01*
X178469466Y-67971103D01*
X178450899Y-67936367D01*
X178439465Y-67898674D01*
X178435000Y-67853339D01*
X178435000Y-66766661D01*
X178439465Y-66721326D01*
X178450899Y-66683633D01*
X178469466Y-66648897D01*
X178494452Y-66618452D01*
X178524897Y-66593466D01*
X178559633Y-66574899D01*
X178597326Y-66563465D01*
X178642661Y-66559000D01*
X179479339Y-66559000D01*
X179524674Y-66563465D01*
X179524674Y-66563465D01*
G37*
G36*
X138763500Y-68032250D02*
G01*
X137461500Y-68032250D01*
X137461500Y-67030250D01*
X138763500Y-67030250D01*
X138763500Y-68032250D01*
X138763500Y-68032250D01*
G37*
G36*
X157813500Y-68032250D02*
G01*
X156511500Y-68032250D01*
X156511500Y-67030250D01*
X157813500Y-67030250D01*
X157813500Y-68032250D01*
X157813500Y-68032250D01*
G37*
G36*
X149821474Y-63914934D02*
G01*
X150039474Y-64005233D01*
X150193623Y-64069083D01*
X150528548Y-64292873D01*
X150813377Y-64577702D01*
X151037167Y-64912627D01*
X151069562Y-64990836D01*
X151191316Y-65284776D01*
X151269900Y-65679844D01*
X151269900Y-66082656D01*
X151191316Y-66477724D01*
X151133024Y-66618452D01*
X151037167Y-66849873D01*
X150813377Y-67184798D01*
X150528548Y-67469627D01*
X150193623Y-67693417D01*
X150039474Y-67757267D01*
X149821474Y-67847566D01*
X149426406Y-67926150D01*
X149023594Y-67926150D01*
X148628526Y-67847566D01*
X148410526Y-67757267D01*
X148256377Y-67693417D01*
X147921452Y-67469627D01*
X147636623Y-67184798D01*
X147412833Y-66849873D01*
X147316976Y-66618452D01*
X147258684Y-66477724D01*
X147180100Y-66082656D01*
X147180100Y-65679844D01*
X147258684Y-65284776D01*
X147380438Y-64990836D01*
X147412833Y-64912627D01*
X147636623Y-64577702D01*
X147921452Y-64292873D01*
X148256377Y-64069083D01*
X148410526Y-64005233D01*
X148628526Y-63914934D01*
X149023594Y-63836350D01*
X149426406Y-63836350D01*
X149821474Y-63914934D01*
X149821474Y-63914934D01*
G37*
G36*
X130771474Y-63914934D02*
G01*
X130989474Y-64005233D01*
X131143623Y-64069083D01*
X131478548Y-64292873D01*
X131763377Y-64577702D01*
X131987167Y-64912627D01*
X132019562Y-64990836D01*
X132141316Y-65284776D01*
X132219900Y-65679844D01*
X132219900Y-66082656D01*
X132141316Y-66477724D01*
X132083024Y-66618452D01*
X131987167Y-66849873D01*
X131763377Y-67184798D01*
X131478548Y-67469627D01*
X131143623Y-67693417D01*
X130989474Y-67757267D01*
X130771474Y-67847566D01*
X130376406Y-67926150D01*
X129973594Y-67926150D01*
X129578526Y-67847566D01*
X129360526Y-67757267D01*
X129206377Y-67693417D01*
X128871452Y-67469627D01*
X128586623Y-67184798D01*
X128362833Y-66849873D01*
X128266976Y-66618452D01*
X128208684Y-66477724D01*
X128130100Y-66082656D01*
X128130100Y-65679844D01*
X128208684Y-65284776D01*
X128330438Y-64990836D01*
X128362833Y-64912627D01*
X128586623Y-64577702D01*
X128871452Y-64292873D01*
X129206377Y-64069083D01*
X129360526Y-64005233D01*
X129578526Y-63914934D01*
X129973594Y-63836350D01*
X130376406Y-63836350D01*
X130771474Y-63914934D01*
X130771474Y-63914934D01*
G37*
G36*
X186096482Y-66091826D02*
G01*
X186153876Y-66097479D01*
X186227517Y-66119818D01*
X186264338Y-66130987D01*
X186366140Y-66185402D01*
X186455370Y-66258630D01*
X186528598Y-66347860D01*
X186583013Y-66449662D01*
X186583013Y-66449663D01*
X186616521Y-66560124D01*
X186627835Y-66675000D01*
X186616521Y-66789876D01*
X186598321Y-66849872D01*
X186583013Y-66900338D01*
X186528598Y-67002140D01*
X186455370Y-67091370D01*
X186366140Y-67164598D01*
X186264338Y-67219013D01*
X186227517Y-67230182D01*
X186153876Y-67252521D01*
X186096482Y-67258174D01*
X186067786Y-67261000D01*
X185280214Y-67261000D01*
X185251518Y-67258174D01*
X185194124Y-67252521D01*
X185120483Y-67230182D01*
X185083662Y-67219013D01*
X184981860Y-67164598D01*
X184892630Y-67091370D01*
X184819402Y-67002140D01*
X184764987Y-66900338D01*
X184749679Y-66849872D01*
X184731479Y-66789876D01*
X184720165Y-66675000D01*
X184731479Y-66560124D01*
X184764987Y-66449663D01*
X184764987Y-66449662D01*
X184819402Y-66347860D01*
X184892630Y-66258630D01*
X184981860Y-66185402D01*
X185083662Y-66130987D01*
X185120483Y-66119818D01*
X185194124Y-66097479D01*
X185251518Y-66091826D01*
X185280214Y-66089000D01*
X186067786Y-66089000D01*
X186096482Y-66091826D01*
X186096482Y-66091826D01*
G37*
G36*
X144415104Y-64990835D02*
G01*
X144583626Y-65060639D01*
X144735291Y-65161978D01*
X144864272Y-65290959D01*
X144965611Y-65442624D01*
X145035415Y-65611146D01*
X145071000Y-65790047D01*
X145071000Y-65972453D01*
X145035415Y-66151354D01*
X144965611Y-66319876D01*
X144864272Y-66471541D01*
X144735291Y-66600522D01*
X144583626Y-66701861D01*
X144415104Y-66771665D01*
X144236203Y-66807250D01*
X144053797Y-66807250D01*
X143874896Y-66771665D01*
X143706374Y-66701861D01*
X143554709Y-66600522D01*
X143425728Y-66471541D01*
X143324389Y-66319876D01*
X143254585Y-66151354D01*
X143219000Y-65972453D01*
X143219000Y-65790047D01*
X143254585Y-65611146D01*
X143324389Y-65442624D01*
X143425728Y-65290959D01*
X143554709Y-65161978D01*
X143706374Y-65060639D01*
X143874896Y-64990835D01*
X144053797Y-64955250D01*
X144236203Y-64955250D01*
X144415104Y-64990835D01*
X144415104Y-64990835D01*
G37*
G36*
X154575104Y-64990835D02*
G01*
X154743626Y-65060639D01*
X154895291Y-65161978D01*
X155024272Y-65290959D01*
X155125611Y-65442624D01*
X155195415Y-65611146D01*
X155231000Y-65790047D01*
X155231000Y-65972453D01*
X155195415Y-66151354D01*
X155125611Y-66319876D01*
X155024272Y-66471541D01*
X154895291Y-66600522D01*
X154743626Y-66701861D01*
X154575104Y-66771665D01*
X154396203Y-66807250D01*
X154213797Y-66807250D01*
X154034896Y-66771665D01*
X153866374Y-66701861D01*
X153714709Y-66600522D01*
X153585728Y-66471541D01*
X153484389Y-66319876D01*
X153414585Y-66151354D01*
X153379000Y-65972453D01*
X153379000Y-65790047D01*
X153414585Y-65611146D01*
X153484389Y-65442624D01*
X153585728Y-65290959D01*
X153714709Y-65161978D01*
X153866374Y-65060639D01*
X154034896Y-64990835D01*
X154213797Y-64955250D01*
X154396203Y-64955250D01*
X154575104Y-64990835D01*
X154575104Y-64990835D01*
G37*
G36*
X135525104Y-64990835D02*
G01*
X135693626Y-65060639D01*
X135845291Y-65161978D01*
X135974272Y-65290959D01*
X136075611Y-65442624D01*
X136145415Y-65611146D01*
X136181000Y-65790047D01*
X136181000Y-65972453D01*
X136145415Y-66151354D01*
X136075611Y-66319876D01*
X135974272Y-66471541D01*
X135845291Y-66600522D01*
X135693626Y-66701861D01*
X135525104Y-66771665D01*
X135346203Y-66807250D01*
X135163797Y-66807250D01*
X134984896Y-66771665D01*
X134816374Y-66701861D01*
X134664709Y-66600522D01*
X134535728Y-66471541D01*
X134434389Y-66319876D01*
X134364585Y-66151354D01*
X134329000Y-65972453D01*
X134329000Y-65790047D01*
X134364585Y-65611146D01*
X134434389Y-65442624D01*
X134535728Y-65290959D01*
X134664709Y-65161978D01*
X134816374Y-65060639D01*
X134984896Y-64990835D01*
X135163797Y-64955250D01*
X135346203Y-64955250D01*
X135525104Y-64990835D01*
X135525104Y-64990835D01*
G37*
G36*
X125365104Y-64990835D02*
G01*
X125533626Y-65060639D01*
X125685291Y-65161978D01*
X125814272Y-65290959D01*
X125915611Y-65442624D01*
X125985415Y-65611146D01*
X126021000Y-65790047D01*
X126021000Y-65972453D01*
X125985415Y-66151354D01*
X125915611Y-66319876D01*
X125814272Y-66471541D01*
X125685291Y-66600522D01*
X125533626Y-66701861D01*
X125365104Y-66771665D01*
X125186203Y-66807250D01*
X125003797Y-66807250D01*
X124824896Y-66771665D01*
X124656374Y-66701861D01*
X124504709Y-66600522D01*
X124375728Y-66471541D01*
X124274389Y-66319876D01*
X124204585Y-66151354D01*
X124169000Y-65972453D01*
X124169000Y-65790047D01*
X124204585Y-65611146D01*
X124274389Y-65442624D01*
X124375728Y-65290959D01*
X124504709Y-65161978D01*
X124656374Y-65060639D01*
X124824896Y-64990835D01*
X125003797Y-64955250D01*
X125186203Y-64955250D01*
X125365104Y-64990835D01*
X125365104Y-64990835D01*
G37*
G36*
X179524674Y-64531465D02*
G01*
X179562367Y-64542899D01*
X179597103Y-64561466D01*
X179627548Y-64586452D01*
X179652534Y-64616897D01*
X179671101Y-64651633D01*
X179682535Y-64689326D01*
X179687000Y-64734661D01*
X179687000Y-65821339D01*
X179682535Y-65866674D01*
X179671101Y-65904367D01*
X179652534Y-65939103D01*
X179627548Y-65969548D01*
X179597103Y-65994534D01*
X179562367Y-66013101D01*
X179524674Y-66024535D01*
X179479339Y-66029000D01*
X178642661Y-66029000D01*
X178597326Y-66024535D01*
X178559633Y-66013101D01*
X178524897Y-65994534D01*
X178494452Y-65969548D01*
X178469466Y-65939103D01*
X178450899Y-65904367D01*
X178439465Y-65866674D01*
X178435000Y-65821339D01*
X178435000Y-64734661D01*
X178439465Y-64689326D01*
X178450899Y-64651633D01*
X178469466Y-64616897D01*
X178494452Y-64586452D01*
X178524897Y-64561466D01*
X178559633Y-64542899D01*
X178597326Y-64531465D01*
X178642661Y-64527000D01*
X179479339Y-64527000D01*
X179524674Y-64531465D01*
X179524674Y-64531465D01*
G37*
G36*
X181574674Y-64531465D02*
G01*
X181612367Y-64542899D01*
X181647103Y-64561466D01*
X181677548Y-64586452D01*
X181702534Y-64616897D01*
X181721101Y-64651633D01*
X181732535Y-64689326D01*
X181737000Y-64734661D01*
X181737000Y-65821339D01*
X181732535Y-65866674D01*
X181721101Y-65904367D01*
X181702534Y-65939103D01*
X181677548Y-65969548D01*
X181647103Y-65994534D01*
X181612367Y-66013101D01*
X181574674Y-66024535D01*
X181529339Y-66029000D01*
X180692661Y-66029000D01*
X180647326Y-66024535D01*
X180609633Y-66013101D01*
X180574897Y-65994534D01*
X180544452Y-65969548D01*
X180519466Y-65939103D01*
X180500899Y-65904367D01*
X180489465Y-65866674D01*
X180485000Y-65821339D01*
X180485000Y-64734661D01*
X180489465Y-64689326D01*
X180500899Y-64651633D01*
X180519466Y-64616897D01*
X180544452Y-64586452D01*
X180574897Y-64561466D01*
X180609633Y-64542899D01*
X180647326Y-64531465D01*
X180692661Y-64527000D01*
X181529339Y-64527000D01*
X181574674Y-64531465D01*
X181574674Y-64531465D01*
G37*
G36*
X157813500Y-64732250D02*
G01*
X156511500Y-64732250D01*
X156511500Y-63730250D01*
X157813500Y-63730250D01*
X157813500Y-64732250D01*
X157813500Y-64732250D01*
G37*
G36*
X138763500Y-64732250D02*
G01*
X137461500Y-64732250D01*
X137461500Y-63730250D01*
X138763500Y-63730250D01*
X138763500Y-64732250D01*
X138763500Y-64732250D01*
G37*
G36*
X145606560Y-62180314D02*
G01*
X145758027Y-62210443D01*
X145972045Y-62299092D01*
X145972046Y-62299093D01*
X146164654Y-62427789D01*
X146328461Y-62591596D01*
X146414258Y-62720001D01*
X146457158Y-62784205D01*
X146545807Y-62998223D01*
X146545807Y-62998225D01*
X146591000Y-63225423D01*
X146591000Y-63457077D01*
X146575936Y-63532810D01*
X146545807Y-63684277D01*
X146457158Y-63898295D01*
X146457157Y-63898296D01*
X146328461Y-64090904D01*
X146164654Y-64254711D01*
X146107540Y-64292873D01*
X145972045Y-64383408D01*
X145758027Y-64472057D01*
X145606560Y-64502186D01*
X145530827Y-64517250D01*
X145299173Y-64517250D01*
X145223440Y-64502186D01*
X145071973Y-64472057D01*
X144857955Y-64383408D01*
X144722460Y-64292873D01*
X144665346Y-64254711D01*
X144501539Y-64090904D01*
X144372843Y-63898296D01*
X144372842Y-63898295D01*
X144284193Y-63684277D01*
X144254064Y-63532810D01*
X144239000Y-63457077D01*
X144239000Y-63225423D01*
X144284193Y-62998225D01*
X144284193Y-62998223D01*
X144372842Y-62784205D01*
X144415742Y-62720001D01*
X144501539Y-62591596D01*
X144665346Y-62427789D01*
X144857954Y-62299093D01*
X144857955Y-62299092D01*
X145071973Y-62210443D01*
X145223440Y-62180314D01*
X145299173Y-62165250D01*
X145530827Y-62165250D01*
X145606560Y-62180314D01*
X145606560Y-62180314D01*
G37*
G36*
X126556560Y-62180314D02*
G01*
X126708027Y-62210443D01*
X126922045Y-62299092D01*
X126922046Y-62299093D01*
X127114654Y-62427789D01*
X127278461Y-62591596D01*
X127364258Y-62720001D01*
X127407158Y-62784205D01*
X127495807Y-62998223D01*
X127495807Y-62998225D01*
X127541000Y-63225423D01*
X127541000Y-63457077D01*
X127525936Y-63532810D01*
X127495807Y-63684277D01*
X127407158Y-63898295D01*
X127407157Y-63898296D01*
X127278461Y-64090904D01*
X127114654Y-64254711D01*
X127057540Y-64292873D01*
X126922045Y-64383408D01*
X126708027Y-64472057D01*
X126556560Y-64502186D01*
X126480827Y-64517250D01*
X126249173Y-64517250D01*
X126173440Y-64502186D01*
X126021973Y-64472057D01*
X125807955Y-64383408D01*
X125672460Y-64292873D01*
X125615346Y-64254711D01*
X125451539Y-64090904D01*
X125322843Y-63898296D01*
X125322842Y-63898295D01*
X125234193Y-63684277D01*
X125204064Y-63532810D01*
X125189000Y-63457077D01*
X125189000Y-63225423D01*
X125234193Y-62998225D01*
X125234193Y-62998223D01*
X125322842Y-62784205D01*
X125365742Y-62720001D01*
X125451539Y-62591596D01*
X125615346Y-62427789D01*
X125807954Y-62299093D01*
X125807955Y-62299092D01*
X126021973Y-62210443D01*
X126173440Y-62180314D01*
X126249173Y-62165250D01*
X126480827Y-62165250D01*
X126556560Y-62180314D01*
X126556560Y-62180314D01*
G37*
G36*
X193818627Y-61405037D02*
G01*
X193988466Y-61456557D01*
X194144991Y-61540222D01*
X194158009Y-61550906D01*
X194282186Y-61652814D01*
X194365448Y-61754271D01*
X194394778Y-61790009D01*
X194478443Y-61946534D01*
X194529963Y-62116373D01*
X194543000Y-62248742D01*
X194543000Y-63337258D01*
X194529963Y-63469627D01*
X194478443Y-63639466D01*
X194394778Y-63795991D01*
X194365448Y-63831729D01*
X194282186Y-63933186D01*
X194144989Y-64045779D01*
X193988467Y-64129442D01*
X193988465Y-64129443D01*
X193818626Y-64180963D01*
X193642000Y-64198359D01*
X193465373Y-64180963D01*
X193295534Y-64129443D01*
X193139009Y-64045778D01*
X193103271Y-64016448D01*
X193001814Y-63933186D01*
X192889221Y-63795989D01*
X192805558Y-63639467D01*
X192805557Y-63639465D01*
X192754037Y-63469626D01*
X192741000Y-63337257D01*
X192741001Y-62248742D01*
X192754038Y-62116373D01*
X192805558Y-61946534D01*
X192889223Y-61790009D01*
X192918553Y-61754271D01*
X193001815Y-61652814D01*
X193125992Y-61550906D01*
X193139010Y-61540222D01*
X193295535Y-61456557D01*
X193465374Y-61405037D01*
X193642000Y-61387641D01*
X193818627Y-61405037D01*
X193818627Y-61405037D01*
G37*
G36*
X186518627Y-61405037D02*
G01*
X186688466Y-61456557D01*
X186844991Y-61540222D01*
X186858009Y-61550906D01*
X186982186Y-61652814D01*
X187065448Y-61754271D01*
X187094778Y-61790009D01*
X187178443Y-61946534D01*
X187229963Y-62116373D01*
X187243000Y-62248742D01*
X187243000Y-63337258D01*
X187229963Y-63469627D01*
X187178443Y-63639466D01*
X187094778Y-63795991D01*
X187065448Y-63831729D01*
X186982186Y-63933186D01*
X186844989Y-64045779D01*
X186688467Y-64129442D01*
X186688465Y-64129443D01*
X186518626Y-64180963D01*
X186342000Y-64198359D01*
X186165373Y-64180963D01*
X185995534Y-64129443D01*
X185839009Y-64045778D01*
X185803271Y-64016448D01*
X185701814Y-63933186D01*
X185589221Y-63795989D01*
X185505558Y-63639467D01*
X185505557Y-63639465D01*
X185454037Y-63469626D01*
X185441000Y-63337257D01*
X185441001Y-62248742D01*
X185454038Y-62116373D01*
X185505558Y-61946534D01*
X185589223Y-61790009D01*
X185618553Y-61754271D01*
X185701815Y-61652814D01*
X185825992Y-61550906D01*
X185839010Y-61540222D01*
X185995535Y-61456557D01*
X186165374Y-61405037D01*
X186342000Y-61387641D01*
X186518627Y-61405037D01*
X186518627Y-61405037D01*
G37*
G36*
X191893000Y-63969000D02*
G01*
X188091000Y-63969000D01*
X188091000Y-61617000D01*
X191893000Y-61617000D01*
X191893000Y-63969000D01*
X191893000Y-63969000D01*
G37*
G36*
X151901901Y-59629442D02*
G01*
X152108027Y-59670443D01*
X152322045Y-59759092D01*
X152322046Y-59759093D01*
X152514654Y-59887789D01*
X152678461Y-60051596D01*
X152764258Y-60180001D01*
X152807158Y-60244205D01*
X152895807Y-60458223D01*
X152941000Y-60685424D01*
X152941000Y-60917076D01*
X152895807Y-61144277D01*
X152807158Y-61358295D01*
X152775926Y-61405037D01*
X152678461Y-61550904D01*
X152514654Y-61714711D01*
X152401962Y-61790009D01*
X152322045Y-61843408D01*
X152108027Y-61932057D01*
X151956560Y-61962186D01*
X151880827Y-61977250D01*
X151649173Y-61977250D01*
X151573440Y-61962186D01*
X151421973Y-61932057D01*
X151207955Y-61843408D01*
X151128038Y-61790009D01*
X151015346Y-61714711D01*
X150851539Y-61550904D01*
X150754074Y-61405037D01*
X150722842Y-61358295D01*
X150634193Y-61144277D01*
X150589000Y-60917076D01*
X150589000Y-60685424D01*
X150634193Y-60458223D01*
X150722842Y-60244205D01*
X150765742Y-60180001D01*
X150851539Y-60051596D01*
X151015346Y-59887789D01*
X151207954Y-59759093D01*
X151207955Y-59759092D01*
X151421973Y-59670443D01*
X151628099Y-59629442D01*
X151649173Y-59625250D01*
X151880827Y-59625250D01*
X151901901Y-59629442D01*
X151901901Y-59629442D01*
G37*
G36*
X132851901Y-59629442D02*
G01*
X133058027Y-59670443D01*
X133272045Y-59759092D01*
X133272046Y-59759093D01*
X133464654Y-59887789D01*
X133628461Y-60051596D01*
X133714258Y-60180001D01*
X133757158Y-60244205D01*
X133845807Y-60458223D01*
X133891000Y-60685424D01*
X133891000Y-60917076D01*
X133845807Y-61144277D01*
X133757158Y-61358295D01*
X133725926Y-61405037D01*
X133628461Y-61550904D01*
X133464654Y-61714711D01*
X133351962Y-61790009D01*
X133272045Y-61843408D01*
X133058027Y-61932057D01*
X132906560Y-61962186D01*
X132830827Y-61977250D01*
X132599173Y-61977250D01*
X132523440Y-61962186D01*
X132371973Y-61932057D01*
X132157955Y-61843408D01*
X132078038Y-61790009D01*
X131965346Y-61714711D01*
X131801539Y-61550904D01*
X131704074Y-61405037D01*
X131672842Y-61358295D01*
X131584193Y-61144277D01*
X131539000Y-60917076D01*
X131539000Y-60685424D01*
X131584193Y-60458223D01*
X131672842Y-60244205D01*
X131715742Y-60180001D01*
X131801539Y-60051596D01*
X131965346Y-59887789D01*
X132157954Y-59759093D01*
X132157955Y-59759092D01*
X132371973Y-59670443D01*
X132578099Y-59629442D01*
X132599173Y-59625250D01*
X132830827Y-59625250D01*
X132851901Y-59629442D01*
X132851901Y-59629442D01*
G37*
G36*
X193818627Y-56905037D02*
G01*
X193988466Y-56956557D01*
X194144991Y-57040222D01*
X194180729Y-57069552D01*
X194282186Y-57152814D01*
X194365448Y-57254271D01*
X194394778Y-57290009D01*
X194478443Y-57446534D01*
X194529963Y-57616373D01*
X194543000Y-57748742D01*
X194543000Y-58837258D01*
X194529963Y-58969627D01*
X194478443Y-59139466D01*
X194394778Y-59295991D01*
X194365448Y-59331729D01*
X194282186Y-59433186D01*
X194144989Y-59545779D01*
X193988467Y-59629442D01*
X193988465Y-59629443D01*
X193818626Y-59680963D01*
X193642000Y-59698359D01*
X193465373Y-59680963D01*
X193295534Y-59629443D01*
X193287690Y-59625250D01*
X193139011Y-59545779D01*
X193139009Y-59545778D01*
X193103271Y-59516448D01*
X193001814Y-59433186D01*
X192889221Y-59295989D01*
X192805558Y-59139467D01*
X192805557Y-59139465D01*
X192754037Y-58969626D01*
X192741000Y-58837257D01*
X192741001Y-57748742D01*
X192754038Y-57616373D01*
X192805558Y-57446534D01*
X192889223Y-57290009D01*
X192918553Y-57254271D01*
X193001815Y-57152814D01*
X193103272Y-57069552D01*
X193139010Y-57040222D01*
X193295535Y-56956557D01*
X193465374Y-56905037D01*
X193642000Y-56887641D01*
X193818627Y-56905037D01*
X193818627Y-56905037D01*
G37*
G36*
X186518627Y-56905037D02*
G01*
X186688466Y-56956557D01*
X186844991Y-57040222D01*
X186880729Y-57069552D01*
X186982186Y-57152814D01*
X187065448Y-57254271D01*
X187094778Y-57290009D01*
X187178443Y-57446534D01*
X187229963Y-57616373D01*
X187243000Y-57748742D01*
X187243000Y-58837258D01*
X187229963Y-58969627D01*
X187178443Y-59139466D01*
X187094778Y-59295991D01*
X187065448Y-59331729D01*
X186982186Y-59433186D01*
X186844989Y-59545779D01*
X186688467Y-59629442D01*
X186688465Y-59629443D01*
X186518626Y-59680963D01*
X186342000Y-59698359D01*
X186165373Y-59680963D01*
X185995534Y-59629443D01*
X185987690Y-59625250D01*
X185839011Y-59545779D01*
X185839009Y-59545778D01*
X185803271Y-59516448D01*
X185701814Y-59433186D01*
X185589221Y-59295989D01*
X185505558Y-59139467D01*
X185505557Y-59139465D01*
X185454037Y-58969626D01*
X185441000Y-58837257D01*
X185441001Y-57748742D01*
X185454038Y-57616373D01*
X185505558Y-57446534D01*
X185589223Y-57290009D01*
X185618553Y-57254271D01*
X185701815Y-57152814D01*
X185803272Y-57069552D01*
X185839010Y-57040222D01*
X185995535Y-56956557D01*
X186165374Y-56905037D01*
X186342000Y-56887641D01*
X186518627Y-56905037D01*
X186518627Y-56905037D01*
G37*
M02*
