M48
; DRILL file {KiCad (5.1.2)-2} date 8/15/2019 9:28:58 AM
; FORMAT={-:-/ absolute / inch / decimal}
; #@! TF.CreationDate,2019-08-15T09:28:58-05:00
; #@! TF.GenerationSoftware,Kicad,Pcbnew,(5.1.2)-2
; #@! TF.FileFunction,NonPlated,1,2,NPTH
FMAT,2
INCH
T1C0.0689
T2C0.1570
%
G90
G05
T1
X4.925Y-4.25
X5.3251Y-4.25
X7.175Y-3.5
X7.5751Y-3.5
X5.675Y-3.5
X6.0751Y-3.5
X5.675Y-5.0
X6.0751Y-5.0
X4.925Y-5.0
X5.3251Y-5.0
X7.175Y-5.75
X7.5751Y-5.75
X5.675Y-5.75
X6.0751Y-5.75
X4.925Y-3.5
X5.3251Y-3.5
X6.425Y-5.0
X6.8251Y-5.0
X6.425Y-4.25
X6.8251Y-4.25
X4.925Y-5.75
X5.3251Y-5.75
X4.925Y-2.375
X5.3251Y-2.375
X5.675Y-2.375
X6.0751Y-2.375
X7.175Y-5.0
X7.5751Y-5.0
X6.425Y-3.5
X6.8251Y-3.5
X7.175Y-4.25
X7.5751Y-4.25
X5.675Y-4.25
X6.0751Y-4.25
X6.425Y-5.75
X6.8251Y-5.75
T2
X5.125Y-4.25
X7.375Y-3.5
X5.875Y-3.5
X5.875Y-5.0
X5.125Y-5.0
X7.375Y-5.75
X5.875Y-5.75
X5.125Y-3.5
X6.625Y-5.0
X6.625Y-4.25
X5.125Y-5.75
X5.125Y-2.375
X5.875Y-2.375
X7.375Y-5.0
X6.625Y-3.5
X7.375Y-4.25
X5.875Y-4.25
X6.625Y-5.75
T0
M30
