G04 #@! TF.GenerationSoftware,KiCad,Pcbnew,5.1.4*
G04 #@! TF.CreationDate,2019-08-31T18:47:17-05:00*
G04 #@! TF.ProjectId,rootpad,726f6f74-7061-4642-9e6b-696361645f70,rev?*
G04 #@! TF.SameCoordinates,Original*
G04 #@! TF.FileFunction,Copper,L2,Bot*
G04 #@! TF.FilePolarity,Positive*
%FSLAX46Y46*%
G04 Gerber Fmt 4.6, Leading zero omitted, Abs format (unit mm)*
G04 Created by KiCad (PCBNEW 5.1.4) date 2019-08-31 18:47:17*
%MOMM*%
%LPD*%
G04 APERTURE LIST*
%ADD10R,1.800000X1.070000*%
%ADD11O,1.800000X1.070000*%
%ADD12C,0.100000*%
%ADD13C,1.425000*%
%ADD14R,1.200000X0.900000*%
%ADD15O,1.700000X2.700000*%
%ADD16R,0.500000X2.250000*%
%ADD17C,1.150000*%
%ADD18C,2.250000*%
%ADD19C,0.800000*%
%ADD20C,0.381000*%
%ADD21C,0.254000*%
G04 APERTURE END LIST*
D10*
X185674000Y-71247000D03*
D11*
X185674000Y-69723000D03*
X185674000Y-68199000D03*
X185674000Y-66675000D03*
D12*
G36*
X193744504Y-75580204D02*
G01*
X193768773Y-75583804D01*
X193792571Y-75589765D01*
X193815671Y-75598030D01*
X193837849Y-75608520D01*
X193858893Y-75621133D01*
X193878598Y-75635747D01*
X193896777Y-75652223D01*
X193913253Y-75670402D01*
X193927867Y-75690107D01*
X193940480Y-75711151D01*
X193950970Y-75733329D01*
X193959235Y-75756429D01*
X193965196Y-75780227D01*
X193968796Y-75804496D01*
X193970000Y-75829000D01*
X193970000Y-77079000D01*
X193968796Y-77103504D01*
X193965196Y-77127773D01*
X193959235Y-77151571D01*
X193950970Y-77174671D01*
X193940480Y-77196849D01*
X193927867Y-77217893D01*
X193913253Y-77237598D01*
X193896777Y-77255777D01*
X193878598Y-77272253D01*
X193858893Y-77286867D01*
X193837849Y-77299480D01*
X193815671Y-77309970D01*
X193792571Y-77318235D01*
X193768773Y-77324196D01*
X193744504Y-77327796D01*
X193720000Y-77329000D01*
X192795000Y-77329000D01*
X192770496Y-77327796D01*
X192746227Y-77324196D01*
X192722429Y-77318235D01*
X192699329Y-77309970D01*
X192677151Y-77299480D01*
X192656107Y-77286867D01*
X192636402Y-77272253D01*
X192618223Y-77255777D01*
X192601747Y-77237598D01*
X192587133Y-77217893D01*
X192574520Y-77196849D01*
X192564030Y-77174671D01*
X192555765Y-77151571D01*
X192549804Y-77127773D01*
X192546204Y-77103504D01*
X192545000Y-77079000D01*
X192545000Y-75829000D01*
X192546204Y-75804496D01*
X192549804Y-75780227D01*
X192555765Y-75756429D01*
X192564030Y-75733329D01*
X192574520Y-75711151D01*
X192587133Y-75690107D01*
X192601747Y-75670402D01*
X192618223Y-75652223D01*
X192636402Y-75635747D01*
X192656107Y-75621133D01*
X192677151Y-75608520D01*
X192699329Y-75598030D01*
X192722429Y-75589765D01*
X192746227Y-75583804D01*
X192770496Y-75580204D01*
X192795000Y-75579000D01*
X193720000Y-75579000D01*
X193744504Y-75580204D01*
X193744504Y-75580204D01*
G37*
D13*
X193257500Y-76454000D03*
D12*
G36*
X190769504Y-75580204D02*
G01*
X190793773Y-75583804D01*
X190817571Y-75589765D01*
X190840671Y-75598030D01*
X190862849Y-75608520D01*
X190883893Y-75621133D01*
X190903598Y-75635747D01*
X190921777Y-75652223D01*
X190938253Y-75670402D01*
X190952867Y-75690107D01*
X190965480Y-75711151D01*
X190975970Y-75733329D01*
X190984235Y-75756429D01*
X190990196Y-75780227D01*
X190993796Y-75804496D01*
X190995000Y-75829000D01*
X190995000Y-77079000D01*
X190993796Y-77103504D01*
X190990196Y-77127773D01*
X190984235Y-77151571D01*
X190975970Y-77174671D01*
X190965480Y-77196849D01*
X190952867Y-77217893D01*
X190938253Y-77237598D01*
X190921777Y-77255777D01*
X190903598Y-77272253D01*
X190883893Y-77286867D01*
X190862849Y-77299480D01*
X190840671Y-77309970D01*
X190817571Y-77318235D01*
X190793773Y-77324196D01*
X190769504Y-77327796D01*
X190745000Y-77329000D01*
X189820000Y-77329000D01*
X189795496Y-77327796D01*
X189771227Y-77324196D01*
X189747429Y-77318235D01*
X189724329Y-77309970D01*
X189702151Y-77299480D01*
X189681107Y-77286867D01*
X189661402Y-77272253D01*
X189643223Y-77255777D01*
X189626747Y-77237598D01*
X189612133Y-77217893D01*
X189599520Y-77196849D01*
X189589030Y-77174671D01*
X189580765Y-77151571D01*
X189574804Y-77127773D01*
X189571204Y-77103504D01*
X189570000Y-77079000D01*
X189570000Y-75829000D01*
X189571204Y-75804496D01*
X189574804Y-75780227D01*
X189580765Y-75756429D01*
X189589030Y-75733329D01*
X189599520Y-75711151D01*
X189612133Y-75690107D01*
X189626747Y-75670402D01*
X189643223Y-75652223D01*
X189661402Y-75635747D01*
X189681107Y-75621133D01*
X189702151Y-75608520D01*
X189724329Y-75598030D01*
X189747429Y-75589765D01*
X189771227Y-75583804D01*
X189795496Y-75580204D01*
X189820000Y-75579000D01*
X190745000Y-75579000D01*
X190769504Y-75580204D01*
X190769504Y-75580204D01*
G37*
D13*
X190282500Y-76454000D03*
D14*
X195262500Y-147700000D03*
X195262500Y-144400000D03*
X176212500Y-147700000D03*
X176212500Y-144400000D03*
X157162500Y-147700000D03*
X157162500Y-144400000D03*
X138112500Y-147700000D03*
X138112500Y-144400000D03*
X195262500Y-128650000D03*
X195262500Y-125350000D03*
X176212500Y-128650000D03*
X176212500Y-125350000D03*
X157162500Y-128650000D03*
X157162500Y-125350000D03*
X138112500Y-128650000D03*
X138112500Y-125350000D03*
X195262500Y-109600000D03*
X195262500Y-106300000D03*
X176212500Y-109600000D03*
X176212500Y-106300000D03*
X157162500Y-109600000D03*
X157162500Y-106300000D03*
X138112500Y-109600000D03*
X138112500Y-106300000D03*
X195262500Y-90550000D03*
X195262500Y-87250000D03*
X176212500Y-90550000D03*
X176212500Y-87250000D03*
X157162500Y-90550000D03*
X157162500Y-87250000D03*
X138112500Y-90550000D03*
X138112500Y-87250000D03*
X157162500Y-67531250D03*
X157162500Y-64231250D03*
X138112500Y-67531250D03*
X138112500Y-64231250D03*
D15*
X186342000Y-58293000D03*
X193642000Y-58293000D03*
X193642000Y-62793000D03*
X186342000Y-62793000D03*
D16*
X188392000Y-62793000D03*
X189192000Y-62793000D03*
X189992000Y-62793000D03*
X190792000Y-62793000D03*
X191592000Y-62793000D03*
D12*
G36*
X181460505Y-64579204D02*
G01*
X181484773Y-64582804D01*
X181508572Y-64588765D01*
X181531671Y-64597030D01*
X181553850Y-64607520D01*
X181574893Y-64620132D01*
X181594599Y-64634747D01*
X181612777Y-64651223D01*
X181629253Y-64669401D01*
X181643868Y-64689107D01*
X181656480Y-64710150D01*
X181666970Y-64732329D01*
X181675235Y-64755428D01*
X181681196Y-64779227D01*
X181684796Y-64803495D01*
X181686000Y-64827999D01*
X181686000Y-65728001D01*
X181684796Y-65752505D01*
X181681196Y-65776773D01*
X181675235Y-65800572D01*
X181666970Y-65823671D01*
X181656480Y-65845850D01*
X181643868Y-65866893D01*
X181629253Y-65886599D01*
X181612777Y-65904777D01*
X181594599Y-65921253D01*
X181574893Y-65935868D01*
X181553850Y-65948480D01*
X181531671Y-65958970D01*
X181508572Y-65967235D01*
X181484773Y-65973196D01*
X181460505Y-65976796D01*
X181436001Y-65978000D01*
X180785999Y-65978000D01*
X180761495Y-65976796D01*
X180737227Y-65973196D01*
X180713428Y-65967235D01*
X180690329Y-65958970D01*
X180668150Y-65948480D01*
X180647107Y-65935868D01*
X180627401Y-65921253D01*
X180609223Y-65904777D01*
X180592747Y-65886599D01*
X180578132Y-65866893D01*
X180565520Y-65845850D01*
X180555030Y-65823671D01*
X180546765Y-65800572D01*
X180540804Y-65776773D01*
X180537204Y-65752505D01*
X180536000Y-65728001D01*
X180536000Y-64827999D01*
X180537204Y-64803495D01*
X180540804Y-64779227D01*
X180546765Y-64755428D01*
X180555030Y-64732329D01*
X180565520Y-64710150D01*
X180578132Y-64689107D01*
X180592747Y-64669401D01*
X180609223Y-64651223D01*
X180627401Y-64634747D01*
X180647107Y-64620132D01*
X180668150Y-64607520D01*
X180690329Y-64597030D01*
X180713428Y-64588765D01*
X180737227Y-64582804D01*
X180761495Y-64579204D01*
X180785999Y-64578000D01*
X181436001Y-64578000D01*
X181460505Y-64579204D01*
X181460505Y-64579204D01*
G37*
D17*
X181111000Y-65278000D03*
D12*
G36*
X179410505Y-64579204D02*
G01*
X179434773Y-64582804D01*
X179458572Y-64588765D01*
X179481671Y-64597030D01*
X179503850Y-64607520D01*
X179524893Y-64620132D01*
X179544599Y-64634747D01*
X179562777Y-64651223D01*
X179579253Y-64669401D01*
X179593868Y-64689107D01*
X179606480Y-64710150D01*
X179616970Y-64732329D01*
X179625235Y-64755428D01*
X179631196Y-64779227D01*
X179634796Y-64803495D01*
X179636000Y-64827999D01*
X179636000Y-65728001D01*
X179634796Y-65752505D01*
X179631196Y-65776773D01*
X179625235Y-65800572D01*
X179616970Y-65823671D01*
X179606480Y-65845850D01*
X179593868Y-65866893D01*
X179579253Y-65886599D01*
X179562777Y-65904777D01*
X179544599Y-65921253D01*
X179524893Y-65935868D01*
X179503850Y-65948480D01*
X179481671Y-65958970D01*
X179458572Y-65967235D01*
X179434773Y-65973196D01*
X179410505Y-65976796D01*
X179386001Y-65978000D01*
X178735999Y-65978000D01*
X178711495Y-65976796D01*
X178687227Y-65973196D01*
X178663428Y-65967235D01*
X178640329Y-65958970D01*
X178618150Y-65948480D01*
X178597107Y-65935868D01*
X178577401Y-65921253D01*
X178559223Y-65904777D01*
X178542747Y-65886599D01*
X178528132Y-65866893D01*
X178515520Y-65845850D01*
X178505030Y-65823671D01*
X178496765Y-65800572D01*
X178490804Y-65776773D01*
X178487204Y-65752505D01*
X178486000Y-65728001D01*
X178486000Y-64827999D01*
X178487204Y-64803495D01*
X178490804Y-64779227D01*
X178496765Y-64755428D01*
X178505030Y-64732329D01*
X178515520Y-64710150D01*
X178528132Y-64689107D01*
X178542747Y-64669401D01*
X178559223Y-64651223D01*
X178577401Y-64634747D01*
X178597107Y-64620132D01*
X178618150Y-64607520D01*
X178640329Y-64597030D01*
X178663428Y-64588765D01*
X178687227Y-64582804D01*
X178711495Y-64579204D01*
X178735999Y-64578000D01*
X179386001Y-64578000D01*
X179410505Y-64579204D01*
X179410505Y-64579204D01*
G37*
D17*
X179061000Y-65278000D03*
D12*
G36*
X181460505Y-66611204D02*
G01*
X181484773Y-66614804D01*
X181508572Y-66620765D01*
X181531671Y-66629030D01*
X181553850Y-66639520D01*
X181574893Y-66652132D01*
X181594599Y-66666747D01*
X181612777Y-66683223D01*
X181629253Y-66701401D01*
X181643868Y-66721107D01*
X181656480Y-66742150D01*
X181666970Y-66764329D01*
X181675235Y-66787428D01*
X181681196Y-66811227D01*
X181684796Y-66835495D01*
X181686000Y-66859999D01*
X181686000Y-67760001D01*
X181684796Y-67784505D01*
X181681196Y-67808773D01*
X181675235Y-67832572D01*
X181666970Y-67855671D01*
X181656480Y-67877850D01*
X181643868Y-67898893D01*
X181629253Y-67918599D01*
X181612777Y-67936777D01*
X181594599Y-67953253D01*
X181574893Y-67967868D01*
X181553850Y-67980480D01*
X181531671Y-67990970D01*
X181508572Y-67999235D01*
X181484773Y-68005196D01*
X181460505Y-68008796D01*
X181436001Y-68010000D01*
X180785999Y-68010000D01*
X180761495Y-68008796D01*
X180737227Y-68005196D01*
X180713428Y-67999235D01*
X180690329Y-67990970D01*
X180668150Y-67980480D01*
X180647107Y-67967868D01*
X180627401Y-67953253D01*
X180609223Y-67936777D01*
X180592747Y-67918599D01*
X180578132Y-67898893D01*
X180565520Y-67877850D01*
X180555030Y-67855671D01*
X180546765Y-67832572D01*
X180540804Y-67808773D01*
X180537204Y-67784505D01*
X180536000Y-67760001D01*
X180536000Y-66859999D01*
X180537204Y-66835495D01*
X180540804Y-66811227D01*
X180546765Y-66787428D01*
X180555030Y-66764329D01*
X180565520Y-66742150D01*
X180578132Y-66721107D01*
X180592747Y-66701401D01*
X180609223Y-66683223D01*
X180627401Y-66666747D01*
X180647107Y-66652132D01*
X180668150Y-66639520D01*
X180690329Y-66629030D01*
X180713428Y-66620765D01*
X180737227Y-66614804D01*
X180761495Y-66611204D01*
X180785999Y-66610000D01*
X181436001Y-66610000D01*
X181460505Y-66611204D01*
X181460505Y-66611204D01*
G37*
D17*
X181111000Y-67310000D03*
D12*
G36*
X179410505Y-66611204D02*
G01*
X179434773Y-66614804D01*
X179458572Y-66620765D01*
X179481671Y-66629030D01*
X179503850Y-66639520D01*
X179524893Y-66652132D01*
X179544599Y-66666747D01*
X179562777Y-66683223D01*
X179579253Y-66701401D01*
X179593868Y-66721107D01*
X179606480Y-66742150D01*
X179616970Y-66764329D01*
X179625235Y-66787428D01*
X179631196Y-66811227D01*
X179634796Y-66835495D01*
X179636000Y-66859999D01*
X179636000Y-67760001D01*
X179634796Y-67784505D01*
X179631196Y-67808773D01*
X179625235Y-67832572D01*
X179616970Y-67855671D01*
X179606480Y-67877850D01*
X179593868Y-67898893D01*
X179579253Y-67918599D01*
X179562777Y-67936777D01*
X179544599Y-67953253D01*
X179524893Y-67967868D01*
X179503850Y-67980480D01*
X179481671Y-67990970D01*
X179458572Y-67999235D01*
X179434773Y-68005196D01*
X179410505Y-68008796D01*
X179386001Y-68010000D01*
X178735999Y-68010000D01*
X178711495Y-68008796D01*
X178687227Y-68005196D01*
X178663428Y-67999235D01*
X178640329Y-67990970D01*
X178618150Y-67980480D01*
X178597107Y-67967868D01*
X178577401Y-67953253D01*
X178559223Y-67936777D01*
X178542747Y-67918599D01*
X178528132Y-67898893D01*
X178515520Y-67877850D01*
X178505030Y-67855671D01*
X178496765Y-67832572D01*
X178490804Y-67808773D01*
X178487204Y-67784505D01*
X178486000Y-67760001D01*
X178486000Y-66859999D01*
X178487204Y-66835495D01*
X178490804Y-66811227D01*
X178496765Y-66787428D01*
X178505030Y-66764329D01*
X178515520Y-66742150D01*
X178528132Y-66721107D01*
X178542747Y-66701401D01*
X178559223Y-66683223D01*
X178577401Y-66666747D01*
X178597107Y-66652132D01*
X178618150Y-66639520D01*
X178640329Y-66629030D01*
X178663428Y-66620765D01*
X178687227Y-66614804D01*
X178711495Y-66611204D01*
X178735999Y-66610000D01*
X179386001Y-66610000D01*
X179410505Y-66611204D01*
X179410505Y-66611204D01*
G37*
D17*
X179061000Y-67310000D03*
D12*
G36*
X181460505Y-68643204D02*
G01*
X181484773Y-68646804D01*
X181508572Y-68652765D01*
X181531671Y-68661030D01*
X181553850Y-68671520D01*
X181574893Y-68684132D01*
X181594599Y-68698747D01*
X181612777Y-68715223D01*
X181629253Y-68733401D01*
X181643868Y-68753107D01*
X181656480Y-68774150D01*
X181666970Y-68796329D01*
X181675235Y-68819428D01*
X181681196Y-68843227D01*
X181684796Y-68867495D01*
X181686000Y-68891999D01*
X181686000Y-69792001D01*
X181684796Y-69816505D01*
X181681196Y-69840773D01*
X181675235Y-69864572D01*
X181666970Y-69887671D01*
X181656480Y-69909850D01*
X181643868Y-69930893D01*
X181629253Y-69950599D01*
X181612777Y-69968777D01*
X181594599Y-69985253D01*
X181574893Y-69999868D01*
X181553850Y-70012480D01*
X181531671Y-70022970D01*
X181508572Y-70031235D01*
X181484773Y-70037196D01*
X181460505Y-70040796D01*
X181436001Y-70042000D01*
X180785999Y-70042000D01*
X180761495Y-70040796D01*
X180737227Y-70037196D01*
X180713428Y-70031235D01*
X180690329Y-70022970D01*
X180668150Y-70012480D01*
X180647107Y-69999868D01*
X180627401Y-69985253D01*
X180609223Y-69968777D01*
X180592747Y-69950599D01*
X180578132Y-69930893D01*
X180565520Y-69909850D01*
X180555030Y-69887671D01*
X180546765Y-69864572D01*
X180540804Y-69840773D01*
X180537204Y-69816505D01*
X180536000Y-69792001D01*
X180536000Y-68891999D01*
X180537204Y-68867495D01*
X180540804Y-68843227D01*
X180546765Y-68819428D01*
X180555030Y-68796329D01*
X180565520Y-68774150D01*
X180578132Y-68753107D01*
X180592747Y-68733401D01*
X180609223Y-68715223D01*
X180627401Y-68698747D01*
X180647107Y-68684132D01*
X180668150Y-68671520D01*
X180690329Y-68661030D01*
X180713428Y-68652765D01*
X180737227Y-68646804D01*
X180761495Y-68643204D01*
X180785999Y-68642000D01*
X181436001Y-68642000D01*
X181460505Y-68643204D01*
X181460505Y-68643204D01*
G37*
D17*
X181111000Y-69342000D03*
D12*
G36*
X179410505Y-68643204D02*
G01*
X179434773Y-68646804D01*
X179458572Y-68652765D01*
X179481671Y-68661030D01*
X179503850Y-68671520D01*
X179524893Y-68684132D01*
X179544599Y-68698747D01*
X179562777Y-68715223D01*
X179579253Y-68733401D01*
X179593868Y-68753107D01*
X179606480Y-68774150D01*
X179616970Y-68796329D01*
X179625235Y-68819428D01*
X179631196Y-68843227D01*
X179634796Y-68867495D01*
X179636000Y-68891999D01*
X179636000Y-69792001D01*
X179634796Y-69816505D01*
X179631196Y-69840773D01*
X179625235Y-69864572D01*
X179616970Y-69887671D01*
X179606480Y-69909850D01*
X179593868Y-69930893D01*
X179579253Y-69950599D01*
X179562777Y-69968777D01*
X179544599Y-69985253D01*
X179524893Y-69999868D01*
X179503850Y-70012480D01*
X179481671Y-70022970D01*
X179458572Y-70031235D01*
X179434773Y-70037196D01*
X179410505Y-70040796D01*
X179386001Y-70042000D01*
X178735999Y-70042000D01*
X178711495Y-70040796D01*
X178687227Y-70037196D01*
X178663428Y-70031235D01*
X178640329Y-70022970D01*
X178618150Y-70012480D01*
X178597107Y-69999868D01*
X178577401Y-69985253D01*
X178559223Y-69968777D01*
X178542747Y-69950599D01*
X178528132Y-69930893D01*
X178515520Y-69909850D01*
X178505030Y-69887671D01*
X178496765Y-69864572D01*
X178490804Y-69840773D01*
X178487204Y-69816505D01*
X178486000Y-69792001D01*
X178486000Y-68891999D01*
X178487204Y-68867495D01*
X178490804Y-68843227D01*
X178496765Y-68819428D01*
X178505030Y-68796329D01*
X178515520Y-68774150D01*
X178528132Y-68753107D01*
X178542747Y-68733401D01*
X178559223Y-68715223D01*
X178577401Y-68698747D01*
X178597107Y-68684132D01*
X178618150Y-68671520D01*
X178640329Y-68661030D01*
X178663428Y-68652765D01*
X178687227Y-68646804D01*
X178711495Y-68643204D01*
X178735999Y-68642000D01*
X179386001Y-68642000D01*
X179410505Y-68643204D01*
X179410505Y-68643204D01*
G37*
D17*
X179061000Y-69342000D03*
D12*
G36*
X193260505Y-66981204D02*
G01*
X193284773Y-66984804D01*
X193308572Y-66990765D01*
X193331671Y-66999030D01*
X193353850Y-67009520D01*
X193374893Y-67022132D01*
X193394599Y-67036747D01*
X193412777Y-67053223D01*
X193429253Y-67071401D01*
X193443868Y-67091107D01*
X193456480Y-67112150D01*
X193466970Y-67134329D01*
X193475235Y-67157428D01*
X193481196Y-67181227D01*
X193484796Y-67205495D01*
X193486000Y-67229999D01*
X193486000Y-67880001D01*
X193484796Y-67904505D01*
X193481196Y-67928773D01*
X193475235Y-67952572D01*
X193466970Y-67975671D01*
X193456480Y-67997850D01*
X193443868Y-68018893D01*
X193429253Y-68038599D01*
X193412777Y-68056777D01*
X193394599Y-68073253D01*
X193374893Y-68087868D01*
X193353850Y-68100480D01*
X193331671Y-68110970D01*
X193308572Y-68119235D01*
X193284773Y-68125196D01*
X193260505Y-68128796D01*
X193236001Y-68130000D01*
X192335999Y-68130000D01*
X192311495Y-68128796D01*
X192287227Y-68125196D01*
X192263428Y-68119235D01*
X192240329Y-68110970D01*
X192218150Y-68100480D01*
X192197107Y-68087868D01*
X192177401Y-68073253D01*
X192159223Y-68056777D01*
X192142747Y-68038599D01*
X192128132Y-68018893D01*
X192115520Y-67997850D01*
X192105030Y-67975671D01*
X192096765Y-67952572D01*
X192090804Y-67928773D01*
X192087204Y-67904505D01*
X192086000Y-67880001D01*
X192086000Y-67229999D01*
X192087204Y-67205495D01*
X192090804Y-67181227D01*
X192096765Y-67157428D01*
X192105030Y-67134329D01*
X192115520Y-67112150D01*
X192128132Y-67091107D01*
X192142747Y-67071401D01*
X192159223Y-67053223D01*
X192177401Y-67036747D01*
X192197107Y-67022132D01*
X192218150Y-67009520D01*
X192240329Y-66999030D01*
X192263428Y-66990765D01*
X192287227Y-66984804D01*
X192311495Y-66981204D01*
X192335999Y-66980000D01*
X193236001Y-66980000D01*
X193260505Y-66981204D01*
X193260505Y-66981204D01*
G37*
D17*
X192786000Y-67555000D03*
D12*
G36*
X193260505Y-69031204D02*
G01*
X193284773Y-69034804D01*
X193308572Y-69040765D01*
X193331671Y-69049030D01*
X193353850Y-69059520D01*
X193374893Y-69072132D01*
X193394599Y-69086747D01*
X193412777Y-69103223D01*
X193429253Y-69121401D01*
X193443868Y-69141107D01*
X193456480Y-69162150D01*
X193466970Y-69184329D01*
X193475235Y-69207428D01*
X193481196Y-69231227D01*
X193484796Y-69255495D01*
X193486000Y-69279999D01*
X193486000Y-69930001D01*
X193484796Y-69954505D01*
X193481196Y-69978773D01*
X193475235Y-70002572D01*
X193466970Y-70025671D01*
X193456480Y-70047850D01*
X193443868Y-70068893D01*
X193429253Y-70088599D01*
X193412777Y-70106777D01*
X193394599Y-70123253D01*
X193374893Y-70137868D01*
X193353850Y-70150480D01*
X193331671Y-70160970D01*
X193308572Y-70169235D01*
X193284773Y-70175196D01*
X193260505Y-70178796D01*
X193236001Y-70180000D01*
X192335999Y-70180000D01*
X192311495Y-70178796D01*
X192287227Y-70175196D01*
X192263428Y-70169235D01*
X192240329Y-70160970D01*
X192218150Y-70150480D01*
X192197107Y-70137868D01*
X192177401Y-70123253D01*
X192159223Y-70106777D01*
X192142747Y-70088599D01*
X192128132Y-70068893D01*
X192115520Y-70047850D01*
X192105030Y-70025671D01*
X192096765Y-70002572D01*
X192090804Y-69978773D01*
X192087204Y-69954505D01*
X192086000Y-69930001D01*
X192086000Y-69279999D01*
X192087204Y-69255495D01*
X192090804Y-69231227D01*
X192096765Y-69207428D01*
X192105030Y-69184329D01*
X192115520Y-69162150D01*
X192128132Y-69141107D01*
X192142747Y-69121401D01*
X192159223Y-69103223D01*
X192177401Y-69086747D01*
X192197107Y-69072132D01*
X192218150Y-69059520D01*
X192240329Y-69049030D01*
X192263428Y-69040765D01*
X192287227Y-69034804D01*
X192311495Y-69031204D01*
X192335999Y-69030000D01*
X193236001Y-69030000D01*
X193260505Y-69031204D01*
X193260505Y-69031204D01*
G37*
D17*
X192786000Y-69605000D03*
D12*
G36*
X191228505Y-69031204D02*
G01*
X191252773Y-69034804D01*
X191276572Y-69040765D01*
X191299671Y-69049030D01*
X191321850Y-69059520D01*
X191342893Y-69072132D01*
X191362599Y-69086747D01*
X191380777Y-69103223D01*
X191397253Y-69121401D01*
X191411868Y-69141107D01*
X191424480Y-69162150D01*
X191434970Y-69184329D01*
X191443235Y-69207428D01*
X191449196Y-69231227D01*
X191452796Y-69255495D01*
X191454000Y-69279999D01*
X191454000Y-69930001D01*
X191452796Y-69954505D01*
X191449196Y-69978773D01*
X191443235Y-70002572D01*
X191434970Y-70025671D01*
X191424480Y-70047850D01*
X191411868Y-70068893D01*
X191397253Y-70088599D01*
X191380777Y-70106777D01*
X191362599Y-70123253D01*
X191342893Y-70137868D01*
X191321850Y-70150480D01*
X191299671Y-70160970D01*
X191276572Y-70169235D01*
X191252773Y-70175196D01*
X191228505Y-70178796D01*
X191204001Y-70180000D01*
X190303999Y-70180000D01*
X190279495Y-70178796D01*
X190255227Y-70175196D01*
X190231428Y-70169235D01*
X190208329Y-70160970D01*
X190186150Y-70150480D01*
X190165107Y-70137868D01*
X190145401Y-70123253D01*
X190127223Y-70106777D01*
X190110747Y-70088599D01*
X190096132Y-70068893D01*
X190083520Y-70047850D01*
X190073030Y-70025671D01*
X190064765Y-70002572D01*
X190058804Y-69978773D01*
X190055204Y-69954505D01*
X190054000Y-69930001D01*
X190054000Y-69279999D01*
X190055204Y-69255495D01*
X190058804Y-69231227D01*
X190064765Y-69207428D01*
X190073030Y-69184329D01*
X190083520Y-69162150D01*
X190096132Y-69141107D01*
X190110747Y-69121401D01*
X190127223Y-69103223D01*
X190145401Y-69086747D01*
X190165107Y-69072132D01*
X190186150Y-69059520D01*
X190208329Y-69049030D01*
X190231428Y-69040765D01*
X190255227Y-69034804D01*
X190279495Y-69031204D01*
X190303999Y-69030000D01*
X191204001Y-69030000D01*
X191228505Y-69031204D01*
X191228505Y-69031204D01*
G37*
D17*
X190754000Y-69605000D03*
D12*
G36*
X191228505Y-66981204D02*
G01*
X191252773Y-66984804D01*
X191276572Y-66990765D01*
X191299671Y-66999030D01*
X191321850Y-67009520D01*
X191342893Y-67022132D01*
X191362599Y-67036747D01*
X191380777Y-67053223D01*
X191397253Y-67071401D01*
X191411868Y-67091107D01*
X191424480Y-67112150D01*
X191434970Y-67134329D01*
X191443235Y-67157428D01*
X191449196Y-67181227D01*
X191452796Y-67205495D01*
X191454000Y-67229999D01*
X191454000Y-67880001D01*
X191452796Y-67904505D01*
X191449196Y-67928773D01*
X191443235Y-67952572D01*
X191434970Y-67975671D01*
X191424480Y-67997850D01*
X191411868Y-68018893D01*
X191397253Y-68038599D01*
X191380777Y-68056777D01*
X191362599Y-68073253D01*
X191342893Y-68087868D01*
X191321850Y-68100480D01*
X191299671Y-68110970D01*
X191276572Y-68119235D01*
X191252773Y-68125196D01*
X191228505Y-68128796D01*
X191204001Y-68130000D01*
X190303999Y-68130000D01*
X190279495Y-68128796D01*
X190255227Y-68125196D01*
X190231428Y-68119235D01*
X190208329Y-68110970D01*
X190186150Y-68100480D01*
X190165107Y-68087868D01*
X190145401Y-68073253D01*
X190127223Y-68056777D01*
X190110747Y-68038599D01*
X190096132Y-68018893D01*
X190083520Y-67997850D01*
X190073030Y-67975671D01*
X190064765Y-67952572D01*
X190058804Y-67928773D01*
X190055204Y-67904505D01*
X190054000Y-67880001D01*
X190054000Y-67229999D01*
X190055204Y-67205495D01*
X190058804Y-67181227D01*
X190064765Y-67157428D01*
X190073030Y-67134329D01*
X190083520Y-67112150D01*
X190096132Y-67091107D01*
X190110747Y-67071401D01*
X190127223Y-67053223D01*
X190145401Y-67036747D01*
X190165107Y-67022132D01*
X190186150Y-67009520D01*
X190208329Y-66999030D01*
X190231428Y-66990765D01*
X190255227Y-66984804D01*
X190279495Y-66981204D01*
X190303999Y-66980000D01*
X191204001Y-66980000D01*
X191228505Y-66981204D01*
X191228505Y-66981204D01*
G37*
D17*
X190754000Y-67555000D03*
D18*
X183516270Y-143511270D03*
X189866270Y-140971270D03*
X164466270Y-143511270D03*
X170816270Y-140971270D03*
X145416270Y-143511270D03*
X151766270Y-140971270D03*
X126366270Y-143511270D03*
X132716270Y-140971270D03*
X183516270Y-124461270D03*
X189866270Y-121921270D03*
X164466270Y-124461270D03*
X170816270Y-121921270D03*
X145416270Y-124461270D03*
X151766270Y-121921270D03*
X126366270Y-124461270D03*
X132716270Y-121921270D03*
X183516270Y-105411270D03*
X189866270Y-102871270D03*
X164466270Y-105411270D03*
X170816270Y-102871270D03*
X145416270Y-105411270D03*
X151766270Y-102871270D03*
X126366270Y-105411270D03*
X132716270Y-102871270D03*
X183516270Y-86361270D03*
X189866270Y-83821270D03*
X164466270Y-86361270D03*
X170816270Y-83821270D03*
X145416270Y-86361270D03*
X151766270Y-83821270D03*
X126366270Y-86361270D03*
X132716270Y-83821270D03*
X145415000Y-63341250D03*
X151765000Y-60801250D03*
X126365000Y-63341250D03*
X132715000Y-60801250D03*
D12*
G36*
X183746505Y-70929204D02*
G01*
X183770773Y-70932804D01*
X183794572Y-70938765D01*
X183817671Y-70947030D01*
X183839850Y-70957520D01*
X183860893Y-70970132D01*
X183880599Y-70984747D01*
X183898777Y-71001223D01*
X183915253Y-71019401D01*
X183929868Y-71039107D01*
X183942480Y-71060150D01*
X183952970Y-71082329D01*
X183961235Y-71105428D01*
X183967196Y-71129227D01*
X183970796Y-71153495D01*
X183972000Y-71177999D01*
X183972000Y-72078001D01*
X183970796Y-72102505D01*
X183967196Y-72126773D01*
X183961235Y-72150572D01*
X183952970Y-72173671D01*
X183942480Y-72195850D01*
X183929868Y-72216893D01*
X183915253Y-72236599D01*
X183898777Y-72254777D01*
X183880599Y-72271253D01*
X183860893Y-72285868D01*
X183839850Y-72298480D01*
X183817671Y-72308970D01*
X183794572Y-72317235D01*
X183770773Y-72323196D01*
X183746505Y-72326796D01*
X183722001Y-72328000D01*
X183071999Y-72328000D01*
X183047495Y-72326796D01*
X183023227Y-72323196D01*
X182999428Y-72317235D01*
X182976329Y-72308970D01*
X182954150Y-72298480D01*
X182933107Y-72285868D01*
X182913401Y-72271253D01*
X182895223Y-72254777D01*
X182878747Y-72236599D01*
X182864132Y-72216893D01*
X182851520Y-72195850D01*
X182841030Y-72173671D01*
X182832765Y-72150572D01*
X182826804Y-72126773D01*
X182823204Y-72102505D01*
X182822000Y-72078001D01*
X182822000Y-71177999D01*
X182823204Y-71153495D01*
X182826804Y-71129227D01*
X182832765Y-71105428D01*
X182841030Y-71082329D01*
X182851520Y-71060150D01*
X182864132Y-71039107D01*
X182878747Y-71019401D01*
X182895223Y-71001223D01*
X182913401Y-70984747D01*
X182933107Y-70970132D01*
X182954150Y-70957520D01*
X182976329Y-70947030D01*
X182999428Y-70938765D01*
X183023227Y-70932804D01*
X183047495Y-70929204D01*
X183071999Y-70928000D01*
X183722001Y-70928000D01*
X183746505Y-70929204D01*
X183746505Y-70929204D01*
G37*
D17*
X183397000Y-71628000D03*
D12*
G36*
X181696505Y-70929204D02*
G01*
X181720773Y-70932804D01*
X181744572Y-70938765D01*
X181767671Y-70947030D01*
X181789850Y-70957520D01*
X181810893Y-70970132D01*
X181830599Y-70984747D01*
X181848777Y-71001223D01*
X181865253Y-71019401D01*
X181879868Y-71039107D01*
X181892480Y-71060150D01*
X181902970Y-71082329D01*
X181911235Y-71105428D01*
X181917196Y-71129227D01*
X181920796Y-71153495D01*
X181922000Y-71177999D01*
X181922000Y-72078001D01*
X181920796Y-72102505D01*
X181917196Y-72126773D01*
X181911235Y-72150572D01*
X181902970Y-72173671D01*
X181892480Y-72195850D01*
X181879868Y-72216893D01*
X181865253Y-72236599D01*
X181848777Y-72254777D01*
X181830599Y-72271253D01*
X181810893Y-72285868D01*
X181789850Y-72298480D01*
X181767671Y-72308970D01*
X181744572Y-72317235D01*
X181720773Y-72323196D01*
X181696505Y-72326796D01*
X181672001Y-72328000D01*
X181021999Y-72328000D01*
X180997495Y-72326796D01*
X180973227Y-72323196D01*
X180949428Y-72317235D01*
X180926329Y-72308970D01*
X180904150Y-72298480D01*
X180883107Y-72285868D01*
X180863401Y-72271253D01*
X180845223Y-72254777D01*
X180828747Y-72236599D01*
X180814132Y-72216893D01*
X180801520Y-72195850D01*
X180791030Y-72173671D01*
X180782765Y-72150572D01*
X180776804Y-72126773D01*
X180773204Y-72102505D01*
X180772000Y-72078001D01*
X180772000Y-71177999D01*
X180773204Y-71153495D01*
X180776804Y-71129227D01*
X180782765Y-71105428D01*
X180791030Y-71082329D01*
X180801520Y-71060150D01*
X180814132Y-71039107D01*
X180828747Y-71019401D01*
X180845223Y-71001223D01*
X180863401Y-70984747D01*
X180883107Y-70970132D01*
X180904150Y-70957520D01*
X180926329Y-70947030D01*
X180949428Y-70938765D01*
X180973227Y-70932804D01*
X180997495Y-70929204D01*
X181021999Y-70928000D01*
X181672001Y-70928000D01*
X181696505Y-70929204D01*
X181696505Y-70929204D01*
G37*
D17*
X181347000Y-71628000D03*
D19*
X179387500Y-73025000D03*
X178054000Y-76454000D03*
X172466000Y-79248000D03*
X164338000Y-79248000D03*
X175768000Y-71120000D03*
X175768000Y-64262000D03*
X158750000Y-68580000D03*
X156368750Y-69056250D03*
X158750000Y-92075000D03*
X159543750Y-111125000D03*
X160337500Y-130175000D03*
X161131250Y-149225000D03*
X156368750Y-70663010D03*
X126365000Y-70485000D03*
X155575000Y-69850000D03*
X145415000Y-69783250D03*
X180181250Y-73818750D03*
X179387500Y-74676000D03*
X177006250Y-68262500D03*
X177800000Y-67468750D03*
X177006250Y-66675000D03*
D20*
X181483000Y-73025000D02*
X182000489Y-73542489D01*
X179387500Y-73025000D02*
X181483000Y-73025000D01*
X190998490Y-72907510D02*
X190998490Y-71530310D01*
X190363511Y-73542489D02*
X190998490Y-72907510D01*
X190998490Y-71530310D02*
X189484000Y-70015820D01*
X188392000Y-64045000D02*
X189484000Y-65137000D01*
X189484000Y-65137000D02*
X189484000Y-70015820D01*
X186342000Y-60808000D02*
X186342000Y-58039000D01*
X186342000Y-62539000D02*
X186342000Y-60808000D01*
X186342000Y-58039000D02*
X193642000Y-58039000D01*
X193642000Y-58166000D02*
X193642000Y-62666000D01*
X188392000Y-62793000D02*
X186342000Y-62793000D01*
X188392000Y-64045000D02*
X188392000Y-62793000D01*
X183261489Y-73542489D02*
X181347000Y-71628000D01*
X183632511Y-73542489D02*
X183261489Y-73542489D01*
X183632511Y-73542489D02*
X190363511Y-73542489D01*
X182000489Y-73542489D02*
X183632511Y-73542489D01*
X190282500Y-76454000D02*
X178054000Y-76454000D01*
X172466000Y-79248000D02*
X164338000Y-79248000D01*
X175768000Y-71120000D02*
X175768000Y-64262000D01*
X175768000Y-77978000D02*
X174498000Y-79248000D01*
X172466000Y-79248000D02*
X174498000Y-79248000D01*
X176784000Y-76454000D02*
X175768000Y-75438000D01*
X178054000Y-76454000D02*
X176784000Y-76454000D01*
X175768000Y-71120000D02*
X175768000Y-75438000D01*
X175768000Y-75438000D02*
X175768000Y-77978000D01*
X164338000Y-79248000D02*
X161798000Y-79248000D01*
X161798000Y-79248000D02*
X158750000Y-76200000D01*
X158750000Y-76200000D02*
X158750000Y-68580000D01*
X182773628Y-71004628D02*
X183397000Y-71628000D01*
X182306490Y-70537490D02*
X182773628Y-71004628D01*
X176350510Y-70537490D02*
X182306490Y-70537490D01*
X175768000Y-71120000D02*
X176350510Y-70537490D01*
X184020372Y-72251372D02*
X183397000Y-71628000D01*
X186680530Y-72251372D02*
X184020372Y-72251372D01*
X186955000Y-69723000D02*
X187452000Y-70220000D01*
X185674000Y-69723000D02*
X186955000Y-69723000D01*
X187452000Y-71479902D02*
X186680530Y-72251372D01*
X187452000Y-70220000D02*
X187452000Y-71479902D01*
D21*
X138112500Y-63527250D02*
X138112500Y-64231250D01*
X135386500Y-60801250D02*
X138112500Y-63527250D01*
X132715000Y-60801250D02*
X135386500Y-60801250D01*
X157162500Y-67531250D02*
X157162500Y-68262500D01*
X157162500Y-68262500D02*
X156368750Y-69056250D01*
X156368750Y-69056250D02*
X138906250Y-69056250D01*
X138112500Y-68262500D02*
X138112500Y-67531250D01*
X138906250Y-69056250D02*
X138112500Y-68262500D01*
X157162500Y-63527250D02*
X157162500Y-64231250D01*
X154436500Y-60801250D02*
X157162500Y-63527250D01*
X151765000Y-60801250D02*
X154436500Y-60801250D01*
X138112500Y-86546000D02*
X138112500Y-87250000D01*
X135387770Y-83821270D02*
X138112500Y-86546000D01*
X132716270Y-83821270D02*
X135387770Y-83821270D01*
X195262500Y-91281250D02*
X195262500Y-90550000D01*
X194468750Y-92075000D02*
X195262500Y-91281250D01*
X138112500Y-91254000D02*
X138933500Y-92075000D01*
X138112500Y-90550000D02*
X138112500Y-91254000D01*
X157162500Y-91281250D02*
X157956250Y-92075000D01*
X157162500Y-90550000D02*
X157162500Y-91281250D01*
X138933500Y-92075000D02*
X157956250Y-92075000D01*
X176212500Y-91281250D02*
X177006250Y-92075000D01*
X176212500Y-90550000D02*
X176212500Y-91281250D01*
X177006250Y-92075000D02*
X194468750Y-92075000D01*
X157956250Y-92075000D02*
X158750000Y-92075000D01*
X158750000Y-92075000D02*
X177006250Y-92075000D01*
X157162500Y-86546000D02*
X157162500Y-87250000D01*
X154437770Y-83821270D02*
X157162500Y-86546000D01*
X151766270Y-83821270D02*
X154437770Y-83821270D01*
X176212500Y-86546000D02*
X176212500Y-87250000D01*
X173487770Y-83821270D02*
X176212500Y-86546000D01*
X170816270Y-83821270D02*
X173487770Y-83821270D01*
X195262500Y-86546000D02*
X195262500Y-87250000D01*
X192537770Y-83821270D02*
X195262500Y-86546000D01*
X189866270Y-83821270D02*
X192537770Y-83821270D01*
X138112500Y-105596000D02*
X138112500Y-106300000D01*
X135387770Y-102871270D02*
X138112500Y-105596000D01*
X132716270Y-102871270D02*
X135387770Y-102871270D01*
X195262500Y-110331250D02*
X195262500Y-109600000D01*
X194468750Y-111125000D02*
X195262500Y-110331250D01*
X138112500Y-109600000D02*
X138112500Y-110304000D01*
X138112500Y-110304000D02*
X138933500Y-111125000D01*
X157162500Y-110331250D02*
X157956250Y-111125000D01*
X157162500Y-109600000D02*
X157162500Y-110331250D01*
X138933500Y-111125000D02*
X157956250Y-111125000D01*
X177006250Y-111097750D02*
X177006250Y-111125000D01*
X176212500Y-110304000D02*
X177006250Y-111097750D01*
X176212500Y-109600000D02*
X176212500Y-110304000D01*
X177006250Y-111125000D02*
X194468750Y-111125000D01*
X159543750Y-111125000D02*
X177006250Y-111125000D01*
X157956250Y-111125000D02*
X159543750Y-111125000D01*
X157162500Y-105596000D02*
X157162500Y-106300000D01*
X154437770Y-102871270D02*
X157162500Y-105596000D01*
X151766270Y-102871270D02*
X154437770Y-102871270D01*
X176212500Y-105596000D02*
X176212500Y-106300000D01*
X173487770Y-102871270D02*
X176212500Y-105596000D01*
X170816270Y-102871270D02*
X173487770Y-102871270D01*
X195262500Y-105596000D02*
X195262500Y-106300000D01*
X192537770Y-102871270D02*
X195262500Y-105596000D01*
X189866270Y-102871270D02*
X192537770Y-102871270D01*
X138112500Y-124646000D02*
X138112500Y-125350000D01*
X135387770Y-121921270D02*
X138112500Y-124646000D01*
X132716270Y-121921270D02*
X135387770Y-121921270D01*
X195262500Y-129381250D02*
X195262500Y-128650000D01*
X194468750Y-130175000D02*
X195262500Y-129381250D01*
X138112500Y-128650000D02*
X138112500Y-129381250D01*
X138112500Y-129381250D02*
X138906250Y-130175000D01*
X157162500Y-128650000D02*
X157162500Y-129381250D01*
X157162500Y-129381250D02*
X157956250Y-130175000D01*
X138906250Y-130175000D02*
X157956250Y-130175000D01*
X176212500Y-128650000D02*
X176212500Y-129381250D01*
X176212500Y-129381250D02*
X177006250Y-130175000D01*
X177006250Y-130175000D02*
X194468750Y-130175000D01*
X160337500Y-130175000D02*
X177006250Y-130175000D01*
X157956250Y-130175000D02*
X160337500Y-130175000D01*
X157162500Y-124646000D02*
X157162500Y-125350000D01*
X154437770Y-121921270D02*
X157162500Y-124646000D01*
X151766270Y-121921270D02*
X154437770Y-121921270D01*
X176212500Y-124646000D02*
X176212500Y-125350000D01*
X173487770Y-121921270D02*
X176212500Y-124646000D01*
X170816270Y-121921270D02*
X173487770Y-121921270D01*
X195262500Y-124646000D02*
X195262500Y-125350000D01*
X192537770Y-121921270D02*
X195262500Y-124646000D01*
X189866270Y-121921270D02*
X192537770Y-121921270D01*
X138112500Y-143696000D02*
X138112500Y-144400000D01*
X135387770Y-140971270D02*
X138112500Y-143696000D01*
X132716270Y-140971270D02*
X135387770Y-140971270D01*
X195262500Y-147700000D02*
X195262500Y-148431250D01*
X195262500Y-148431250D02*
X194468750Y-149225000D01*
X138112500Y-147700000D02*
X138112500Y-148431250D01*
X138112500Y-148431250D02*
X138906250Y-149225000D01*
X138906250Y-149225000D02*
X139700000Y-149225000D01*
X157162500Y-148431250D02*
X157956250Y-149225000D01*
X157162500Y-147700000D02*
X157162500Y-148431250D01*
X157956250Y-149225000D02*
X139700000Y-149225000D01*
X176212500Y-148431250D02*
X177006250Y-149225000D01*
X176212500Y-147700000D02*
X176212500Y-148431250D01*
X194468750Y-149225000D02*
X177006250Y-149225000D01*
X161131250Y-149225000D02*
X157956250Y-149225000D01*
X177006250Y-149225000D02*
X161131250Y-149225000D01*
X157162500Y-143696000D02*
X157162500Y-144400000D01*
X154437770Y-140971270D02*
X157162500Y-143696000D01*
X151766270Y-140971270D02*
X154437770Y-140971270D01*
X176212500Y-143696000D02*
X176212500Y-144400000D01*
X173487770Y-140971270D02*
X176212500Y-143696000D01*
X170816270Y-140971270D02*
X173487770Y-140971270D01*
X195262500Y-143696000D02*
X195262500Y-144400000D01*
X192537770Y-140971270D02*
X195262500Y-143696000D01*
X189866270Y-140971270D02*
X192537770Y-140971270D01*
D20*
X193876510Y-66964690D02*
X191592000Y-64680180D01*
X193876510Y-70537490D02*
X193876510Y-66964690D01*
X193257500Y-76454000D02*
X193257500Y-71156500D01*
X193257500Y-71156500D02*
X193876510Y-70537490D01*
X191592000Y-62793000D02*
X191592000Y-64680180D01*
D21*
X190792000Y-62793000D02*
X190792000Y-64612048D01*
X192786000Y-67555000D02*
X192162628Y-66931628D01*
X192162628Y-66931628D02*
X192162628Y-65982676D01*
X190792000Y-64612048D02*
X192121976Y-65942024D01*
X192162628Y-65982676D02*
X192121976Y-65942024D01*
X126543010Y-70663010D02*
X126365000Y-70485000D01*
X156368750Y-70663010D02*
X126543010Y-70663010D01*
X155575000Y-69850000D02*
X145481750Y-69850000D01*
X145481750Y-69850000D02*
X145415000Y-69783250D01*
X191377372Y-65901372D02*
X191377372Y-66931628D01*
X191377372Y-66931628D02*
X190754000Y-67555000D01*
X189992000Y-62793000D02*
X189992000Y-64516000D01*
X189992000Y-64516000D02*
X191377372Y-65901372D01*
X191516000Y-70367000D02*
X190754000Y-69605000D01*
X180181250Y-73818750D02*
X181544881Y-73818750D01*
X181544881Y-73818750D02*
X181786130Y-74059999D01*
X190703251Y-74059999D02*
X191516000Y-73247250D01*
X181786130Y-74059999D02*
X190703251Y-74059999D01*
X191516000Y-73247250D02*
X191516000Y-70367000D01*
X192024000Y-73381316D02*
X192024000Y-72294750D01*
X190729316Y-74676000D02*
X192024000Y-73381316D01*
X179387500Y-74676000D02*
X190729316Y-74676000D01*
X192024000Y-72294750D02*
X192024000Y-72898000D01*
X192024000Y-70367000D02*
X192786000Y-69605000D01*
X192024000Y-72294750D02*
X192024000Y-70367000D01*
X181111000Y-65278000D02*
X182626000Y-65278000D01*
X184023000Y-66675000D02*
X185674000Y-66675000D01*
X182626000Y-65278000D02*
X184023000Y-66675000D01*
X182675000Y-68199000D02*
X185674000Y-68199000D01*
X181111000Y-67310000D02*
X181786000Y-67310000D01*
X181786000Y-67310000D02*
X182675000Y-68199000D01*
X181786000Y-69342000D02*
X181111000Y-69342000D01*
X183404000Y-69342000D02*
X181786000Y-69342000D01*
X185309000Y-71247000D02*
X183404000Y-69342000D01*
X185674000Y-71247000D02*
X185309000Y-71247000D01*
X177006250Y-68262500D02*
X178085750Y-69342000D01*
X178085750Y-69342000D02*
X179061000Y-69342000D01*
X179092750Y-67468750D02*
X179124500Y-67500500D01*
X178902250Y-67468750D02*
X179061000Y-67310000D01*
X177800000Y-67468750D02*
X178902250Y-67468750D01*
X178403250Y-65278000D02*
X179061000Y-65278000D01*
X177006250Y-66675000D02*
X178403250Y-65278000D01*
G36*
X192318639Y-57107382D02*
G01*
X192210310Y-57378731D01*
X192157000Y-57666000D01*
X192157000Y-58166000D01*
X193515000Y-58166000D01*
X193515000Y-58146000D01*
X193675000Y-58146000D01*
X193675000Y-62940000D01*
X193515000Y-62940000D01*
X193515000Y-62920000D01*
X193495000Y-62920000D01*
X193495000Y-62666000D01*
X193515000Y-62666000D01*
X193515000Y-60972845D01*
X193285110Y-60851524D01*
X193191047Y-60872437D01*
X192922574Y-60987709D01*
X192681748Y-61153143D01*
X192477824Y-61362381D01*
X192433540Y-61430538D01*
X192431502Y-61423820D01*
X192372537Y-61313506D01*
X192293185Y-61216815D01*
X192196494Y-61137463D01*
X192086180Y-61078498D01*
X191966482Y-61042188D01*
X191842000Y-61029928D01*
X191342000Y-61029928D01*
X191217518Y-61042188D01*
X191192000Y-61049929D01*
X191166482Y-61042188D01*
X191042000Y-61029928D01*
X190542000Y-61029928D01*
X190417518Y-61042188D01*
X190392000Y-61049929D01*
X190366482Y-61042188D01*
X190242000Y-61029928D01*
X189742000Y-61029928D01*
X189617518Y-61042188D01*
X189592000Y-61049929D01*
X189566482Y-61042188D01*
X189442000Y-61029928D01*
X188942000Y-61029928D01*
X188817518Y-61042188D01*
X188792734Y-61049706D01*
X188773361Y-61043596D01*
X188673750Y-61033000D01*
X188515000Y-61191750D01*
X188515000Y-61196967D01*
X188490815Y-61216815D01*
X188411463Y-61313506D01*
X188352498Y-61423820D01*
X188316188Y-61543518D01*
X188303928Y-61668000D01*
X188303928Y-62940000D01*
X188269000Y-62940000D01*
X188269000Y-62920000D01*
X186469000Y-62920000D01*
X186469000Y-62940000D01*
X186309000Y-62940000D01*
X186309000Y-60972845D01*
X186469000Y-60972845D01*
X186469000Y-62666000D01*
X188269000Y-62666000D01*
X188269000Y-61191750D01*
X188110250Y-61033000D01*
X188010639Y-61043596D01*
X187891348Y-61081221D01*
X187781689Y-61141396D01*
X187685877Y-61221807D01*
X187607594Y-61319366D01*
X187550057Y-61429918D01*
X187506176Y-61362381D01*
X187302252Y-61153143D01*
X187061426Y-60987709D01*
X186792953Y-60872437D01*
X186698890Y-60851524D01*
X186469000Y-60972845D01*
X186309000Y-60972845D01*
X186309000Y-58420000D01*
X186469000Y-58420000D01*
X186469000Y-60113155D01*
X186698890Y-60234476D01*
X186792953Y-60213563D01*
X187061426Y-60098291D01*
X187302252Y-59932857D01*
X187506176Y-59723619D01*
X187665361Y-59478618D01*
X187773690Y-59207269D01*
X187827000Y-58920000D01*
X187827000Y-58420000D01*
X192157000Y-58420000D01*
X192157000Y-58920000D01*
X192210310Y-59207269D01*
X192318639Y-59478618D01*
X192477824Y-59723619D01*
X192681748Y-59932857D01*
X192922574Y-60098291D01*
X193191047Y-60213563D01*
X193285110Y-60234476D01*
X193515000Y-60113155D01*
X193515000Y-58420000D01*
X192157000Y-58420000D01*
X187827000Y-58420000D01*
X186469000Y-58420000D01*
X186309000Y-58420000D01*
X186309000Y-58146000D01*
X186469000Y-58146000D01*
X186469000Y-58166000D01*
X187827000Y-58166000D01*
X187827000Y-57666000D01*
X187773690Y-57378731D01*
X187665361Y-57107382D01*
X187606150Y-57016250D01*
X192377850Y-57016250D01*
X192318639Y-57107382D01*
X192318639Y-57107382D01*
G37*
X192318639Y-57107382D02*
X192210310Y-57378731D01*
X192157000Y-57666000D01*
X192157000Y-58166000D01*
X193515000Y-58166000D01*
X193515000Y-58146000D01*
X193675000Y-58146000D01*
X193675000Y-62940000D01*
X193515000Y-62940000D01*
X193515000Y-62920000D01*
X193495000Y-62920000D01*
X193495000Y-62666000D01*
X193515000Y-62666000D01*
X193515000Y-60972845D01*
X193285110Y-60851524D01*
X193191047Y-60872437D01*
X192922574Y-60987709D01*
X192681748Y-61153143D01*
X192477824Y-61362381D01*
X192433540Y-61430538D01*
X192431502Y-61423820D01*
X192372537Y-61313506D01*
X192293185Y-61216815D01*
X192196494Y-61137463D01*
X192086180Y-61078498D01*
X191966482Y-61042188D01*
X191842000Y-61029928D01*
X191342000Y-61029928D01*
X191217518Y-61042188D01*
X191192000Y-61049929D01*
X191166482Y-61042188D01*
X191042000Y-61029928D01*
X190542000Y-61029928D01*
X190417518Y-61042188D01*
X190392000Y-61049929D01*
X190366482Y-61042188D01*
X190242000Y-61029928D01*
X189742000Y-61029928D01*
X189617518Y-61042188D01*
X189592000Y-61049929D01*
X189566482Y-61042188D01*
X189442000Y-61029928D01*
X188942000Y-61029928D01*
X188817518Y-61042188D01*
X188792734Y-61049706D01*
X188773361Y-61043596D01*
X188673750Y-61033000D01*
X188515000Y-61191750D01*
X188515000Y-61196967D01*
X188490815Y-61216815D01*
X188411463Y-61313506D01*
X188352498Y-61423820D01*
X188316188Y-61543518D01*
X188303928Y-61668000D01*
X188303928Y-62940000D01*
X188269000Y-62940000D01*
X188269000Y-62920000D01*
X186469000Y-62920000D01*
X186469000Y-62940000D01*
X186309000Y-62940000D01*
X186309000Y-60972845D01*
X186469000Y-60972845D01*
X186469000Y-62666000D01*
X188269000Y-62666000D01*
X188269000Y-61191750D01*
X188110250Y-61033000D01*
X188010639Y-61043596D01*
X187891348Y-61081221D01*
X187781689Y-61141396D01*
X187685877Y-61221807D01*
X187607594Y-61319366D01*
X187550057Y-61429918D01*
X187506176Y-61362381D01*
X187302252Y-61153143D01*
X187061426Y-60987709D01*
X186792953Y-60872437D01*
X186698890Y-60851524D01*
X186469000Y-60972845D01*
X186309000Y-60972845D01*
X186309000Y-58420000D01*
X186469000Y-58420000D01*
X186469000Y-60113155D01*
X186698890Y-60234476D01*
X186792953Y-60213563D01*
X187061426Y-60098291D01*
X187302252Y-59932857D01*
X187506176Y-59723619D01*
X187665361Y-59478618D01*
X187773690Y-59207269D01*
X187827000Y-58920000D01*
X187827000Y-58420000D01*
X192157000Y-58420000D01*
X192157000Y-58920000D01*
X192210310Y-59207269D01*
X192318639Y-59478618D01*
X192477824Y-59723619D01*
X192681748Y-59932857D01*
X192922574Y-60098291D01*
X193191047Y-60213563D01*
X193285110Y-60234476D01*
X193515000Y-60113155D01*
X193515000Y-58420000D01*
X192157000Y-58420000D01*
X187827000Y-58420000D01*
X186469000Y-58420000D01*
X186309000Y-58420000D01*
X186309000Y-58146000D01*
X186469000Y-58146000D01*
X186469000Y-58166000D01*
X187827000Y-58166000D01*
X187827000Y-57666000D01*
X187773690Y-57378731D01*
X187665361Y-57107382D01*
X187606150Y-57016250D01*
X192377850Y-57016250D01*
X192318639Y-57107382D01*
M02*
