G04 #@! TF.GenerationSoftware,KiCad,Pcbnew,(5.1.2)-2*
G04 #@! TF.CreationDate,2019-08-16T13:43:52-05:00*
G04 #@! TF.ProjectId,rootpad,726f6f74-7061-4642-9e6b-696361645f70,rev?*
G04 #@! TF.SameCoordinates,Original*
G04 #@! TF.FileFunction,Soldermask,Top*
G04 #@! TF.FilePolarity,Negative*
%FSLAX46Y46*%
G04 Gerber Fmt 4.6, Leading zero omitted, Abs format (unit mm)*
G04 Created by KiCad (PCBNEW (5.1.2)-2) date 2019-08-16 13:43:52*
%MOMM*%
%LPD*%
G04 APERTURE LIST*
%ADD10C,0.350000*%
%ADD11C,0.100000*%
G04 APERTURE END LIST*
D10*
X130561904Y-72597321D02*
X132190476Y-75040178D01*
X133819047Y-72687797D02*
X132190476Y-75130654D01*
X135809523Y-72687797D02*
X134180952Y-75130654D01*
X137800000Y-72687797D02*
X136171428Y-75130654D01*
X137800000Y-72597321D02*
X139428571Y-75040178D01*
X141057142Y-72687797D02*
X139428571Y-75130654D01*
X143047619Y-72687797D02*
X141419047Y-75130654D01*
X143047619Y-72597321D02*
X144676190Y-75040178D01*
X146123809Y-72687797D02*
X146395238Y-72959226D01*
X148476190Y-72687797D02*
X146847619Y-75130654D01*
D11*
G36*
X149822744Y-144084954D02*
G01*
X150040744Y-144175253D01*
X150194893Y-144239103D01*
X150529818Y-144462893D01*
X150814647Y-144747722D01*
X151038437Y-145082647D01*
X151070832Y-145160856D01*
X151192586Y-145454796D01*
X151271170Y-145849864D01*
X151271170Y-146252676D01*
X151192586Y-146647744D01*
X151141721Y-146770542D01*
X151038437Y-147019893D01*
X150814647Y-147354818D01*
X150529818Y-147639647D01*
X150194893Y-147863437D01*
X150040744Y-147927287D01*
X149822744Y-148017586D01*
X149427676Y-148096170D01*
X149024864Y-148096170D01*
X148629796Y-148017586D01*
X148411796Y-147927287D01*
X148257647Y-147863437D01*
X147922722Y-147639647D01*
X147637893Y-147354818D01*
X147414103Y-147019893D01*
X147310819Y-146770542D01*
X147259954Y-146647744D01*
X147181370Y-146252676D01*
X147181370Y-145849864D01*
X147259954Y-145454796D01*
X147381708Y-145160856D01*
X147414103Y-145082647D01*
X147637893Y-144747722D01*
X147922722Y-144462893D01*
X148257647Y-144239103D01*
X148411796Y-144175253D01*
X148629796Y-144084954D01*
X149024864Y-144006370D01*
X149427676Y-144006370D01*
X149822744Y-144084954D01*
X149822744Y-144084954D01*
G37*
G36*
X130772744Y-144084954D02*
G01*
X130990744Y-144175253D01*
X131144893Y-144239103D01*
X131479818Y-144462893D01*
X131764647Y-144747722D01*
X131988437Y-145082647D01*
X132020832Y-145160856D01*
X132142586Y-145454796D01*
X132221170Y-145849864D01*
X132221170Y-146252676D01*
X132142586Y-146647744D01*
X132091721Y-146770542D01*
X131988437Y-147019893D01*
X131764647Y-147354818D01*
X131479818Y-147639647D01*
X131144893Y-147863437D01*
X130990744Y-147927287D01*
X130772744Y-148017586D01*
X130377676Y-148096170D01*
X129974864Y-148096170D01*
X129579796Y-148017586D01*
X129361796Y-147927287D01*
X129207647Y-147863437D01*
X128872722Y-147639647D01*
X128587893Y-147354818D01*
X128364103Y-147019893D01*
X128260819Y-146770542D01*
X128209954Y-146647744D01*
X128131370Y-146252676D01*
X128131370Y-145849864D01*
X128209954Y-145454796D01*
X128331708Y-145160856D01*
X128364103Y-145082647D01*
X128587893Y-144747722D01*
X128872722Y-144462893D01*
X129207647Y-144239103D01*
X129361796Y-144175253D01*
X129579796Y-144084954D01*
X129974864Y-144006370D01*
X130377676Y-144006370D01*
X130772744Y-144084954D01*
X130772744Y-144084954D01*
G37*
G36*
X187922744Y-144084954D02*
G01*
X188140744Y-144175253D01*
X188294893Y-144239103D01*
X188629818Y-144462893D01*
X188914647Y-144747722D01*
X189138437Y-145082647D01*
X189170832Y-145160856D01*
X189292586Y-145454796D01*
X189371170Y-145849864D01*
X189371170Y-146252676D01*
X189292586Y-146647744D01*
X189241721Y-146770542D01*
X189138437Y-147019893D01*
X188914647Y-147354818D01*
X188629818Y-147639647D01*
X188294893Y-147863437D01*
X188140744Y-147927287D01*
X187922744Y-148017586D01*
X187527676Y-148096170D01*
X187124864Y-148096170D01*
X186729796Y-148017586D01*
X186511796Y-147927287D01*
X186357647Y-147863437D01*
X186022722Y-147639647D01*
X185737893Y-147354818D01*
X185514103Y-147019893D01*
X185410819Y-146770542D01*
X185359954Y-146647744D01*
X185281370Y-146252676D01*
X185281370Y-145849864D01*
X185359954Y-145454796D01*
X185481708Y-145160856D01*
X185514103Y-145082647D01*
X185737893Y-144747722D01*
X186022722Y-144462893D01*
X186357647Y-144239103D01*
X186511796Y-144175253D01*
X186729796Y-144084954D01*
X187124864Y-144006370D01*
X187527676Y-144006370D01*
X187922744Y-144084954D01*
X187922744Y-144084954D01*
G37*
G36*
X168872744Y-144084954D02*
G01*
X169090744Y-144175253D01*
X169244893Y-144239103D01*
X169579818Y-144462893D01*
X169864647Y-144747722D01*
X170088437Y-145082647D01*
X170120832Y-145160856D01*
X170242586Y-145454796D01*
X170321170Y-145849864D01*
X170321170Y-146252676D01*
X170242586Y-146647744D01*
X170191721Y-146770542D01*
X170088437Y-147019893D01*
X169864647Y-147354818D01*
X169579818Y-147639647D01*
X169244893Y-147863437D01*
X169090744Y-147927287D01*
X168872744Y-148017586D01*
X168477676Y-148096170D01*
X168074864Y-148096170D01*
X167679796Y-148017586D01*
X167461796Y-147927287D01*
X167307647Y-147863437D01*
X166972722Y-147639647D01*
X166687893Y-147354818D01*
X166464103Y-147019893D01*
X166360819Y-146770542D01*
X166309954Y-146647744D01*
X166231370Y-146252676D01*
X166231370Y-145849864D01*
X166309954Y-145454796D01*
X166431708Y-145160856D01*
X166464103Y-145082647D01*
X166687893Y-144747722D01*
X166972722Y-144462893D01*
X167307647Y-144239103D01*
X167461796Y-144175253D01*
X167679796Y-144084954D01*
X168074864Y-144006370D01*
X168477676Y-144006370D01*
X168872744Y-144084954D01*
X168872744Y-144084954D01*
G37*
G36*
X173626374Y-145160855D02*
G01*
X173794896Y-145230659D01*
X173946561Y-145331998D01*
X174075542Y-145460979D01*
X174176881Y-145612644D01*
X174246685Y-145781166D01*
X174282270Y-145960067D01*
X174282270Y-146142473D01*
X174246685Y-146321374D01*
X174176881Y-146489896D01*
X174075542Y-146641561D01*
X173946561Y-146770542D01*
X173794896Y-146871881D01*
X173626374Y-146941685D01*
X173447473Y-146977270D01*
X173265067Y-146977270D01*
X173086166Y-146941685D01*
X172917644Y-146871881D01*
X172765979Y-146770542D01*
X172636998Y-146641561D01*
X172535659Y-146489896D01*
X172465855Y-146321374D01*
X172430270Y-146142473D01*
X172430270Y-145960067D01*
X172465855Y-145781166D01*
X172535659Y-145612644D01*
X172636998Y-145460979D01*
X172765979Y-145331998D01*
X172917644Y-145230659D01*
X173086166Y-145160855D01*
X173265067Y-145125270D01*
X173447473Y-145125270D01*
X173626374Y-145160855D01*
X173626374Y-145160855D01*
G37*
G36*
X182516374Y-145160855D02*
G01*
X182684896Y-145230659D01*
X182836561Y-145331998D01*
X182965542Y-145460979D01*
X183066881Y-145612644D01*
X183136685Y-145781166D01*
X183172270Y-145960067D01*
X183172270Y-146142473D01*
X183136685Y-146321374D01*
X183066881Y-146489896D01*
X182965542Y-146641561D01*
X182836561Y-146770542D01*
X182684896Y-146871881D01*
X182516374Y-146941685D01*
X182337473Y-146977270D01*
X182155067Y-146977270D01*
X181976166Y-146941685D01*
X181807644Y-146871881D01*
X181655979Y-146770542D01*
X181526998Y-146641561D01*
X181425659Y-146489896D01*
X181355855Y-146321374D01*
X181320270Y-146142473D01*
X181320270Y-145960067D01*
X181355855Y-145781166D01*
X181425659Y-145612644D01*
X181526998Y-145460979D01*
X181655979Y-145331998D01*
X181807644Y-145230659D01*
X181976166Y-145160855D01*
X182155067Y-145125270D01*
X182337473Y-145125270D01*
X182516374Y-145160855D01*
X182516374Y-145160855D01*
G37*
G36*
X163466374Y-145160855D02*
G01*
X163634896Y-145230659D01*
X163786561Y-145331998D01*
X163915542Y-145460979D01*
X164016881Y-145612644D01*
X164086685Y-145781166D01*
X164122270Y-145960067D01*
X164122270Y-146142473D01*
X164086685Y-146321374D01*
X164016881Y-146489896D01*
X163915542Y-146641561D01*
X163786561Y-146770542D01*
X163634896Y-146871881D01*
X163466374Y-146941685D01*
X163287473Y-146977270D01*
X163105067Y-146977270D01*
X162926166Y-146941685D01*
X162757644Y-146871881D01*
X162605979Y-146770542D01*
X162476998Y-146641561D01*
X162375659Y-146489896D01*
X162305855Y-146321374D01*
X162270270Y-146142473D01*
X162270270Y-145960067D01*
X162305855Y-145781166D01*
X162375659Y-145612644D01*
X162476998Y-145460979D01*
X162605979Y-145331998D01*
X162757644Y-145230659D01*
X162926166Y-145160855D01*
X163105067Y-145125270D01*
X163287473Y-145125270D01*
X163466374Y-145160855D01*
X163466374Y-145160855D01*
G37*
G36*
X154576374Y-145160855D02*
G01*
X154744896Y-145230659D01*
X154896561Y-145331998D01*
X155025542Y-145460979D01*
X155126881Y-145612644D01*
X155196685Y-145781166D01*
X155232270Y-145960067D01*
X155232270Y-146142473D01*
X155196685Y-146321374D01*
X155126881Y-146489896D01*
X155025542Y-146641561D01*
X154896561Y-146770542D01*
X154744896Y-146871881D01*
X154576374Y-146941685D01*
X154397473Y-146977270D01*
X154215067Y-146977270D01*
X154036166Y-146941685D01*
X153867644Y-146871881D01*
X153715979Y-146770542D01*
X153586998Y-146641561D01*
X153485659Y-146489896D01*
X153415855Y-146321374D01*
X153380270Y-146142473D01*
X153380270Y-145960067D01*
X153415855Y-145781166D01*
X153485659Y-145612644D01*
X153586998Y-145460979D01*
X153715979Y-145331998D01*
X153867644Y-145230659D01*
X154036166Y-145160855D01*
X154215067Y-145125270D01*
X154397473Y-145125270D01*
X154576374Y-145160855D01*
X154576374Y-145160855D01*
G37*
G36*
X144416374Y-145160855D02*
G01*
X144584896Y-145230659D01*
X144736561Y-145331998D01*
X144865542Y-145460979D01*
X144966881Y-145612644D01*
X145036685Y-145781166D01*
X145072270Y-145960067D01*
X145072270Y-146142473D01*
X145036685Y-146321374D01*
X144966881Y-146489896D01*
X144865542Y-146641561D01*
X144736561Y-146770542D01*
X144584896Y-146871881D01*
X144416374Y-146941685D01*
X144237473Y-146977270D01*
X144055067Y-146977270D01*
X143876166Y-146941685D01*
X143707644Y-146871881D01*
X143555979Y-146770542D01*
X143426998Y-146641561D01*
X143325659Y-146489896D01*
X143255855Y-146321374D01*
X143220270Y-146142473D01*
X143220270Y-145960067D01*
X143255855Y-145781166D01*
X143325659Y-145612644D01*
X143426998Y-145460979D01*
X143555979Y-145331998D01*
X143707644Y-145230659D01*
X143876166Y-145160855D01*
X144055067Y-145125270D01*
X144237473Y-145125270D01*
X144416374Y-145160855D01*
X144416374Y-145160855D01*
G37*
G36*
X135526374Y-145160855D02*
G01*
X135694896Y-145230659D01*
X135846561Y-145331998D01*
X135975542Y-145460979D01*
X136076881Y-145612644D01*
X136146685Y-145781166D01*
X136182270Y-145960067D01*
X136182270Y-146142473D01*
X136146685Y-146321374D01*
X136076881Y-146489896D01*
X135975542Y-146641561D01*
X135846561Y-146770542D01*
X135694896Y-146871881D01*
X135526374Y-146941685D01*
X135347473Y-146977270D01*
X135165067Y-146977270D01*
X134986166Y-146941685D01*
X134817644Y-146871881D01*
X134665979Y-146770542D01*
X134536998Y-146641561D01*
X134435659Y-146489896D01*
X134365855Y-146321374D01*
X134330270Y-146142473D01*
X134330270Y-145960067D01*
X134365855Y-145781166D01*
X134435659Y-145612644D01*
X134536998Y-145460979D01*
X134665979Y-145331998D01*
X134817644Y-145230659D01*
X134986166Y-145160855D01*
X135165067Y-145125270D01*
X135347473Y-145125270D01*
X135526374Y-145160855D01*
X135526374Y-145160855D01*
G37*
G36*
X125366374Y-145160855D02*
G01*
X125534896Y-145230659D01*
X125686561Y-145331998D01*
X125815542Y-145460979D01*
X125916881Y-145612644D01*
X125986685Y-145781166D01*
X126022270Y-145960067D01*
X126022270Y-146142473D01*
X125986685Y-146321374D01*
X125916881Y-146489896D01*
X125815542Y-146641561D01*
X125686561Y-146770542D01*
X125534896Y-146871881D01*
X125366374Y-146941685D01*
X125187473Y-146977270D01*
X125005067Y-146977270D01*
X124826166Y-146941685D01*
X124657644Y-146871881D01*
X124505979Y-146770542D01*
X124376998Y-146641561D01*
X124275659Y-146489896D01*
X124205855Y-146321374D01*
X124170270Y-146142473D01*
X124170270Y-145960067D01*
X124205855Y-145781166D01*
X124275659Y-145612644D01*
X124376998Y-145460979D01*
X124505979Y-145331998D01*
X124657644Y-145230659D01*
X124826166Y-145160855D01*
X125005067Y-145125270D01*
X125187473Y-145125270D01*
X125366374Y-145160855D01*
X125366374Y-145160855D01*
G37*
G36*
X192676374Y-145160855D02*
G01*
X192844896Y-145230659D01*
X192996561Y-145331998D01*
X193125542Y-145460979D01*
X193226881Y-145612644D01*
X193296685Y-145781166D01*
X193332270Y-145960067D01*
X193332270Y-146142473D01*
X193296685Y-146321374D01*
X193226881Y-146489896D01*
X193125542Y-146641561D01*
X192996561Y-146770542D01*
X192844896Y-146871881D01*
X192676374Y-146941685D01*
X192497473Y-146977270D01*
X192315067Y-146977270D01*
X192136166Y-146941685D01*
X191967644Y-146871881D01*
X191815979Y-146770542D01*
X191686998Y-146641561D01*
X191585659Y-146489896D01*
X191515855Y-146321374D01*
X191480270Y-146142473D01*
X191480270Y-145960067D01*
X191515855Y-145781166D01*
X191585659Y-145612644D01*
X191686998Y-145460979D01*
X191815979Y-145331998D01*
X191967644Y-145230659D01*
X192136166Y-145160855D01*
X192315067Y-145125270D01*
X192497473Y-145125270D01*
X192676374Y-145160855D01*
X192676374Y-145160855D01*
G37*
G36*
X130772744Y-125034954D02*
G01*
X130990744Y-125125253D01*
X131144893Y-125189103D01*
X131479818Y-125412893D01*
X131764647Y-125697722D01*
X131988437Y-126032647D01*
X132020832Y-126110856D01*
X132142586Y-126404796D01*
X132221170Y-126799864D01*
X132221170Y-127202676D01*
X132142586Y-127597744D01*
X132091721Y-127720542D01*
X131988437Y-127969893D01*
X131764647Y-128304818D01*
X131479818Y-128589647D01*
X131144893Y-128813437D01*
X130990744Y-128877287D01*
X130772744Y-128967586D01*
X130377676Y-129046170D01*
X129974864Y-129046170D01*
X129579796Y-128967586D01*
X129361796Y-128877287D01*
X129207647Y-128813437D01*
X128872722Y-128589647D01*
X128587893Y-128304818D01*
X128364103Y-127969893D01*
X128260819Y-127720542D01*
X128209954Y-127597744D01*
X128131370Y-127202676D01*
X128131370Y-126799864D01*
X128209954Y-126404796D01*
X128331708Y-126110856D01*
X128364103Y-126032647D01*
X128587893Y-125697722D01*
X128872722Y-125412893D01*
X129207647Y-125189103D01*
X129361796Y-125125253D01*
X129579796Y-125034954D01*
X129974864Y-124956370D01*
X130377676Y-124956370D01*
X130772744Y-125034954D01*
X130772744Y-125034954D01*
G37*
G36*
X187922744Y-125034954D02*
G01*
X188140744Y-125125253D01*
X188294893Y-125189103D01*
X188629818Y-125412893D01*
X188914647Y-125697722D01*
X189138437Y-126032647D01*
X189170832Y-126110856D01*
X189292586Y-126404796D01*
X189371170Y-126799864D01*
X189371170Y-127202676D01*
X189292586Y-127597744D01*
X189241721Y-127720542D01*
X189138437Y-127969893D01*
X188914647Y-128304818D01*
X188629818Y-128589647D01*
X188294893Y-128813437D01*
X188140744Y-128877287D01*
X187922744Y-128967586D01*
X187527676Y-129046170D01*
X187124864Y-129046170D01*
X186729796Y-128967586D01*
X186511796Y-128877287D01*
X186357647Y-128813437D01*
X186022722Y-128589647D01*
X185737893Y-128304818D01*
X185514103Y-127969893D01*
X185410819Y-127720542D01*
X185359954Y-127597744D01*
X185281370Y-127202676D01*
X185281370Y-126799864D01*
X185359954Y-126404796D01*
X185481708Y-126110856D01*
X185514103Y-126032647D01*
X185737893Y-125697722D01*
X186022722Y-125412893D01*
X186357647Y-125189103D01*
X186511796Y-125125253D01*
X186729796Y-125034954D01*
X187124864Y-124956370D01*
X187527676Y-124956370D01*
X187922744Y-125034954D01*
X187922744Y-125034954D01*
G37*
G36*
X168872744Y-125034954D02*
G01*
X169090744Y-125125253D01*
X169244893Y-125189103D01*
X169579818Y-125412893D01*
X169864647Y-125697722D01*
X170088437Y-126032647D01*
X170120832Y-126110856D01*
X170242586Y-126404796D01*
X170321170Y-126799864D01*
X170321170Y-127202676D01*
X170242586Y-127597744D01*
X170191721Y-127720542D01*
X170088437Y-127969893D01*
X169864647Y-128304818D01*
X169579818Y-128589647D01*
X169244893Y-128813437D01*
X169090744Y-128877287D01*
X168872744Y-128967586D01*
X168477676Y-129046170D01*
X168074864Y-129046170D01*
X167679796Y-128967586D01*
X167461796Y-128877287D01*
X167307647Y-128813437D01*
X166972722Y-128589647D01*
X166687893Y-128304818D01*
X166464103Y-127969893D01*
X166360819Y-127720542D01*
X166309954Y-127597744D01*
X166231370Y-127202676D01*
X166231370Y-126799864D01*
X166309954Y-126404796D01*
X166431708Y-126110856D01*
X166464103Y-126032647D01*
X166687893Y-125697722D01*
X166972722Y-125412893D01*
X167307647Y-125189103D01*
X167461796Y-125125253D01*
X167679796Y-125034954D01*
X168074864Y-124956370D01*
X168477676Y-124956370D01*
X168872744Y-125034954D01*
X168872744Y-125034954D01*
G37*
G36*
X149822744Y-125034954D02*
G01*
X150040744Y-125125253D01*
X150194893Y-125189103D01*
X150529818Y-125412893D01*
X150814647Y-125697722D01*
X151038437Y-126032647D01*
X151070832Y-126110856D01*
X151192586Y-126404796D01*
X151271170Y-126799864D01*
X151271170Y-127202676D01*
X151192586Y-127597744D01*
X151141721Y-127720542D01*
X151038437Y-127969893D01*
X150814647Y-128304818D01*
X150529818Y-128589647D01*
X150194893Y-128813437D01*
X150040744Y-128877287D01*
X149822744Y-128967586D01*
X149427676Y-129046170D01*
X149024864Y-129046170D01*
X148629796Y-128967586D01*
X148411796Y-128877287D01*
X148257647Y-128813437D01*
X147922722Y-128589647D01*
X147637893Y-128304818D01*
X147414103Y-127969893D01*
X147310819Y-127720542D01*
X147259954Y-127597744D01*
X147181370Y-127202676D01*
X147181370Y-126799864D01*
X147259954Y-126404796D01*
X147381708Y-126110856D01*
X147414103Y-126032647D01*
X147637893Y-125697722D01*
X147922722Y-125412893D01*
X148257647Y-125189103D01*
X148411796Y-125125253D01*
X148629796Y-125034954D01*
X149024864Y-124956370D01*
X149427676Y-124956370D01*
X149822744Y-125034954D01*
X149822744Y-125034954D01*
G37*
G36*
X135526374Y-126110855D02*
G01*
X135694896Y-126180659D01*
X135846561Y-126281998D01*
X135975542Y-126410979D01*
X136076881Y-126562644D01*
X136146685Y-126731166D01*
X136182270Y-126910067D01*
X136182270Y-127092473D01*
X136146685Y-127271374D01*
X136076881Y-127439896D01*
X135975542Y-127591561D01*
X135846561Y-127720542D01*
X135694896Y-127821881D01*
X135526374Y-127891685D01*
X135347473Y-127927270D01*
X135165067Y-127927270D01*
X134986166Y-127891685D01*
X134817644Y-127821881D01*
X134665979Y-127720542D01*
X134536998Y-127591561D01*
X134435659Y-127439896D01*
X134365855Y-127271374D01*
X134330270Y-127092473D01*
X134330270Y-126910067D01*
X134365855Y-126731166D01*
X134435659Y-126562644D01*
X134536998Y-126410979D01*
X134665979Y-126281998D01*
X134817644Y-126180659D01*
X134986166Y-126110855D01*
X135165067Y-126075270D01*
X135347473Y-126075270D01*
X135526374Y-126110855D01*
X135526374Y-126110855D01*
G37*
G36*
X125366374Y-126110855D02*
G01*
X125534896Y-126180659D01*
X125686561Y-126281998D01*
X125815542Y-126410979D01*
X125916881Y-126562644D01*
X125986685Y-126731166D01*
X126022270Y-126910067D01*
X126022270Y-127092473D01*
X125986685Y-127271374D01*
X125916881Y-127439896D01*
X125815542Y-127591561D01*
X125686561Y-127720542D01*
X125534896Y-127821881D01*
X125366374Y-127891685D01*
X125187473Y-127927270D01*
X125005067Y-127927270D01*
X124826166Y-127891685D01*
X124657644Y-127821881D01*
X124505979Y-127720542D01*
X124376998Y-127591561D01*
X124275659Y-127439896D01*
X124205855Y-127271374D01*
X124170270Y-127092473D01*
X124170270Y-126910067D01*
X124205855Y-126731166D01*
X124275659Y-126562644D01*
X124376998Y-126410979D01*
X124505979Y-126281998D01*
X124657644Y-126180659D01*
X124826166Y-126110855D01*
X125005067Y-126075270D01*
X125187473Y-126075270D01*
X125366374Y-126110855D01*
X125366374Y-126110855D01*
G37*
G36*
X144416374Y-126110855D02*
G01*
X144584896Y-126180659D01*
X144736561Y-126281998D01*
X144865542Y-126410979D01*
X144966881Y-126562644D01*
X145036685Y-126731166D01*
X145072270Y-126910067D01*
X145072270Y-127092473D01*
X145036685Y-127271374D01*
X144966881Y-127439896D01*
X144865542Y-127591561D01*
X144736561Y-127720542D01*
X144584896Y-127821881D01*
X144416374Y-127891685D01*
X144237473Y-127927270D01*
X144055067Y-127927270D01*
X143876166Y-127891685D01*
X143707644Y-127821881D01*
X143555979Y-127720542D01*
X143426998Y-127591561D01*
X143325659Y-127439896D01*
X143255855Y-127271374D01*
X143220270Y-127092473D01*
X143220270Y-126910067D01*
X143255855Y-126731166D01*
X143325659Y-126562644D01*
X143426998Y-126410979D01*
X143555979Y-126281998D01*
X143707644Y-126180659D01*
X143876166Y-126110855D01*
X144055067Y-126075270D01*
X144237473Y-126075270D01*
X144416374Y-126110855D01*
X144416374Y-126110855D01*
G37*
G36*
X154576374Y-126110855D02*
G01*
X154744896Y-126180659D01*
X154896561Y-126281998D01*
X155025542Y-126410979D01*
X155126881Y-126562644D01*
X155196685Y-126731166D01*
X155232270Y-126910067D01*
X155232270Y-127092473D01*
X155196685Y-127271374D01*
X155126881Y-127439896D01*
X155025542Y-127591561D01*
X154896561Y-127720542D01*
X154744896Y-127821881D01*
X154576374Y-127891685D01*
X154397473Y-127927270D01*
X154215067Y-127927270D01*
X154036166Y-127891685D01*
X153867644Y-127821881D01*
X153715979Y-127720542D01*
X153586998Y-127591561D01*
X153485659Y-127439896D01*
X153415855Y-127271374D01*
X153380270Y-127092473D01*
X153380270Y-126910067D01*
X153415855Y-126731166D01*
X153485659Y-126562644D01*
X153586998Y-126410979D01*
X153715979Y-126281998D01*
X153867644Y-126180659D01*
X154036166Y-126110855D01*
X154215067Y-126075270D01*
X154397473Y-126075270D01*
X154576374Y-126110855D01*
X154576374Y-126110855D01*
G37*
G36*
X173626374Y-126110855D02*
G01*
X173794896Y-126180659D01*
X173946561Y-126281998D01*
X174075542Y-126410979D01*
X174176881Y-126562644D01*
X174246685Y-126731166D01*
X174282270Y-126910067D01*
X174282270Y-127092473D01*
X174246685Y-127271374D01*
X174176881Y-127439896D01*
X174075542Y-127591561D01*
X173946561Y-127720542D01*
X173794896Y-127821881D01*
X173626374Y-127891685D01*
X173447473Y-127927270D01*
X173265067Y-127927270D01*
X173086166Y-127891685D01*
X172917644Y-127821881D01*
X172765979Y-127720542D01*
X172636998Y-127591561D01*
X172535659Y-127439896D01*
X172465855Y-127271374D01*
X172430270Y-127092473D01*
X172430270Y-126910067D01*
X172465855Y-126731166D01*
X172535659Y-126562644D01*
X172636998Y-126410979D01*
X172765979Y-126281998D01*
X172917644Y-126180659D01*
X173086166Y-126110855D01*
X173265067Y-126075270D01*
X173447473Y-126075270D01*
X173626374Y-126110855D01*
X173626374Y-126110855D01*
G37*
G36*
X192676374Y-126110855D02*
G01*
X192844896Y-126180659D01*
X192996561Y-126281998D01*
X193125542Y-126410979D01*
X193226881Y-126562644D01*
X193296685Y-126731166D01*
X193332270Y-126910067D01*
X193332270Y-127092473D01*
X193296685Y-127271374D01*
X193226881Y-127439896D01*
X193125542Y-127591561D01*
X192996561Y-127720542D01*
X192844896Y-127821881D01*
X192676374Y-127891685D01*
X192497473Y-127927270D01*
X192315067Y-127927270D01*
X192136166Y-127891685D01*
X191967644Y-127821881D01*
X191815979Y-127720542D01*
X191686998Y-127591561D01*
X191585659Y-127439896D01*
X191515855Y-127271374D01*
X191480270Y-127092473D01*
X191480270Y-126910067D01*
X191515855Y-126731166D01*
X191585659Y-126562644D01*
X191686998Y-126410979D01*
X191815979Y-126281998D01*
X191967644Y-126180659D01*
X192136166Y-126110855D01*
X192315067Y-126075270D01*
X192497473Y-126075270D01*
X192676374Y-126110855D01*
X192676374Y-126110855D01*
G37*
G36*
X182516374Y-126110855D02*
G01*
X182684896Y-126180659D01*
X182836561Y-126281998D01*
X182965542Y-126410979D01*
X183066881Y-126562644D01*
X183136685Y-126731166D01*
X183172270Y-126910067D01*
X183172270Y-127092473D01*
X183136685Y-127271374D01*
X183066881Y-127439896D01*
X182965542Y-127591561D01*
X182836561Y-127720542D01*
X182684896Y-127821881D01*
X182516374Y-127891685D01*
X182337473Y-127927270D01*
X182155067Y-127927270D01*
X181976166Y-127891685D01*
X181807644Y-127821881D01*
X181655979Y-127720542D01*
X181526998Y-127591561D01*
X181425659Y-127439896D01*
X181355855Y-127271374D01*
X181320270Y-127092473D01*
X181320270Y-126910067D01*
X181355855Y-126731166D01*
X181425659Y-126562644D01*
X181526998Y-126410979D01*
X181655979Y-126281998D01*
X181807644Y-126180659D01*
X181976166Y-126110855D01*
X182155067Y-126075270D01*
X182337473Y-126075270D01*
X182516374Y-126110855D01*
X182516374Y-126110855D01*
G37*
G36*
X163466374Y-126110855D02*
G01*
X163634896Y-126180659D01*
X163786561Y-126281998D01*
X163915542Y-126410979D01*
X164016881Y-126562644D01*
X164086685Y-126731166D01*
X164122270Y-126910067D01*
X164122270Y-127092473D01*
X164086685Y-127271374D01*
X164016881Y-127439896D01*
X163915542Y-127591561D01*
X163786561Y-127720542D01*
X163634896Y-127821881D01*
X163466374Y-127891685D01*
X163287473Y-127927270D01*
X163105067Y-127927270D01*
X162926166Y-127891685D01*
X162757644Y-127821881D01*
X162605979Y-127720542D01*
X162476998Y-127591561D01*
X162375659Y-127439896D01*
X162305855Y-127271374D01*
X162270270Y-127092473D01*
X162270270Y-126910067D01*
X162305855Y-126731166D01*
X162375659Y-126562644D01*
X162476998Y-126410979D01*
X162605979Y-126281998D01*
X162757644Y-126180659D01*
X162926166Y-126110855D01*
X163105067Y-126075270D01*
X163287473Y-126075270D01*
X163466374Y-126110855D01*
X163466374Y-126110855D01*
G37*
G36*
X130772744Y-105984954D02*
G01*
X130990744Y-106075253D01*
X131144893Y-106139103D01*
X131479818Y-106362893D01*
X131764647Y-106647722D01*
X131988437Y-106982647D01*
X132020832Y-107060856D01*
X132142586Y-107354796D01*
X132221170Y-107749864D01*
X132221170Y-108152676D01*
X132142586Y-108547744D01*
X132091721Y-108670542D01*
X131988437Y-108919893D01*
X131764647Y-109254818D01*
X131479818Y-109539647D01*
X131144893Y-109763437D01*
X130990744Y-109827287D01*
X130772744Y-109917586D01*
X130377676Y-109996170D01*
X129974864Y-109996170D01*
X129579796Y-109917586D01*
X129361796Y-109827287D01*
X129207647Y-109763437D01*
X128872722Y-109539647D01*
X128587893Y-109254818D01*
X128364103Y-108919893D01*
X128260819Y-108670542D01*
X128209954Y-108547744D01*
X128131370Y-108152676D01*
X128131370Y-107749864D01*
X128209954Y-107354796D01*
X128331708Y-107060856D01*
X128364103Y-106982647D01*
X128587893Y-106647722D01*
X128872722Y-106362893D01*
X129207647Y-106139103D01*
X129361796Y-106075253D01*
X129579796Y-105984954D01*
X129974864Y-105906370D01*
X130377676Y-105906370D01*
X130772744Y-105984954D01*
X130772744Y-105984954D01*
G37*
G36*
X149822744Y-105984954D02*
G01*
X150040744Y-106075253D01*
X150194893Y-106139103D01*
X150529818Y-106362893D01*
X150814647Y-106647722D01*
X151038437Y-106982647D01*
X151070832Y-107060856D01*
X151192586Y-107354796D01*
X151271170Y-107749864D01*
X151271170Y-108152676D01*
X151192586Y-108547744D01*
X151141721Y-108670542D01*
X151038437Y-108919893D01*
X150814647Y-109254818D01*
X150529818Y-109539647D01*
X150194893Y-109763437D01*
X150040744Y-109827287D01*
X149822744Y-109917586D01*
X149427676Y-109996170D01*
X149024864Y-109996170D01*
X148629796Y-109917586D01*
X148411796Y-109827287D01*
X148257647Y-109763437D01*
X147922722Y-109539647D01*
X147637893Y-109254818D01*
X147414103Y-108919893D01*
X147310819Y-108670542D01*
X147259954Y-108547744D01*
X147181370Y-108152676D01*
X147181370Y-107749864D01*
X147259954Y-107354796D01*
X147381708Y-107060856D01*
X147414103Y-106982647D01*
X147637893Y-106647722D01*
X147922722Y-106362893D01*
X148257647Y-106139103D01*
X148411796Y-106075253D01*
X148629796Y-105984954D01*
X149024864Y-105906370D01*
X149427676Y-105906370D01*
X149822744Y-105984954D01*
X149822744Y-105984954D01*
G37*
G36*
X168872744Y-105984954D02*
G01*
X169090744Y-106075253D01*
X169244893Y-106139103D01*
X169579818Y-106362893D01*
X169864647Y-106647722D01*
X170088437Y-106982647D01*
X170120832Y-107060856D01*
X170242586Y-107354796D01*
X170321170Y-107749864D01*
X170321170Y-108152676D01*
X170242586Y-108547744D01*
X170191721Y-108670542D01*
X170088437Y-108919893D01*
X169864647Y-109254818D01*
X169579818Y-109539647D01*
X169244893Y-109763437D01*
X169090744Y-109827287D01*
X168872744Y-109917586D01*
X168477676Y-109996170D01*
X168074864Y-109996170D01*
X167679796Y-109917586D01*
X167461796Y-109827287D01*
X167307647Y-109763437D01*
X166972722Y-109539647D01*
X166687893Y-109254818D01*
X166464103Y-108919893D01*
X166360819Y-108670542D01*
X166309954Y-108547744D01*
X166231370Y-108152676D01*
X166231370Y-107749864D01*
X166309954Y-107354796D01*
X166431708Y-107060856D01*
X166464103Y-106982647D01*
X166687893Y-106647722D01*
X166972722Y-106362893D01*
X167307647Y-106139103D01*
X167461796Y-106075253D01*
X167679796Y-105984954D01*
X168074864Y-105906370D01*
X168477676Y-105906370D01*
X168872744Y-105984954D01*
X168872744Y-105984954D01*
G37*
G36*
X187922744Y-105984954D02*
G01*
X188140744Y-106075253D01*
X188294893Y-106139103D01*
X188629818Y-106362893D01*
X188914647Y-106647722D01*
X189138437Y-106982647D01*
X189170832Y-107060856D01*
X189292586Y-107354796D01*
X189371170Y-107749864D01*
X189371170Y-108152676D01*
X189292586Y-108547744D01*
X189241721Y-108670542D01*
X189138437Y-108919893D01*
X188914647Y-109254818D01*
X188629818Y-109539647D01*
X188294893Y-109763437D01*
X188140744Y-109827287D01*
X187922744Y-109917586D01*
X187527676Y-109996170D01*
X187124864Y-109996170D01*
X186729796Y-109917586D01*
X186511796Y-109827287D01*
X186357647Y-109763437D01*
X186022722Y-109539647D01*
X185737893Y-109254818D01*
X185514103Y-108919893D01*
X185410819Y-108670542D01*
X185359954Y-108547744D01*
X185281370Y-108152676D01*
X185281370Y-107749864D01*
X185359954Y-107354796D01*
X185481708Y-107060856D01*
X185514103Y-106982647D01*
X185737893Y-106647722D01*
X186022722Y-106362893D01*
X186357647Y-106139103D01*
X186511796Y-106075253D01*
X186729796Y-105984954D01*
X187124864Y-105906370D01*
X187527676Y-105906370D01*
X187922744Y-105984954D01*
X187922744Y-105984954D01*
G37*
G36*
X163466374Y-107060855D02*
G01*
X163634896Y-107130659D01*
X163786561Y-107231998D01*
X163915542Y-107360979D01*
X164016881Y-107512644D01*
X164086685Y-107681166D01*
X164122270Y-107860067D01*
X164122270Y-108042473D01*
X164086685Y-108221374D01*
X164016881Y-108389896D01*
X163915542Y-108541561D01*
X163786561Y-108670542D01*
X163634896Y-108771881D01*
X163466374Y-108841685D01*
X163287473Y-108877270D01*
X163105067Y-108877270D01*
X162926166Y-108841685D01*
X162757644Y-108771881D01*
X162605979Y-108670542D01*
X162476998Y-108541561D01*
X162375659Y-108389896D01*
X162305855Y-108221374D01*
X162270270Y-108042473D01*
X162270270Y-107860067D01*
X162305855Y-107681166D01*
X162375659Y-107512644D01*
X162476998Y-107360979D01*
X162605979Y-107231998D01*
X162757644Y-107130659D01*
X162926166Y-107060855D01*
X163105067Y-107025270D01*
X163287473Y-107025270D01*
X163466374Y-107060855D01*
X163466374Y-107060855D01*
G37*
G36*
X192676374Y-107060855D02*
G01*
X192844896Y-107130659D01*
X192996561Y-107231998D01*
X193125542Y-107360979D01*
X193226881Y-107512644D01*
X193296685Y-107681166D01*
X193332270Y-107860067D01*
X193332270Y-108042473D01*
X193296685Y-108221374D01*
X193226881Y-108389896D01*
X193125542Y-108541561D01*
X192996561Y-108670542D01*
X192844896Y-108771881D01*
X192676374Y-108841685D01*
X192497473Y-108877270D01*
X192315067Y-108877270D01*
X192136166Y-108841685D01*
X191967644Y-108771881D01*
X191815979Y-108670542D01*
X191686998Y-108541561D01*
X191585659Y-108389896D01*
X191515855Y-108221374D01*
X191480270Y-108042473D01*
X191480270Y-107860067D01*
X191515855Y-107681166D01*
X191585659Y-107512644D01*
X191686998Y-107360979D01*
X191815979Y-107231998D01*
X191967644Y-107130659D01*
X192136166Y-107060855D01*
X192315067Y-107025270D01*
X192497473Y-107025270D01*
X192676374Y-107060855D01*
X192676374Y-107060855D01*
G37*
G36*
X182516374Y-107060855D02*
G01*
X182684896Y-107130659D01*
X182836561Y-107231998D01*
X182965542Y-107360979D01*
X183066881Y-107512644D01*
X183136685Y-107681166D01*
X183172270Y-107860067D01*
X183172270Y-108042473D01*
X183136685Y-108221374D01*
X183066881Y-108389896D01*
X182965542Y-108541561D01*
X182836561Y-108670542D01*
X182684896Y-108771881D01*
X182516374Y-108841685D01*
X182337473Y-108877270D01*
X182155067Y-108877270D01*
X181976166Y-108841685D01*
X181807644Y-108771881D01*
X181655979Y-108670542D01*
X181526998Y-108541561D01*
X181425659Y-108389896D01*
X181355855Y-108221374D01*
X181320270Y-108042473D01*
X181320270Y-107860067D01*
X181355855Y-107681166D01*
X181425659Y-107512644D01*
X181526998Y-107360979D01*
X181655979Y-107231998D01*
X181807644Y-107130659D01*
X181976166Y-107060855D01*
X182155067Y-107025270D01*
X182337473Y-107025270D01*
X182516374Y-107060855D01*
X182516374Y-107060855D01*
G37*
G36*
X173626374Y-107060855D02*
G01*
X173794896Y-107130659D01*
X173946561Y-107231998D01*
X174075542Y-107360979D01*
X174176881Y-107512644D01*
X174246685Y-107681166D01*
X174282270Y-107860067D01*
X174282270Y-108042473D01*
X174246685Y-108221374D01*
X174176881Y-108389896D01*
X174075542Y-108541561D01*
X173946561Y-108670542D01*
X173794896Y-108771881D01*
X173626374Y-108841685D01*
X173447473Y-108877270D01*
X173265067Y-108877270D01*
X173086166Y-108841685D01*
X172917644Y-108771881D01*
X172765979Y-108670542D01*
X172636998Y-108541561D01*
X172535659Y-108389896D01*
X172465855Y-108221374D01*
X172430270Y-108042473D01*
X172430270Y-107860067D01*
X172465855Y-107681166D01*
X172535659Y-107512644D01*
X172636998Y-107360979D01*
X172765979Y-107231998D01*
X172917644Y-107130659D01*
X173086166Y-107060855D01*
X173265067Y-107025270D01*
X173447473Y-107025270D01*
X173626374Y-107060855D01*
X173626374Y-107060855D01*
G37*
G36*
X154576374Y-107060855D02*
G01*
X154744896Y-107130659D01*
X154896561Y-107231998D01*
X155025542Y-107360979D01*
X155126881Y-107512644D01*
X155196685Y-107681166D01*
X155232270Y-107860067D01*
X155232270Y-108042473D01*
X155196685Y-108221374D01*
X155126881Y-108389896D01*
X155025542Y-108541561D01*
X154896561Y-108670542D01*
X154744896Y-108771881D01*
X154576374Y-108841685D01*
X154397473Y-108877270D01*
X154215067Y-108877270D01*
X154036166Y-108841685D01*
X153867644Y-108771881D01*
X153715979Y-108670542D01*
X153586998Y-108541561D01*
X153485659Y-108389896D01*
X153415855Y-108221374D01*
X153380270Y-108042473D01*
X153380270Y-107860067D01*
X153415855Y-107681166D01*
X153485659Y-107512644D01*
X153586998Y-107360979D01*
X153715979Y-107231998D01*
X153867644Y-107130659D01*
X154036166Y-107060855D01*
X154215067Y-107025270D01*
X154397473Y-107025270D01*
X154576374Y-107060855D01*
X154576374Y-107060855D01*
G37*
G36*
X135526374Y-107060855D02*
G01*
X135694896Y-107130659D01*
X135846561Y-107231998D01*
X135975542Y-107360979D01*
X136076881Y-107512644D01*
X136146685Y-107681166D01*
X136182270Y-107860067D01*
X136182270Y-108042473D01*
X136146685Y-108221374D01*
X136076881Y-108389896D01*
X135975542Y-108541561D01*
X135846561Y-108670542D01*
X135694896Y-108771881D01*
X135526374Y-108841685D01*
X135347473Y-108877270D01*
X135165067Y-108877270D01*
X134986166Y-108841685D01*
X134817644Y-108771881D01*
X134665979Y-108670542D01*
X134536998Y-108541561D01*
X134435659Y-108389896D01*
X134365855Y-108221374D01*
X134330270Y-108042473D01*
X134330270Y-107860067D01*
X134365855Y-107681166D01*
X134435659Y-107512644D01*
X134536998Y-107360979D01*
X134665979Y-107231998D01*
X134817644Y-107130659D01*
X134986166Y-107060855D01*
X135165067Y-107025270D01*
X135347473Y-107025270D01*
X135526374Y-107060855D01*
X135526374Y-107060855D01*
G37*
G36*
X125366374Y-107060855D02*
G01*
X125534896Y-107130659D01*
X125686561Y-107231998D01*
X125815542Y-107360979D01*
X125916881Y-107512644D01*
X125986685Y-107681166D01*
X126022270Y-107860067D01*
X126022270Y-108042473D01*
X125986685Y-108221374D01*
X125916881Y-108389896D01*
X125815542Y-108541561D01*
X125686561Y-108670542D01*
X125534896Y-108771881D01*
X125366374Y-108841685D01*
X125187473Y-108877270D01*
X125005067Y-108877270D01*
X124826166Y-108841685D01*
X124657644Y-108771881D01*
X124505979Y-108670542D01*
X124376998Y-108541561D01*
X124275659Y-108389896D01*
X124205855Y-108221374D01*
X124170270Y-108042473D01*
X124170270Y-107860067D01*
X124205855Y-107681166D01*
X124275659Y-107512644D01*
X124376998Y-107360979D01*
X124505979Y-107231998D01*
X124657644Y-107130659D01*
X124826166Y-107060855D01*
X125005067Y-107025270D01*
X125187473Y-107025270D01*
X125366374Y-107060855D01*
X125366374Y-107060855D01*
G37*
G36*
X144416374Y-107060855D02*
G01*
X144584896Y-107130659D01*
X144736561Y-107231998D01*
X144865542Y-107360979D01*
X144966881Y-107512644D01*
X145036685Y-107681166D01*
X145072270Y-107860067D01*
X145072270Y-108042473D01*
X145036685Y-108221374D01*
X144966881Y-108389896D01*
X144865542Y-108541561D01*
X144736561Y-108670542D01*
X144584896Y-108771881D01*
X144416374Y-108841685D01*
X144237473Y-108877270D01*
X144055067Y-108877270D01*
X143876166Y-108841685D01*
X143707644Y-108771881D01*
X143555979Y-108670542D01*
X143426998Y-108541561D01*
X143325659Y-108389896D01*
X143255855Y-108221374D01*
X143220270Y-108042473D01*
X143220270Y-107860067D01*
X143255855Y-107681166D01*
X143325659Y-107512644D01*
X143426998Y-107360979D01*
X143555979Y-107231998D01*
X143707644Y-107130659D01*
X143876166Y-107060855D01*
X144055067Y-107025270D01*
X144237473Y-107025270D01*
X144416374Y-107060855D01*
X144416374Y-107060855D01*
G37*
G36*
X130772744Y-86934954D02*
G01*
X130990744Y-87025253D01*
X131144893Y-87089103D01*
X131479818Y-87312893D01*
X131764647Y-87597722D01*
X131988437Y-87932647D01*
X132020832Y-88010856D01*
X132142586Y-88304796D01*
X132221170Y-88699864D01*
X132221170Y-89102676D01*
X132142586Y-89497744D01*
X132091721Y-89620542D01*
X131988437Y-89869893D01*
X131764647Y-90204818D01*
X131479818Y-90489647D01*
X131144893Y-90713437D01*
X130990744Y-90777287D01*
X130772744Y-90867586D01*
X130377676Y-90946170D01*
X129974864Y-90946170D01*
X129579796Y-90867586D01*
X129361796Y-90777287D01*
X129207647Y-90713437D01*
X128872722Y-90489647D01*
X128587893Y-90204818D01*
X128364103Y-89869893D01*
X128260819Y-89620542D01*
X128209954Y-89497744D01*
X128131370Y-89102676D01*
X128131370Y-88699864D01*
X128209954Y-88304796D01*
X128331708Y-88010856D01*
X128364103Y-87932647D01*
X128587893Y-87597722D01*
X128872722Y-87312893D01*
X129207647Y-87089103D01*
X129361796Y-87025253D01*
X129579796Y-86934954D01*
X129974864Y-86856370D01*
X130377676Y-86856370D01*
X130772744Y-86934954D01*
X130772744Y-86934954D01*
G37*
G36*
X187922744Y-86934954D02*
G01*
X188140744Y-87025253D01*
X188294893Y-87089103D01*
X188629818Y-87312893D01*
X188914647Y-87597722D01*
X189138437Y-87932647D01*
X189170832Y-88010856D01*
X189292586Y-88304796D01*
X189371170Y-88699864D01*
X189371170Y-89102676D01*
X189292586Y-89497744D01*
X189241721Y-89620542D01*
X189138437Y-89869893D01*
X188914647Y-90204818D01*
X188629818Y-90489647D01*
X188294893Y-90713437D01*
X188140744Y-90777287D01*
X187922744Y-90867586D01*
X187527676Y-90946170D01*
X187124864Y-90946170D01*
X186729796Y-90867586D01*
X186511796Y-90777287D01*
X186357647Y-90713437D01*
X186022722Y-90489647D01*
X185737893Y-90204818D01*
X185514103Y-89869893D01*
X185410819Y-89620542D01*
X185359954Y-89497744D01*
X185281370Y-89102676D01*
X185281370Y-88699864D01*
X185359954Y-88304796D01*
X185481708Y-88010856D01*
X185514103Y-87932647D01*
X185737893Y-87597722D01*
X186022722Y-87312893D01*
X186357647Y-87089103D01*
X186511796Y-87025253D01*
X186729796Y-86934954D01*
X187124864Y-86856370D01*
X187527676Y-86856370D01*
X187922744Y-86934954D01*
X187922744Y-86934954D01*
G37*
G36*
X168872744Y-86934954D02*
G01*
X169090744Y-87025253D01*
X169244893Y-87089103D01*
X169579818Y-87312893D01*
X169864647Y-87597722D01*
X170088437Y-87932647D01*
X170120832Y-88010856D01*
X170242586Y-88304796D01*
X170321170Y-88699864D01*
X170321170Y-89102676D01*
X170242586Y-89497744D01*
X170191721Y-89620542D01*
X170088437Y-89869893D01*
X169864647Y-90204818D01*
X169579818Y-90489647D01*
X169244893Y-90713437D01*
X169090744Y-90777287D01*
X168872744Y-90867586D01*
X168477676Y-90946170D01*
X168074864Y-90946170D01*
X167679796Y-90867586D01*
X167461796Y-90777287D01*
X167307647Y-90713437D01*
X166972722Y-90489647D01*
X166687893Y-90204818D01*
X166464103Y-89869893D01*
X166360819Y-89620542D01*
X166309954Y-89497744D01*
X166231370Y-89102676D01*
X166231370Y-88699864D01*
X166309954Y-88304796D01*
X166431708Y-88010856D01*
X166464103Y-87932647D01*
X166687893Y-87597722D01*
X166972722Y-87312893D01*
X167307647Y-87089103D01*
X167461796Y-87025253D01*
X167679796Y-86934954D01*
X168074864Y-86856370D01*
X168477676Y-86856370D01*
X168872744Y-86934954D01*
X168872744Y-86934954D01*
G37*
G36*
X149822744Y-86934954D02*
G01*
X150040744Y-87025253D01*
X150194893Y-87089103D01*
X150529818Y-87312893D01*
X150814647Y-87597722D01*
X151038437Y-87932647D01*
X151070832Y-88010856D01*
X151192586Y-88304796D01*
X151271170Y-88699864D01*
X151271170Y-89102676D01*
X151192586Y-89497744D01*
X151141721Y-89620542D01*
X151038437Y-89869893D01*
X150814647Y-90204818D01*
X150529818Y-90489647D01*
X150194893Y-90713437D01*
X150040744Y-90777287D01*
X149822744Y-90867586D01*
X149427676Y-90946170D01*
X149024864Y-90946170D01*
X148629796Y-90867586D01*
X148411796Y-90777287D01*
X148257647Y-90713437D01*
X147922722Y-90489647D01*
X147637893Y-90204818D01*
X147414103Y-89869893D01*
X147310819Y-89620542D01*
X147259954Y-89497744D01*
X147181370Y-89102676D01*
X147181370Y-88699864D01*
X147259954Y-88304796D01*
X147381708Y-88010856D01*
X147414103Y-87932647D01*
X147637893Y-87597722D01*
X147922722Y-87312893D01*
X148257647Y-87089103D01*
X148411796Y-87025253D01*
X148629796Y-86934954D01*
X149024864Y-86856370D01*
X149427676Y-86856370D01*
X149822744Y-86934954D01*
X149822744Y-86934954D01*
G37*
G36*
X125366374Y-88010855D02*
G01*
X125534896Y-88080659D01*
X125686561Y-88181998D01*
X125815542Y-88310979D01*
X125916881Y-88462644D01*
X125986685Y-88631166D01*
X126022270Y-88810067D01*
X126022270Y-88992473D01*
X125986685Y-89171374D01*
X125916881Y-89339896D01*
X125815542Y-89491561D01*
X125686561Y-89620542D01*
X125534896Y-89721881D01*
X125366374Y-89791685D01*
X125187473Y-89827270D01*
X125005067Y-89827270D01*
X124826166Y-89791685D01*
X124657644Y-89721881D01*
X124505979Y-89620542D01*
X124376998Y-89491561D01*
X124275659Y-89339896D01*
X124205855Y-89171374D01*
X124170270Y-88992473D01*
X124170270Y-88810067D01*
X124205855Y-88631166D01*
X124275659Y-88462644D01*
X124376998Y-88310979D01*
X124505979Y-88181998D01*
X124657644Y-88080659D01*
X124826166Y-88010855D01*
X125005067Y-87975270D01*
X125187473Y-87975270D01*
X125366374Y-88010855D01*
X125366374Y-88010855D01*
G37*
G36*
X135526374Y-88010855D02*
G01*
X135694896Y-88080659D01*
X135846561Y-88181998D01*
X135975542Y-88310979D01*
X136076881Y-88462644D01*
X136146685Y-88631166D01*
X136182270Y-88810067D01*
X136182270Y-88992473D01*
X136146685Y-89171374D01*
X136076881Y-89339896D01*
X135975542Y-89491561D01*
X135846561Y-89620542D01*
X135694896Y-89721881D01*
X135526374Y-89791685D01*
X135347473Y-89827270D01*
X135165067Y-89827270D01*
X134986166Y-89791685D01*
X134817644Y-89721881D01*
X134665979Y-89620542D01*
X134536998Y-89491561D01*
X134435659Y-89339896D01*
X134365855Y-89171374D01*
X134330270Y-88992473D01*
X134330270Y-88810067D01*
X134365855Y-88631166D01*
X134435659Y-88462644D01*
X134536998Y-88310979D01*
X134665979Y-88181998D01*
X134817644Y-88080659D01*
X134986166Y-88010855D01*
X135165067Y-87975270D01*
X135347473Y-87975270D01*
X135526374Y-88010855D01*
X135526374Y-88010855D01*
G37*
G36*
X144416374Y-88010855D02*
G01*
X144584896Y-88080659D01*
X144736561Y-88181998D01*
X144865542Y-88310979D01*
X144966881Y-88462644D01*
X145036685Y-88631166D01*
X145072270Y-88810067D01*
X145072270Y-88992473D01*
X145036685Y-89171374D01*
X144966881Y-89339896D01*
X144865542Y-89491561D01*
X144736561Y-89620542D01*
X144584896Y-89721881D01*
X144416374Y-89791685D01*
X144237473Y-89827270D01*
X144055067Y-89827270D01*
X143876166Y-89791685D01*
X143707644Y-89721881D01*
X143555979Y-89620542D01*
X143426998Y-89491561D01*
X143325659Y-89339896D01*
X143255855Y-89171374D01*
X143220270Y-88992473D01*
X143220270Y-88810067D01*
X143255855Y-88631166D01*
X143325659Y-88462644D01*
X143426998Y-88310979D01*
X143555979Y-88181998D01*
X143707644Y-88080659D01*
X143876166Y-88010855D01*
X144055067Y-87975270D01*
X144237473Y-87975270D01*
X144416374Y-88010855D01*
X144416374Y-88010855D01*
G37*
G36*
X154576374Y-88010855D02*
G01*
X154744896Y-88080659D01*
X154896561Y-88181998D01*
X155025542Y-88310979D01*
X155126881Y-88462644D01*
X155196685Y-88631166D01*
X155232270Y-88810067D01*
X155232270Y-88992473D01*
X155196685Y-89171374D01*
X155126881Y-89339896D01*
X155025542Y-89491561D01*
X154896561Y-89620542D01*
X154744896Y-89721881D01*
X154576374Y-89791685D01*
X154397473Y-89827270D01*
X154215067Y-89827270D01*
X154036166Y-89791685D01*
X153867644Y-89721881D01*
X153715979Y-89620542D01*
X153586998Y-89491561D01*
X153485659Y-89339896D01*
X153415855Y-89171374D01*
X153380270Y-88992473D01*
X153380270Y-88810067D01*
X153415855Y-88631166D01*
X153485659Y-88462644D01*
X153586998Y-88310979D01*
X153715979Y-88181998D01*
X153867644Y-88080659D01*
X154036166Y-88010855D01*
X154215067Y-87975270D01*
X154397473Y-87975270D01*
X154576374Y-88010855D01*
X154576374Y-88010855D01*
G37*
G36*
X173626374Y-88010855D02*
G01*
X173794896Y-88080659D01*
X173946561Y-88181998D01*
X174075542Y-88310979D01*
X174176881Y-88462644D01*
X174246685Y-88631166D01*
X174282270Y-88810067D01*
X174282270Y-88992473D01*
X174246685Y-89171374D01*
X174176881Y-89339896D01*
X174075542Y-89491561D01*
X173946561Y-89620542D01*
X173794896Y-89721881D01*
X173626374Y-89791685D01*
X173447473Y-89827270D01*
X173265067Y-89827270D01*
X173086166Y-89791685D01*
X172917644Y-89721881D01*
X172765979Y-89620542D01*
X172636998Y-89491561D01*
X172535659Y-89339896D01*
X172465855Y-89171374D01*
X172430270Y-88992473D01*
X172430270Y-88810067D01*
X172465855Y-88631166D01*
X172535659Y-88462644D01*
X172636998Y-88310979D01*
X172765979Y-88181998D01*
X172917644Y-88080659D01*
X173086166Y-88010855D01*
X173265067Y-87975270D01*
X173447473Y-87975270D01*
X173626374Y-88010855D01*
X173626374Y-88010855D01*
G37*
G36*
X163466374Y-88010855D02*
G01*
X163634896Y-88080659D01*
X163786561Y-88181998D01*
X163915542Y-88310979D01*
X164016881Y-88462644D01*
X164086685Y-88631166D01*
X164122270Y-88810067D01*
X164122270Y-88992473D01*
X164086685Y-89171374D01*
X164016881Y-89339896D01*
X163915542Y-89491561D01*
X163786561Y-89620542D01*
X163634896Y-89721881D01*
X163466374Y-89791685D01*
X163287473Y-89827270D01*
X163105067Y-89827270D01*
X162926166Y-89791685D01*
X162757644Y-89721881D01*
X162605979Y-89620542D01*
X162476998Y-89491561D01*
X162375659Y-89339896D01*
X162305855Y-89171374D01*
X162270270Y-88992473D01*
X162270270Y-88810067D01*
X162305855Y-88631166D01*
X162375659Y-88462644D01*
X162476998Y-88310979D01*
X162605979Y-88181998D01*
X162757644Y-88080659D01*
X162926166Y-88010855D01*
X163105067Y-87975270D01*
X163287473Y-87975270D01*
X163466374Y-88010855D01*
X163466374Y-88010855D01*
G37*
G36*
X192676374Y-88010855D02*
G01*
X192844896Y-88080659D01*
X192996561Y-88181998D01*
X193125542Y-88310979D01*
X193226881Y-88462644D01*
X193296685Y-88631166D01*
X193332270Y-88810067D01*
X193332270Y-88992473D01*
X193296685Y-89171374D01*
X193226881Y-89339896D01*
X193125542Y-89491561D01*
X192996561Y-89620542D01*
X192844896Y-89721881D01*
X192676374Y-89791685D01*
X192497473Y-89827270D01*
X192315067Y-89827270D01*
X192136166Y-89791685D01*
X191967644Y-89721881D01*
X191815979Y-89620542D01*
X191686998Y-89491561D01*
X191585659Y-89339896D01*
X191515855Y-89171374D01*
X191480270Y-88992473D01*
X191480270Y-88810067D01*
X191515855Y-88631166D01*
X191585659Y-88462644D01*
X191686998Y-88310979D01*
X191815979Y-88181998D01*
X191967644Y-88080659D01*
X192136166Y-88010855D01*
X192315067Y-87975270D01*
X192497473Y-87975270D01*
X192676374Y-88010855D01*
X192676374Y-88010855D01*
G37*
G36*
X182516374Y-88010855D02*
G01*
X182684896Y-88080659D01*
X182836561Y-88181998D01*
X182965542Y-88310979D01*
X183066881Y-88462644D01*
X183136685Y-88631166D01*
X183172270Y-88810067D01*
X183172270Y-88992473D01*
X183136685Y-89171374D01*
X183066881Y-89339896D01*
X182965542Y-89491561D01*
X182836561Y-89620542D01*
X182684896Y-89721881D01*
X182516374Y-89791685D01*
X182337473Y-89827270D01*
X182155067Y-89827270D01*
X181976166Y-89791685D01*
X181807644Y-89721881D01*
X181655979Y-89620542D01*
X181526998Y-89491561D01*
X181425659Y-89339896D01*
X181355855Y-89171374D01*
X181320270Y-88992473D01*
X181320270Y-88810067D01*
X181355855Y-88631166D01*
X181425659Y-88462644D01*
X181526998Y-88310979D01*
X181655979Y-88181998D01*
X181807644Y-88080659D01*
X181976166Y-88010855D01*
X182155067Y-87975270D01*
X182337473Y-87975270D01*
X182516374Y-88010855D01*
X182516374Y-88010855D01*
G37*
G36*
X185231944Y-75454735D02*
G01*
X185269637Y-75466169D01*
X185304373Y-75484736D01*
X185334818Y-75509722D01*
X185359804Y-75540167D01*
X185378371Y-75574903D01*
X185389805Y-75612596D01*
X185394270Y-75657931D01*
X185394270Y-76744609D01*
X185389805Y-76789944D01*
X185378371Y-76827637D01*
X185359804Y-76862373D01*
X185334818Y-76892818D01*
X185304373Y-76917804D01*
X185269637Y-76936371D01*
X185231944Y-76947805D01*
X185186609Y-76952270D01*
X184349931Y-76952270D01*
X184304596Y-76947805D01*
X184266903Y-76936371D01*
X184232167Y-76917804D01*
X184201722Y-76892818D01*
X184176736Y-76862373D01*
X184158169Y-76827637D01*
X184146735Y-76789944D01*
X184142270Y-76744609D01*
X184142270Y-75657931D01*
X184146735Y-75612596D01*
X184158169Y-75574903D01*
X184176736Y-75540167D01*
X184201722Y-75509722D01*
X184232167Y-75484736D01*
X184266903Y-75466169D01*
X184304596Y-75454735D01*
X184349931Y-75450270D01*
X185186609Y-75450270D01*
X185231944Y-75454735D01*
X185231944Y-75454735D01*
G37*
G36*
X175652444Y-75454735D02*
G01*
X175690137Y-75466169D01*
X175724873Y-75484736D01*
X175755318Y-75509722D01*
X175780304Y-75540167D01*
X175798871Y-75574903D01*
X175810305Y-75612596D01*
X175814770Y-75657931D01*
X175814770Y-76744609D01*
X175810305Y-76789944D01*
X175798871Y-76827637D01*
X175780304Y-76862373D01*
X175755318Y-76892818D01*
X175724873Y-76917804D01*
X175690137Y-76936371D01*
X175652444Y-76947805D01*
X175607109Y-76952270D01*
X174770431Y-76952270D01*
X174725096Y-76947805D01*
X174687403Y-76936371D01*
X174652667Y-76917804D01*
X174622222Y-76892818D01*
X174597236Y-76862373D01*
X174578669Y-76827637D01*
X174567235Y-76789944D01*
X174562770Y-76744609D01*
X174562770Y-75657931D01*
X174567235Y-75612596D01*
X174578669Y-75574903D01*
X174597236Y-75540167D01*
X174622222Y-75509722D01*
X174652667Y-75484736D01*
X174687403Y-75466169D01*
X174725096Y-75454735D01*
X174770431Y-75450270D01*
X175607109Y-75450270D01*
X175652444Y-75454735D01*
X175652444Y-75454735D01*
G37*
G36*
X177702444Y-75454735D02*
G01*
X177740137Y-75466169D01*
X177774873Y-75484736D01*
X177805318Y-75509722D01*
X177830304Y-75540167D01*
X177848871Y-75574903D01*
X177860305Y-75612596D01*
X177864770Y-75657931D01*
X177864770Y-76744609D01*
X177860305Y-76789944D01*
X177848871Y-76827637D01*
X177830304Y-76862373D01*
X177805318Y-76892818D01*
X177774873Y-76917804D01*
X177740137Y-76936371D01*
X177702444Y-76947805D01*
X177657109Y-76952270D01*
X176820431Y-76952270D01*
X176775096Y-76947805D01*
X176737403Y-76936371D01*
X176702667Y-76917804D01*
X176672222Y-76892818D01*
X176647236Y-76862373D01*
X176628669Y-76827637D01*
X176617235Y-76789944D01*
X176612770Y-76744609D01*
X176612770Y-75657931D01*
X176617235Y-75612596D01*
X176628669Y-75574903D01*
X176647236Y-75540167D01*
X176672222Y-75509722D01*
X176702667Y-75484736D01*
X176737403Y-75466169D01*
X176775096Y-75454735D01*
X176820431Y-75450270D01*
X177657109Y-75450270D01*
X177702444Y-75454735D01*
X177702444Y-75454735D01*
G37*
G36*
X187281944Y-75454735D02*
G01*
X187319637Y-75466169D01*
X187354373Y-75484736D01*
X187384818Y-75509722D01*
X187409804Y-75540167D01*
X187428371Y-75574903D01*
X187439805Y-75612596D01*
X187444270Y-75657931D01*
X187444270Y-76744609D01*
X187439805Y-76789944D01*
X187428371Y-76827637D01*
X187409804Y-76862373D01*
X187384818Y-76892818D01*
X187354373Y-76917804D01*
X187319637Y-76936371D01*
X187281944Y-76947805D01*
X187236609Y-76952270D01*
X186399931Y-76952270D01*
X186354596Y-76947805D01*
X186316903Y-76936371D01*
X186282167Y-76917804D01*
X186251722Y-76892818D01*
X186226736Y-76862373D01*
X186208169Y-76827637D01*
X186196735Y-76789944D01*
X186192270Y-76744609D01*
X186192270Y-75657931D01*
X186196735Y-75612596D01*
X186208169Y-75574903D01*
X186226736Y-75540167D01*
X186251722Y-75509722D01*
X186282167Y-75484736D01*
X186316903Y-75466169D01*
X186354596Y-75454735D01*
X186399931Y-75450270D01*
X187236609Y-75450270D01*
X187281944Y-75454735D01*
X187281944Y-75454735D01*
G37*
G36*
X185302270Y-73971020D02*
G01*
X176650270Y-73971020D01*
X176650270Y-72369020D01*
X185302270Y-72369020D01*
X185302270Y-73971020D01*
X185302270Y-73971020D01*
G37*
G36*
X190296194Y-72635985D02*
G01*
X190333887Y-72647419D01*
X190368623Y-72665986D01*
X190399068Y-72690972D01*
X190424054Y-72721417D01*
X190442621Y-72756153D01*
X190454055Y-72793846D01*
X190458520Y-72839181D01*
X190458520Y-73675859D01*
X190454055Y-73721194D01*
X190442621Y-73758887D01*
X190424054Y-73793623D01*
X190399068Y-73824068D01*
X190368623Y-73849054D01*
X190333887Y-73867621D01*
X190296194Y-73879055D01*
X190250859Y-73883520D01*
X189164181Y-73883520D01*
X189118846Y-73879055D01*
X189081153Y-73867621D01*
X189046417Y-73849054D01*
X189015972Y-73824068D01*
X188990986Y-73793623D01*
X188972419Y-73758887D01*
X188960985Y-73721194D01*
X188956520Y-73675859D01*
X188956520Y-72839181D01*
X188960985Y-72793846D01*
X188972419Y-72756153D01*
X188990986Y-72721417D01*
X189015972Y-72690972D01*
X189046417Y-72665986D01*
X189081153Y-72647419D01*
X189118846Y-72635985D01*
X189164181Y-72631520D01*
X190250859Y-72631520D01*
X190296194Y-72635985D01*
X190296194Y-72635985D01*
G37*
G36*
X190296194Y-70585985D02*
G01*
X190333887Y-70597419D01*
X190368623Y-70615986D01*
X190399068Y-70640972D01*
X190424054Y-70671417D01*
X190442621Y-70706153D01*
X190454055Y-70743846D01*
X190458520Y-70789181D01*
X190458520Y-71625859D01*
X190454055Y-71671194D01*
X190442621Y-71708887D01*
X190424054Y-71743623D01*
X190399068Y-71774068D01*
X190368623Y-71799054D01*
X190333887Y-71817621D01*
X190296194Y-71829055D01*
X190250859Y-71833520D01*
X189164181Y-71833520D01*
X189118846Y-71829055D01*
X189081153Y-71817621D01*
X189046417Y-71799054D01*
X189015972Y-71774068D01*
X188990986Y-71743623D01*
X188972419Y-71708887D01*
X188960985Y-71671194D01*
X188956520Y-71625859D01*
X188956520Y-70789181D01*
X188960985Y-70743846D01*
X188972419Y-70706153D01*
X188990986Y-70671417D01*
X189015972Y-70640972D01*
X189046417Y-70615986D01*
X189081153Y-70597419D01*
X189118846Y-70585985D01*
X189164181Y-70581520D01*
X190250859Y-70581520D01*
X190296194Y-70585985D01*
X190296194Y-70585985D01*
G37*
G36*
X176077270Y-71796020D02*
G01*
X174475270Y-71796020D01*
X174475270Y-63144020D01*
X176077270Y-63144020D01*
X176077270Y-71796020D01*
X176077270Y-71796020D01*
G37*
G36*
X187477270Y-71796020D02*
G01*
X185875270Y-71796020D01*
X185875270Y-63144020D01*
X187477270Y-63144020D01*
X187477270Y-71796020D01*
X187477270Y-71796020D01*
G37*
G36*
X165554674Y-70246465D02*
G01*
X165592367Y-70257899D01*
X165627103Y-70276466D01*
X165657548Y-70301452D01*
X165682534Y-70331897D01*
X165701101Y-70366633D01*
X165712535Y-70404326D01*
X165717000Y-70449661D01*
X165717000Y-71536339D01*
X165712535Y-71581674D01*
X165701101Y-71619367D01*
X165682534Y-71654103D01*
X165657548Y-71684548D01*
X165627103Y-71709534D01*
X165592367Y-71728101D01*
X165554674Y-71739535D01*
X165509339Y-71744000D01*
X164672661Y-71744000D01*
X164627326Y-71739535D01*
X164589633Y-71728101D01*
X164554897Y-71709534D01*
X164524452Y-71684548D01*
X164499466Y-71654103D01*
X164480899Y-71619367D01*
X164469465Y-71581674D01*
X164465000Y-71536339D01*
X164465000Y-70449661D01*
X164469465Y-70404326D01*
X164480899Y-70366633D01*
X164499466Y-70331897D01*
X164524452Y-70301452D01*
X164554897Y-70276466D01*
X164589633Y-70257899D01*
X164627326Y-70246465D01*
X164672661Y-70242000D01*
X165509339Y-70242000D01*
X165554674Y-70246465D01*
X165554674Y-70246465D01*
G37*
G36*
X167604674Y-70246465D02*
G01*
X167642367Y-70257899D01*
X167677103Y-70276466D01*
X167707548Y-70301452D01*
X167732534Y-70331897D01*
X167751101Y-70366633D01*
X167762535Y-70404326D01*
X167767000Y-70449661D01*
X167767000Y-71536339D01*
X167762535Y-71581674D01*
X167751101Y-71619367D01*
X167732534Y-71654103D01*
X167707548Y-71684548D01*
X167677103Y-71709534D01*
X167642367Y-71728101D01*
X167604674Y-71739535D01*
X167559339Y-71744000D01*
X166722661Y-71744000D01*
X166677326Y-71739535D01*
X166639633Y-71728101D01*
X166604897Y-71709534D01*
X166574452Y-71684548D01*
X166549466Y-71654103D01*
X166530899Y-71619367D01*
X166519465Y-71581674D01*
X166515000Y-71536339D01*
X166515000Y-70449661D01*
X166519465Y-70404326D01*
X166530899Y-70366633D01*
X166549466Y-70331897D01*
X166574452Y-70301452D01*
X166604897Y-70276466D01*
X166639633Y-70257899D01*
X166677326Y-70246465D01*
X166722661Y-70242000D01*
X167559339Y-70242000D01*
X167604674Y-70246465D01*
X167604674Y-70246465D01*
G37*
G36*
X168217000Y-69226000D02*
G01*
X166315000Y-69226000D01*
X166315000Y-67024000D01*
X168217000Y-67024000D01*
X168217000Y-69226000D01*
X168217000Y-69226000D01*
G37*
G36*
X165917000Y-69226000D02*
G01*
X164015000Y-69226000D01*
X164015000Y-67024000D01*
X165917000Y-67024000D01*
X165917000Y-69226000D01*
X165917000Y-69226000D01*
G37*
G36*
X165917000Y-66326000D02*
G01*
X164015000Y-66326000D01*
X164015000Y-64124000D01*
X165917000Y-64124000D01*
X165917000Y-66326000D01*
X165917000Y-66326000D01*
G37*
G36*
X168217000Y-66326000D02*
G01*
X166315000Y-66326000D01*
X166315000Y-64124000D01*
X168217000Y-64124000D01*
X168217000Y-66326000D01*
X168217000Y-66326000D01*
G37*
G36*
X195245582Y-63435701D02*
G01*
X195280501Y-63446294D01*
X195312683Y-63463496D01*
X195340893Y-63486647D01*
X195364044Y-63514857D01*
X195381246Y-63547039D01*
X195391839Y-63581958D01*
X195396020Y-63624415D01*
X195396020Y-64765625D01*
X195391839Y-64808082D01*
X195381246Y-64843001D01*
X195364044Y-64875183D01*
X195340893Y-64903393D01*
X195312683Y-64926544D01*
X195280501Y-64943746D01*
X195245582Y-64954339D01*
X195203125Y-64958520D01*
X193736915Y-64958520D01*
X193694458Y-64954339D01*
X193659539Y-64943746D01*
X193627357Y-64926544D01*
X193599147Y-64903393D01*
X193575996Y-64875183D01*
X193558794Y-64843001D01*
X193548201Y-64808082D01*
X193544020Y-64765625D01*
X193544020Y-63624415D01*
X193548201Y-63581958D01*
X193558794Y-63547039D01*
X193575996Y-63514857D01*
X193599147Y-63486647D01*
X193627357Y-63463496D01*
X193659539Y-63446294D01*
X193694458Y-63435701D01*
X193736915Y-63431520D01*
X195203125Y-63431520D01*
X195245582Y-63435701D01*
X195245582Y-63435701D01*
G37*
G36*
X190296194Y-63110985D02*
G01*
X190333887Y-63122419D01*
X190368623Y-63140986D01*
X190399068Y-63165972D01*
X190424054Y-63196417D01*
X190442621Y-63231153D01*
X190454055Y-63268846D01*
X190458520Y-63314181D01*
X190458520Y-64150859D01*
X190454055Y-64196194D01*
X190442621Y-64233887D01*
X190424054Y-64268623D01*
X190399068Y-64299068D01*
X190368623Y-64324054D01*
X190333887Y-64342621D01*
X190296194Y-64354055D01*
X190250859Y-64358520D01*
X189164181Y-64358520D01*
X189118846Y-64354055D01*
X189081153Y-64342621D01*
X189046417Y-64324054D01*
X189015972Y-64299068D01*
X188990986Y-64268623D01*
X188972419Y-64233887D01*
X188960985Y-64196194D01*
X188956520Y-64150859D01*
X188956520Y-63314181D01*
X188960985Y-63268846D01*
X188972419Y-63231153D01*
X188990986Y-63196417D01*
X189015972Y-63165972D01*
X189046417Y-63140986D01*
X189081153Y-63122419D01*
X189118846Y-63110985D01*
X189164181Y-63106520D01*
X190250859Y-63106520D01*
X190296194Y-63110985D01*
X190296194Y-63110985D01*
G37*
G36*
X165554674Y-61610465D02*
G01*
X165592367Y-61621899D01*
X165627103Y-61640466D01*
X165657548Y-61665452D01*
X165682534Y-61695897D01*
X165701101Y-61730633D01*
X165712535Y-61768326D01*
X165717000Y-61813661D01*
X165717000Y-62900339D01*
X165712535Y-62945674D01*
X165701101Y-62983367D01*
X165682534Y-63018103D01*
X165657548Y-63048548D01*
X165627103Y-63073534D01*
X165592367Y-63092101D01*
X165554674Y-63103535D01*
X165509339Y-63108000D01*
X164672661Y-63108000D01*
X164627326Y-63103535D01*
X164589633Y-63092101D01*
X164554897Y-63073534D01*
X164524452Y-63048548D01*
X164499466Y-63018103D01*
X164480899Y-62983367D01*
X164469465Y-62945674D01*
X164465000Y-62900339D01*
X164465000Y-61813661D01*
X164469465Y-61768326D01*
X164480899Y-61730633D01*
X164499466Y-61695897D01*
X164524452Y-61665452D01*
X164554897Y-61640466D01*
X164589633Y-61621899D01*
X164627326Y-61610465D01*
X164672661Y-61606000D01*
X165509339Y-61606000D01*
X165554674Y-61610465D01*
X165554674Y-61610465D01*
G37*
G36*
X167604674Y-61610465D02*
G01*
X167642367Y-61621899D01*
X167677103Y-61640466D01*
X167707548Y-61665452D01*
X167732534Y-61695897D01*
X167751101Y-61730633D01*
X167762535Y-61768326D01*
X167767000Y-61813661D01*
X167767000Y-62900339D01*
X167762535Y-62945674D01*
X167751101Y-62983367D01*
X167732534Y-63018103D01*
X167707548Y-63048548D01*
X167677103Y-63073534D01*
X167642367Y-63092101D01*
X167604674Y-63103535D01*
X167559339Y-63108000D01*
X166722661Y-63108000D01*
X166677326Y-63103535D01*
X166639633Y-63092101D01*
X166604897Y-63073534D01*
X166574452Y-63048548D01*
X166549466Y-63018103D01*
X166530899Y-62983367D01*
X166519465Y-62945674D01*
X166515000Y-62900339D01*
X166515000Y-61813661D01*
X166519465Y-61768326D01*
X166530899Y-61730633D01*
X166549466Y-61695897D01*
X166574452Y-61665452D01*
X166604897Y-61640466D01*
X166639633Y-61621899D01*
X166677326Y-61610465D01*
X166722661Y-61606000D01*
X167559339Y-61606000D01*
X167604674Y-61610465D01*
X167604674Y-61610465D01*
G37*
G36*
X185302270Y-62571020D02*
G01*
X176650270Y-62571020D01*
X176650270Y-60969020D01*
X185302270Y-60969020D01*
X185302270Y-62571020D01*
X185302270Y-62571020D01*
G37*
G36*
X149822744Y-58359954D02*
G01*
X149976732Y-58423738D01*
X150194893Y-58514103D01*
X150529818Y-58737893D01*
X150814647Y-59022722D01*
X151038437Y-59357647D01*
X151091314Y-59485305D01*
X151192586Y-59729796D01*
X151271170Y-60124864D01*
X151271170Y-60527676D01*
X151192586Y-60922744D01*
X151135008Y-61061750D01*
X151038437Y-61294893D01*
X150814647Y-61629818D01*
X150529818Y-61914647D01*
X150194893Y-62138437D01*
X150085166Y-62183887D01*
X149822744Y-62292586D01*
X149427676Y-62371170D01*
X149024864Y-62371170D01*
X148629796Y-62292586D01*
X148367374Y-62183887D01*
X148257647Y-62138437D01*
X147922722Y-61914647D01*
X147637893Y-61629818D01*
X147414103Y-61294893D01*
X147317532Y-61061750D01*
X147259954Y-60922744D01*
X147181370Y-60527676D01*
X147181370Y-60124864D01*
X147259954Y-59729796D01*
X147361226Y-59485305D01*
X147414103Y-59357647D01*
X147637893Y-59022722D01*
X147922722Y-58737893D01*
X148257647Y-58514103D01*
X148475808Y-58423738D01*
X148629796Y-58359954D01*
X149024864Y-58281370D01*
X149427676Y-58281370D01*
X149822744Y-58359954D01*
X149822744Y-58359954D01*
G37*
G36*
X130772744Y-58359954D02*
G01*
X130926732Y-58423738D01*
X131144893Y-58514103D01*
X131479818Y-58737893D01*
X131764647Y-59022722D01*
X131988437Y-59357647D01*
X132041314Y-59485305D01*
X132142586Y-59729796D01*
X132221170Y-60124864D01*
X132221170Y-60527676D01*
X132142586Y-60922744D01*
X132085008Y-61061750D01*
X131988437Y-61294893D01*
X131764647Y-61629818D01*
X131479818Y-61914647D01*
X131144893Y-62138437D01*
X131035166Y-62183887D01*
X130772744Y-62292586D01*
X130377676Y-62371170D01*
X129974864Y-62371170D01*
X129579796Y-62292586D01*
X129317374Y-62183887D01*
X129207647Y-62138437D01*
X128872722Y-61914647D01*
X128587893Y-61629818D01*
X128364103Y-61294893D01*
X128267532Y-61061750D01*
X128209954Y-60922744D01*
X128131370Y-60527676D01*
X128131370Y-60124864D01*
X128209954Y-59729796D01*
X128311226Y-59485305D01*
X128364103Y-59357647D01*
X128587893Y-59022722D01*
X128872722Y-58737893D01*
X129207647Y-58514103D01*
X129425808Y-58423738D01*
X129579796Y-58359954D01*
X129974864Y-58281370D01*
X130377676Y-58281370D01*
X130772744Y-58359954D01*
X130772744Y-58359954D01*
G37*
G36*
X190296194Y-61060985D02*
G01*
X190333887Y-61072419D01*
X190368623Y-61090986D01*
X190399068Y-61115972D01*
X190424054Y-61146417D01*
X190442621Y-61181153D01*
X190454055Y-61218846D01*
X190458520Y-61264181D01*
X190458520Y-62100859D01*
X190454055Y-62146194D01*
X190442621Y-62183887D01*
X190424054Y-62218623D01*
X190399068Y-62249068D01*
X190368623Y-62274054D01*
X190333887Y-62292621D01*
X190296194Y-62304055D01*
X190250859Y-62308520D01*
X189164181Y-62308520D01*
X189118846Y-62304055D01*
X189081153Y-62292621D01*
X189046417Y-62274054D01*
X189015972Y-62249068D01*
X188990986Y-62218623D01*
X188972419Y-62183887D01*
X188960985Y-62146194D01*
X188956520Y-62100859D01*
X188956520Y-61264181D01*
X188960985Y-61218846D01*
X188972419Y-61181153D01*
X188990986Y-61146417D01*
X189015972Y-61115972D01*
X189046417Y-61090986D01*
X189081153Y-61072419D01*
X189118846Y-61060985D01*
X189164181Y-61056520D01*
X190250859Y-61056520D01*
X190296194Y-61060985D01*
X190296194Y-61060985D01*
G37*
G36*
X195245582Y-60460701D02*
G01*
X195280501Y-60471294D01*
X195312683Y-60488496D01*
X195340893Y-60511647D01*
X195364044Y-60539857D01*
X195381246Y-60572039D01*
X195391839Y-60606958D01*
X195396020Y-60649415D01*
X195396020Y-61790625D01*
X195391839Y-61833082D01*
X195381246Y-61868001D01*
X195364044Y-61900183D01*
X195340893Y-61928393D01*
X195312683Y-61951544D01*
X195280501Y-61968746D01*
X195245582Y-61979339D01*
X195203125Y-61983520D01*
X193736915Y-61983520D01*
X193694458Y-61979339D01*
X193659539Y-61968746D01*
X193627357Y-61951544D01*
X193599147Y-61928393D01*
X193575996Y-61900183D01*
X193558794Y-61868001D01*
X193548201Y-61833082D01*
X193544020Y-61790625D01*
X193544020Y-60649415D01*
X193548201Y-60606958D01*
X193558794Y-60572039D01*
X193575996Y-60539857D01*
X193599147Y-60511647D01*
X193627357Y-60488496D01*
X193659539Y-60471294D01*
X193694458Y-60460701D01*
X193736915Y-60456520D01*
X195203125Y-60456520D01*
X195245582Y-60460701D01*
X195245582Y-60460701D01*
G37*
G36*
X144416374Y-59435855D02*
G01*
X144584896Y-59505659D01*
X144736561Y-59606998D01*
X144865542Y-59735979D01*
X144966881Y-59887644D01*
X145036685Y-60056166D01*
X145072270Y-60235067D01*
X145072270Y-60417473D01*
X145036685Y-60596374D01*
X144966881Y-60764896D01*
X144865542Y-60916561D01*
X144736561Y-61045542D01*
X144584896Y-61146881D01*
X144416374Y-61216685D01*
X144237473Y-61252270D01*
X144055067Y-61252270D01*
X143876166Y-61216685D01*
X143707644Y-61146881D01*
X143555979Y-61045542D01*
X143426998Y-60916561D01*
X143325659Y-60764896D01*
X143255855Y-60596374D01*
X143220270Y-60417473D01*
X143220270Y-60235067D01*
X143255855Y-60056166D01*
X143325659Y-59887644D01*
X143426998Y-59735979D01*
X143555979Y-59606998D01*
X143707644Y-59505659D01*
X143876166Y-59435855D01*
X144055067Y-59400270D01*
X144237473Y-59400270D01*
X144416374Y-59435855D01*
X144416374Y-59435855D01*
G37*
G36*
X154576374Y-59435855D02*
G01*
X154744896Y-59505659D01*
X154896561Y-59606998D01*
X155025542Y-59735979D01*
X155126881Y-59887644D01*
X155196685Y-60056166D01*
X155232270Y-60235067D01*
X155232270Y-60417473D01*
X155196685Y-60596374D01*
X155126881Y-60764896D01*
X155025542Y-60916561D01*
X154896561Y-61045542D01*
X154744896Y-61146881D01*
X154576374Y-61216685D01*
X154397473Y-61252270D01*
X154215067Y-61252270D01*
X154036166Y-61216685D01*
X153867644Y-61146881D01*
X153715979Y-61045542D01*
X153586998Y-60916561D01*
X153485659Y-60764896D01*
X153415855Y-60596374D01*
X153380270Y-60417473D01*
X153380270Y-60235067D01*
X153415855Y-60056166D01*
X153485659Y-59887644D01*
X153586998Y-59735979D01*
X153715979Y-59606998D01*
X153867644Y-59505659D01*
X154036166Y-59435855D01*
X154215067Y-59400270D01*
X154397473Y-59400270D01*
X154576374Y-59435855D01*
X154576374Y-59435855D01*
G37*
G36*
X135526374Y-59435855D02*
G01*
X135694896Y-59505659D01*
X135846561Y-59606998D01*
X135975542Y-59735979D01*
X136076881Y-59887644D01*
X136146685Y-60056166D01*
X136182270Y-60235067D01*
X136182270Y-60417473D01*
X136146685Y-60596374D01*
X136076881Y-60764896D01*
X135975542Y-60916561D01*
X135846561Y-61045542D01*
X135694896Y-61146881D01*
X135526374Y-61216685D01*
X135347473Y-61252270D01*
X135165067Y-61252270D01*
X134986166Y-61216685D01*
X134817644Y-61146881D01*
X134665979Y-61045542D01*
X134536998Y-60916561D01*
X134435659Y-60764896D01*
X134365855Y-60596374D01*
X134330270Y-60417473D01*
X134330270Y-60235067D01*
X134365855Y-60056166D01*
X134435659Y-59887644D01*
X134536998Y-59735979D01*
X134665979Y-59606998D01*
X134817644Y-59505659D01*
X134986166Y-59435855D01*
X135165067Y-59400270D01*
X135347473Y-59400270D01*
X135526374Y-59435855D01*
X135526374Y-59435855D01*
G37*
G36*
X125366374Y-59435855D02*
G01*
X125534896Y-59505659D01*
X125686561Y-59606998D01*
X125815542Y-59735979D01*
X125916881Y-59887644D01*
X125986685Y-60056166D01*
X126022270Y-60235067D01*
X126022270Y-60417473D01*
X125986685Y-60596374D01*
X125916881Y-60764896D01*
X125815542Y-60916561D01*
X125686561Y-61045542D01*
X125534896Y-61146881D01*
X125366374Y-61216685D01*
X125187473Y-61252270D01*
X125005067Y-61252270D01*
X124826166Y-61216685D01*
X124657644Y-61146881D01*
X124505979Y-61045542D01*
X124376998Y-60916561D01*
X124275659Y-60764896D01*
X124205855Y-60596374D01*
X124170270Y-60417473D01*
X124170270Y-60235067D01*
X124205855Y-60056166D01*
X124275659Y-59887644D01*
X124376998Y-59735979D01*
X124505979Y-59606998D01*
X124657644Y-59505659D01*
X124826166Y-59435855D01*
X125005067Y-59400270D01*
X125187473Y-59400270D01*
X125366374Y-59435855D01*
X125366374Y-59435855D01*
G37*
G36*
X181564944Y-58348485D02*
G01*
X181602637Y-58359919D01*
X181637373Y-58378486D01*
X181667818Y-58403472D01*
X181692804Y-58433917D01*
X181711371Y-58468653D01*
X181722805Y-58506346D01*
X181727270Y-58551681D01*
X181727270Y-59388359D01*
X181722805Y-59433694D01*
X181711371Y-59471387D01*
X181692804Y-59506123D01*
X181667818Y-59536568D01*
X181637373Y-59561554D01*
X181602637Y-59580121D01*
X181564944Y-59591555D01*
X181519609Y-59596020D01*
X180432931Y-59596020D01*
X180387596Y-59591555D01*
X180349903Y-59580121D01*
X180315167Y-59561554D01*
X180284722Y-59536568D01*
X180259736Y-59506123D01*
X180241169Y-59471387D01*
X180229735Y-59433694D01*
X180225270Y-59388359D01*
X180225270Y-58551681D01*
X180229735Y-58506346D01*
X180241169Y-58468653D01*
X180259736Y-58433917D01*
X180284722Y-58403472D01*
X180315167Y-58378486D01*
X180349903Y-58359919D01*
X180387596Y-58348485D01*
X180432931Y-58344020D01*
X181519609Y-58344020D01*
X181564944Y-58348485D01*
X181564944Y-58348485D01*
G37*
G36*
X173733694Y-57992235D02*
G01*
X173771387Y-58003669D01*
X173806123Y-58022236D01*
X173836568Y-58047222D01*
X173861554Y-58077667D01*
X173880121Y-58112403D01*
X173891555Y-58150096D01*
X173896020Y-58195431D01*
X173896020Y-59282109D01*
X173891555Y-59327444D01*
X173880121Y-59365137D01*
X173861554Y-59399873D01*
X173836568Y-59430318D01*
X173806123Y-59455304D01*
X173771387Y-59473871D01*
X173733694Y-59485305D01*
X173688359Y-59489770D01*
X172851681Y-59489770D01*
X172806346Y-59485305D01*
X172768653Y-59473871D01*
X172733917Y-59455304D01*
X172703472Y-59430318D01*
X172678486Y-59399873D01*
X172659919Y-59365137D01*
X172648485Y-59327444D01*
X172644020Y-59282109D01*
X172644020Y-58195431D01*
X172648485Y-58150096D01*
X172659919Y-58112403D01*
X172678486Y-58077667D01*
X172703472Y-58047222D01*
X172733917Y-58022236D01*
X172768653Y-58003669D01*
X172806346Y-57992235D01*
X172851681Y-57987770D01*
X173688359Y-57987770D01*
X173733694Y-57992235D01*
X173733694Y-57992235D01*
G37*
G36*
X171683694Y-57992235D02*
G01*
X171721387Y-58003669D01*
X171756123Y-58022236D01*
X171786568Y-58047222D01*
X171811554Y-58077667D01*
X171830121Y-58112403D01*
X171841555Y-58150096D01*
X171846020Y-58195431D01*
X171846020Y-59282109D01*
X171841555Y-59327444D01*
X171830121Y-59365137D01*
X171811554Y-59399873D01*
X171786568Y-59430318D01*
X171756123Y-59455304D01*
X171721387Y-59473871D01*
X171683694Y-59485305D01*
X171638359Y-59489770D01*
X170801681Y-59489770D01*
X170756346Y-59485305D01*
X170718653Y-59473871D01*
X170683917Y-59455304D01*
X170653472Y-59430318D01*
X170628486Y-59399873D01*
X170609919Y-59365137D01*
X170598485Y-59327444D01*
X170594020Y-59282109D01*
X170594020Y-58195431D01*
X170598485Y-58150096D01*
X170609919Y-58112403D01*
X170628486Y-58077667D01*
X170653472Y-58047222D01*
X170683917Y-58022236D01*
X170718653Y-58003669D01*
X170756346Y-57992235D01*
X170801681Y-57987770D01*
X171638359Y-57987770D01*
X171683694Y-57992235D01*
X171683694Y-57992235D01*
G37*
G36*
X181564944Y-56298485D02*
G01*
X181602637Y-56309919D01*
X181637373Y-56328486D01*
X181667818Y-56353472D01*
X181692804Y-56383917D01*
X181711371Y-56418653D01*
X181722805Y-56456346D01*
X181727270Y-56501681D01*
X181727270Y-57338359D01*
X181722805Y-57383694D01*
X181711371Y-57421387D01*
X181692804Y-57456123D01*
X181667818Y-57486568D01*
X181637373Y-57511554D01*
X181602637Y-57530121D01*
X181564944Y-57541555D01*
X181519609Y-57546020D01*
X180432931Y-57546020D01*
X180387596Y-57541555D01*
X180349903Y-57530121D01*
X180315167Y-57511554D01*
X180284722Y-57486568D01*
X180259736Y-57456123D01*
X180241169Y-57421387D01*
X180229735Y-57383694D01*
X180225270Y-57338359D01*
X180225270Y-56501681D01*
X180229735Y-56456346D01*
X180241169Y-56418653D01*
X180259736Y-56383917D01*
X180284722Y-56353472D01*
X180315167Y-56328486D01*
X180349903Y-56309919D01*
X180387596Y-56298485D01*
X180432931Y-56294020D01*
X181519609Y-56294020D01*
X181564944Y-56298485D01*
X181564944Y-56298485D01*
G37*
G36*
X171683694Y-54817235D02*
G01*
X171721387Y-54828669D01*
X171756123Y-54847236D01*
X171786568Y-54872222D01*
X171811554Y-54902667D01*
X171830121Y-54937403D01*
X171841555Y-54975096D01*
X171846020Y-55020431D01*
X171846020Y-56107109D01*
X171841555Y-56152444D01*
X171830121Y-56190137D01*
X171811554Y-56224873D01*
X171786568Y-56255318D01*
X171756123Y-56280304D01*
X171721387Y-56298871D01*
X171683694Y-56310305D01*
X171638359Y-56314770D01*
X170801681Y-56314770D01*
X170756346Y-56310305D01*
X170718653Y-56298871D01*
X170683917Y-56280304D01*
X170653472Y-56255318D01*
X170628486Y-56224873D01*
X170609919Y-56190137D01*
X170598485Y-56152444D01*
X170594020Y-56107109D01*
X170594020Y-55020431D01*
X170598485Y-54975096D01*
X170609919Y-54937403D01*
X170628486Y-54902667D01*
X170653472Y-54872222D01*
X170683917Y-54847236D01*
X170718653Y-54828669D01*
X170756346Y-54817235D01*
X170801681Y-54812770D01*
X171638359Y-54812770D01*
X171683694Y-54817235D01*
X171683694Y-54817235D01*
G37*
G36*
X173733694Y-54817235D02*
G01*
X173771387Y-54828669D01*
X173806123Y-54847236D01*
X173836568Y-54872222D01*
X173861554Y-54902667D01*
X173880121Y-54937403D01*
X173891555Y-54975096D01*
X173896020Y-55020431D01*
X173896020Y-56107109D01*
X173891555Y-56152444D01*
X173880121Y-56190137D01*
X173861554Y-56224873D01*
X173836568Y-56255318D01*
X173806123Y-56280304D01*
X173771387Y-56298871D01*
X173733694Y-56310305D01*
X173688359Y-56314770D01*
X172851681Y-56314770D01*
X172806346Y-56310305D01*
X172768653Y-56298871D01*
X172733917Y-56280304D01*
X172703472Y-56255318D01*
X172678486Y-56224873D01*
X172659919Y-56190137D01*
X172648485Y-56152444D01*
X172644020Y-56107109D01*
X172644020Y-55020431D01*
X172648485Y-54975096D01*
X172659919Y-54937403D01*
X172678486Y-54902667D01*
X172703472Y-54872222D01*
X172733917Y-54847236D01*
X172768653Y-54828669D01*
X172806346Y-54817235D01*
X172851681Y-54812770D01*
X173688359Y-54812770D01*
X173733694Y-54817235D01*
X173733694Y-54817235D01*
G37*
G36*
X163967000Y-53886000D02*
G01*
X162065000Y-53886000D01*
X162065000Y-52684000D01*
X163967000Y-52684000D01*
X163967000Y-53886000D01*
X163967000Y-53886000D01*
G37*
G36*
X170167000Y-53886000D02*
G01*
X168265000Y-53886000D01*
X168265000Y-52684000D01*
X170167000Y-52684000D01*
X170167000Y-53886000D01*
X170167000Y-53886000D01*
G37*
G36*
X185439127Y-50927537D02*
G01*
X185608966Y-50979057D01*
X185765491Y-51062722D01*
X185789136Y-51082127D01*
X185902686Y-51175314D01*
X185985948Y-51276771D01*
X186015278Y-51312509D01*
X186098943Y-51469034D01*
X186150463Y-51638873D01*
X186163500Y-51771242D01*
X186163500Y-52859758D01*
X186150463Y-52992127D01*
X186098943Y-53161966D01*
X186015278Y-53318491D01*
X185985948Y-53354229D01*
X185902686Y-53455686D01*
X185765489Y-53568279D01*
X185608967Y-53651942D01*
X185608965Y-53651943D01*
X185439126Y-53703463D01*
X185262500Y-53720859D01*
X185085873Y-53703463D01*
X184916034Y-53651943D01*
X184759509Y-53568278D01*
X184723771Y-53538948D01*
X184622314Y-53455686D01*
X184509721Y-53318489D01*
X184426058Y-53161967D01*
X184426057Y-53161965D01*
X184374537Y-52992126D01*
X184361500Y-52859757D01*
X184361501Y-51771242D01*
X184374538Y-51638873D01*
X184426058Y-51469034D01*
X184509723Y-51312509D01*
X184539053Y-51276771D01*
X184622315Y-51175314D01*
X184735865Y-51082127D01*
X184759510Y-51062722D01*
X184916035Y-50979057D01*
X185085874Y-50927537D01*
X185262500Y-50910141D01*
X185439127Y-50927537D01*
X185439127Y-50927537D01*
G37*
G36*
X192739127Y-50927537D02*
G01*
X192908966Y-50979057D01*
X193065491Y-51062722D01*
X193089136Y-51082127D01*
X193202686Y-51175314D01*
X193285948Y-51276771D01*
X193315278Y-51312509D01*
X193398943Y-51469034D01*
X193450463Y-51638873D01*
X193463500Y-51771242D01*
X193463500Y-52859758D01*
X193450463Y-52992127D01*
X193398943Y-53161966D01*
X193315278Y-53318491D01*
X193285948Y-53354229D01*
X193202686Y-53455686D01*
X193065489Y-53568279D01*
X192908967Y-53651942D01*
X192908965Y-53651943D01*
X192739126Y-53703463D01*
X192562500Y-53720859D01*
X192385873Y-53703463D01*
X192216034Y-53651943D01*
X192059509Y-53568278D01*
X192023771Y-53538948D01*
X191922314Y-53455686D01*
X191809721Y-53318489D01*
X191726058Y-53161967D01*
X191726057Y-53161965D01*
X191674537Y-52992126D01*
X191661500Y-52859757D01*
X191661501Y-51771242D01*
X191674538Y-51638873D01*
X191726058Y-51469034D01*
X191809723Y-51312509D01*
X191839053Y-51276771D01*
X191922315Y-51175314D01*
X192035865Y-51082127D01*
X192059510Y-51062722D01*
X192216035Y-50979057D01*
X192385874Y-50927537D01*
X192562500Y-50910141D01*
X192739127Y-50927537D01*
X192739127Y-50927537D01*
G37*
G36*
X182550375Y-50619479D02*
G01*
X182624016Y-50641818D01*
X182660837Y-50652987D01*
X182762639Y-50707402D01*
X182819727Y-50754253D01*
X182851869Y-50780631D01*
X182925098Y-50869861D01*
X182925099Y-50869863D01*
X182979513Y-50971662D01*
X182981756Y-50979057D01*
X183013021Y-51082124D01*
X183021500Y-51168215D01*
X183021500Y-51955785D01*
X183013021Y-52041876D01*
X182990682Y-52115517D01*
X182979513Y-52152338D01*
X182925098Y-52254140D01*
X182851870Y-52343370D01*
X182762640Y-52416598D01*
X182660838Y-52471013D01*
X182624017Y-52482182D01*
X182550376Y-52504521D01*
X182435500Y-52515835D01*
X182320625Y-52504521D01*
X182246984Y-52482182D01*
X182210163Y-52471013D01*
X182108361Y-52416598D01*
X182019131Y-52343370D01*
X181945903Y-52254140D01*
X181891489Y-52152339D01*
X181891488Y-52152337D01*
X181857979Y-52041876D01*
X181849500Y-51955785D01*
X181849500Y-51168216D01*
X181857979Y-51082125D01*
X181891487Y-50971664D01*
X181891487Y-50971663D01*
X181945902Y-50869861D01*
X182019129Y-50780634D01*
X182019131Y-50780631D01*
X182108361Y-50707402D01*
X182120007Y-50701177D01*
X182210162Y-50652987D01*
X182246983Y-50641818D01*
X182320624Y-50619479D01*
X182435500Y-50608165D01*
X182550375Y-50619479D01*
X182550375Y-50619479D01*
G37*
G36*
X179502375Y-50619479D02*
G01*
X179576016Y-50641818D01*
X179612837Y-50652987D01*
X179714639Y-50707402D01*
X179771727Y-50754253D01*
X179803869Y-50780631D01*
X179877098Y-50869861D01*
X179877099Y-50869863D01*
X179931513Y-50971662D01*
X179933756Y-50979057D01*
X179965021Y-51082124D01*
X179973500Y-51168215D01*
X179973500Y-51955785D01*
X179965021Y-52041876D01*
X179942682Y-52115517D01*
X179931513Y-52152338D01*
X179877098Y-52254140D01*
X179803870Y-52343370D01*
X179714640Y-52416598D01*
X179612838Y-52471013D01*
X179576017Y-52482182D01*
X179502376Y-52504521D01*
X179387500Y-52515835D01*
X179272625Y-52504521D01*
X179198984Y-52482182D01*
X179162163Y-52471013D01*
X179060361Y-52416598D01*
X178971131Y-52343370D01*
X178897903Y-52254140D01*
X178843489Y-52152339D01*
X178843488Y-52152337D01*
X178809979Y-52041876D01*
X178801500Y-51955785D01*
X178801500Y-51168216D01*
X178809979Y-51082125D01*
X178843487Y-50971664D01*
X178843487Y-50971663D01*
X178897902Y-50869861D01*
X178971129Y-50780634D01*
X178971131Y-50780631D01*
X179060361Y-50707402D01*
X179072007Y-50701177D01*
X179162162Y-50652987D01*
X179198983Y-50641818D01*
X179272624Y-50619479D01*
X179387500Y-50608165D01*
X179502375Y-50619479D01*
X179502375Y-50619479D01*
G37*
G36*
X181026375Y-50619479D02*
G01*
X181100016Y-50641818D01*
X181136837Y-50652987D01*
X181238639Y-50707402D01*
X181295727Y-50754253D01*
X181327869Y-50780631D01*
X181401098Y-50869861D01*
X181401099Y-50869863D01*
X181455513Y-50971662D01*
X181457756Y-50979057D01*
X181489021Y-51082124D01*
X181497500Y-51168215D01*
X181497500Y-51955785D01*
X181489021Y-52041876D01*
X181466682Y-52115517D01*
X181455513Y-52152338D01*
X181401098Y-52254140D01*
X181327870Y-52343370D01*
X181238640Y-52416598D01*
X181136838Y-52471013D01*
X181100017Y-52482182D01*
X181026376Y-52504521D01*
X180911500Y-52515835D01*
X180796625Y-52504521D01*
X180722984Y-52482182D01*
X180686163Y-52471013D01*
X180584361Y-52416598D01*
X180495131Y-52343370D01*
X180421903Y-52254140D01*
X180367489Y-52152339D01*
X180367488Y-52152337D01*
X180333979Y-52041876D01*
X180325500Y-51955785D01*
X180325500Y-51168216D01*
X180333979Y-51082125D01*
X180367487Y-50971664D01*
X180367487Y-50971663D01*
X180421902Y-50869861D01*
X180495129Y-50780634D01*
X180495131Y-50780631D01*
X180584361Y-50707402D01*
X180596007Y-50701177D01*
X180686162Y-50652987D01*
X180722983Y-50641818D01*
X180796624Y-50619479D01*
X180911500Y-50608165D01*
X181026375Y-50619479D01*
X181026375Y-50619479D01*
G37*
G36*
X178449500Y-52513000D02*
G01*
X177277500Y-52513000D01*
X177277500Y-50611000D01*
X178449500Y-50611000D01*
X178449500Y-52513000D01*
X178449500Y-52513000D01*
G37*
G36*
X163967000Y-50186000D02*
G01*
X162065000Y-50186000D01*
X162065000Y-48984000D01*
X163967000Y-48984000D01*
X163967000Y-50186000D01*
X163967000Y-50186000D01*
G37*
G36*
X170167000Y-50186000D02*
G01*
X168265000Y-50186000D01*
X168265000Y-48984000D01*
X170167000Y-48984000D01*
X170167000Y-50186000D01*
X170167000Y-50186000D01*
G37*
G36*
X192739127Y-46427537D02*
G01*
X192908966Y-46479057D01*
X193065491Y-46562722D01*
X193101229Y-46592052D01*
X193202686Y-46675314D01*
X193285948Y-46776771D01*
X193315278Y-46812509D01*
X193398943Y-46969034D01*
X193450463Y-47138873D01*
X193463500Y-47271242D01*
X193463500Y-48359758D01*
X193450463Y-48492127D01*
X193398943Y-48661966D01*
X193315278Y-48818491D01*
X193285948Y-48854229D01*
X193202686Y-48955686D01*
X193065489Y-49068279D01*
X192908967Y-49151942D01*
X192908965Y-49151943D01*
X192739126Y-49203463D01*
X192562500Y-49220859D01*
X192385873Y-49203463D01*
X192216034Y-49151943D01*
X192059509Y-49068278D01*
X192023771Y-49038948D01*
X191922314Y-48955686D01*
X191809721Y-48818489D01*
X191726058Y-48661967D01*
X191726057Y-48661965D01*
X191674537Y-48492126D01*
X191661500Y-48359757D01*
X191661501Y-47271242D01*
X191674538Y-47138873D01*
X191726058Y-46969034D01*
X191809723Y-46812509D01*
X191839053Y-46776771D01*
X191922315Y-46675314D01*
X192023772Y-46592052D01*
X192059510Y-46562722D01*
X192216035Y-46479057D01*
X192385874Y-46427537D01*
X192562500Y-46410141D01*
X192739127Y-46427537D01*
X192739127Y-46427537D01*
G37*
G36*
X185439127Y-46427537D02*
G01*
X185608966Y-46479057D01*
X185765491Y-46562722D01*
X185801229Y-46592052D01*
X185902686Y-46675314D01*
X185985948Y-46776771D01*
X186015278Y-46812509D01*
X186098943Y-46969034D01*
X186150463Y-47138873D01*
X186163500Y-47271242D01*
X186163500Y-48359758D01*
X186150463Y-48492127D01*
X186098943Y-48661966D01*
X186015278Y-48818491D01*
X185985948Y-48854229D01*
X185902686Y-48955686D01*
X185765489Y-49068279D01*
X185608967Y-49151942D01*
X185608965Y-49151943D01*
X185439126Y-49203463D01*
X185262500Y-49220859D01*
X185085873Y-49203463D01*
X184916034Y-49151943D01*
X184759509Y-49068278D01*
X184723771Y-49038948D01*
X184622314Y-48955686D01*
X184509721Y-48818489D01*
X184426058Y-48661967D01*
X184426057Y-48661965D01*
X184374537Y-48492126D01*
X184361500Y-48359757D01*
X184361501Y-47271242D01*
X184374538Y-47138873D01*
X184426058Y-46969034D01*
X184509723Y-46812509D01*
X184539053Y-46776771D01*
X184622315Y-46675314D01*
X184723772Y-46592052D01*
X184759510Y-46562722D01*
X184916035Y-46479057D01*
X185085874Y-46427537D01*
X185262500Y-46410141D01*
X185439127Y-46427537D01*
X185439127Y-46427537D01*
G37*
M02*
