M48
; DRILL file {KiCad (5.1.2)-2} date 8/16/2019 1:43:56 PM
; FORMAT={-:-/ absolute / inch / decimal}
; #@! TF.CreationDate,2019-08-16T13:43:56-05:00
; #@! TF.GenerationSoftware,Kicad,Pcbnew,(5.1.2)-2
; #@! TF.FileFunction,Plated,1,2,PTH
FMAT,2
INCH
T1C0.0157
T2C0.0276
T3C0.0354
T4C0.0579
%
G90
G05
T1
X5.725Y-2.575
X5.725Y-3.15
X6.1562Y-2.5312
X6.74Y-2.37
X6.75Y-2.9375
X6.7596Y-2.2504
X6.7812Y-2.9688
X6.8125Y-2.9375
X6.9375Y-2.2181
X6.9688Y-2.1875
X6.995Y-3.0625
X7.0Y-2.2181
X7.0Y-3.6562
X7.0313Y-4.4063
X7.0625Y-2.2492
X7.0625Y-5.1563
X7.0938Y-5.9062
X7.1565Y-2.3736
X7.205Y-2.1681
X7.394Y-2.4284
X7.425Y-2.33
X7.4688Y-2.9375
X7.48Y-2.33
X7.6563Y-2.3125
T3
X7.0025Y-2.03
X7.0625Y-2.03
X7.1225Y-2.03
X7.1825Y-2.03
T4
X4.975Y-4.1501
X5.225Y-4.05
X4.975Y-4.9001
X5.225Y-4.8
X7.225Y-3.4
X7.475Y-3.3
X5.725Y-4.1501
X5.975Y-4.05
X5.725Y-2.275
X5.975Y-2.1751
X7.225Y-4.9001
X7.475Y-4.8
X6.475Y-4.1501
X6.725Y-4.05
X6.475Y-3.4
X6.725Y-3.3
X5.725Y-4.9001
X5.975Y-4.8
X4.975Y-3.4
X5.225Y-3.3
X6.475Y-4.9001
X6.725Y-4.8
X6.475Y-5.6501
X6.725Y-5.55
X7.225Y-4.1501
X7.475Y-4.05
X5.725Y-3.4
X5.975Y-3.3
X5.725Y-5.6501
X5.975Y-5.55
X7.225Y-5.6501
X7.475Y-5.55
X4.975Y-2.275
X5.225Y-2.1751
X4.975Y-5.6501
X5.225Y-5.55
T2
G00X7.2938Y-1.8589
M15
G01X7.2938Y-1.9061
M16
G05
G00X7.2938Y-2.036
M15
G01X7.2938Y-2.0833
M16
G05
G00X7.5812Y-1.8589
M15
G01X7.5812Y-1.9061
M16
G05
G00X7.5812Y-2.036
M15
G01X7.5812Y-2.0833
M16
G05
T0
M30
