M48
; DRILL file {KiCad (5.1.2)-2} date 9/1/2019 2:46:51 PM
; FORMAT={-:-/ absolute / inch / decimal}
; #@! TF.CreationDate,2019-09-01T14:46:51-05:00
; #@! TF.GenerationSoftware,Kicad,Pcbnew,(5.1.2)-2
; #@! TF.FileFunction,Plated,1,2,PTH
FMAT,2
INCH
T1C0.0157
T2C0.0276
T3C0.0354
T4C0.0579
%
G90
G05
T1
X4.975Y-2.775
X5.725Y-2.7474
X6.125Y-2.75
X6.1562Y-2.7188
X6.1562Y-2.782
X6.25Y-2.7
X6.25Y-3.625
X6.2812Y-4.375
X6.3125Y-5.125
X6.3438Y-5.875
X6.47Y-3.12
X6.79Y-3.12
X6.92Y-2.53
X6.92Y-2.8
X6.9688Y-2.625
X6.9688Y-2.6875
X7.0Y-2.6562
X7.01Y-3.01
X7.0625Y-2.875
X7.0625Y-2.94
X7.0938Y-2.9062
T3
X7.31Y-2.625
X7.31Y-2.685
X7.31Y-2.745
X7.31Y-2.805
T4
X6.475Y-3.4
X6.725Y-3.3
X4.975Y-4.9001
X5.225Y-4.8
X7.225Y-5.6501
X7.475Y-5.55
X6.475Y-4.9001
X6.725Y-4.8
X4.975Y-3.4
X5.225Y-3.3
X5.725Y-4.1501
X5.975Y-4.05
X7.225Y-4.1501
X7.475Y-4.05
X6.475Y-4.1501
X6.725Y-4.05
X5.725Y-5.6501
X5.975Y-5.55
X6.475Y-5.6501
X6.725Y-5.55
X4.975Y-2.4937
X5.225Y-2.3937
X5.725Y-2.4937
X5.975Y-2.3937
X4.975Y-4.1501
X5.225Y-4.05
X5.725Y-4.9001
X5.975Y-4.8
X4.975Y-5.6501
X5.225Y-5.55
X7.225Y-4.9001
X7.475Y-4.8
X5.725Y-3.4
X5.975Y-3.3
X7.225Y-3.4
X7.475Y-3.3
T2
G00X7.3363Y-2.2714
M15
G01X7.3363Y-2.3186
M16
G05
G00X7.3363Y-2.4485
M15
G01X7.3363Y-2.4958
M16
G05
G00X7.6237Y-2.2714
M15
G01X7.6237Y-2.3186
M16
G05
G00X7.6237Y-2.4485
M15
G01X7.6237Y-2.4958
M16
G05
T0
M30
